<?xml version="1.0" encoding="utf-8"?>
<!-- Generator: Adobe Illustrator 24.1.2, SVG Export Plug-In . SVG Version: 6.00 Build 0)  -->
<svg version="1.0" id="Layer_1" xmlns="http://www.w3.org/2000/svg" xmlns:xlink="http://www.w3.org/1999/xlink" x="0px" y="0px"
	 viewBox="0 0 250 250" style="enable-background:new 0 0 250 250;" xml:space="preserve">
<style type="text/css">
	.st0{fill:#D53A27;}
	.st1{fill:#F6C14B;}
</style>
<g>
	<path class="st0" d="M172,20.7c-3-1-3-2.1-8.9-2.7c-5.1-0.5-10.4-0.7-15.5,0c-19.4,2.7-30.7,20.2-44,33
		c-28,27.1-55.9,54.2-83.9,81.3c-8.4,8.1-14.4,17.5-15.4,29.5c-0.2,4.1,0.4,17.1,0.9,19c10,35.2,51.2,46.9,78.4,22.2
		c7-6.4,13.6-13.2,20.4-19.8c28.5-27.9,57.3-55.5,85.5-83.7C214.5,74.5,204.9,32.2,172,20.7z M82.6,79
		c15.4-14.8,30.3-30.1,46.1-44.5c13.4-12.2,29.3-14.2,45.6-6.6c15.7,7.2,23.2,20.4,23.8,35c0,14.1-3.7,24-11.7,32
		c-15.1,15.1-30.5,29.8-45.7,44.8c-2.1,2.1-3.3,2.3-5.5,0c-17.5-18.4-35.2-36.8-52.9-55C79.8,82.1,80.6,80.9,82.6,79z"/>
	<path class="st0" d="M246.8,173c0-5.9-2.6-9.4-8.5-8.7c-6.4,0.8-7.7-2.1-7-7.6c0.2-1.7,0-3.5,0-5.2c-0.1-13.6-8.9-22.4-23.6-23.9
		c-14.1-1.4-25.4,6.5-27.5,19.5c-0.6,3.4-0.7,6.9-0.3,10.3c0.6,5.3-1.1,7.1-6.6,6.8c-7.8-0.4-9.3,1.5-9.3,9.6
		c-0.1,16.6,0.1,33.3-0.1,49.9c0,4,1,7.2,4.3,9.4c24.9,0,49.9,0,74.8,0c2.1-2.7,4-5.2,3.9-9.1C246.7,207.2,246.8,190.1,246.8,173z
		 M185.1,158.1c0.2-1.3,0.1-2.6,0.1-3.9c0.5-17.7,14.8-26.3,30.8-18.7c8.8,4.2,9.9,11.7,10.2,20.4c0.2,6.8-1.7,9.2-8.4,8.3
		c-4.2-0.5-8.6-0.1-12.8-0.1c-4.7,0-9.5-0.4-14.1,0.1C185.7,164.9,184.4,162.8,185.1,158.1z M235.7,228c-10.3-0.2-20.6-0.1-30.9-0.1
		c-10.1,0-20.2-0.1-30.2,0.1c-3.8,0.1-5.3-0.9-5.2-5c0.2-16.2,0.2-32.4,0-48.5c0-3.5,0.8-4.9,4.6-4.8c20.8,0.2,41.6,0.2,62.4,0
		c4.1,0,5.1,1.4,5,5.2c-0.2,16-0.2,31.9,0,47.9C241.5,227.2,239.7,228.1,235.7,228z"/>
	<path class="st0" d="M203.4,185.1c-3.4,1.2-4.9,3.9-5.4,7.5c0.2,0.8,0.1,2.1,0.8,2.8c3.4,3.8,5.1,8,4.4,13.2
		c-0.2,1.8,1.4,1.7,2.7,1.8c1.4,0,2.6-0.3,2.5-2.1c-0.4-4.6,0.5-8.5,4-12.1c2.4-2.5,1.4-6.1-0.9-8.8
		C209.3,184.9,206.6,184,203.4,185.1z"/>
</g>
</svg>
