<?xml version="1.0" encoding="utf-8"?>
<!-- Generator: Adobe Illustrator 24.1.2, SVG Export Plug-In . SVG Version: 6.00 Build 0)  -->
<svg version="1.1" id="Layer_1" xmlns="http://www.w3.org/2000/svg" xmlns:xlink="http://www.w3.org/1999/xlink" x="0px" y="0px"
	 viewBox="0 0 24 24" style="enable-background:new 0 0 24 24;" xml:space="preserve">
<style type="text/css">
	.st0{fill:#010101;}
</style>
<g>
	<path class="st0" d="M16.5,15.6L13.5,11V6.6h0.9V5.7H9.2v0.9h0.9V11L7,15.6c-0.2,0.3-0.3,0.6-0.3,0.9c0,0.3,0,0.7,0.2,1
		c0.1,0.3,0.4,0.6,0.6,0.7c0.3,0.2,0.6,0.3,0.9,0.3h6.8c0.3,0,0.6-0.1,0.9-0.3c0.3-0.2,0.5-0.4,0.6-0.7c0.1-0.3,0.2-0.6,0.2-1
		C16.8,16.2,16.7,15.9,16.5,15.6L16.5,15.6z M10.9,11.3V6.6h1.7v4.8l1.1,1.7h-4L10.9,11.3z M15.1,17.6H8.4c-0.2,0-0.3,0-0.4-0.1
		c-0.1-0.1-0.2-0.2-0.3-0.4c-0.1-0.2-0.1-0.3-0.1-0.5s0.1-0.3,0.2-0.5l1.5-2.2h5.2l1.5,2.2c0.1,0.1,0.1,0.3,0.2,0.5s0,0.3-0.1,0.5
		c-0.1,0.2-0.2,0.3-0.3,0.4C15.5,17.6,15.3,17.6,15.1,17.6z"/>
</g>
</svg>
