<svg id="Layer_1" data-name="Layer 1" xmlns="http://www.w3.org/2000/svg" viewBox="0 0 24 24"><defs><style>.cls-1{fill:#010101;}</style></defs><path class="cls-1" d="M18.26,13.73l-1-.85a5.14,5.14,0,0,0,.07-.88,5.22,5.22,0,0,0-.07-.88l1-.85a.49.49,0,0,0,.16-.24.57.57,0,0,0,0-.29l0,0a6.64,6.64,0,0,0-1.21-2.09l0,0a.51.51,0,0,0-.25-.16.57.57,0,0,0-.29,0l-1.23.44A5.3,5.3,0,0,0,13.88,7l-.24-1.29a.51.51,0,0,0-.14-.26.5.5,0,0,0-.25-.13h0a7,7,0,0,0-2.42,0h0a.5.5,0,0,0-.25.13.51.51,0,0,0-.14.26L10.12,7a5.49,5.49,0,0,0-1.5.87L7.38,7.43a.57.57,0,0,0-.29,0,.51.51,0,0,0-.25.16l0,0A6.64,6.64,0,0,0,5.61,9.7l0,0a.49.49,0,0,0,.15.53l1,.86a5.44,5.44,0,0,0,0,1.74l-1,.85a.51.51,0,0,0-.16.25.57.57,0,0,0,0,.29l0,0a6.64,6.64,0,0,0,1.21,2.09l0,0a.51.51,0,0,0,.25.16.57.57,0,0,0,.29,0l1.24-.44a5.49,5.49,0,0,0,1.5.87l.24,1.29a.51.51,0,0,0,.14.26.5.5,0,0,0,.25.13h0a7,7,0,0,0,2.42,0h0a.5.5,0,0,0,.25-.13.51.51,0,0,0,.14-.26L13.88,17a5.17,5.17,0,0,0,1.51-.87l1.23.44a.57.57,0,0,0,.29,0,.51.51,0,0,0,.25-.16l0,0a6.64,6.64,0,0,0,1.21-2.09l0,0A.49.49,0,0,0,18.26,13.73ZM16.19,11.3a4.14,4.14,0,0,1,.06.7,4,4,0,0,1-.06.7l-.1.61,1.14,1a5.45,5.45,0,0,1-.65,1.12l-1.41-.5-.47.39a4.17,4.17,0,0,1-1.21.69l-.58.22-.27,1.47a5.57,5.57,0,0,1-1.29,0l-.27-1.47L10.51,16a4.39,4.39,0,0,1-1.2-.7l-.47-.39-1.42.51a6.28,6.28,0,0,1-.65-1.12l1.15-1-.1-.61A3.94,3.94,0,0,1,7.77,12a4,4,0,0,1,.05-.69l.1-.6-1.15-1a6,6,0,0,1,.65-1.12l1.42.5.47-.39A4.12,4.12,0,0,1,10.51,8l.57-.22.28-1.47a5.48,5.48,0,0,1,1.28,0l.28,1.47.57.21a4.3,4.3,0,0,1,1.21.7l.47.39,1.41-.5a5.45,5.45,0,0,1,.65,1.12l-1.13,1ZM12,9.18a2.67,2.67,0,1,0,2.67,2.67A2.68,2.68,0,0,0,12,9.18Zm1.2,3.87a1.49,1.49,0,0,1-.55.37,1.61,1.61,0,0,1-.65.13,1.7,1.7,0,0,1-1.2-.5,1.62,1.62,0,0,1-.37-.55,1.79,1.79,0,0,1-.13-.65,1.71,1.71,0,0,1,1.7-1.7,1.68,1.68,0,0,1,1.2.5,1.57,1.57,0,0,1,.37.55,1.64,1.64,0,0,1,.13.65A1.7,1.7,0,0,1,13.2,13.05Z"/></svg>