<svg id="Layer_1" data-name="Layer 1" xmlns="http://www.w3.org/2000/svg" xmlns:xlink="http://www.w3.org/1999/xlink" viewBox="0 0 24 24"><defs><style>.cls-1{fill:none;}.cls-2{clip-path:url(#clip-path);}.cls-3{fill:#010101;}</style><clipPath id="clip-path"><rect class="cls-1" x="5.61" y="5.71" width="12.79" height="12.79"/></clipPath></defs><g class="cls-2"><path class="cls-3" d="M17.87,10.39A1.6,1.6,0,0,0,16.72,10a1.64,1.64,0,0,0-1.12.52l-1.71,1.89a1.66,1.66,0,0,0-1.43-.81H7.2a1.59,1.59,0,0,0-1.59,1.6V16.9A1.59,1.59,0,0,0,7.2,18.49h5.57L18,12.64A1.61,1.61,0,0,0,17.87,10.39Zm-.68,1.54-4.9,5.5H7.2a.53.53,0,0,1-.53-.53V13.17a.54.54,0,0,1,.53-.54h5.26a.62.62,0,0,1,.61.61.61.61,0,0,1-.53.6l-2.75.4.15,1,2.75-.39A1.68,1.68,0,0,0,14,13.8l2.36-2.59a.55.55,0,0,1,.38-.18.57.57,0,0,1,.38.14A.54.54,0,0,1,17.19,11.93ZM13.6,7a1.33,1.33,0,0,0-1.33-1.33H8.54A1.33,1.33,0,0,0,7.2,7V10.5h6.4Zm-1.07,2.4H8.27V7a.27.27,0,0,1,.27-.27h3.73a.27.27,0,0,1,.26.27ZM9.34,7.3h2.13V8.37H9.34Z"/></g></svg>