<svg id="Layer_1" data-name="Layer 1" xmlns="http://www.w3.org/2000/svg" viewBox="0 0 24 24"><defs><style>.cls-1{fill:#010101;}</style></defs><path class="cls-1" d="M11.11,15.26h3.56v.89H11.11Zm-1.78,0h.89v.89H9.33ZM11.11,13h3.56v.89H11.11ZM9.33,13h.89v.89H9.33Zm1.78-2.22h3.56v.88H11.11Zm-1.78,0h.89v.88H9.33Z"/><path class="cls-1" d="M16,7.26H14.67V6.81a.89.89,0,0,0-.89-.89H10.22a.89.89,0,0,0-.89.89v.45H8a.89.89,0,0,0-.89.89v9.33a.86.86,0,0,0,.26.63.88.88,0,0,0,.63.26h8a.88.88,0,0,0,.63-.26.86.86,0,0,0,.26-.63V8.15A.89.89,0,0,0,16,7.26Zm-5.78-.45h3.56V8.59H10.22ZM16,17.48H8V8.15H9.33V9.48h5.34V8.15H16Z"/></svg>