<svg width="56" height="57" viewBox="0 0 56 57" fill="none" xmlns="http://www.w3.org/2000/svg">
<g filter="url(#filter0_d_1097_1883)">
<rect x="9" y="9" width="36" height="36.1525" rx="4" fill="#FAFDFF"/>
<rect x="9.2" y="9.2" width="35.6" height="35.7525" rx="3.8" stroke="#00659E" stroke-width="0.4"/>
</g>
<g clip-path="url(#clip0_1097_1883)">
<path d="M34.5408 29.8871C34.5437 29.8947 34.547 29.9022 34.5507 29.9094C34.7964 30.0798 34.9064 30.0735 35.1214 29.8658C35.8091 29.2022 36.4929 28.5333 37.1836 27.8751C38.2022 26.9048 38.2736 25.6043 37.3599 24.5158C37.0092 24.0983 36.6594 23.6797 36.3046 23.2665C36.2664 23.2344 36.2405 23.1884 36.2317 23.1372C36.223 23.086 36.232 23.0331 36.257 22.9885C36.7109 21.9287 36.4324 20.8498 35.5366 20.1777C34.9946 19.7709 34.4466 19.3693 33.9046 18.9678C33.8611 18.9443 33.8243 18.9088 33.7976 18.8651C33.771 18.8213 33.7556 18.7708 33.753 18.7186C33.6915 17.7429 33.2327 17.0666 32.3885 16.7023C31.0732 16.1343 29.7576 15.5712 28.4416 15.0131C27.9829 14.8086 27.4714 14.7863 26.9988 14.9503C26.9463 14.9694 26.8908 15.0259 26.8304 14.9588C26.5331 14.6339 26.1585 14.487 25.7711 14.356H20.6866C20.6767 14.3677 20.6688 14.3868 20.6569 14.39C19.5332 14.7309 19.0001 15.4807 19.0001 16.7332V35.0527C18.9985 35.3918 19.0216 35.7305 19.0694 36.0656C19.3667 38.0893 21.1643 39.7519 23.0658 39.7934C24.2078 39.8309 25.3172 39.3818 26.1526 38.5441C28.729 36.0518 31.3054 33.5609 33.8818 31.0714C34.0711 30.8893 34.1196 30.6997 33.9967 30.4611L33.9858 30.4537C33.7094 30.279 33.6212 30.2865 33.3576 30.5698C33.2149 30.7253 33.1336 30.7477 32.9929 30.5591C32.7472 30.2311 32.4727 29.9275 32.2002 29.6197C32.1813 29.6043 32.1658 29.5847 32.1547 29.5622C32.1435 29.5397 32.1371 29.5149 32.1358 29.4895C32.1344 29.4641 32.1383 29.4386 32.147 29.415C32.1557 29.3913 32.1692 29.3699 32.1863 29.3524C32.6811 28.5962 33.1706 27.8368 33.6549 27.0742C33.7272 26.9591 33.7629 26.9048 33.8778 27.0454C34.292 27.5567 34.7152 28.0594 35.1472 28.5536C35.2641 28.6878 35.2394 28.7581 35.1224 28.8593C34.9609 28.9998 34.8113 29.1553 34.6577 29.3055C34.4387 29.5185 34.4189 29.608 34.5417 29.8849M33.5211 19.8049C33.5766 19.6505 33.6202 19.6654 33.7282 19.7453C34.2108 20.1117 34.7023 20.4642 35.1839 20.8317C35.373 20.9669 35.526 21.1527 35.628 21.3709C35.73 21.589 35.7774 21.8319 35.7655 22.0757C35.7661 22.3596 35.6805 22.6359 35.5218 22.8628C35.2503 23.2888 34.9688 23.7149 34.6983 24.1409C34.628 24.2528 34.5834 24.2996 34.4545 24.2016C33.8362 23.7277 33.2099 23.2654 32.5827 22.8053C32.4836 22.7329 32.4529 22.6786 32.5024 22.5475C32.8486 21.6394 33.1878 20.7259 33.5201 19.8071L33.5211 19.8049ZM36.265 22.8C36.2312 22.8868 36.2131 22.9796 36.2115 23.0737C36.2131 22.9796 36.2312 22.8868 36.265 22.8C36.3546 22.5581 36.4058 22.3017 36.4166 22.0416C36.4057 22.3025 36.3542 22.5596 36.264 22.8021L36.265 22.8ZM19.7165 16.516C19.7165 16.3302 19.7506 16.1462 19.8169 15.9747C19.8832 15.8031 19.9804 15.6473 20.1028 15.5162C20.2253 15.3851 20.3706 15.2812 20.5305 15.2106C20.6903 15.14 20.8616 15.104 21.0344 15.1047C22.4964 15.0969 23.9583 15.0969 25.4203 15.1047C25.5936 15.102 25.7657 15.1363 25.9266 15.2056C26.0875 15.2749 26.2341 15.3778 26.3577 15.5083C26.4814 15.6389 26.5798 15.7945 26.6471 15.9662C26.7145 16.1379 26.7495 16.3222 26.7501 16.5085C26.763 17.1039 26.7501 17.7003 26.758 18.2957C26.758 18.4597 26.7045 18.481 26.5717 18.481C25.456 18.481 24.3402 18.481 23.2244 18.481C22.1086 18.481 21.0235 18.481 19.9226 18.481C19.7542 18.481 19.7007 18.4448 19.7056 18.2531C19.7185 17.6758 19.7056 17.0964 19.7126 16.5181L19.7165 16.516ZM22.9212 23.439C24.1222 23.439 25.3242 23.4454 26.5252 23.439C26.7234 23.439 26.764 23.4987 26.762 23.7C26.7521 24.6855 26.7521 25.6707 26.762 26.6556C26.762 26.8335 26.7293 26.8942 26.5489 26.8942C24.3392 26.8871 22.1291 26.8871 19.9187 26.8942C19.7611 26.8942 19.7106 26.8537 19.7116 26.6812C19.7195 25.6714 19.7195 24.6617 19.7116 23.652C19.7116 23.4891 19.7522 23.439 19.9038 23.4454C20.3418 23.4561 20.7818 23.4454 21.2197 23.4529C21.4685 23.4593 21.6369 23.3677 21.7152 23.1057C21.6508 22.7744 21.5715 22.6999 21.2683 22.6977C20.8214 22.6977 20.3765 22.6871 19.9276 22.6977C19.7472 22.7041 19.7135 22.6391 19.7145 22.4591C19.7225 21.4494 19.7225 20.4397 19.7145 19.43C19.7145 19.2713 19.7492 19.2223 19.9028 19.2223C22.1284 19.2287 24.354 19.2287 26.5797 19.2223C26.7164 19.2223 26.765 19.25 26.764 19.4109C26.757 20.4365 26.7551 21.4633 26.764 22.49C26.764 22.6881 26.6827 22.6945 26.542 22.6945C25.34 22.6945 24.139 22.6945 22.938 22.6945C22.7141 22.6945 22.5416 22.7499 22.4852 23.0141C22.506 23.3272 22.617 23.4422 22.9172 23.4422L22.9212 23.439ZM19.7116 27.8911C19.7116 27.7185 19.7363 27.6493 19.9206 27.6493C22.1311 27.6564 24.3418 27.6564 26.5529 27.6493C26.7134 27.6493 26.762 27.693 26.76 27.8687C26.7531 28.871 26.7511 29.8722 26.76 30.8744C26.76 31.0714 26.6986 31.1013 26.5361 31.1002C25.4351 31.0927 24.3332 31.1002 23.2323 31.1002C22.1314 31.1002 21.0295 31.1002 19.9276 31.1055C19.7562 31.1055 19.7076 31.0619 19.7096 30.8733C19.7162 29.8814 19.7155 28.8884 19.7076 27.8943L19.7116 27.8911ZM26.7471 35.482C26.6916 37.1531 25.5204 38.6027 24.0003 38.9467C23.5194 39.0614 23.0216 39.0667 22.5387 38.9621C22.0559 38.8576 21.5987 38.6456 21.1967 38.3397C20.7947 38.0338 20.4567 37.6408 20.2045 37.1861C19.9523 36.7313 19.7915 36.2248 19.7324 35.6992C19.7119 35.4435 19.7062 35.1867 19.7155 34.9303C19.7155 33.9717 19.7155 33.0131 19.7155 32.0545C19.7155 31.8905 19.7552 31.8415 19.9068 31.8479C21.0235 31.8543 22.1393 31.8479 23.2561 31.8479C24.3461 31.8479 25.4421 31.8479 26.5351 31.8479C26.7035 31.8479 26.7759 31.8724 26.7729 32.0843C26.7491 33.2176 26.7788 34.353 26.7412 35.4852L26.7471 35.482ZM27.4626 17.5065C27.4408 17.0655 27.5131 16.533 27.3932 16.0154C27.2941 15.5893 27.2941 15.5893 27.7163 15.6032C27.8696 15.6095 28.0207 15.6456 28.1622 15.7097C29.492 16.2777 30.8208 16.8479 32.1487 17.4202C32.9305 17.7589 33.2387 18.5322 32.9295 19.3821C32.7452 19.8955 32.547 20.4046 32.3637 20.919C32.3132 21.0596 32.2646 21.1022 32.1209 21.0373C30.6385 20.3939 29.1521 19.7574 27.6618 19.1275C27.5101 19.0636 27.4497 18.9891 27.4556 18.808C27.4725 18.4022 27.4626 17.9964 27.4626 17.5065ZM28.3604 23.9513C28.1097 23.8448 27.8649 23.7383 27.6122 23.6371C27.5648 23.6252 27.5232 23.5949 27.4952 23.5521C27.4673 23.5093 27.4549 23.4569 27.4606 23.4049C27.4652 22.288 27.4652 21.1704 27.4606 20.052C27.4606 19.8902 27.4864 19.8518 27.64 19.9178C29.0537 20.5306 30.4694 21.1384 31.8871 21.7413C31.9961 21.7881 32.0248 21.8265 31.9762 21.9543C31.6109 22.9235 31.2512 23.8952 30.8971 24.8694C30.8525 24.9909 30.798 25.0068 30.691 24.9546C30.4383 24.8364 30.1738 24.7416 29.923 24.6245C29.71 24.518 29.5396 24.552 29.3919 24.7448C29.3275 25.0984 29.3751 25.1964 29.6892 25.3327C29.9379 25.4393 30.1847 25.5458 30.4383 25.6523C30.5374 25.6938 30.583 25.7354 30.5374 25.8653C30.1714 26.8338 29.8107 27.8045 29.4553 28.7772C29.4048 28.9157 29.3562 28.9221 29.2363 28.871C28.7052 28.6345 28.1711 28.4066 27.637 28.1797C27.5379 28.1382 27.4665 28.1052 27.4665 27.9614C27.4735 26.8026 27.4665 25.6438 27.4725 24.4839C27.4761 24.4551 27.4828 24.4269 27.4923 24.3997L28.0869 24.65C28.397 24.7789 28.509 24.7384 28.6745 24.437C28.6923 24.1803 28.5714 24.0344 28.3604 23.9492V23.9513ZM31.9277 28.1542C32.0387 28.233 32.0347 28.2948 31.9624 28.4055C31.4372 29.2093 30.9173 30.0163 30.4027 30.8265C30.3293 30.9415 30.2788 30.9649 30.1737 30.8797C30.0221 30.754 29.8626 30.639 29.7021 30.5261C29.6817 30.5154 29.6638 30.5002 29.6493 30.4815C29.6348 30.4628 29.6242 30.441 29.6181 30.4176C29.612 30.3941 29.6106 30.3696 29.614 30.3455C29.6174 30.3214 29.6254 30.2984 29.6377 30.278C29.9934 29.3332 30.3402 28.3853 30.693 27.4395C30.7098 27.3948 30.7049 27.3138 30.802 27.3245C30.8228 27.3383 30.8545 27.3596 30.8862 27.383C31.2311 27.6387 31.5759 27.8996 31.9257 28.1574L31.9277 28.1542ZM27.4685 33.9557V28.9498C27.6459 28.9604 27.7876 29.0563 27.9392 29.1234C28.2831 29.2629 28.622 29.4174 28.9648 29.5601C29.0738 29.6048 29.1254 29.641 29.0699 29.7891C28.5526 31.1641 28.0443 32.5423 27.5319 33.9184C27.527 33.9323 27.53 33.9674 27.4705 33.9536L27.4685 33.9557ZM28.2038 34.1421L28.6586 32.9151C28.8568 32.3826 29.055 31.85 29.2472 31.3175C29.2908 31.1971 29.3176 31.1481 29.4454 31.2461C29.9092 31.5891 29.9141 31.5816 29.5931 32.0769L28.2454 34.1655L28.2038 34.1421ZM29.7041 34.0952C29.2512 34.5372 28.7934 34.9739 28.3386 35.4138L28.3118 35.3808C28.7211 34.7417 29.1333 34.1112 29.5386 33.4721C29.606 33.3656 29.6377 33.371 29.7199 33.4604C30.0122 33.7874 30.0182 33.7874 29.706 34.0931L29.7041 34.0952ZM32.5312 31.1343L32.656 31.2898C32.6104 31.3099 32.5668 31.3353 32.5262 31.3654C31.89 31.9789 31.2558 32.5935 30.6236 33.2091C30.5523 33.2783 30.5136 33.2868 30.4383 33.2091C30.0013 32.7553 29.9984 32.7575 30.3392 32.2281C30.7505 31.5891 31.1627 30.9553 31.569 30.311C31.6532 30.1778 31.7047 30.1224 31.8256 30.279C32.0535 30.573 32.2973 30.8488 32.5331 31.1322L32.5312 31.1343ZM34.1087 25.0633C33.5796 25.8727 33.0583 26.6886 32.5351 27.5023C32.5054 27.5481 32.4886 27.6088 32.4172 27.6206L32.329 27.5535C31.9326 27.2627 31.5482 26.9687 31.1538 26.6833C31.1298 26.6726 31.1083 26.6564 31.0908 26.6358C31.0733 26.6152 31.0603 26.5908 31.0525 26.5641C31.0448 26.5375 31.0425 26.5094 31.046 26.4818C31.0495 26.4542 31.0585 26.4277 31.0725 26.4042C31.4233 25.4769 31.7668 24.5456 32.1031 23.6105C32.1625 23.4486 32.2121 23.4412 32.3389 23.5381C32.909 23.9726 33.4828 24.3987 34.0602 24.8162C34.1652 24.8929 34.191 24.9355 34.1107 25.059L34.1087 25.0633ZM36.8833 27.1445C36.5632 27.464 36.2303 27.7739 35.9102 28.0956C35.8111 28.1925 35.7646 28.1882 35.6764 28.0807C35.2139 27.5176 34.7442 26.9595 34.2673 26.4064C34.1771 26.2998 34.1949 26.2391 34.2603 26.138C34.7389 25.4009 35.2166 24.6628 35.6873 23.9194C35.7655 23.7948 35.8052 23.7894 35.8983 23.9034C36.2432 24.3294 36.5999 24.7374 36.9477 25.157C37.1713 25.4109 37.293 25.7491 37.2866 26.0985C37.2933 26.2932 37.2607 26.487 37.1911 26.6669C37.1215 26.8467 37.0165 27.0081 36.8833 27.1402V27.1445Z" fill="#00659E"/>
<path d="M34.5599 29.3343C34.7054 29.1632 34.8638 29.0054 35.0336 28.8625C35.1594 28.7687 35.1565 28.6761 35.0683 28.5536C34.9226 28.3491 34.7403 28.1819 34.5847 27.9869C34.3588 27.7058 34.1289 27.4267 33.8911 27.1583C33.7979 27.0518 33.7444 27.0518 33.6631 27.1743C33.2007 27.8978 32.736 28.6193 32.2689 29.3385C32.2511 29.36 32.2376 29.3851 32.2291 29.4124C32.2205 29.4397 32.2172 29.4685 32.2194 29.4971C32.2215 29.5258 32.229 29.5537 32.2414 29.5792C32.2539 29.6046 32.271 29.6271 32.2917 29.6453C32.5662 29.9361 32.811 30.2556 33.0706 30.5613C33.1489 30.6529 33.2123 30.6358 33.2856 30.5613C33.3495 30.4894 33.4199 30.4244 33.4957 30.3674C33.5328 30.3378 33.575 30.3164 33.6199 30.3046C33.6648 30.2927 33.7115 30.2906 33.7572 30.2983C33.8028 30.306 33.8466 30.3235 33.8859 30.3496C33.9253 30.3757 33.9593 30.41 33.9862 30.4505C34.1204 30.2139 34.311 30.0202 34.5381 29.8892C34.3756 29.7071 34.3756 29.5271 34.5599 29.3343Z" fill="#A0DCF3"/>
<path d="M33.9824 30.4524L33.9913 30.4631L34.5502 29.9092L34.5344 29.8911C34.3072 30.0221 34.1167 30.2159 33.9824 30.4524Z" fill="#A0DCF3"/>
<path d="M33.4917 30.3695C33.4159 30.4265 33.3455 30.4915 33.2816 30.5634C33.2083 30.6358 33.1448 30.6528 33.0666 30.5634C32.8069 30.2577 32.5622 29.9382 32.2877 29.6474C32.267 29.6292 32.2499 29.6067 32.2374 29.5813C32.225 29.5558 32.2175 29.5279 32.2154 29.4993C32.2132 29.4706 32.2165 29.4418 32.225 29.4145C32.2336 29.3873 32.2471 29.3621 32.2649 29.3407C32.7313 28.6221 33.196 27.9007 33.6591 27.1764C33.7404 27.0497 33.7939 27.056 33.8871 27.1604C34.1278 27.4288 34.3577 27.7079 34.5807 27.9891C34.7363 28.184 34.9186 28.3512 35.0643 28.5557C35.1525 28.6782 35.1554 28.7687 35.0296 28.8646C34.8598 29.0075 34.7014 29.1653 34.5559 29.3364C34.3716 29.5292 34.3716 29.7092 34.5312 29.8934H34.5371C34.4142 29.6165 34.438 29.527 34.653 29.314C34.8066 29.1639 34.9563 29.0083 35.1178 28.8678C35.2347 28.7612 35.2595 28.6963 35.1426 28.5621C34.7112 28.065 34.288 27.5623 33.8732 27.0539C33.7582 26.9133 33.7226 26.9676 33.6502 27.0827C33.1647 27.8446 32.6752 28.604 32.1817 29.3609C32.1645 29.3784 32.1511 29.3998 32.1424 29.4235C32.1336 29.4471 32.1298 29.4726 32.1311 29.498C32.1324 29.5234 32.1389 29.5482 32.15 29.5707C32.1611 29.5932 32.1767 29.6128 32.1955 29.6282C32.4641 29.936 32.7386 30.2396 32.9883 30.5676C33.129 30.7562 33.2103 30.7338 33.3529 30.5783C33.6165 30.295 33.7047 30.2875 33.9812 30.4622C33.955 30.4211 33.9215 30.3861 33.8826 30.3592C33.8437 30.3322 33.8001 30.3139 33.7546 30.3053C33.709 30.2966 33.6622 30.2979 33.6171 30.3089C33.5719 30.3199 33.5293 30.3406 33.4917 30.3695Z" fill="#A0DCF3"/>
<path d="M34.5416 29.887H34.5352L34.5524 29.9063C34.5485 29.9001 34.5449 29.8936 34.5416 29.887Z" fill="#A0DCF3"/>
<path d="M33.9805 30.4558L33.9914 30.4631L33.9825 30.4526L33.9805 30.4558Z" fill="#A0DCF3"/>
<path d="M19.9202 22.6955C20.3671 22.6806 20.8121 22.6892 21.261 22.6955C21.5642 22.6955 21.6434 22.7722 21.7079 23.1035C21.8922 23.1035 22.0765 23.1035 22.2608 23.1035C22.3021 23.1108 22.3444 23.1056 22.3831 23.0885C22.4218 23.0714 22.4553 23.043 22.4798 23.0066C22.5363 22.7456 22.7087 22.687 22.9326 22.687C24.1336 22.687 25.3346 22.687 26.5366 22.687C26.6773 22.687 26.7606 22.6806 26.7586 22.4825C26.7487 21.4558 26.7507 20.429 26.7586 19.4034C26.7586 19.2425 26.711 19.2148 26.5743 19.2148C24.3487 19.2191 22.1231 19.2191 19.8974 19.2148C19.7438 19.2148 19.7082 19.2638 19.7092 19.4225C19.7151 20.4322 19.7151 21.4419 19.7092 22.4516C19.7062 22.637 19.7399 22.7019 19.9202 22.6955Z" fill="#F59596"/>
<path d="M22.3717 23.1513C22.1478 23.1748 21.9208 23.2365 21.7068 23.1034C21.6325 23.3654 21.464 23.457 21.2113 23.4506C20.7733 23.4389 20.3334 23.4506 19.8954 23.4432C19.7438 23.4432 19.7022 23.4868 19.7031 23.6498C19.7091 24.6595 19.7091 25.6692 19.7031 26.6789C19.7031 26.8557 19.7527 26.8919 19.9102 26.8919C22.1213 26.8862 24.3314 26.8862 26.5405 26.8919C26.7209 26.8919 26.7546 26.8312 26.7536 26.6533C26.7456 25.6685 26.7456 24.6836 26.7536 23.6988C26.7536 23.4964 26.7139 23.4346 26.5167 23.4368C25.3157 23.4474 24.1138 23.4432 22.9128 23.4368C22.6155 23.4368 22.5015 23.3217 22.4748 22.999C22.4619 23.0693 22.443 23.1396 22.3717 23.1513Z" fill="#F37C7C"/>
<path d="M22.26 23.1012C22.0757 23.0949 21.8913 23.1012 21.707 23.1012C21.9211 23.2338 22.148 23.1723 22.3719 23.149C22.4433 23.1415 22.4621 23.0715 22.479 23.0068C22.4542 23.0427 22.4206 23.0706 22.382 23.0873C22.3433 23.1039 22.3011 23.1088 22.26 23.1012Z" fill="#F37C7C"/>
<path d="M19.9252 31.1066C21.0271 31.097 22.1281 31.1013 23.23 31.1013C24.3319 31.1013 25.4328 31.1013 26.5337 31.1013C26.6962 31.1013 26.7596 31.0725 26.7577 30.8755C26.7477 29.8732 26.7497 28.8721 26.7577 27.8698C26.7577 27.6941 26.7111 27.6493 26.5506 27.6504C24.3401 27.6554 22.1294 27.6554 19.9183 27.6504C19.734 27.6504 19.7082 27.7196 19.7092 27.8922C19.7158 28.8863 19.7158 29.8803 19.7092 30.8744C19.7052 31.0629 19.7538 31.1077 19.9252 31.1066Z" fill="#EE6261"/>
<path d="M19.7123 16.5181C19.7054 17.0964 19.7183 17.6758 19.7054 18.2542C19.7004 18.4459 19.7539 18.4842 19.9224 18.4821C21.0233 18.4736 22.1232 18.4821 23.2242 18.4821C24.3251 18.4821 25.4557 18.4821 26.5715 18.4821C26.7043 18.4821 26.7608 18.4608 26.7578 18.2968C26.7479 17.7014 26.7578 17.1049 26.7499 16.5095C26.7495 16.323 26.7147 16.1385 26.6475 15.9666C26.5802 15.7946 26.4819 15.6388 26.3582 15.508C26.2345 15.3772 26.0879 15.2741 25.9268 15.2047C25.7658 15.1353 25.5935 15.1009 25.4201 15.1036C23.9588 15.0979 22.4968 15.0979 21.0342 15.1036C20.8608 15.1024 20.6889 15.138 20.5283 15.2086C20.3678 15.2791 20.2219 15.3832 20.099 15.5147C19.9761 15.6462 19.8786 15.8026 19.8123 15.9748C19.7459 16.147 19.7119 16.3317 19.7123 16.5181Z" fill="#F8B1B1"/>
<path d="M27.463 17.5065C27.463 17.9985 27.4729 18.4043 27.463 18.8091C27.4571 18.9891 27.5175 19.0636 27.6691 19.1286C29.1575 19.7577 30.6439 20.3943 32.1283 21.0383C32.2769 21.1033 32.3205 21.0607 32.3711 20.9201C32.5544 20.4056 32.7526 19.8965 32.9369 19.3831C33.2431 18.5311 32.9369 17.7599 32.156 17.4212C30.8249 16.844 29.4937 16.2727 28.1626 15.7075C28.0211 15.6434 27.8701 15.6074 27.7167 15.601C27.2906 15.5893 27.2955 15.5893 27.3897 16.0089C27.5135 16.5308 27.4412 17.0634 27.463 17.5065Z" fill="#FEF0AF"/>
<path d="M29.3917 24.7491C29.5393 24.5563 29.7097 24.5254 29.9228 24.6287C30.1735 24.7502 30.4381 24.8417 30.6908 24.9589C30.8017 25.0111 30.8523 24.9962 30.8969 24.8737C31.2529 23.9002 31.6126 22.9285 31.976 21.9586C32.0245 21.8297 31.9958 21.7913 31.8868 21.7455C30.4698 21.1413 29.0541 20.5335 27.6397 19.9221C27.4861 19.8561 27.4603 19.8944 27.4603 20.0563C27.465 21.1747 27.465 22.2923 27.4603 23.4092C27.4547 23.4612 27.467 23.5135 27.495 23.5564C27.5229 23.5992 27.5646 23.6295 27.6119 23.6414C27.8627 23.7415 28.1074 23.8544 28.3601 23.9556C28.5712 24.0408 28.6921 24.1867 28.6732 24.4402L29.3917 24.7491Z" fill="#FDE97E"/>
<path d="M28.0832 24.6424L27.4887 24.3921C27.4791 24.4192 27.4725 24.4475 27.4688 24.4762C27.4688 25.6361 27.4688 26.7949 27.4629 27.9537C27.4629 28.0975 27.5352 28.1305 27.6333 28.1721C28.1674 28.3989 28.7015 28.6269 29.2327 28.8633C29.3496 28.9145 29.4011 28.9081 29.4517 28.7696C29.8064 27.7961 30.1671 26.8255 30.5338 25.8577C30.5833 25.7288 30.5417 25.6872 30.4347 25.6446C30.184 25.5445 29.9392 25.4316 29.6855 25.3251C29.3734 25.1888 29.3258 25.0908 29.3883 24.7372C29.2563 24.7431 29.1247 24.7187 29.0021 24.6656C28.8796 24.6125 28.769 24.532 28.6778 24.4294C28.5083 24.7319 28.3963 24.7723 28.0832 24.6424Z" fill="#FDE35B"/>
<path d="M29.3922 24.749L28.6777 24.4294C28.7685 24.5347 28.8793 24.6178 29.0026 24.6729C29.1258 24.7281 29.2587 24.754 29.3922 24.749Z" fill="#FDE35B"/>
<path d="M32.5819 22.8117C33.2091 23.2718 33.8354 23.7341 34.4537 24.2081C34.5826 24.306 34.6271 24.2592 34.6975 24.1473C34.968 23.7213 35.2494 23.2953 35.521 22.8692C35.6797 22.6424 35.7653 22.366 35.7647 22.0821C35.7766 21.8383 35.7292 21.5954 35.6272 21.3773C35.5252 21.1592 35.3722 20.9734 35.1831 20.8381C34.7015 20.4707 34.21 20.1181 33.7274 19.7517C33.6214 19.6718 33.5758 19.6569 33.5203 19.8114C33.19 20.7295 32.8504 21.6451 32.5016 22.5582C32.4521 22.685 32.4838 22.7393 32.5819 22.8117Z" fill="#AADAC4"/>
<path d="M35.687 23.9152C35.2163 24.6608 34.7386 25.3967 34.26 26.1338C34.1946 26.2403 34.1768 26.2978 34.267 26.4022C34.7439 26.9539 35.2136 27.512 35.6761 28.0765C35.7642 28.183 35.8138 28.1883 35.9099 28.0914C36.23 27.7719 36.5629 27.463 36.883 27.1403C37.0167 27.0077 37.122 26.8456 37.1916 26.665C37.2613 26.4844 37.2936 26.2897 37.2863 26.0944C37.2927 25.7449 37.171 25.4067 36.9474 25.1528C36.6046 24.7332 36.2429 24.3231 35.898 23.8971C35.8049 23.7906 35.7652 23.7906 35.687 23.9152Z" fill="#C9EBFA"/>
<path d="M34.0622 24.8174C33.4841 24.3956 32.9104 23.9695 32.3409 23.5393C32.2141 23.4423 32.1645 23.4498 32.1051 23.6117C31.7682 24.5461 31.4246 25.4774 31.0745 26.4054C31.0607 26.429 31.0518 26.4555 31.0484 26.4832C31.045 26.5109 31.0473 26.539 31.055 26.5656C31.0627 26.5923 31.0757 26.6168 31.0931 26.6375C31.1105 26.6582 31.1319 26.6746 31.1558 26.6855C31.5521 26.9699 31.9396 27.2639 32.331 27.5546L32.4192 27.6217C32.4906 27.609 32.5074 27.5493 32.5371 27.5035C33.0603 26.6898 33.5816 25.8739 34.1107 25.0645C34.191 24.9356 34.1652 24.893 34.0622 24.8174Z" fill="#88CDB1"/>
<path d="M28.967 29.5546C28.6241 29.4119 28.2852 29.2575 27.9414 29.1179C27.7898 29.0562 27.6441 28.955 27.4707 28.9443V33.9502C27.5302 33.9641 27.5272 33.9289 27.5341 33.9098C28.0464 32.5337 28.5548 31.1555 29.072 29.7804C29.1275 29.6356 29.074 29.5994 28.967 29.5546Z" fill="#FDD407"/>
<path d="M30.6902 27.4373C30.3374 28.3831 29.9906 29.331 29.6348 30.2757C29.6226 30.2962 29.6145 30.3192 29.6112 30.3433C29.6078 30.3673 29.6092 30.3919 29.6153 30.4153C29.6214 30.4388 29.632 30.4606 29.6465 30.4793C29.6609 30.498 29.6789 30.5132 29.6992 30.5239C29.8598 30.6368 30.0193 30.7518 30.1709 30.8775C30.276 30.9627 30.3265 30.9393 30.3998 30.8243C30.9144 30.0127 31.4344 29.2057 31.9595 28.4033C32.0319 28.2968 32.0358 28.2308 31.9249 28.1519C31.5751 27.8995 31.2312 27.6386 30.8834 27.3808C30.8517 27.3574 30.82 27.3361 30.7992 27.3222C30.7021 27.3116 30.707 27.3925 30.6902 27.4373Z" fill="#68C295"/>
<path d="M31.5708 30.312C31.1645 30.9511 30.7523 31.5901 30.3411 32.2292C30.0002 32.7617 30.0032 32.7617 30.4402 33.2101C30.5155 33.2879 30.5541 33.2804 30.6255 33.2101C31.2577 32.5938 31.8919 31.9793 32.528 31.3665C32.5687 31.3363 32.6122 31.311 32.6579 31.2909L32.533 31.1354C32.2972 30.852 32.0534 30.5762 31.8275 30.2833C31.7066 30.1235 31.655 30.181 31.5708 30.312Z" fill="#71CFEF"/>
<path d="M29.4506 31.2397C29.3198 31.1417 29.2931 31.1907 29.2524 31.3111C29.0542 31.8436 28.8561 32.3762 28.6638 32.9087L28.209 34.1357L28.2536 34.1549L29.6012 32.0662C29.9193 31.5752 29.9144 31.5827 29.4506 31.2397Z" fill="#5ABF90"/>
<path d="M29.5412 33.4701C29.1359 34.1091 28.7237 34.7482 28.3145 35.3787L28.3412 35.4117C28.796 34.9718 29.2538 34.5352 29.7067 34.0931C30.0188 33.7875 30.0129 33.7875 29.7226 33.4541C29.6433 33.3689 29.6086 33.3636 29.5412 33.4701Z" fill="#3EC4ED"/>
<path d="M23.1363 33.4829C22.6977 33.4871 22.2782 33.6765 21.9684 34.0103C21.6586 34.3441 21.4833 34.7955 21.4805 35.2669C21.4823 35.5048 21.5277 35.74 21.6141 35.959C21.7005 36.178 21.8262 36.3765 21.984 36.5433C22.1418 36.7101 22.3287 36.8418 22.5339 36.9309C22.7391 37.02 22.9586 37.0648 23.1799 37.0627C23.6188 37.0526 24.0362 36.857 24.3418 36.5182C24.6473 36.1794 24.8162 35.7249 24.812 35.2531C24.8119 35.018 24.7682 34.7854 24.6836 34.5686C24.599 34.3519 24.4751 34.1554 24.3192 33.9907C24.1632 33.8259 23.9783 33.6962 23.7752 33.609C23.5721 33.5218 23.355 33.479 23.1363 33.4829ZM23.1462 36.3139C22.8908 36.3071 22.6477 36.1945 22.4676 35.9996C22.2876 35.8047 22.1846 35.5426 22.1801 35.268C22.1804 35.1296 22.2065 34.9926 22.2568 34.8652C22.307 34.7377 22.3804 34.6224 22.4727 34.5258C22.565 34.4293 22.6744 34.3536 22.7943 34.3031C22.9142 34.2525 23.0422 34.2283 23.171 34.2317C23.2977 34.2316 23.4232 34.2589 23.5399 34.3119C23.6566 34.365 23.7623 34.4427 23.8505 34.5404C23.9388 34.6382 24.0079 34.754 24.0537 34.881C24.0995 35.008 24.1212 35.1436 24.1173 35.2797C24.1139 35.5541 24.0101 35.8161 23.8284 36.0089C23.6466 36.2016 23.4016 36.3097 23.1462 36.3097V36.3139Z" fill="#00659E"/>
</g>
<defs>
<filter id="filter0_d_1097_1883" x="0" y="0" width="56" height="56.1526" filterUnits="userSpaceOnUse" color-interpolation-filters="sRGB">
<feFlood flood-opacity="0" result="BackgroundImageFix"/>
<feColorMatrix in="SourceAlpha" type="matrix" values="0 0 0 0 0 0 0 0 0 0 0 0 0 0 0 0 0 0 127 0" result="hardAlpha"/>
<feOffset dx="1" dy="1"/>
<feGaussianBlur stdDeviation="5"/>
<feComposite in2="hardAlpha" operator="out"/>
<feColorMatrix type="matrix" values="0 0 0 0 0 0 0 0 0 0 0 0 0 0 0 0 0 0 0.15 0"/>
<feBlend mode="normal" in2="BackgroundImageFix" result="effect1_dropShadow_1097_1883"/>
<feBlend mode="normal" in="SourceGraphic" in2="effect1_dropShadow_1097_1883" result="shape"/>
</filter>
<clipPath id="clip0_1097_1883">
<rect width="22" height="25.4407" fill="white" transform="translate(17 14.356)"/>
</clipPath>
</defs>
</svg>
