<svg width="56" height="57" viewBox="0 0 56 57" fill="none" xmlns="http://www.w3.org/2000/svg">
<g filter="url(#filter0_d_1097_1911)">
<rect x="9" y="9" width="36" height="36.1525" rx="4" fill="#FAFDFF"/>
<rect x="9.2" y="9.2" width="35.6" height="35.7525" rx="3.8" stroke="#00659E" stroke-width="0.4"/>
</g>
<g clip-path="url(#clip0_1097_1911)">
<path d="M23.2598 21.1988C23.2488 21.2926 23.2526 21.3875 23.2713 21.4801C23.2713 21.4801 23.2713 21.7057 23.5791 22.0998C23.6697 22.2152 23.7484 22.311 23.8105 22.3275C23.8249 22.3299 23.8384 22.3359 23.8497 22.345C23.861 22.3541 23.8697 22.3659 23.875 22.3794C23.8802 22.3929 23.8818 22.4075 23.8796 22.4218C23.8774 22.436 23.8714 22.4495 23.8624 22.4608C23.8021 22.5279 23.821 22.6123 23.8184 22.6903C23.8091 23.2416 23.8034 23.7929 23.7933 24.3451C23.7898 24.525 23.8228 24.7096 23.6856 24.872C23.6731 24.8886 23.6651 24.9079 23.6622 24.9283C23.6593 24.9487 23.6616 24.9695 23.6688 24.9887C23.8637 25.4316 23.8298 25.9085 23.8923 26.3714C23.8967 26.4014 23.8637 26.4363 23.8483 26.4689C23.5607 27.0786 23.5994 27.707 23.7603 28.3376C23.7912 28.4735 23.8628 28.597 23.9657 28.6921C24.0598 28.7739 24.0779 28.8663 24.0774 28.9791C24.0743 29.7843 24.0774 30.5903 24.0774 31.3951C24.0774 31.9316 24.0774 32.4687 24.0774 33.0064C24.0774 33.2964 24.0721 33.5869 24.0774 33.8773C24.0836 34.1238 24.2533 34.2976 24.4798 34.3128C24.7182 34.3276 24.9091 34.1661 24.9434 33.9148C24.95 33.85 24.9522 33.7848 24.9499 33.7197C24.9499 32.4571 24.9499 31.1942 24.9499 29.931C24.9499 29.59 24.9455 29.2491 24.9499 28.9081C24.9543 28.6672 25.2112 28.4643 25.3796 28.5597C26.9063 29.419 28.4325 30.2785 29.9583 31.1382C30.3602 31.3651 30.5366 31.7043 30.5647 32.1716C30.6127 32.965 30.4161 33.7393 30.4407 34.5297C30.4447 34.6477 30.3756 34.6503 30.2864 34.6547C30.121 34.6625 30.0146 34.7731 30.0955 34.9112C30.223 35.1289 30.223 35.3667 30.2925 35.5918C30.333 35.7225 30.3339 35.8157 30.1931 35.8936C30.0524 35.9716 30.0832 36.1941 30.0717 36.3156C30.0629 36.3991 30.0629 36.4833 30.0717 36.5669C30.103 36.8281 30.0172 36.9618 29.7775 37.0572C28.4243 37.5955 27.6612 38.9629 27.8987 40.3908C28.1274 41.7648 29.3382 42.8482 30.7239 42.9166C32.2043 42.9919 33.5162 42.0617 33.8904 40.6717C34.2647 39.2816 33.6265 37.7975 32.3336 37.1879C31.914 36.9906 31.7293 36.7672 31.79 36.3208C31.8164 36.1292 31.7816 35.9402 31.5776 35.8361C31.5603 35.8298 31.5458 35.8175 31.5369 35.8015C31.5281 35.7855 31.5253 35.7669 31.5292 35.749C31.5811 35.5086 31.6053 35.2574 31.6937 35.0305C31.8067 34.7413 31.8058 34.6943 31.5072 34.6521C31.4192 34.6403 31.3867 34.6085 31.3955 34.5301C31.4645 33.9326 31.2337 33.3565 31.2688 32.7603C31.2838 32.499 31.26 32.2378 31.2614 31.9765C31.2649 31.4025 31.0107 30.984 30.5186 30.684C28.9054 29.6993 27.3006 28.7012 25.684 27.7227C25.4513 27.582 25.3321 27.4396 25.3568 27.1631C25.3748 26.9615 25.3097 26.762 25.2248 26.5739C25.2041 26.5277 25.1567 26.4737 25.1672 26.4363C25.2952 25.9843 25.1826 25.493 25.3981 25.0558C25.428 24.9953 25.4421 24.9156 25.4003 24.8668C25.2657 24.7005 25.3088 24.5088 25.3062 24.3251C25.2983 23.8103 25.2974 23.2952 25.293 22.78C25.293 22.6724 25.3066 22.5575 25.2121 22.4752C25.1435 22.4155 25.1962 22.3798 25.2385 22.3632C25.4377 22.2853 25.4227 22.176 25.5023 22.0719C25.8788 21.5833 25.797 21.1256 25.4979 20.6596C25.4309 20.5579 25.3968 20.4383 25.4003 20.3169C25.4003 18.8589 25.4205 17.3992 25.3902 15.943C25.3732 15.5404 25.496 15.1442 25.7381 14.8203C25.782 14.7576 25.8075 14.7158 25.9082 14.7476C26.0811 14.8016 26.2042 14.7776 26.352 14.6848C26.4197 14.6413 26.4914 14.5281 26.4584 14.3669C26.4237 14.198 26.2764 14.1523 26.1484 14.1544C26.0204 14.1566 26.0125 14.1544 25.8959 14.2006C25.7926 14.2441 25.764 14.242 25.7341 14.1431C25.6162 13.7756 25.3999 13.4834 25.0392 13.3183C24.9394 13.2726 24.9231 13.2112 24.924 13.1158C24.9271 12.666 24.924 12.2161 24.924 11.7658C24.924 11.5707 24.9917 11.3125 24.8928 11.1967C24.7279 11.0033 24.2432 11.3116 24.1012 11.0063C24.1214 11.6957 24.1047 12.3859 24.1143 13.0758C24.1165 13.2421 24.0853 13.3601 23.9252 13.4477C23.7843 13.529 23.6729 13.6523 23.6068 13.8C23.5501 13.9206 23.4929 13.9611 23.35 13.9245C23.1741 13.8783 22.9982 13.9876 22.9942 14.1253C22.9907 14.3116 23.1261 14.3804 23.2854 14.3748C23.4103 14.37 23.4256 14.4153 23.4314 14.522C23.4396 14.7479 23.5121 14.967 23.6407 15.1539C23.6835 15.2126 23.7059 15.2835 23.7045 15.3559C23.7045 16.2182 23.7045 17.0804 23.7045 17.9427C23.7045 19.4407 23.7045 19.7086 23.7045 19.7086C23.7181 20.0108 23.7344 20.1924 23.6328 20.4127C23.474 20.7694 23.3636 20.8221 23.2598 21.1988ZM26.2614 14.2981C26.2803 14.3042 26.297 14.3157 26.3092 14.3313C26.3214 14.3468 26.3287 14.3656 26.33 14.3852C26.3329 14.4078 26.3329 14.4306 26.33 14.4532C26.2574 14.6552 26.0507 14.7537 25.7719 14.5403C25.8058 14.2964 25.9689 14.2076 26.2614 14.2981ZM23.3007 14.272C23.2269 14.2555 23.1385 14.2463 23.1407 14.147C23.1407 14.0599 23.2229 14.0351 23.2928 14.0325C23.3698 14.0295 23.456 14.0512 23.4613 14.1457C23.4665 14.2402 23.3751 14.2533 23.3007 14.272ZM24.9623 13.5391C25.0278 13.506 25.0815 13.5757 25.132 13.6127C25.5942 13.9506 25.6875 14.6544 25.3163 15.1047C25.2282 15.2083 25.1831 15.3412 25.1901 15.4766C25.1936 17.1148 25.1936 18.7531 25.1901 20.3914C25.1853 20.5198 25.226 20.6458 25.3053 20.7476C25.6879 21.2597 25.5142 22.0127 24.9332 22.287C24.9332 20.7324 24.9332 19.2038 24.9332 17.6749C24.9332 16.3554 24.9325 15.036 24.931 13.7168C24.9315 13.6562 24.8941 13.5731 24.9623 13.5382V13.5391ZM24.3092 22.1991C24.3092 18.9716 24.3092 15.7444 24.3092 12.5175C24.3092 12.1913 24.3224 11.8642 24.3039 11.5389C24.2933 11.3521 24.3809 11.3491 24.5238 11.3482C24.6667 11.3473 24.7437 11.3587 24.7437 11.5411C24.7358 13.3397 24.7389 15.1382 24.7389 16.9367H24.7494C24.7494 18.6991 24.7494 20.4611 24.7459 22.2234C24.7459 22.4168 24.7899 22.5505 24.9948 22.5919C25.0858 22.6102 25.1056 22.6637 25.1052 22.7478C25.1052 23.3574 25.1052 23.9671 25.1127 24.5768C25.1127 24.7005 25.0608 24.7196 24.9552 24.7174C24.6843 24.7122 24.413 24.7113 24.1425 24.7174C24.029 24.7201 23.989 24.6861 23.9908 24.5703C24.0009 23.9471 24.0048 23.323 24.0101 22.6977C24.0101 22.628 24.0154 22.567 24.1016 22.5501C24.2947 22.5091 24.3092 22.3645 24.3092 22.1991ZM25.0168 25.696C24.9992 25.8745 25.0331 26.1049 24.9341 26.2151C24.8352 26.3252 24.5884 26.229 24.4103 26.256C24.1689 26.2921 24.106 26.1828 24.0968 25.9307C24.0888 25.7055 24.0528 25.5997 24.0449 25.4138C24.0365 25.247 24.1201 25.196 24.1794 25.1995C24.3026 25.203 24.427 25.2021 24.5511 25.2021C25.0634 25.2021 25.0647 25.2026 25.0168 25.696ZM23.7854 20.8016C23.9389 20.5808 23.9551 20.3487 23.9424 20.1275C23.9028 19.4307 23.9376 18.7366 23.9222 18.0415C23.9033 17.168 23.9138 16.2948 23.9257 15.4212C23.9322 15.2826 23.8943 15.1454 23.8175 15.0293C23.4995 14.5433 23.6213 13.9306 24.1051 13.5922V22.2391C23.6064 21.9687 23.4424 21.2954 23.7854 20.8016ZM30.0497 30.9984C28.4683 30.1051 26.885 29.2136 25.3 28.3241C25.1861 28.2596 25.1092 28.2196 25.0656 28.3868C25.0544 28.4443 25.0233 28.4962 24.9777 28.5336C24.7534 28.6673 24.7877 28.8776 24.7881 29.0844C24.7905 30.6292 24.7905 32.174 24.7881 33.7188C24.7917 33.7839 24.7894 33.8492 24.7811 33.9139C24.7534 34.0594 24.6632 34.1508 24.5102 34.1478C24.3571 34.1447 24.2656 34.0572 24.2463 33.9069C24.2392 33.8346 24.237 33.7619 24.2397 33.6892C24.2397 32.8984 24.2397 32.1078 24.2397 31.3176C24.2397 30.4838 24.2397 29.6497 24.2397 28.8153C24.2397 28.757 24.2498 28.7077 24.1874 28.6655C23.978 28.5244 23.8927 28.3067 23.8606 28.0728C23.7977 27.619 23.7775 27.1648 23.9112 26.7163C23.971 26.5168 24.0844 26.448 24.3716 26.5212C24.4803 26.548 24.5941 26.5471 24.7024 26.5186C24.9478 26.4559 25.037 26.5155 25.0982 26.6727C25.1839 26.9127 25.2188 27.1675 25.2006 27.4213C25.1935 27.4776 25.2042 27.5347 25.2312 27.5847C25.2582 27.6347 25.3002 27.6751 25.3515 27.7005C27.0433 28.7365 28.7277 29.7843 30.4231 30.8146C30.8726 31.0876 31.0942 31.4626 31.1061 31.9734C31.1161 32.111 31.1177 32.249 31.111 32.3867C31.0437 33.056 31.2429 33.7066 31.2486 34.3716C31.2486 34.5623 31.2046 34.619 31.008 34.6142C30.5999 34.6037 30.5683 34.6142 30.6065 34.2057C30.6698 33.5229 30.7508 32.8439 30.7305 32.1554C30.7169 31.6364 30.4983 31.2518 30.0497 30.9984ZM30.2582 34.9059C30.2582 34.8502 30.2582 34.7509 30.2582 34.7818H31.593C31.593 34.7945 31.593 34.8937 31.593 34.9059H30.2582ZM31.4017 35.5862C31.388 35.7508 31.3203 35.82 31.1545 35.7895C31.1252 35.7873 31.0958 35.7873 31.0665 35.7895C30.4807 35.786 30.4829 35.7856 30.3818 35.206C30.3616 35.0893 30.3739 35.0318 30.5137 35.0405C30.6536 35.0492 30.8053 35.0431 30.9834 35.0431C31.1321 35.0584 31.3823 34.9643 31.4751 35.0771C31.5679 35.1899 31.4162 35.4094 31.4012 35.5862H31.4017ZM33.448 41.3206C32.8406 42.384 31.5569 42.9514 30.3316 42.6976C29.1196 42.4463 28.1767 41.4238 28.0417 40.2184C27.8939 38.8819 28.6292 37.6695 29.8954 37.1826C30.1364 37.0899 30.2397 36.9305 30.2441 36.6892C30.2468 36.5368 30.252 36.3844 30.2441 36.2324C30.2318 36.0216 30.3321 35.9428 30.5348 35.9528C30.6668 35.9594 30.7987 35.9528 30.9306 35.9528C31.0626 35.9528 31.1945 35.9528 31.3264 35.9528C31.5688 35.9572 31.6343 36.0216 31.6413 36.2668C31.6453 36.4049 31.6413 36.5425 31.6413 36.6805C31.6413 36.9322 31.7557 37.0938 32.0006 37.1922C33.6648 37.862 34.3329 39.7729 33.4476 41.3219L33.448 41.3206Z" fill="#00659E"/>
</g>
<defs>
<filter id="filter0_d_1097_1911" x="0" y="0" width="56" height="56.1526" filterUnits="userSpaceOnUse" color-interpolation-filters="sRGB">
<feFlood flood-opacity="0" result="BackgroundImageFix"/>
<feColorMatrix in="SourceAlpha" type="matrix" values="0 0 0 0 0 0 0 0 0 0 0 0 0 0 0 0 0 0 127 0" result="hardAlpha"/>
<feOffset dx="1" dy="1"/>
<feGaussianBlur stdDeviation="5"/>
<feComposite in2="hardAlpha" operator="out"/>
<feColorMatrix type="matrix" values="0 0 0 0 0 0 0 0 0 0 0 0 0 0 0 0 0 0 0.15 0"/>
<feBlend mode="normal" in2="BackgroundImageFix" result="effect1_dropShadow_1097_1911"/>
<feBlend mode="normal" in="SourceGraphic" in2="effect1_dropShadow_1097_1911" result="shape"/>
</filter>
<clipPath id="clip0_1097_1911">
<rect width="11" height="31.9124" fill="white" transform="translate(23 11.0085)"/>
</clipPath>
</defs>
</svg>
