<svg width="56" height="57" viewBox="0 0 56 57" fill="none" xmlns="http://www.w3.org/2000/svg">
<g filter="url(#filter0_d_1097_1836)">
<rect x="9" y="9" width="36" height="36.1525" rx="4" fill="#FAFDFF"/>
<rect x="9.2" y="9.2" width="35.6" height="35.7525" rx="3.8" stroke="#00659E" stroke-width="0.4"/>
</g>
<g clip-path="url(#clip0_1097_1836)">
<path d="M33.2408 31.1124C33.0658 29.4133 32.5206 27.8658 31.5177 26.5204C30.1491 24.6838 28.749 22.8778 27.3669 21.0529C26.5121 19.932 25.6539 18.8145 24.8058 17.6888C24.6824 17.5267 24.6106 17.522 24.5153 17.6947C24.4902 17.7321 24.4628 17.7678 24.4334 17.8016C22.3378 20.5488 20.2535 23.3055 18.1422 26.0398C16.308 28.4157 15.5766 31.0925 16.2553 34.0771C17.063 37.6257 19.2315 39.8782 22.5857 40.8664C22.993 40.9839 23.4181 41.0004 23.8197 41.1308H25.4419C25.8581 41.0133 26.2889 40.9863 26.7084 40.8793C28.7392 40.3512 30.5192 39.0715 31.7197 37.2764C32.9203 35.4814 33.4606 33.292 33.2408 31.1124ZM24.6521 39.4822C22.9653 39.4764 21.336 38.8387 20.0588 37.6845C18.7816 36.5303 17.9406 34.9357 17.6879 33.1887C17.3794 31.0596 17.855 29.1196 19.1216 27.431C20.903 25.0516 22.7204 22.7027 24.5175 20.3362C24.6364 20.1787 24.688 20.1987 24.7957 20.3362C26.5906 22.7015 28.4125 25.0504 30.1939 27.4287C33.4214 31.7364 31.2697 38.0828 26.1812 39.2966C25.679 39.4165 25.1661 39.4803 24.651 39.4869L24.6521 39.4822Z" fill="#00659E"/>
<path d="M37.023 16.9203C36.0885 15.703 35.172 14.4704 34.2521 13.2413C34.2016 13.1743 34.113 13.1238 34.1253 13.0168H34.0199C34.0333 13.1261 33.9436 13.1743 33.8931 13.2413C32.8891 14.5867 31.8637 15.9145 30.8799 17.2775C30.1866 18.2387 29.9824 19.3515 30.2348 20.5218C30.7082 22.7403 32.6165 24.0716 34.7737 23.7226C36.5249 23.4383 37.9687 21.678 38.0001 19.8191C38.0214 18.7606 37.6741 17.7301 37.023 16.9203ZM34.1657 15.8017C34.7804 16.6313 35.4075 17.4467 36.0145 18.2857C36.2828 18.6833 36.4267 19.1583 36.4262 19.6452C36.4263 20.2766 36.197 20.8843 35.7849 21.345C35.3728 21.8057 34.8087 22.0848 34.2072 22.1257C33.0338 22.2221 31.9523 21.2926 31.7571 20.0342C31.7015 19.7284 31.7071 19.4139 31.7735 19.1105C31.84 18.8071 31.9658 18.5214 32.1431 18.2716C32.7365 17.4362 33.3658 16.6266 33.9761 15.804C34.0468 15.7194 34.086 15.6948 34.1657 15.8017Z" fill="#00659E"/>
<path d="M24.6541 37.0359C24.6541 36.8256 24.6462 36.6152 24.6541 36.4061C24.6619 36.2521 24.6384 36.1852 24.4634 36.1805C24.194 36.1711 23.9266 36.1281 23.6669 36.0524C21.9898 35.5741 20.8769 34.1453 20.7356 32.2664C20.7243 32.1172 20.6963 32.0655 20.546 32.0702C20.1455 32.0808 19.745 32.0843 19.3445 32.0702C19.1661 32.062 19.1504 32.1383 19.1549 32.2911C19.1692 32.7651 19.2423 33.2352 19.3725 33.6894C19.6951 34.8468 20.3552 35.8696 21.2605 36.6145C22.1657 37.3594 23.2707 37.789 24.4207 37.8431C24.5969 37.8514 24.672 37.8149 24.653 37.6081C24.6339 37.4013 24.6541 37.2286 24.6541 37.0359Z" fill="#00659E"/>
</g>
<defs>
<filter id="filter0_d_1097_1836" x="0" y="0" width="56" height="56.1526" filterUnits="userSpaceOnUse" color-interpolation-filters="sRGB">
<feFlood flood-opacity="0" result="BackgroundImageFix"/>
<feColorMatrix in="SourceAlpha" type="matrix" values="0 0 0 0 0 0 0 0 0 0 0 0 0 0 0 0 0 0 127 0" result="hardAlpha"/>
<feOffset dx="1" dy="1"/>
<feGaussianBlur stdDeviation="5"/>
<feComposite in2="hardAlpha" operator="out"/>
<feColorMatrix type="matrix" values="0 0 0 0 0 0 0 0 0 0 0 0 0 0 0 0 0 0 0.15 0"/>
<feBlend mode="normal" in2="BackgroundImageFix" result="effect1_dropShadow_1097_1836"/>
<feBlend mode="normal" in="SourceGraphic" in2="effect1_dropShadow_1097_1836" result="shape"/>
</filter>
<clipPath id="clip0_1097_1836">
<rect width="22" height="28.1186" fill="white" transform="translate(16 13.0168)"/>
</clipPath>
</defs>
</svg>
