<svg width="56" height="57" viewBox="0 0 56 57" fill="none" xmlns="http://www.w3.org/2000/svg">
<g filter="url(#filter0_d_1097_1852)">
<rect x="9" y="9" width="36" height="36.1525" rx="4" fill="#FAFDFF"/>
<rect x="9.2" y="9.2" width="35.6" height="35.7525" rx="3.8" stroke="#00659E" stroke-width="0.4"/>
</g>
<g clip-path="url(#clip0_1097_1852)">
<path d="M25.701 28.607C25.6173 28.5056 25.5652 28.3818 25.551 28.2508C25.551 26.7624 25.551 25.274 25.551 23.7856C25.551 23.6881 25.5722 23.6351 25.6756 23.6054C26.6365 23.3191 26.6977 22.2463 26.4274 21.5424C26.231 21.0314 25.7939 20.8342 25.2533 20.8342H20.185C20.101 20.837 20.0171 20.8441 19.9337 20.8554C19.6764 20.8872 19.4372 21.0051 19.2548 21.1901C19.0724 21.3752 18.9574 21.6166 18.9285 21.8753C18.9074 22.1002 18.9074 22.3267 18.9285 22.5516C18.9371 22.7789 19.015 22.998 19.1517 23.1793C19.2885 23.3606 19.4774 23.4953 19.693 23.5651C19.7627 23.5804 19.8238 23.6224 19.8632 23.6822C19.9027 23.742 19.9173 23.8148 19.9041 23.8853C19.9041 25.2889 19.9041 26.6925 19.9041 28.0961C19.9089 28.2731 19.8604 28.4475 19.7648 28.5964C17.9782 31.4955 16.1938 34.3932 14.4114 37.2894C14.2264 37.5666 14.1012 37.8795 14.0437 38.2081C13.9863 38.5367 13.9979 38.8738 14.0778 39.1976C14.3798 40.3935 15.3216 41.1186 16.5887 41.1207C18.6329 41.1207 20.6771 41.1207 22.7128 41.1207H28.7631C29.0162 41.1274 29.2693 41.1039 29.5169 41.0507C29.9024 40.9647 30.2616 40.7867 30.5641 40.5318C30.8667 40.277 31.1037 39.9528 31.2551 39.5866C31.4065 39.2204 31.4678 38.823 31.434 38.4279C31.4002 38.0329 31.2721 37.6519 31.0607 37.317C29.2783 34.4179 27.4918 31.5146 25.701 28.607ZM19.7732 22.3672C19.7732 22.2626 19.7732 22.1587 19.7732 22.0555C19.7686 22.0081 19.7745 21.9603 19.7905 21.9155C19.8065 21.8707 19.8322 21.8301 19.8657 21.7964C19.8993 21.7628 19.9398 21.737 19.9844 21.7209C20.029 21.7049 20.0766 21.6989 20.1238 21.7035H25.3272C25.3768 21.6994 25.4266 21.7064 25.4732 21.724C25.5197 21.7416 25.5617 21.7694 25.5963 21.8053C25.6308 21.8412 25.657 21.8843 25.6729 21.9317C25.6888 21.979 25.6941 22.0292 25.6883 22.0788C25.6883 22.1721 25.6883 22.2675 25.6883 22.3608C25.6883 22.6661 25.5637 22.7848 25.2659 22.7848H20.1977C19.8873 22.7827 19.7796 22.6767 19.7732 22.3672ZM19.315 30.9605C19.7373 30.2651 20.1597 29.5696 20.5989 28.8784C20.7143 28.6954 20.7731 28.4822 20.7679 28.2657C20.7679 26.8176 20.7679 25.3673 20.7679 23.9171C20.7679 23.705 20.8207 23.6478 21.0319 23.6499C22.1666 23.6598 23.3013 23.6598 24.436 23.6499C24.6472 23.6499 24.6937 23.7135 24.6937 23.9192C24.6937 25.3779 24.6937 26.8366 24.6937 28.2954C24.6922 28.4923 24.7479 28.6853 24.8542 28.8509C25.5637 29.9979 26.2669 31.1471 26.9976 32.3365C26.8857 32.3365 26.8097 32.3365 26.7315 32.3365C25.1874 32.2727 23.6447 32.4948 22.1806 32.9917C20.781 33.4478 19.2973 33.5825 17.8389 33.3861L19.315 30.9605ZM23.9609 33.5811C23.9349 33.7721 23.8498 33.95 23.7175 34.0897C23.5852 34.2293 23.4125 34.3236 23.2239 34.3593C23.0379 34.3894 22.8471 34.3585 22.6801 34.271C22.513 34.1835 22.3786 34.0441 22.2968 33.8737C22.7905 33.6858 23.2963 33.5321 23.8109 33.4136C23.9778 33.3776 23.9883 33.4497 23.9778 33.5811H23.9609ZM30.4672 39.2294C30.3502 39.5447 30.1358 39.8141 29.8554 39.9984C29.5751 40.1826 29.2433 40.272 28.9088 40.2535C26.8364 40.2535 24.7648 40.2535 22.6938 40.2535C20.6306 40.2535 18.5674 40.2535 16.5042 40.2535C16.2789 40.2617 16.0544 40.2216 15.8457 40.1358C15.637 40.05 15.449 39.9205 15.2941 39.756C15.1392 39.5915 15.0211 39.3957 14.9475 39.1817C14.874 38.9676 14.8467 38.7403 14.8676 38.5149C14.8839 38.2606 14.9645 38.0147 15.102 37.8004C15.8073 36.6491 16.5169 35.4999 17.2138 34.3487C17.234 34.2976 17.2717 34.2555 17.3201 34.2299C17.3685 34.2043 17.4243 34.1967 17.4777 34.2087C18.7222 34.3849 19.9871 34.3548 21.2219 34.1197C21.3929 34.0879 21.4331 34.1324 21.5112 34.2681C21.6845 34.6155 21.9681 34.895 22.3173 35.0624C22.6665 35.2298 23.0613 35.2756 23.4393 35.1925C23.8318 35.1081 24.1834 34.8903 24.4346 34.5759C24.6858 34.2615 24.8213 33.8697 24.8182 33.4666C24.8182 33.2694 24.8901 33.2546 25.059 33.2313C25.7687 33.1709 26.4822 33.1709 27.1919 33.2313C27.3012 33.2312 27.4085 33.2607 27.5025 33.3167C27.5965 33.3726 27.6738 33.453 27.7262 33.5493C28.5709 34.9381 29.4156 36.3162 30.273 37.6965C30.4308 37.9151 30.532 38.1696 30.5674 38.4372C30.6028 38.7049 30.5713 38.9771 30.4757 39.2294H30.4672Z" fill="#00659E"/>
<path d="M37.9284 20.9486C36.2714 19.2821 34.6115 17.6192 32.9489 15.9597C32.839 15.8495 32.8475 15.7795 32.9193 15.6544C33.0516 15.4417 33.1244 15.1971 33.13 14.9464C33.1356 14.6956 33.0737 14.448 32.951 14.2296C32.7142 13.798 32.3615 13.4417 31.9331 13.2013C31.661 13.0472 31.3459 12.9876 31.0366 13.0317C30.7273 13.0758 30.4412 13.2211 30.2225 13.4451C28.7851 14.877 27.3527 16.3152 25.9251 17.7598C25.7886 17.8967 25.6806 18.0595 25.6073 18.2386C25.534 18.4178 25.4969 18.6098 25.4981 18.8035C25.4993 18.9972 25.5387 19.1887 25.6142 19.367C25.6897 19.5452 25.7997 19.7066 25.9378 19.8419C26.0666 19.9776 26.1996 20.1111 26.3348 20.2405C26.5579 20.4731 26.8524 20.6238 27.1709 20.6684C27.4895 20.713 27.8138 20.6489 28.0918 20.4864C28.1176 20.4653 28.1475 20.4499 28.1796 20.4409C28.2117 20.432 28.2452 20.4299 28.2782 20.4347C28.3111 20.4395 28.3427 20.4511 28.371 20.4687C28.3992 20.4864 28.4235 20.5097 28.4423 20.5373C29.2258 21.3345 30.0177 22.1254 30.8075 22.9183C32.6828 24.8011 34.5587 26.686 36.4354 28.573C36.742 28.8952 37.1108 29.1513 37.5193 29.3255C37.9278 29.4998 38.3673 29.5886 38.8111 29.5865L39.2145 29.5589C39.2614 29.5569 39.3081 29.5505 39.3539 29.5399C40.5893 29.2706 41.4488 28.5497 41.831 27.339C42.0243 26.7888 42.0566 26.1945 41.9241 25.6264C41.7916 25.0583 41.4999 24.5401 41.0834 24.1332C40.0486 23.054 38.9822 22.0066 37.9284 20.9486ZM27.8891 19.5662C27.825 19.6436 27.7445 19.7056 27.6536 19.7478C27.5626 19.79 27.4634 19.8112 27.3632 19.8101C27.1554 19.7584 26.9622 19.6597 26.7982 19.5215C26.6342 19.3833 26.5039 19.2094 26.4172 19.0129C26.2355 18.6779 26.4615 18.4298 26.6896 18.2008L30.6682 14.2084C31.0905 13.7843 31.3735 13.7843 31.8191 14.1957C32.4251 14.7469 32.3576 15.0989 31.8191 15.6141C30.495 16.9117 29.1984 18.2453 27.8891 19.5662ZM33.5908 24.5043C32.0577 22.9629 30.5414 21.4384 29.021 19.9161C28.9154 19.8079 28.9217 19.7507 29.021 19.6468C30.0445 18.6277 31.0659 17.6029 32.0851 16.5725C32.1865 16.4686 32.2414 16.4664 32.347 16.5725C33.9069 18.1457 35.4717 19.7168 37.0415 21.2858C37.1449 21.3897 37.1302 21.4596 37.0647 21.5678C36.7806 22.0241 36.4044 22.4156 35.9602 22.7169C35.7005 22.9014 35.4281 23.0689 35.1578 23.2364C34.6003 23.5926 34.009 23.9233 33.5993 24.5043H33.5908ZM40.4055 28.0599C40.1881 28.2753 39.9305 28.4455 39.6475 28.5607C39.3645 28.676 39.0617 28.7342 38.7563 28.7318C38.4509 28.7294 38.1489 28.6666 37.8677 28.547C37.5865 28.4273 37.3316 28.2532 37.1175 28.0345C36.1925 27.1249 35.2887 26.1962 34.3722 25.2782C34.2349 25.1425 34.2582 25.0661 34.3553 24.9305C34.5345 24.7097 34.7485 24.5199 34.9888 24.3686C35.0965 24.2944 35.2 24.2265 35.3204 24.1566C36.258 23.5862 37.202 23.0201 37.7848 22.0533C38.7077 22.9692 39.639 23.8449 40.5132 24.7736C40.9323 25.2235 41.1571 25.8216 41.1385 26.4373C41.1199 27.053 40.8594 27.6363 40.414 28.0599H40.4055Z" fill="#00659E"/>
<path d="M23.3302 14.8742C23.4422 14.8742 23.5496 14.8296 23.6289 14.75C23.7081 14.6705 23.7526 14.5626 23.7526 14.4502C23.7477 14.3356 23.6987 14.2274 23.616 14.1484C23.5333 14.0693 23.4233 14.0255 23.3091 14.0261C23.1961 14.031 23.0893 14.0793 23.0107 14.1609C22.9321 14.2426 22.8877 14.3515 22.8867 14.465C22.8886 14.5213 22.9016 14.5766 22.9251 14.6277C22.9485 14.6789 22.9818 14.7249 23.023 14.7629C23.0643 14.801 23.1128 14.8305 23.1655 14.8496C23.2182 14.8687 23.2742 14.8771 23.3302 14.8742Z" fill="#00659E"/>
<path d="M23.3302 19.1529C23.4433 19.144 23.549 19.0934 23.627 19.0107C23.705 18.9281 23.7498 18.8194 23.7526 18.7055C23.7452 18.5919 23.6954 18.4852 23.6133 18.4066C23.5311 18.328 23.4225 18.2834 23.3091 18.2815C23.1959 18.2889 23.0896 18.3389 23.0113 18.4213C22.9331 18.5038 22.8886 18.6128 22.8867 18.7267C22.8959 18.8399 22.9462 18.9458 23.0279 19.0244C23.1096 19.1029 23.2172 19.1486 23.3302 19.1529Z" fill="#00659E"/>
<path d="M23.3438 15.8219C23.3462 15.9354 23.3909 16.0439 23.4691 16.126C23.5473 16.208 23.6532 16.2576 23.7661 16.265C23.8787 16.2612 23.986 16.2159 24.0674 16.1376C24.1488 16.0594 24.1987 15.9538 24.2075 15.841C24.2042 15.7275 24.1592 15.6193 24.0812 15.5371C24.0033 15.4549 23.8978 15.4046 23.7851 15.3958C23.6717 15.3982 23.5634 15.4434 23.4816 15.5223C23.3998 15.6013 23.3506 15.7082 23.3438 15.8219Z" fill="#00659E"/>
<path d="M25.9207 16.4072C25.9776 16.4095 26.0343 16.4002 26.0875 16.3799C26.1408 16.3597 26.1893 16.3288 26.2304 16.2892C26.2714 16.2496 26.304 16.202 26.3263 16.1495C26.3486 16.0969 26.36 16.0403 26.36 15.9832C26.3611 15.8686 26.3176 15.758 26.2387 15.6752C26.1598 15.5924 26.0517 15.5439 25.9376 15.54C25.8256 15.54 25.7182 15.5847 25.639 15.6642C25.5598 15.7438 25.5153 15.8516 25.5153 15.9641C25.5103 16.0205 25.517 16.0773 25.5352 16.131C25.5533 16.1846 25.5824 16.2338 25.6205 16.2755C25.6587 16.3172 25.7051 16.3505 25.7568 16.3732C25.8085 16.3958 25.8643 16.4074 25.9207 16.4072Z" fill="#00659E"/>
<path d="M21.8462 16.6404C21.9021 16.6422 21.9578 16.6324 22.0099 16.6118C22.0619 16.5911 22.1092 16.5599 22.1487 16.5202C22.1883 16.4804 22.2194 16.433 22.24 16.3807C22.2606 16.3285 22.2703 16.2726 22.2685 16.2164C22.2699 16.1598 22.2601 16.1035 22.2395 16.0509C22.2189 15.9982 22.188 15.9502 22.1486 15.9097C22.1093 15.8692 22.0622 15.837 22.0103 15.815C21.9583 15.793 21.9025 15.7817 21.8462 15.7817C21.7346 15.7885 21.6295 15.8368 21.5514 15.9172C21.4733 15.9975 21.4278 16.1042 21.4238 16.2164C21.4265 16.328 21.4719 16.4343 21.5505 16.5133C21.6291 16.5922 21.735 16.6377 21.8462 16.6404Z" fill="#00659E"/>
<path d="M26.1076 14.6981C26.1645 14.7017 26.2215 14.6933 26.2749 14.6734C26.3284 14.6535 26.3771 14.6226 26.4179 14.5826C26.4587 14.5427 26.4907 14.4946 26.5118 14.4414C26.5329 14.3883 26.5427 14.3313 26.5405 14.2741C26.5431 14.219 26.5345 14.1639 26.5151 14.1123C26.4957 14.0606 26.466 14.0135 26.4279 13.9738C26.3897 13.9341 26.3439 13.9026 26.2931 13.8813C26.2424 13.8601 26.1879 13.8494 26.133 13.85C26.077 13.8475 26.021 13.8561 25.9684 13.8755C25.9158 13.8949 25.8675 13.9246 25.8264 13.9629C25.7854 14.0012 25.7523 14.0473 25.7291 14.0985C25.706 14.1498 25.6932 14.2051 25.6916 14.2614C25.6899 14.3176 25.6994 14.3736 25.7195 14.4261C25.7395 14.4786 25.7698 14.5266 25.8085 14.5672C25.8472 14.6079 25.8936 14.6404 25.945 14.6628C25.9963 14.6853 26.0516 14.6973 26.1076 14.6981Z" fill="#00659E"/>
<path d="M21.0356 19.4455C21.1477 19.4455 21.2551 19.4008 21.3343 19.3213C21.4135 19.2418 21.458 19.1339 21.458 19.0215C21.458 18.909 21.4135 18.8011 21.3343 18.7216C21.2551 18.6421 21.1477 18.5974 21.0356 18.5974C20.9236 18.5974 20.8162 18.6421 20.737 18.7216C20.6578 18.8011 20.6133 18.909 20.6133 19.0215C20.6133 19.1339 20.6578 19.2418 20.737 19.3213C20.8162 19.4008 20.9236 19.4455 21.0356 19.4455Z" fill="#00659E"/>
<path d="M26.2826 35.4553C25.7854 35.4586 25.3093 35.6573 24.9564 36.0089C24.6035 36.3605 24.4018 36.8369 24.3946 37.336C24.3921 37.5851 24.4387 37.8323 24.5318 38.0633C24.6248 38.2943 24.7624 38.5045 24.9367 38.6819C25.111 38.8593 25.3186 39.0003 25.5474 39.0968C25.7762 39.1933 26.0217 39.2434 26.2699 39.2442C26.7624 39.2505 27.2377 39.0622 27.5933 38.7199C27.9488 38.3777 28.1561 37.9088 28.1705 37.4144C28.1772 37.1607 28.1335 36.9081 28.0418 36.6715C27.9501 36.4349 27.8123 36.2191 27.6365 36.0366C27.4607 35.8542 27.2504 35.7088 27.0179 35.609C26.7854 35.5092 26.5354 35.4569 26.2826 35.4553ZM26.2572 38.3876C25.9886 38.38 25.7334 38.2681 25.5452 38.0756C25.357 37.8831 25.2504 37.6248 25.2478 37.3551C25.2489 37.2179 25.2772 37.0824 25.3311 36.9564C25.385 36.8304 25.4634 36.7164 25.5618 36.6212C25.6601 36.5261 25.7764 36.4516 25.9038 36.4021C26.0312 36.3526 26.1671 36.3292 26.3037 36.3331C26.4394 36.3337 26.5736 36.3611 26.6987 36.4139C26.8238 36.4667 26.9373 36.5437 27.0326 36.6406C27.128 36.7376 27.2034 36.8524 27.2544 36.9787C27.3054 37.1049 27.3311 37.24 27.33 37.3763C27.3195 37.6522 27.2009 37.9129 27 38.1015C26.7991 38.2901 26.5322 38.3914 26.2572 38.3834V38.3876Z" fill="#00659E"/>
<path d="M19.3096 35.4553C18.8981 35.4603 18.505 35.6277 18.2154 35.9213C17.9258 36.2149 17.7628 36.6111 17.7617 37.0243C17.7683 37.4325 17.9338 37.8219 18.2227 38.1091C18.5116 38.3964 18.9009 38.5588 19.3075 38.5615C19.5112 38.5643 19.7135 38.5263 19.9024 38.4496C20.0913 38.373 20.263 38.2593 20.4076 38.1151C20.5522 37.971 20.6666 37.7993 20.7442 37.6102C20.8218 37.421 20.8611 37.2183 20.8597 37.0137C20.8605 36.809 20.821 36.6062 20.7434 36.4168C20.6659 36.2275 20.5517 36.0555 20.4077 35.9106C20.2636 35.7658 20.0924 35.651 19.904 35.5729C19.7155 35.4947 19.5135 35.4548 19.3096 35.4553ZM19.3096 37.707C19.13 37.7059 18.958 37.6339 18.8308 37.5066C18.7036 37.3792 18.6313 37.2068 18.6297 37.0264C18.6262 36.9348 18.6413 36.8435 18.674 36.758C18.7067 36.6724 18.7563 36.5944 18.8198 36.5286C18.8834 36.4628 18.9596 36.4106 19.0437 36.3752C19.1279 36.3398 19.2184 36.3219 19.3096 36.3225C19.4892 36.3236 19.6612 36.3948 19.7894 36.521C19.9175 36.6473 19.9916 36.8187 19.996 36.9989C19.9944 37.1805 19.923 37.3545 19.7967 37.4845C19.6704 37.6145 19.4989 37.6904 19.3181 37.6964L19.3096 37.707Z" fill="#00659E"/>
</g>
<defs>
<filter id="filter0_d_1097_1852" x="0" y="0" width="56" height="56.1526" filterUnits="userSpaceOnUse" color-interpolation-filters="sRGB">
<feFlood flood-opacity="0" result="BackgroundImageFix"/>
<feColorMatrix in="SourceAlpha" type="matrix" values="0 0 0 0 0 0 0 0 0 0 0 0 0 0 0 0 0 0 127 0" result="hardAlpha"/>
<feOffset dx="1" dy="1"/>
<feGaussianBlur stdDeviation="5"/>
<feComposite in2="hardAlpha" operator="out"/>
<feColorMatrix type="matrix" values="0 0 0 0 0 0 0 0 0 0 0 0 0 0 0 0 0 0 0.15 0"/>
<feBlend mode="normal" in2="BackgroundImageFix" result="effect1_dropShadow_1097_1852"/>
<feBlend mode="normal" in="SourceGraphic" in2="effect1_dropShadow_1097_1852" result="shape"/>
</filter>
<clipPath id="clip0_1097_1852">
<rect width="28" height="28.1186" fill="white" transform="translate(14 13.0168)"/>
</clipPath>
</defs>
</svg>
