<svg width="56" height="57" viewBox="0 0 56 57" fill="none" xmlns="http://www.w3.org/2000/svg">
<g filter="url(#filter0_d_1097_1842)">
<rect x="9" y="9" width="36" height="36.1525" rx="4" fill="#FAFDFF"/>
<rect x="9.2" y="9.2" width="35.6" height="35.7525" rx="3.8" stroke="#00659E" stroke-width="0.4"/>
</g>
<g clip-path="url(#clip0_1097_1842)">
<path d="M36.9973 18.2535C36.9973 18.1616 36.9973 18.0698 36.9899 17.9791C36.9779 17.6893 36.8705 17.4119 36.6847 17.1912C36.499 16.9704 36.2457 16.819 35.9651 16.761C35.803 16.7349 35.6386 16.7266 35.4747 16.7362C34.532 16.7362 33.5893 16.7362 32.6306 16.7362H32.6171C32.6165 16.7316 32.6165 16.727 32.6171 16.7225C32.633 16.6368 32.6428 16.5685 32.66 16.5015C32.8586 15.7167 33.0609 14.9332 33.2595 14.1484C33.4581 13.3637 33.17 12.6149 32.5153 12.2362C32.3633 12.148 32.1966 12.0872 32.0372 12.0139H31.3875C30.5943 12.2461 30.1898 12.7962 30.0181 13.6033C29.8134 14.5632 29.5278 15.5056 29.3022 16.4593C29.2483 16.684 29.1674 16.7399 28.9455 16.7399C25.0879 16.7324 21.2299 16.7324 17.3715 16.7399C16.2474 16.7399 15.6467 17.7916 16.202 18.7875C16.5036 19.3272 16.8101 19.8653 17.1215 20.4017C17.2044 20.5414 17.2469 20.7019 17.2441 20.8649C17.2441 22.5772 17.2441 24.2883 17.2441 26.0006C17.2441 27.263 17.2441 28.5258 17.2441 29.7891C17.2362 29.8796 17.2475 29.9707 17.2773 30.0564C17.3071 30.1421 17.3547 30.2203 17.4169 30.2858C17.4886 30.3633 17.582 30.4168 17.6845 30.439C17.7871 30.4612 17.8939 30.451 17.9906 30.4099C18.0985 30.3717 18.1911 30.2989 18.2544 30.2026C18.3177 30.1062 18.3482 29.9915 18.3413 29.876C18.3413 29.2266 18.3413 28.5772 18.3413 27.9265C18.338 27.8686 18.3482 27.8107 18.371 27.7574C18.3938 27.7042 18.4285 27.657 18.4724 27.6198C20.5908 25.6231 24.081 25.5362 26.3183 27.4248C26.3742 27.4598 26.4162 27.5135 26.437 27.5765C26.4578 27.6396 26.4562 27.7081 26.4323 27.77C25.8096 30.1831 25.1929 32.5978 24.5824 35.0142C24.4866 35.3303 24.4735 35.6662 24.5444 35.989C24.6294 36.3472 24.8313 36.666 25.1175 36.8936C25.4036 37.1212 25.7571 37.2443 26.1209 37.2431C26.4848 37.2485 26.8397 37.1286 27.1274 36.903C27.4152 36.6774 27.6187 36.3595 27.7048 36.0014C28.2369 33.9393 28.7612 31.8756 29.2777 29.8102C29.3341 29.5842 29.3892 29.5147 29.6455 29.5991C31.0433 30.0648 32.5507 30.0709 33.9521 29.6165C34.637 29.3957 35.2863 29.0744 35.8793 28.6628L35.9026 28.6479V28.6765C35.9026 29.3619 35.9026 30.0101 35.9026 30.6632C35.9026 30.7874 35.8572 30.8147 35.7456 30.8122C35.4649 30.806 35.1854 30.8122 34.9046 30.8122C34.8304 30.8098 34.7564 30.8224 34.6871 30.8494C34.6177 30.8764 34.5544 30.9172 34.5009 30.9694C34.4474 31.0216 34.4048 31.0842 34.3756 31.1534C34.3464 31.2226 34.3312 31.297 34.3309 31.3723C34.3373 31.5196 34.4007 31.6585 34.5074 31.7589C34.614 31.8592 34.7554 31.9131 34.901 31.9087C35.1633 31.9087 35.4257 31.9236 35.6868 31.9087C35.8744 31.8963 35.9099 31.9683 35.9038 32.1384C35.8915 32.5047 35.8878 32.871 35.9038 33.2373C35.9124 33.4298 35.84 33.4571 35.6745 33.4546C34.9708 33.4459 34.2647 33.4683 33.561 33.4447C33.1798 33.431 32.9223 33.7054 32.9248 34.001C32.9272 34.2965 33.1957 34.5684 33.5635 34.556C34.2758 34.5324 34.9905 34.556 35.7039 34.5461C35.8511 34.5461 35.9075 34.5771 35.9026 34.7385C35.8915 35.1322 35.894 35.5258 35.9026 35.9194C35.9026 36.0436 35.8731 36.0945 35.7395 36.0908C35.4502 36.0808 35.1609 36.0821 34.8715 36.0908C34.7302 36.092 34.5949 36.1487 34.4941 36.249C34.3932 36.3493 34.3347 36.4853 34.3309 36.6284C34.3309 36.7761 34.3887 36.9177 34.4917 37.0222C34.5947 37.1268 34.7344 37.1856 34.8801 37.186C35.1055 37.199 35.3315 37.199 35.5568 37.186C35.818 37.1624 35.8094 37.263 35.7309 37.4604C35.3411 38.4451 34.4241 39.0572 33.3024 39.0572H23.191C22.4138 39.0572 21.6365 39.0672 20.8618 39.0572C19.5132 39.0374 18.4614 38.0639 18.3756 36.7042C18.3266 35.938 18.3584 35.1669 18.3499 34.3983C18.3499 34.0022 18.1279 33.7514 17.8043 33.7501C17.4807 33.7489 17.2551 34.0159 17.2539 34.3983C17.2539 35.1309 17.2465 35.8623 17.2539 36.5949C17.2714 37.5408 17.6528 38.4425 18.3168 39.1078C18.9808 39.7732 19.875 40.1498 20.809 40.1574C25.0196 40.1574 29.2286 40.1574 33.436 40.1574C34.0517 40.1646 34.6572 39.9987 35.1854 39.6781C36.4113 38.9331 36.9936 37.8155 36.9924 36.3739C36.9924 30.3259 36.994 24.2858 36.9973 18.2535ZM31.1791 13.5462C31.2086 13.4109 31.2876 13.2919 31.4001 13.2131C31.5127 13.1344 31.6505 13.1016 31.7859 13.1215C31.8581 13.1312 31.9275 13.1564 31.9893 13.1954C32.0512 13.2344 32.1041 13.2862 32.1446 13.3476C32.1851 13.4089 32.2122 13.4783 32.2241 13.5511C32.236 13.6239 32.2325 13.6984 32.2138 13.7697C31.9894 14.7246 31.7405 15.6733 31.5064 16.6256C31.4819 16.7237 31.4304 16.7349 31.3532 16.7349H30.3724C30.6421 15.6571 30.9069 14.6004 31.1791 13.5462ZM18.3474 26.2576V25.8652C18.3474 24.1268 18.3474 22.3884 18.3474 20.65C18.3511 20.4316 18.2942 20.2165 18.1831 20.0292C17.8497 19.4654 17.5297 18.8943 17.2024 18.3256C16.994 17.953 17.0638 17.8363 17.4794 17.8363H28.9491C28.225 20.6832 27.5034 23.5201 26.7842 26.347C23.9915 24.4932 21.1903 24.4559 18.3474 26.2576ZM28.2945 29.2377C27.9684 30.5341 27.6349 31.8292 27.3052 33.1243C27.0919 33.9625 26.8822 34.8006 26.6689 35.6375C26.5892 35.9467 26.4127 36.1106 26.1577 36.1218C26.0443 36.1321 25.9307 36.1038 25.8348 36.0416C25.739 35.9793 25.6663 35.8865 25.6281 35.7779C25.5821 35.6673 25.5751 35.5441 25.6085 35.4289C26.1937 33.1367 26.7792 30.8449 27.3652 28.5536C27.375 28.5126 27.3861 28.4716 27.3996 28.4294C27.6913 28.6206 27.966 28.8094 28.2504 28.9807C28.3816 29.0552 28.3153 29.1558 28.2945 29.239V29.2377ZM28.6868 27.6782C28.6696 27.7477 28.6476 27.8147 28.623 27.8979C28.325 27.7179 28.0443 27.5101 27.7845 27.2771C27.6742 27.1864 27.733 27.102 27.7563 27.0089C28.3799 24.5503 29.0043 22.0908 29.6295 19.6306C29.7656 19.0929 29.9066 18.5565 30.0365 18.0164C30.0696 17.8785 30.1224 17.8189 30.2707 17.8264C30.5159 17.8388 30.7611 17.8376 31.0062 17.8264C31.1705 17.8189 31.195 17.8562 31.1509 18.0251C30.8064 19.3537 30.4754 20.6873 30.1371 22.0184C29.6549 23.9067 29.1714 25.7936 28.6868 27.6794V27.6782ZM35.5985 27.4758C33.8565 28.818 31.9502 29.162 29.8612 28.5014C29.6724 28.4418 29.6442 28.3772 29.6945 28.1748C30.5559 24.809 31.4116 21.441 32.2616 18.071C32.3033 17.9059 32.3511 17.8227 32.557 17.8227C33.55 17.8388 34.5442 17.8227 35.5385 17.8301C35.8572 17.8301 35.8976 17.8723 35.8989 18.1939C35.8989 18.7974 35.8866 19.4021 35.8989 20.0056C35.9062 20.2266 35.829 20.2614 35.6402 20.2539C35.395 20.2378 35.1351 20.2465 34.8814 20.2539C34.736 20.2526 34.5959 20.3093 34.4915 20.4118C34.3871 20.5143 34.3268 20.6543 34.3236 20.8015C34.3265 20.9491 34.3869 21.0895 34.4916 21.1921C34.5963 21.2947 34.7369 21.3511 34.8826 21.3491C35.1535 21.3553 35.4245 21.3578 35.6954 21.3491C35.8388 21.3491 35.9026 21.3715 35.8964 21.5379C35.8842 21.9228 35.8817 22.3077 35.8964 22.6914C35.905 22.8777 35.8314 22.8963 35.6794 22.8926C35.3117 22.8826 34.9377 22.8926 34.5675 22.8926C34.1973 22.8926 33.8455 22.8926 33.4838 22.8926C33.3383 22.8882 33.1969 22.942 33.0902 23.0424C32.9835 23.1428 32.9201 23.2817 32.9137 23.429C32.9138 23.5045 32.929 23.5791 32.9583 23.6485C32.9876 23.7179 33.0305 23.7806 33.0843 23.8328C33.1381 23.885 33.2018 23.9256 33.2715 23.9522C33.3412 23.9789 33.4155 23.991 33.49 23.9878C34.2255 23.9878 34.9537 23.9878 35.6856 23.9878C35.8498 23.9878 35.9026 24.0225 35.8964 24.1964C35.8817 24.5801 35.8854 24.965 35.8964 25.3499C35.8964 25.494 35.8609 25.5387 35.7162 25.5325C35.4453 25.5213 35.1743 25.5325 34.9034 25.5325C34.8291 25.5291 34.7548 25.541 34.6851 25.5673C34.6153 25.5936 34.5515 25.6338 34.4974 25.6856C34.4433 25.7374 34.4001 25.7996 34.3702 25.8687C34.3404 25.9377 34.3245 26.0121 34.3236 26.0875C34.3236 26.3955 34.5761 26.6264 34.9157 26.6301C35.1866 26.6301 35.4576 26.6364 35.7285 26.6301C35.8511 26.6301 35.8842 26.6662 35.8989 26.7965C35.9172 26.9266 35.8986 27.0592 35.8455 27.179C35.7923 27.2988 35.7067 27.4008 35.5985 27.4733V27.4758Z" fill="#00659E"/>
<path d="M17.7808 32.6427C17.9265 32.6447 18.0672 32.5885 18.1723 32.4862C18.2774 32.3839 18.3385 32.2439 18.3423 32.0963C18.3453 31.9485 18.2903 31.8056 18.1894 31.6988C18.0886 31.5919 17.95 31.5299 17.8041 31.5264C17.6584 31.5298 17.5197 31.5899 17.4165 31.6941C17.3134 31.7984 17.2537 31.9388 17.25 32.0864C17.2548 32.2292 17.3118 32.3651 17.4099 32.4679C17.5079 32.5706 17.6401 32.6329 17.7808 32.6427Z" fill="#00659E"/>
<path d="M21.5035 18.9751C21.2894 18.9745 21.0773 19.0166 20.8794 19.0993C20.6814 19.1819 20.5015 19.3033 20.35 19.4565C20.1985 19.6097 20.0784 19.7917 19.9965 19.9921C19.9147 20.1925 19.8727 20.4073 19.873 20.6241C19.8772 21.062 20.0511 21.4807 20.3573 21.7898C20.6635 22.099 21.0773 22.2739 21.5096 22.2768C21.9419 22.2717 22.355 22.0953 22.6604 21.7854C22.9658 21.4756 23.1393 21.057 23.1438 20.6191C23.1409 20.181 22.9666 19.7619 22.6591 19.4538C22.3516 19.1456 21.9361 18.9735 21.5035 18.9751ZM21.5035 21.163C21.4335 21.1627 21.3642 21.1482 21.2997 21.1203C21.2353 21.0925 21.177 21.0518 21.1284 21.0008C21.0797 20.9498 21.0416 20.8894 21.0163 20.8232C20.9911 20.757 20.9792 20.6863 20.9813 20.6154C20.9804 20.5447 20.9937 20.4745 21.0202 20.4091C21.0467 20.3437 21.0859 20.2843 21.1356 20.2346C21.1853 20.1849 21.2443 20.1458 21.3092 20.1197C21.3741 20.0936 21.4435 20.081 21.5133 20.0827C21.5832 20.0823 21.6524 20.0963 21.7169 20.1237C21.7813 20.1511 21.8396 20.1914 21.8883 20.2422C21.9369 20.293 21.975 20.3532 22.0001 20.4193C22.0252 20.4853 22.0368 20.5559 22.0343 20.6266C22.0353 20.6976 22.0222 20.7681 21.9957 20.8339C21.9692 20.8997 21.9299 20.9594 21.8802 21.0095C21.8304 21.0596 21.7712 21.099 21.706 21.1253C21.6409 21.1517 21.5712 21.1645 21.5011 21.163H21.5035Z" fill="#00659E"/>
<path d="M24.5717 21.9526C24.426 21.9546 24.287 22.0149 24.185 22.1202C24.0831 22.2256 24.0264 22.3676 24.0274 22.5151C24.0337 22.6624 24.0972 22.8011 24.2039 22.9013C24.3106 23.0015 24.452 23.055 24.5974 23.0503C24.6671 23.049 24.7359 23.0338 24.7998 23.0056C24.8637 22.9774 24.9215 22.9367 24.9699 22.8858C25.0183 22.835 25.0563 22.775 25.0818 22.7092C25.1073 22.6435 25.1197 22.5733 25.1184 22.5027C25.1201 22.4297 25.1071 22.3571 25.0802 22.2893C25.0533 22.2216 25.013 22.1601 24.9619 22.1086C24.9107 22.0571 24.8497 22.0167 24.7826 21.9899C24.7155 21.9631 24.6438 21.9504 24.5717 21.9526Z" fill="#00659E"/>
<path d="M19.9459 23.3072C19.8738 23.307 19.8025 23.3216 19.7361 23.3501C19.6698 23.3787 19.6099 23.4206 19.56 23.4733C19.5101 23.526 19.4713 23.5885 19.446 23.6568C19.4207 23.7252 19.4094 23.798 19.4127 23.871C19.4166 24.0133 19.474 24.1488 19.573 24.2498C19.6721 24.3508 19.8054 24.4099 19.9459 24.4149C20.0914 24.4132 20.2305 24.354 20.3334 24.2498C20.4363 24.1456 20.4948 24.0047 20.4964 23.8573C20.4969 23.7843 20.4829 23.7119 20.4554 23.6445C20.4278 23.577 20.3871 23.5158 20.3358 23.4646C20.2845 23.4133 20.2236 23.3729 20.1566 23.3459C20.0896 23.3189 20.018 23.3057 19.9459 23.3072Z" fill="#00659E"/>
</g>
<defs>
<filter id="filter0_d_1097_1842" x="0" y="0" width="56" height="56.1526" filterUnits="userSpaceOnUse" color-interpolation-filters="sRGB">
<feFlood flood-opacity="0" result="BackgroundImageFix"/>
<feColorMatrix in="SourceAlpha" type="matrix" values="0 0 0 0 0 0 0 0 0 0 0 0 0 0 0 0 0 0 127 0" result="hardAlpha"/>
<feOffset dx="1" dy="1"/>
<feGaussianBlur stdDeviation="5"/>
<feComposite in2="hardAlpha" operator="out"/>
<feColorMatrix type="matrix" values="0 0 0 0 0 0 0 0 0 0 0 0 0 0 0 0 0 0 0.15 0"/>
<feBlend mode="normal" in2="BackgroundImageFix" result="effect1_dropShadow_1097_1842"/>
<feBlend mode="normal" in="SourceGraphic" in2="effect1_dropShadow_1097_1842" result="shape"/>
</filter>
<clipPath id="clip0_1097_1842">
<rect width="21" height="28.1186" fill="white" transform="translate(16 12.0127)"/>
</clipPath>
</defs>
</svg>
