<svg width="56" height="57" viewBox="0 0 56 57" fill="none" xmlns="http://www.w3.org/2000/svg">
<g filter="url(#filter0_d_1097_1875)">
<rect x="9" y="9" width="36" height="36.1525" rx="4" fill="#FAFDFF"/>
<rect x="9.2" y="9.2" width="35.6" height="35.7525" rx="3.8" stroke="#00659E" stroke-width="0.4"/>
</g>
<g clip-path="url(#clip0_1097_1875)">
<path d="M36.7338 34.1871C34.8116 30.7859 32.8908 27.3801 30.9714 23.9698C30.887 23.8275 30.8433 23.6625 30.8456 23.4947C30.8506 21.8969 30.8506 20.2995 30.8456 18.7024C30.8363 18.6381 30.8493 18.5723 30.8823 18.5173C30.9153 18.4623 30.966 18.4217 31.0252 18.4031C31.4774 18.191 31.8465 17.8208 32.0699 17.355C32.2934 16.8892 32.3577 16.3564 32.2518 15.8465C32.1545 15.3432 31.8981 14.8896 31.5245 14.56C31.1508 14.2305 30.6822 14.0445 30.1952 14.0325C28.2142 14.0159 26.2325 14.0159 24.25 14.0325C23.7638 14.0455 23.2961 14.232 22.9234 14.5614C22.5506 14.8909 22.2948 15.3439 22.1977 15.8465C22.0919 16.3565 22.1564 16.8895 22.38 17.3553C22.6037 17.821 22.973 18.1911 23.4254 18.4031C23.4844 18.4222 23.535 18.4631 23.5677 18.5183C23.6005 18.5734 23.6133 18.6392 23.6039 18.7035C23.5989 20.3089 23.5989 21.9147 23.6039 23.5208C23.6069 23.6715 23.5696 23.82 23.4964 23.9494C22.3289 26.0143 21.1635 28.0811 20.0002 30.1498C19.167 31.6362 18.2801 33.0908 17.5125 34.6156C16.5965 36.4296 17.3459 38.7867 19.08 39.7118C19.4466 39.9068 19.8433 39.9873 20.2217 40.1313H34.1977C34.4611 40.018 34.746 39.9873 35.0148 39.8853C36.2963 39.4035 37.3004 37.933 37.3445 36.5022C37.3605 35.6841 37.1481 34.879 36.7338 34.1871ZM23.0728 27.6964C23.6695 26.6329 24.2651 25.5695 24.8693 24.5106C24.9911 24.3013 25.0541 24.0599 25.051 23.8145C25.0445 22.158 25.0509 20.5016 25.0434 18.8452C25.0434 18.6559 25.0843 18.6094 25.266 18.6106C26.5697 18.6196 27.8741 18.6196 29.1793 18.6106C29.3577 18.6106 29.4115 18.6502 29.4039 18.8441C29.3867 19.2262 29.3943 19.6083 29.4039 19.9903C29.4039 20.1116 29.376 20.1536 29.2577 20.1479C29.0567 20.1377 28.8546 20.1411 28.6535 20.1479C28.559 20.1498 28.4658 20.1714 28.3793 20.2115C28.2928 20.2516 28.2146 20.3094 28.1494 20.3815C28.0841 20.4535 28.033 20.5386 27.9991 20.6316C27.9651 20.7246 27.9489 20.8238 27.9515 20.9234C27.9528 21.1193 28.0262 21.307 28.1561 21.447C28.2861 21.587 28.4625 21.6684 28.6482 21.6739C28.8492 21.6739 29.0513 21.6819 29.2524 21.6739C29.3695 21.6739 29.4018 21.7091 29.3996 21.8304C29.3932 22.2385 29.3932 22.6463 29.3996 23.0537C29.3996 23.1773 29.3674 23.2147 29.2513 23.209C29.0502 23.2 28.8492 23.2022 28.6471 23.209C28.5526 23.2114 28.4596 23.2334 28.3732 23.2738C28.2868 23.3142 28.2089 23.3722 28.1438 23.4445C28.0788 23.5168 28.028 23.6019 27.9942 23.6949C27.9605 23.788 27.9445 23.8872 27.9472 23.9868C27.9483 24.1837 28.0225 24.3723 28.154 24.5122C28.2854 24.6521 28.4636 24.7321 28.6503 24.7351C28.9481 24.7419 29.2459 24.743 29.5437 24.7351C29.5941 24.7297 29.6449 24.7412 29.6889 24.7678C29.7328 24.7945 29.7678 24.8349 29.7888 24.8836C30.7922 26.6681 31.7956 28.4503 32.799 30.2303C32.8732 30.3618 32.8496 30.3936 32.7281 30.4571C31.1101 31.2972 29.6007 30.9888 28.1622 29.9752C27.6483 29.6136 27.1947 29.1623 26.6507 28.8415C25.5186 28.176 24.3328 27.7644 23.0148 27.9345C22.9988 27.9336 22.9832 27.9298 22.9685 27.9231C22.9707 27.829 23.033 27.7667 23.0728 27.6964ZM24.3263 15.5653C24.5833 15.5506 24.8413 15.5653 25.0983 15.5653H30.0232C30.4156 15.5653 30.6962 15.7558 30.8005 16.08C30.9693 16.605 30.6145 17.0891 30.0479 17.0925C29.0986 17.0981 28.1483 17.0925 27.199 17.0925C26.2658 17.0925 25.3326 17.0925 24.4038 17.0925C24.0425 17.0925 23.7652 16.9031 23.6577 16.6016C23.4738 16.097 23.7996 15.5891 24.3263 15.5608V15.5653ZM33.572 38.6064H27.2183C25.0918 38.6064 22.9657 38.6064 20.8399 38.6064C19.7562 38.6064 18.9434 37.9681 18.6499 36.9058C18.568 36.6119 18.546 36.3031 18.5855 35.9996C18.6249 35.6961 18.725 35.4049 18.8789 35.1451C19.8465 33.4173 20.8216 31.6963 21.7902 29.9696C21.8364 29.8913 21.9066 29.8321 21.9891 29.8018C23.1631 29.2768 24.3145 29.3483 25.4563 29.9231C25.9923 30.2105 26.497 30.5587 26.9614 30.9616C27.8159 31.6721 28.8168 32.1606 29.8834 32.3878C31.0456 32.635 32.1497 32.4196 33.2162 31.9162C33.6376 31.7155 33.6344 31.7087 33.8741 32.1327C34.4246 33.1078 34.9782 34.0794 35.5222 35.0578C36.2221 36.314 35.8125 37.8003 34.6084 38.391C34.2826 38.5407 33.9294 38.6127 33.5742 38.6019L33.572 38.6064Z" fill="#00659E"/>
<path d="M22.8664 32.4832C22.7698 32.4819 22.6741 32.5013 22.5848 32.5402C22.4956 32.5792 22.4149 32.6368 22.3474 32.7096C22.2799 32.7824 22.2272 32.869 22.1924 32.9639C22.1576 33.0589 22.1415 33.1604 22.145 33.2621C22.145 33.3616 22.1637 33.4602 22.2002 33.552C22.2366 33.6438 22.29 33.727 22.3572 33.7969C22.4245 33.8667 22.5042 33.9217 22.5918 33.9588C22.6794 33.9958 22.7731 34.0141 22.8674 34.0126C23.0584 34.0139 23.2421 33.9354 23.3784 33.7944C23.5148 33.6534 23.5927 33.4612 23.5953 33.2598C23.5967 33.1581 23.5789 33.0571 23.5429 32.9627C23.5068 32.8683 23.4533 32.7825 23.3854 32.7101C23.3176 32.6378 23.2367 32.5805 23.1476 32.5415C23.0585 32.5026 22.9629 32.4828 22.8664 32.4832Z" fill="#00659E"/>
<path d="M31.5727 34.0138C31.4763 34.0118 31.3805 34.0304 31.2911 34.0686C31.2017 34.1067 31.1206 34.1636 31.0526 34.2358C30.9847 34.308 30.9313 34.3939 30.8958 34.4885C30.8603 34.5831 30.8433 34.6842 30.846 34.7859C30.8455 34.8855 30.8639 34.9843 30.8999 35.0764C30.9359 35.1685 30.9889 35.2521 31.0558 35.3224C31.1227 35.3928 31.2022 35.4484 31.2896 35.4861C31.3771 35.5238 31.4707 35.5429 31.5652 35.5421C31.6616 35.5432 31.7573 35.5239 31.8466 35.4855C31.9358 35.4471 32.0169 35.3902 32.0851 35.3183C32.1533 35.2464 32.2072 35.1609 32.2436 35.0667C32.2801 34.9726 32.2983 34.8717 32.2973 34.77C32.2956 34.5687 32.2185 34.3762 32.0828 34.2345C31.947 34.0928 31.7637 34.0135 31.5727 34.0138Z" fill="#00659E"/>
<path d="M27.2231 35.5431C27.1266 35.5412 27.0308 35.56 26.9414 35.5983C26.852 35.6365 26.7709 35.6935 26.703 35.7658C26.635 35.8381 26.5817 35.9241 26.5462 36.0187C26.5107 36.1134 26.4937 36.2146 26.4964 36.3163C26.4959 36.4159 26.5143 36.5146 26.5503 36.6066C26.5863 36.6986 26.6393 36.7822 26.7063 36.8524C26.7732 36.9227 26.8527 36.9782 26.9401 37.0158C27.0275 37.0534 27.1212 37.0723 27.2156 37.0714C27.3121 37.0725 27.4079 37.0532 27.4972 37.0147C27.5866 36.9762 27.6677 36.9192 27.7359 36.8472C27.8041 36.7752 27.858 36.6895 27.8944 36.5952C27.9307 36.501 27.9489 36.4 27.9477 36.2982C27.9457 36.097 27.8685 35.9048 27.7328 35.7634C27.5971 35.622 27.4139 35.5428 27.2231 35.5431Z" fill="#00659E"/>
</g>
<defs>
<filter id="filter0_d_1097_1875" x="0" y="0" width="56" height="56.1526" filterUnits="userSpaceOnUse" color-interpolation-filters="sRGB">
<feFlood flood-opacity="0" result="BackgroundImageFix"/>
<feColorMatrix in="SourceAlpha" type="matrix" values="0 0 0 0 0 0 0 0 0 0 0 0 0 0 0 0 0 0 127 0" result="hardAlpha"/>
<feOffset dx="1" dy="1"/>
<feGaussianBlur stdDeviation="5"/>
<feComposite in2="hardAlpha" operator="out"/>
<feColorMatrix type="matrix" values="0 0 0 0 0 0 0 0 0 0 0 0 0 0 0 0 0 0 0.15 0"/>
<feBlend mode="normal" in2="BackgroundImageFix" result="effect1_dropShadow_1097_1875"/>
<feBlend mode="normal" in="SourceGraphic" in2="effect1_dropShadow_1097_1875" result="shape"/>
</filter>
<clipPath id="clip0_1097_1875">
<rect width="20.2222" height="26.1102" fill="white" transform="translate(17.1113 14.0212)"/>
</clipPath>
</defs>
</svg>
