<svg width="56" height="57" viewBox="0 0 56 57" fill="none" xmlns="http://www.w3.org/2000/svg">
<g filter="url(#filter0_d_1097_1796)">
<rect x="9" y="9" width="36" height="36.1525" rx="4" fill="#FAFDFF"/>
<rect x="9.2" y="9.2" width="35.6" height="35.7525" rx="3.8" stroke="#00659E" stroke-width="0.4"/>
</g>
<g clip-path="url(#clip0_1097_1796)">
<path d="M39.6661 25.2717C38.3454 24.0664 37.0211 22.8637 35.6932 21.6638C35.616 21.6015 35.5545 21.5222 35.5139 21.4321C35.4733 21.342 35.4546 21.2437 35.4594 21.1451C35.4701 19.3531 35.4661 17.5612 35.4594 15.7679C35.4594 15.6265 35.4593 15.5399 35.6529 15.5439C36.0951 15.5545 36.3988 15.3172 36.4781 14.9386C36.5574 14.5599 36.3666 14.2506 35.9553 14.0572C35.9419 14.0572 35.9338 14.0332 35.923 14.0212H30.3817C30.2454 14.0339 30.1162 14.0875 30.0115 14.175C29.9068 14.2624 29.8315 14.3795 29.7957 14.5106C29.7545 14.6295 29.741 14.7561 29.7561 14.8809C29.7711 15.0058 29.8143 15.1256 29.8825 15.2316C29.9507 15.3376 30.0421 15.4269 30.15 15.493C30.2578 15.5591 30.3792 15.6002 30.5053 15.6132C30.6101 15.6279 30.7553 15.5972 30.7647 15.7545C30.7875 16.1812 30.7714 16.6079 30.7755 17.0878C29.7217 16.1545 28.7379 15.2359 27.742 14.3319C27.5988 14.1771 27.4111 14.0696 27.2044 14.0239H26.8012C26.4665 14.1719 26.23 14.4452 25.9679 14.6839C22.09 18.2225 18.2125 21.762 14.3355 25.3023C14.0801 25.5357 13.9511 25.7997 14.0317 26.1383C14.0622 26.2761 14.1325 26.4022 14.2339 26.5011C14.3353 26.6001 14.4635 26.6677 14.6029 26.6956C14.7322 26.7272 14.8675 26.7244 14.9954 26.6877C15.1232 26.6509 15.2391 26.5815 15.3314 26.4863C15.869 25.9943 16.4133 25.501 16.998 24.9677V25.2743C16.998 29.9054 16.9957 34.5359 16.9912 39.1661C16.9912 39.6287 17.1377 39.95 17.5665 40.1327H36.4472C36.8813 39.9394 37.0197 39.5994 37.0184 39.1367C37.0058 34.5146 37.0032 29.8925 37.0104 25.2703V24.949C37.3101 25.2157 37.5708 25.453 37.8315 25.6903L38.6245 26.413C39.0143 26.7676 39.4954 26.781 39.8059 26.4437C40.1163 26.1063 40.0613 25.6317 39.6661 25.2717ZM32.5657 15.5465C32.9689 15.5572 33.3721 15.5465 33.7753 15.5465C33.8694 15.5465 33.9339 15.5465 33.9339 15.6799C33.9272 17.1158 33.9272 18.5505 33.9231 19.9851C33.9231 19.9851 33.9111 19.9931 33.8869 20.0091C33.4138 19.5798 32.9393 19.1465 32.4609 18.7158C32.4339 18.6894 32.4135 18.657 32.4014 18.6214C32.3892 18.5857 32.3857 18.5477 32.391 18.5105C32.391 17.5838 32.391 16.6585 32.391 15.7332C32.3829 15.5879 32.4192 15.5439 32.5657 15.5465ZM35.2282 38.6047C32.4837 38.5985 29.7388 38.5985 26.9934 38.6047C24.2745 38.6047 21.5555 38.6047 18.8366 38.6047C18.6027 38.6047 18.5261 38.5701 18.5275 38.3127C18.5373 33.4764 18.5373 28.6405 18.5275 23.805C18.5227 23.7268 18.5365 23.6485 18.5678 23.5765C18.5991 23.5044 18.6469 23.4407 18.7075 23.3904C21.4117 20.9282 24.1123 18.4625 26.8093 15.9932C26.9437 15.8679 27.0189 15.8479 27.1708 15.9865C29.8776 18.4603 32.589 20.9273 35.3048 23.3877C35.3562 23.4295 35.3972 23.4826 35.4245 23.5427C35.4518 23.6029 35.4646 23.6685 35.462 23.7344C35.462 28.6134 35.462 33.4915 35.462 38.3687C35.4661 38.5634 35.4177 38.6061 35.2282 38.6047Z" fill="#00659E"/>
<path d="M29.3385 31.1595C29.3385 29.7311 29.3385 28.3036 29.3385 26.877C29.3385 25.5437 29.3385 24.2103 29.3385 22.877C29.3385 22.665 29.3277 22.4517 29.3076 22.2411C29.1879 20.9917 27.8816 20.0251 26.6478 20.2691C25.4596 20.5024 24.7016 21.4117 24.7003 22.6277C24.7003 25.457 24.7003 28.2858 24.7003 31.1142C24.7031 31.1878 24.6909 31.2612 24.6643 31.3299C24.6378 31.3987 24.5974 31.4614 24.5457 31.5142C23.9908 32.1029 23.6803 32.8776 23.6761 33.6835C23.6691 34.1655 23.7692 34.6431 23.9693 35.0824C24.1694 35.5216 24.4645 35.9118 24.8338 36.2252C25.203 36.5385 25.6373 36.7673 26.1057 36.8954C26.5742 37.0235 27.0653 37.0476 27.5442 36.9661C28.8103 36.7474 29.6852 36.0101 30.1113 34.8181C30.5373 33.6262 30.3089 32.5288 29.485 31.5649C29.3858 31.4533 29.3333 31.3082 29.3385 31.1595ZM26.2674 22.5144C26.2699 22.3168 26.3507 22.1281 26.4923 21.9891C26.6339 21.8502 26.8249 21.7721 27.0241 21.7717C27.1246 21.7733 27.2239 21.7945 27.3162 21.8342C27.4084 21.8738 27.4919 21.9312 27.5618 22.0029C27.6317 22.0746 27.6867 22.1592 27.7236 22.2521C27.7604 22.3449 27.7785 22.444 27.7767 22.5437C27.7767 23.137 27.7767 23.7317 27.7767 24.3263C27.7767 24.921 27.7767 25.5143 27.7767 26.109C27.7767 26.2796 27.7257 26.3196 27.563 26.3143C27.1786 26.3023 26.7943 26.305 26.4099 26.3143C26.2849 26.3143 26.2526 26.2796 26.254 26.157C26.2647 24.949 26.258 23.7277 26.2674 22.5144ZM28.6571 34.2968C28.3882 35.0261 27.8507 35.4115 27.0873 35.4821C26.387 35.5474 25.6626 35.0821 25.3723 34.4221C25.082 33.7622 25.2379 32.9035 25.8077 32.4475C25.965 32.3256 26.0894 32.1669 26.1698 31.9857C26.2503 31.8044 26.2842 31.6063 26.2687 31.4089C26.2513 30.2889 26.2688 29.1676 26.2593 28.0463C26.2593 27.8823 26.2983 27.8303 26.4676 27.8369C26.8346 27.8503 27.2028 27.8489 27.5698 27.8369C27.7337 27.8369 27.7861 27.8716 27.7834 28.0436C27.7713 28.6543 27.7834 29.2662 27.7834 29.8769C27.7834 30.4462 27.7915 31.0155 27.7834 31.5835C27.775 31.7398 27.8039 31.8959 27.8676 32.039C27.9314 32.1822 28.0282 32.3084 28.1504 32.4075C28.421 32.6321 28.615 32.9342 28.7057 33.2724C28.7965 33.6107 28.7794 33.9685 28.6571 34.2968Z" fill="#00659E"/>
<path d="M22.3642 24.7797C22.4986 24.7797 22.6209 24.7797 22.7499 24.7797C22.879 24.7797 23.0187 24.7797 23.1599 24.7797C23.2603 24.7801 23.3598 24.7606 23.4527 24.7225C23.5455 24.6844 23.6297 24.6283 23.7005 24.5576C23.7713 24.4869 23.8272 24.4029 23.8649 24.3106C23.9027 24.2183 23.9216 24.1194 23.9206 24.0197C23.9229 23.92 23.9052 23.8209 23.8684 23.7281C23.8317 23.6353 23.7767 23.5506 23.7066 23.4791C23.6366 23.4076 23.5528 23.3507 23.4603 23.3117C23.3678 23.2726 23.2685 23.2523 23.1679 23.2518C22.8991 23.2518 22.6384 23.2518 22.3736 23.2518C22.2724 23.2507 22.1719 23.2697 22.0782 23.3078C21.9845 23.3458 21.8994 23.4021 21.828 23.4734C21.7566 23.5446 21.7003 23.6293 21.6624 23.7224C21.6246 23.8156 21.6059 23.9153 21.6075 24.0157C21.6059 24.1154 21.6243 24.2143 21.6616 24.3069C21.6989 24.3994 21.7543 24.4837 21.8247 24.5548C21.8951 24.6259 21.9791 24.6824 22.0717 24.721C22.1643 24.7596 22.2637 24.7796 22.3642 24.7797Z" fill="#00659E"/>
<path d="M31.6307 23.2517C31.3619 23.2517 31.0971 23.2517 30.8363 23.2517C30.7355 23.2513 30.6356 23.2709 30.5424 23.3093C30.4493 23.3477 30.3648 23.404 30.2938 23.4752C30.2229 23.5463 30.1669 23.6307 30.1292 23.7235C30.0915 23.8163 30.0729 23.9157 30.0743 24.0157C30.0729 24.1152 30.0913 24.2141 30.1286 24.3065C30.1658 24.399 30.2212 24.4832 30.2914 24.5543C30.3616 24.6255 30.4453 24.6821 30.5377 24.721C30.6301 24.7599 30.7293 24.7803 30.8296 24.781C30.964 24.781 31.0863 24.781 31.214 24.781C31.3417 24.781 31.4828 24.781 31.6239 24.781C31.7249 24.7814 31.8249 24.7618 31.9182 24.7233C32.0114 24.6849 32.096 24.6284 32.167 24.5571C32.2379 24.4858 32.2938 24.4013 32.3315 24.3083C32.3691 24.2153 32.3876 24.1159 32.386 24.0157C32.3876 23.9162 32.3693 23.8173 32.332 23.7249C32.2948 23.6324 32.2395 23.5482 32.1692 23.4771C32.099 23.4061 32.0152 23.3495 31.9227 23.3109C31.8303 23.2722 31.731 23.2521 31.6307 23.2517Z" fill="#00659E"/>
<path d="M22.3687 27.8397C22.6375 27.8397 22.8983 27.8397 23.1631 27.8397C23.2635 27.8397 23.363 27.8199 23.4556 27.7815C23.5483 27.743 23.6324 27.6867 23.7029 27.6157C23.7734 27.5448 23.829 27.4606 23.8665 27.3681C23.904 27.2757 23.9225 27.1767 23.9211 27.0771C23.9228 26.9774 23.9046 26.8784 23.8675 26.7858C23.8304 26.6932 23.7751 26.6089 23.7048 26.5377C23.6345 26.4664 23.5507 26.4098 23.4581 26.371C23.3656 26.3322 23.2662 26.3121 23.1657 26.3118C23.0313 26.3118 22.909 26.3118 22.7813 26.3118C22.6537 26.3118 22.5125 26.3118 22.3714 26.3118C22.271 26.3118 22.1715 26.3316 22.0788 26.37C21.9861 26.4085 21.9021 26.4648 21.8316 26.5358C21.761 26.6067 21.7054 26.6909 21.668 26.7834C21.6305 26.8758 21.612 26.9748 21.6134 27.0744C21.6116 27.1741 21.6298 27.2731 21.667 27.3657C21.7041 27.4583 21.7594 27.5426 21.8297 27.6138C21.9 27.6851 21.9838 27.7417 22.0763 27.7805C22.1689 27.8193 22.2683 27.8394 22.3687 27.8397Z" fill="#00659E"/>
<path d="M31.6241 26.3118C31.4897 26.3118 31.3674 26.3118 31.2383 26.3118C31.1093 26.3118 30.9695 26.3118 30.8351 26.3118C30.7338 26.3116 30.6335 26.3315 30.54 26.3703C30.4466 26.4092 30.3619 26.4662 30.291 26.538C30.2201 26.6098 30.1644 26.695 30.1272 26.7885C30.09 26.882 30.0721 26.9819 30.0744 27.0824C30.0739 27.182 30.0932 27.2806 30.1313 27.3728C30.1694 27.4649 30.2254 27.5486 30.2963 27.6191C30.3671 27.6896 30.4513 27.7455 30.544 27.7836C30.6367 27.8217 30.7361 27.8412 30.8365 27.8411C31.1053 27.8411 31.3674 27.8411 31.6321 27.8411C31.7326 27.84 31.8318 27.8193 31.924 27.7799C32.0163 27.7406 32.0997 27.6835 32.1696 27.612C32.2395 27.5404 32.2944 27.4558 32.3311 27.3631C32.3678 27.2704 32.3856 27.1713 32.3834 27.0718C32.3843 26.9723 32.3653 26.8736 32.3276 26.7814C32.2898 26.6893 32.234 26.6054 32.1634 26.5348C32.0928 26.4641 32.0088 26.408 31.9162 26.3697C31.8237 26.3315 31.7244 26.3118 31.6241 26.3118Z" fill="#00659E"/>
<path d="M23.9194 30.1237C23.9194 29.9268 23.8416 29.7377 23.7026 29.5971C23.5636 29.4565 23.3746 29.3755 23.1761 29.3717C22.9073 29.3717 22.6466 29.3717 22.3818 29.3717C22.2813 29.3699 22.1815 29.388 22.0881 29.425C21.9948 29.4619 21.9098 29.5169 21.8381 29.5868C21.7664 29.6567 21.7094 29.74 21.6706 29.832C21.6317 29.9239 21.6117 30.0226 21.6117 30.1224C21.6084 30.2241 21.626 30.3254 21.6633 30.4202C21.7005 30.515 21.7568 30.6013 21.8286 30.674C21.9005 30.7466 21.9864 30.8041 22.0813 30.8429C22.1761 30.8817 22.2779 30.901 22.3805 30.8997C22.5082 30.8997 22.6359 30.8997 22.7649 30.8997C22.8939 30.8997 23.0337 30.8997 23.1748 30.8997C23.2752 30.8978 23.3743 30.8761 23.4662 30.836C23.5581 30.7959 23.6411 30.738 23.7104 30.6659C23.7796 30.5937 23.8338 30.5086 23.8696 30.4156C23.9055 30.3225 23.9224 30.2233 23.9194 30.1237Z" fill="#00659E"/>
<path d="M31.6354 29.3716C31.3666 29.3716 31.1045 29.3716 30.8397 29.3716C30.7393 29.3709 30.6397 29.39 30.5468 29.4278C30.4538 29.4656 30.3694 29.5214 30.2984 29.5918C30.2273 29.6623 30.1711 29.7461 30.133 29.8383C30.0949 29.9305 30.0756 30.0293 30.0763 30.1289C30.0742 30.2306 30.0927 30.3317 30.1309 30.4261C30.1691 30.5205 30.2261 30.6062 30.2985 30.6782C30.371 30.7502 30.4573 30.8069 30.5524 30.845C30.6475 30.883 30.7493 30.9016 30.8518 30.8996C30.9715 30.8996 31.0911 30.8996 31.2107 30.8996C31.3572 30.8996 31.5023 30.8996 31.6475 30.8996C31.8457 30.8937 32.0338 30.8112 32.1716 30.6697C32.3095 30.5283 32.3861 30.339 32.3854 30.1423C32.388 30.0426 32.3707 29.9433 32.3343 29.8504C32.2979 29.7574 32.2432 29.6726 32.1734 29.6009C32.1035 29.5291 32.02 29.4719 31.9276 29.4325C31.8353 29.3932 31.7359 29.3725 31.6354 29.3716Z" fill="#00659E"/>
</g>
<defs>
<filter id="filter0_d_1097_1796" x="0" y="0" width="56" height="56.1526" filterUnits="userSpaceOnUse" color-interpolation-filters="sRGB">
<feFlood flood-opacity="0" result="BackgroundImageFix"/>
<feColorMatrix in="SourceAlpha" type="matrix" values="0 0 0 0 0 0 0 0 0 0 0 0 0 0 0 0 0 0 127 0" result="hardAlpha"/>
<feOffset dx="1" dy="1"/>
<feGaussianBlur stdDeviation="5"/>
<feComposite in2="hardAlpha" operator="out"/>
<feColorMatrix type="matrix" values="0 0 0 0 0 0 0 0 0 0 0 0 0 0 0 0 0 0 0.15 0"/>
<feBlend mode="normal" in2="BackgroundImageFix" result="effect1_dropShadow_1097_1796"/>
<feBlend mode="normal" in="SourceGraphic" in2="effect1_dropShadow_1097_1796" result="shape"/>
</filter>
<clipPath id="clip0_1097_1796">
<rect width="26" height="26.1101" fill="white" transform="translate(14 14.0212)"/>
</clipPath>
</defs>
</svg>
