<svg width="56" height="57" viewBox="0 0 56 57" fill="none" xmlns="http://www.w3.org/2000/svg">
<g filter="url(#filter0_d_1097_1808)">
<rect x="9" y="9" width="36" height="36.1525" rx="4" fill="#FAFDFF"/>
<rect x="9.2" y="9.2" width="35.6" height="35.7525" rx="3.8" stroke="#00659E" stroke-width="0.4"/>
</g>
<g clip-path="url(#clip0_1097_1808)">
<path d="M26.96 13.0169C19.2142 13.0404 12.9838 19.3714 13.0004 27.057C12.9387 34.7903 19.397 41.4765 27.6417 41.1221C34.835 40.8131 41.0079 34.8011 41.0004 27.0444C40.9921 19.3052 34.7049 12.9943 26.96 13.0169ZM26.8482 40.4855C25.0869 40.4689 23.3463 40.1021 21.727 39.4064C20.1077 38.7106 18.6418 37.6996 17.4139 36.4319C16.186 35.1642 15.2205 33.6647 14.5731 32.0203C13.9257 30.3758 13.6093 28.6188 13.6421 26.8509C13.7431 19.6311 19.6498 13.4709 27.4189 13.6669C34.5196 13.847 40.3521 19.6143 40.3605 27.062C40.3633 28.8376 40.0148 30.596 39.335 32.2352C38.6552 33.8744 37.6578 35.3616 36.4006 36.6106C35.1434 37.8595 33.6516 38.8452 32.0117 39.5104C30.3719 40.1756 28.6167 40.5071 26.8482 40.4855Z" fill="#00659E"/>
<path d="M27.2501 14.4785C20.1644 14.3729 14.1434 20.1402 14.4613 27.7068C14.7274 34.0488 19.8423 39.5455 26.8238 39.6586C28.4784 39.6891 30.1226 39.3893 31.6608 38.7765C33.199 38.1636 34.6006 37.25 35.7841 36.0888C36.9677 34.9275 37.9095 33.5417 38.555 32.0119C39.2005 30.4821 39.5367 28.8388 39.5442 27.1774C39.6201 20.3178 34.0522 14.5798 27.2501 14.4785ZM20.6116 37.1473H33.3362C30.1321 39.409 24.7745 39.8797 20.6116 37.1473ZM38.8074 28.4524C38.632 30.121 38.0958 31.7311 37.2362 33.1701C36.5266 34.375 35.6116 35.4454 34.5328 36.3322C34.4156 36.4334 34.2651 36.4871 34.1106 36.483C29.3662 36.478 24.6218 36.478 19.8774 36.483C19.733 36.4874 19.5923 36.4375 19.4827 36.3431C17.2765 34.4953 15.8681 32.1699 15.3215 29.3302C15.2531 28.9751 15.2072 28.6149 15.1438 28.258C15.1196 28.1206 15.158 28.0628 15.3007 28.0779C15.3724 28.0846 15.4459 28.0779 15.5185 28.0779H38.4603C38.8525 28.0788 38.845 28.0788 38.8074 28.4524ZM25.9752 21.0675C25.9752 20.2299 25.9902 19.3922 25.9668 18.5604C25.9585 18.2681 26.0503 18.2178 26.3131 18.2295C26.7695 18.2505 27.2309 18.2505 27.6857 18.2295C27.9469 18.217 28.0395 18.2697 28.032 18.5646C28.0086 19.4207 28.0186 20.2776 28.0253 21.1337C28.032 22.1054 28.4592 22.83 29.3153 23.2932C29.4471 23.3652 29.5764 23.4431 29.7074 23.5177L29.6849 23.5663H24.2797C24.3773 23.4255 24.5133 23.3828 24.6293 23.3234C25.5421 22.8467 25.9777 22.0911 25.9752 21.0675ZM24.9463 17.2863C24.953 17.0426 25.1399 16.9957 25.3452 16.9965C25.8951 16.9965 26.4449 16.9965 26.9956 16.9965C27.5463 16.9965 28.0954 16.9965 28.6461 16.9965C28.8647 16.9965 29.0633 17.0493 29.0516 17.3106C29.0441 17.5519 28.8572 17.6055 28.6511 17.5988C27.5513 17.5619 26.4519 17.5619 25.3527 17.5988C25.1349 17.608 24.9397 17.551 24.9463 17.2863ZM30.3057 24.1895C30.3818 24.1854 30.4578 24.1989 30.5279 24.2288C30.5981 24.2587 30.6605 24.3043 30.7104 24.3621C31.4664 25.1704 31.8785 26.1345 32.0454 27.2202C32.0771 27.4279 31.9553 27.4086 31.8268 27.4086H26.994C25.4036 27.4086 23.8132 27.4036 22.2237 27.4145C21.9575 27.4145 21.9275 27.3492 21.9734 27.0937C22.1262 26.0807 22.5762 25.1364 23.2659 24.3813C23.3175 24.3182 23.3831 24.2679 23.4573 24.2345C23.5316 24.2011 23.6126 24.1854 23.6939 24.1887C25.8984 24.1954 28.1023 24.1956 30.3057 24.1895ZM38.9217 27.1339C38.9276 27.3726 38.8541 27.4296 38.6238 27.4279C36.7406 27.4187 34.8574 27.422 32.9741 27.4279C32.8206 27.4279 32.7013 27.4363 32.6762 27.2176C32.4501 25.2357 31.4438 23.7732 29.7208 22.7981C29.4705 22.6541 29.2201 22.5041 29.0324 22.2712C28.783 21.9592 28.6515 21.5688 28.6611 21.1689C28.6611 20.2709 28.6611 19.3721 28.6611 18.4741C28.6611 18.3158 28.6845 18.2496 28.868 18.2228C29.4104 18.1315 29.7308 17.7152 29.6849 17.2176C29.639 16.7201 29.2352 16.38 28.6903 16.38C27.5778 16.3749 26.4652 16.3749 25.3527 16.38C24.7761 16.38 24.3706 16.715 24.3239 17.2176C24.2755 17.7303 24.5909 18.1273 25.1641 18.2329C25.3152 18.2605 25.346 18.3091 25.3452 18.4473C25.3402 19.3763 25.3452 20.3061 25.3385 21.2359C25.3318 21.9697 24.9447 22.4505 24.3164 22.7906C22.8887 23.5629 21.9375 24.7323 21.4894 26.3038C21.406 26.5927 21.3225 26.8817 21.3225 27.1858C21.3225 27.3977 21.2232 27.4421 21.0322 27.4371C20.0851 27.4296 19.1381 27.4371 18.1952 27.4371C17.2523 27.4371 16.3228 27.4312 15.3866 27.4371C15.168 27.4371 15.0837 27.4019 15.0821 27.1523C15.0303 21.4612 19.1464 16.4135 24.7102 15.3563C30.9315 14.1635 36.8499 17.8878 38.517 24.0412C38.7916 25.0531 38.8959 26.0876 38.9217 27.1339Z" fill="#00659E"/>
<path d="M33.4079 21.69C33.0141 21.68 32.6211 21.6817 32.2272 21.69C32.0253 21.69 31.9294 21.8174 31.9344 22.015C31.9314 22.0543 31.9369 22.0937 31.9504 22.1307C31.9639 22.1677 31.9851 22.2013 32.0126 22.2294C32.0401 22.2575 32.0732 22.2793 32.1098 22.2935C32.1464 22.3077 32.1856 22.3138 32.2247 22.3116C32.4108 22.3191 32.5969 22.3116 32.7838 22.3116C32.9907 22.3116 33.201 22.32 33.4046 22.3116C33.589 22.3015 33.6799 22.1884 33.6808 22.0033C33.6816 21.8182 33.5915 21.6951 33.4079 21.69Z" fill="#00659E"/>
<path d="M21.771 21.6883C21.3881 21.6816 21.0042 21.6832 20.6213 21.6883C20.421 21.6883 20.3175 21.8013 20.3184 22.0024C20.3192 22.2034 20.4268 22.3081 20.6263 22.3123C20.8257 22.3165 21.0193 22.3123 21.2162 22.3123C21.4131 22.3123 21.5892 22.3182 21.7752 22.3123C21.8144 22.3146 21.8536 22.3084 21.8903 22.2942C21.9269 22.28 21.96 22.258 21.9875 22.2298C22.0149 22.2016 22.036 22.1679 22.0493 22.1308C22.0627 22.0937 22.0679 22.0542 22.0648 22.0149C22.0698 21.8156 21.973 21.6916 21.771 21.6883Z" fill="#00659E"/>
<path d="M23.1227 32.0846C23.1227 31.1447 22.5494 30.519 21.6842 30.514C20.7788 30.5081 20.2006 31.1095 20.1973 32.062C20.1973 33.0303 20.7521 33.6393 21.6466 33.641C22.5411 33.6426 23.1235 33.0395 23.1227 32.0846ZM21.6475 33.1199C21.1468 33.1099 20.8214 32.6885 20.8247 32.067C20.8247 31.427 21.1435 31.0509 21.6708 31.0559C22.1982 31.061 22.5052 31.4488 22.491 32.0896C22.4768 32.7304 22.1448 33.1308 21.6475 33.1199Z" fill="#00659E"/>
<path d="M33.7453 30.9555C33.7453 30.7528 33.6969 30.5844 33.4758 30.5777C33.2329 30.5693 33.1762 30.7452 33.1787 30.9605C33.1854 31.448 33.1787 31.9364 33.1787 32.4591C33.0252 32.3954 33.0002 32.2865 32.9484 32.2078C32.6639 31.7496 32.3844 31.2864 32.104 30.8265C31.9989 30.6531 31.8612 30.5291 31.6468 30.5894C31.4323 30.6497 31.3589 30.8223 31.3614 31.0476C31.3689 31.7563 31.3614 32.4658 31.3614 33.1745C31.3614 33.373 31.3614 33.5732 31.6267 33.5807C31.9021 33.5883 31.9296 33.3864 31.928 33.1711C31.928 32.7087 31.928 32.2497 31.928 31.7881C32.0323 31.7764 32.0448 31.8367 32.0698 31.8769C32.371 32.3619 32.6747 32.8444 32.9693 33.3336C33.0919 33.5388 33.2596 33.6419 33.4866 33.569C33.6902 33.5028 33.7436 33.3277 33.7419 33.1183C33.7375 32.3963 33.7386 31.6753 33.7453 30.9555Z" fill="#00659E"/>
<path d="M18.9533 31.7646C18.703 31.6909 18.4426 31.6699 18.2165 31.5325C18.0313 31.4203 18.0146 31.2544 18.1706 31.1321C18.4143 30.942 18.8582 30.9855 19.0401 31.2394C19.1853 31.4404 19.3538 31.5459 19.5524 31.3617C19.751 31.1774 19.6358 30.9797 19.479 30.8188C19.0926 30.4184 18.1281 30.4092 17.7267 30.8004C17.6405 30.8832 17.5743 30.9847 17.5332 31.0972C17.4921 31.2097 17.4772 31.3301 17.4897 31.4492C17.5022 31.5684 17.5417 31.683 17.6052 31.7845C17.6687 31.8859 17.7545 31.9714 17.8561 32.0343C18.1773 32.2437 18.5545 32.2856 18.9066 32.3962C19.0559 32.4447 19.1969 32.5159 19.1978 32.7145C19.1978 32.8996 19.086 32.9993 18.9374 33.0671C18.5953 33.2238 18.2557 33.1157 18.0296 32.7706C17.917 32.6031 17.7851 32.5051 17.5916 32.6207C17.398 32.7363 17.4163 32.908 17.5081 33.0822C17.7451 33.5262 18.1506 33.6376 18.6095 33.6359C18.6929 33.6405 18.7765 33.6405 18.8599 33.6359C19.5866 33.5521 19.9971 32.9616 19.751 32.3476C19.6075 31.9857 19.2854 31.8651 18.9533 31.7646Z" fill="#00659E"/>
<path d="M30.8782 33.3208C30.8698 33.1189 30.7255 33.0746 30.5503 33.0762C30.2065 33.0762 29.8636 33.0695 29.5206 33.0762C29.2244 33.0846 29.2177 32.8911 29.2186 32.68C29.2194 32.4689 29.2102 32.2478 29.5273 32.2612C29.8285 32.2696 30.1306 32.2612 30.4318 32.2612C30.6087 32.2612 30.7188 32.1699 30.718 32.0032C30.7172 31.8365 30.6062 31.7519 30.4276 31.7519C30.1372 31.7577 29.8435 31.746 29.5548 31.7519C29.3128 31.7594 29.2211 31.6472 29.2211 31.4168C29.2211 31.1865 29.317 31.0692 29.5548 31.0734C29.8661 31.0784 30.1781 31.0734 30.4902 31.0734C30.6571 31.0734 30.8173 31.0516 30.8239 30.8413C30.8306 30.6311 30.6879 30.5624 30.4902 30.5632C29.9704 30.5632 29.4505 30.5683 28.9307 30.5632C28.7096 30.5632 28.6061 30.6529 28.6095 30.8799C28.6153 31.2761 28.6095 31.6731 28.6095 32.0702C28.6095 32.4672 28.6153 32.8635 28.6095 33.2597C28.6095 33.4833 28.6929 33.5855 28.9207 33.5822C29.4614 33.5746 30.0054 33.5771 30.5428 33.5822C30.7322 33.5872 30.8882 33.5495 30.8782 33.3208Z" fill="#00659E"/>
<path d="M28.1754 30.9972C28.2538 30.7694 28.1078 30.5667 27.9034 30.5717C27.699 30.5767 27.6272 30.7317 27.5696 30.8942C27.3719 31.4931 27.1775 32.0937 26.9605 32.7572C26.9063 32.6466 26.8846 32.6122 26.8721 32.5754C26.6735 31.9974 26.4774 31.4186 26.2788 30.8397C26.2087 30.637 26.0744 30.5122 25.8533 30.5935C25.6455 30.6705 25.6255 30.8515 25.6864 31.0366C25.9517 31.7888 26.2207 32.5399 26.4933 33.2899C26.5224 33.3799 26.5807 33.4576 26.6589 33.5106C26.737 33.5635 26.8306 33.5888 26.9246 33.5823C27.0143 33.5888 27.1037 33.5656 27.1791 33.5163C27.2544 33.467 27.3116 33.3942 27.3418 33.3092C27.6283 32.5419 27.9062 31.7712 28.1754 30.9972Z" fill="#00659E"/>
<path d="M36.3146 30.5742C35.6804 30.5664 35.046 30.5664 34.4113 30.5742C34.2528 30.5742 34.1727 30.684 34.1802 30.8473C34.1786 30.8789 34.1838 30.9104 34.1954 30.9397C34.2071 30.969 34.225 30.9955 34.2478 31.0172C34.2707 31.039 34.2979 31.0555 34.3277 31.0656C34.3575 31.0758 34.3892 31.0793 34.4205 31.076C34.5553 31.0835 34.6904 31.0835 34.8252 31.076C34.9996 31.0609 35.0663 31.1204 35.058 31.303C35.0454 31.6154 35.058 31.9296 35.058 32.2428C35.058 32.5561 35.058 32.8694 35.058 33.1827C35.058 33.3913 35.108 33.568 35.3525 33.5772C35.6137 33.5865 35.6796 33.4097 35.6796 33.1835C35.6796 32.7027 35.6796 32.2219 35.6796 31.7419C35.6796 31.535 35.6237 31.2812 35.7205 31.1329C35.8173 30.9847 36.0884 31.1028 36.2812 31.0777C36.2915 31.0768 36.3018 31.0768 36.3121 31.0777C36.3434 31.0793 36.3747 31.0744 36.4041 31.0632C36.4335 31.0521 36.4602 31.035 36.4826 31.0129C36.505 30.9909 36.5227 30.9644 36.5344 30.9352C36.5461 30.906 36.5517 30.8746 36.5507 30.8431C36.559 30.6831 36.4731 30.5759 36.3146 30.5742Z" fill="#00659E"/>
<path d="M25.4075 33.584C25.5744 33.584 25.7029 33.5304 25.7071 33.3469C25.7113 33.1635 25.5869 33.0755 25.4025 33.0764C25.0905 33.0764 24.7776 33.0638 24.4663 33.0822C24.2577 33.0939 24.1968 33.0244 24.2018 32.8192C24.2144 32.2873 24.2127 31.7537 24.2018 31.2209C24.2018 30.978 24.3028 30.6153 23.914 30.6128C23.4968 30.6128 23.6219 30.9872 23.6111 31.2369C23.5969 31.5292 23.6111 31.8232 23.6111 32.1147C23.6111 32.5009 23.6111 32.8879 23.6111 33.274C23.6111 33.4726 23.6945 33.5857 23.9106 33.5831C24.4096 33.5792 24.9086 33.5795 25.4075 33.584Z" fill="#00659E"/>
<path d="M25.8876 26.8817C26.0093 26.8835 26.13 26.861 26.2429 26.8155C26.3558 26.77 26.4586 26.7024 26.5453 26.6166C26.6319 26.5309 26.7007 26.4287 26.7477 26.316C26.7946 26.2034 26.8188 26.0825 26.8188 25.9603C26.8207 25.8404 26.7987 25.7214 26.7541 25.6102C26.7095 25.499 26.6431 25.3979 26.559 25.3128C26.4749 25.2277 26.3746 25.1604 26.2642 25.1148C26.1538 25.0692 26.0354 25.0462 25.916 25.0473C25.7965 25.0452 25.6779 25.0669 25.5669 25.1112C25.4559 25.1555 25.3548 25.2215 25.2694 25.3053C25.184 25.3892 25.116 25.4892 25.0695 25.5996C25.0229 25.7101 24.9987 25.8287 24.9981 25.9486C24.995 26.1901 25.0864 26.4233 25.2527 26.5978C25.4191 26.7723 25.6471 26.8743 25.8876 26.8817ZM25.9126 25.678C25.9492 25.6746 25.986 25.6791 26.0207 25.6913C26.0554 25.7034 26.087 25.7229 26.1135 25.7484C26.14 25.7739 26.1608 25.8048 26.1744 25.8391C26.1879 25.8733 26.194 25.9101 26.1922 25.9469C26.198 26.1404 26.0803 26.2233 25.9068 26.2552C25.7357 26.22 25.6181 26.1337 25.6281 25.9427C25.6268 25.9058 25.6334 25.869 25.6476 25.8349C25.6617 25.8007 25.683 25.7701 25.71 25.745C25.737 25.7198 25.7691 25.7009 25.804 25.6893C25.839 25.6778 25.876 25.6739 25.9126 25.678Z" fill="#00659E"/>
<path d="M28.1165 25.607C28.3059 25.6112 28.4119 25.4855 28.4344 25.2945C28.4027 25.1069 28.3051 24.9888 28.1007 24.9963C28.0617 24.9935 28.0225 24.9991 27.9858 25.0127C27.9492 25.0264 27.9159 25.0478 27.8882 25.0756C27.8605 25.1033 27.839 25.1367 27.8253 25.1734C27.8116 25.2102 27.8059 25.2495 27.8086 25.2887C27.8036 25.3309 27.8081 25.3737 27.8216 25.414C27.8352 25.4542 27.8575 25.491 27.887 25.5215C27.9165 25.552 27.9525 25.5755 27.9922 25.5903C28.0319 25.6051 28.0743 25.6108 28.1165 25.607Z" fill="#00659E"/>
</g>
<defs>
<filter id="filter0_d_1097_1808" x="0" y="0" width="56" height="56.1526" filterUnits="userSpaceOnUse" color-interpolation-filters="sRGB">
<feFlood flood-opacity="0" result="BackgroundImageFix"/>
<feColorMatrix in="SourceAlpha" type="matrix" values="0 0 0 0 0 0 0 0 0 0 0 0 0 0 0 0 0 0 127 0" result="hardAlpha"/>
<feOffset dx="1" dy="1"/>
<feGaussianBlur stdDeviation="5"/>
<feComposite in2="hardAlpha" operator="out"/>
<feColorMatrix type="matrix" values="0 0 0 0 0 0 0 0 0 0 0 0 0 0 0 0 0 0 0.15 0"/>
<feBlend mode="normal" in2="BackgroundImageFix" result="effect1_dropShadow_1097_1808"/>
<feBlend mode="normal" in="SourceGraphic" in2="effect1_dropShadow_1097_1808" result="shape"/>
</filter>
<clipPath id="clip0_1097_1808">
<rect width="28" height="28.1186" fill="white" transform="translate(13 13.0168)"/>
</clipPath>
</defs>
</svg>
