<svg width="56" height="57" viewBox="0 0 56 57" fill="none" xmlns="http://www.w3.org/2000/svg">
<g filter="url(#filter0_d_1097_1916)">
<rect x="9" y="9" width="36" height="36.1525" rx="4" fill="#FAFDFF"/>
<rect x="9.2" y="9.2" width="35.6" height="35.7525" rx="3.8" stroke="#00659E" stroke-width="0.4"/>
</g>
<g clip-path="url(#clip0_1097_1916)">
<path d="M29.5469 29.4975C29.4839 29.4433 29.4339 29.3737 29.4014 29.2946C29.3688 29.2155 29.3545 29.1292 29.3598 29.043C29.3598 25.0626 29.3598 21.0828 29.3598 17.1037C29.3687 16.7563 29.3439 16.4089 29.2856 16.0669C28.9636 14.4391 28.0599 13.3269 26.5881 12.8328C25.1162 12.3387 23.7792 12.6981 22.658 13.8372C22.2642 14.2368 21.9537 14.7202 21.7466 15.256C21.5395 15.7918 21.4405 16.3681 21.4559 16.9473C21.4559 20.9852 21.4559 25.0213 21.4559 29.0555C21.4633 29.1372 21.4519 29.2195 21.4225 29.2953C21.3931 29.3711 21.3466 29.4381 21.2873 29.4903C19.4631 31.2116 18.6757 33.3677 19.1225 35.9262C19.5963 38.6429 21.1457 40.4037 23.6123 41.2679C23.9613 41.3901 24.3305 41.4027 24.6728 41.5392H26.0502C26.2593 41.4422 26.4886 41.4656 26.7061 41.4099C29.2721 40.7361 30.9868 39.0741 31.619 36.3287C32.2412 33.6426 31.474 31.3464 29.5469 29.4975ZM20.6989 35.7052C20.3499 33.5725 21.0108 31.8459 22.6243 30.5414C22.7686 30.435 22.8853 30.2914 22.9634 30.1239C23.0416 29.9565 23.0786 29.7706 23.0711 29.5838C23.0711 25.3794 23.0711 21.1751 23.0711 16.9707C23.0711 15.7669 23.6477 14.8541 24.6306 14.4858C24.9795 14.3514 25.3534 14.3079 25.7212 14.3588C26.089 14.4097 26.4401 14.5536 26.7452 14.7785C27.0502 15.0033 27.3004 15.3027 27.4748 15.6515C27.6493 16.0004 27.743 16.3886 27.748 16.7838C27.7649 18.9202 27.748 21.0547 27.748 23.1892C27.748 25.3147 27.748 27.4403 27.748 29.5658C27.7396 29.757 27.7771 29.9473 27.857 30.1187C27.937 30.2901 28.0568 30.4368 28.2049 30.545C29.7594 31.8027 30.4641 33.4755 30.1438 35.5202C29.8066 37.7284 28.5303 39.1424 26.4903 39.6994C23.9023 40.4109 21.1575 38.5028 20.6989 35.7052Z" fill="#00659E"/>
<path d="M34.1013 26.1411C33.3426 26.1411 32.585 26.1411 31.8286 26.1411C31.3076 26.1411 30.935 26.5005 30.9317 26.9982C30.9283 27.4959 31.3043 27.8552 31.8235 27.8606C32.2029 27.8606 32.5806 27.8606 32.9599 27.8606H34.0963C34.6257 27.8606 34.9915 27.5138 34.9999 27.0179C35.0084 26.522 34.6391 26.1447 34.1013 26.1411Z" fill="#00659E"/>
<path d="M31.8127 17.6981C32.1904 17.6981 32.5697 17.6981 32.9474 17.6981C33.3251 17.6981 33.723 17.6981 34.1107 17.6981C34.6351 17.6981 34.9959 17.3388 34.9942 16.8339C34.9925 16.329 34.6233 15.9823 34.1006 15.9805C33.3442 15.9805 32.5872 15.9805 31.8296 15.9805C31.3069 15.9805 30.9343 16.3398 30.9259 16.8303C30.9175 17.3208 31.3069 17.6892 31.8127 17.6981Z" fill="#00659E"/>
<path d="M31.8252 21.0851C32.5923 21.0851 33.3578 21.0851 34.1232 21.0851C34.6442 21.0851 35.0067 20.7132 34.9999 20.2137C34.9932 19.7142 34.6307 19.3728 34.1249 19.3674C33.7371 19.3674 33.351 19.3674 32.9632 19.3674C32.5755 19.3674 32.2062 19.3674 31.8269 19.3674C31.3076 19.3674 30.9333 19.7268 30.9316 20.2263C30.93 20.7258 31.3059 21.0815 31.8252 21.0851Z" fill="#00659E"/>
<path d="M34.1182 22.7542C33.3511 22.7542 32.5856 22.7542 31.8185 22.7542C31.3009 22.7542 30.9266 23.1315 30.9317 23.622C30.9367 24.1125 31.3043 24.4646 31.8067 24.4718C32.1945 24.4718 32.5823 24.4718 32.97 24.4718C33.3578 24.4718 33.727 24.4718 34.1047 24.4718C34.6307 24.4718 34.9966 24.1125 35 23.6184C35.0033 23.1243 34.6375 22.7577 34.1182 22.7542Z" fill="#00659E"/>
<path d="M28.6341 35.0474C28.8027 33.5022 27.8619 31.9535 26.4305 31.4432C26.2619 31.3857 26.2029 31.3228 26.2029 31.1216C26.213 29.3069 26.2029 27.4904 26.2029 25.6757V23.6723C26.2029 22.526 26.2029 21.3779 26.2029 20.2298C26.2068 20.0885 26.1773 19.9484 26.1172 19.8224C26.0571 19.6964 25.9683 19.5885 25.8589 19.5086C25.7495 19.4286 25.623 19.3793 25.4911 19.3649C25.3591 19.3506 25.2259 19.3718 25.1036 19.4266C24.7513 19.5901 24.608 19.8956 24.6096 20.307C24.6096 23.9005 24.6096 27.5119 24.6096 31.1126C24.6096 31.2923 24.5692 31.3821 24.3905 31.4432C23.63 31.7105 22.9893 32.2683 22.5918 33.0091C22.1943 33.7499 22.068 34.6213 22.2374 35.4553C22.4143 36.2837 22.869 37.0147 23.516 37.511C24.163 38.0072 24.9578 38.2346 25.7511 38.1504C26.4913 38.0602 27.1805 37.7035 27.7047 37.1393C28.2289 36.5751 28.5568 35.8371 28.6341 35.0474ZM25.4054 36.4579C24.9742 36.4495 24.5628 36.2629 24.2583 35.9373C23.9538 35.6118 23.7799 35.1729 23.7734 34.7132C23.7786 34.2536 23.9515 33.8143 24.2555 33.4882C24.5596 33.1622 24.9708 32.9752 25.402 32.9668C25.8335 32.97 26.2468 33.1523 26.554 33.4751C26.8613 33.7979 27.0384 34.2356 27.0476 34.6953C27.0463 35.1602 26.8732 35.6058 26.5659 35.9357C26.2585 36.2655 25.8416 36.4532 25.4054 36.4579Z" fill="#00659E"/>
</g>
<defs>
<filter id="filter0_d_1097_1916" x="0" y="0" width="56" height="56.1526" filterUnits="userSpaceOnUse" color-interpolation-filters="sRGB">
<feFlood flood-opacity="0" result="BackgroundImageFix"/>
<feColorMatrix in="SourceAlpha" type="matrix" values="0 0 0 0 0 0 0 0 0 0 0 0 0 0 0 0 0 0 127 0" result="hardAlpha"/>
<feOffset dx="1" dy="1"/>
<feGaussianBlur stdDeviation="5"/>
<feComposite in2="hardAlpha" operator="out"/>
<feColorMatrix type="matrix" values="0 0 0 0 0 0 0 0 0 0 0 0 0 0 0 0 0 0 0.15 0"/>
<feBlend mode="normal" in2="BackgroundImageFix" result="effect1_dropShadow_1097_1916"/>
<feBlend mode="normal" in="SourceGraphic" in2="effect1_dropShadow_1097_1916" result="shape"/>
</filter>
<clipPath id="clip0_1097_1916">
<rect width="16" height="28.922" fill="white" transform="translate(19 12.6152)"/>
</clipPath>
</defs>
</svg>
