<svg width="56" height="57" viewBox="0 0 56 57" fill="none" xmlns="http://www.w3.org/2000/svg">
<g filter="url(#filter0_d_1097_1824)">
<rect x="9" y="9" width="36" height="36.1525" rx="4" fill="#FAFDFF"/>
<rect x="9.2" y="9.2" width="35.6" height="35.7525" rx="3.8" stroke="#00659E" stroke-width="0.4"/>
</g>
<path d="M32.8295 31.2694C32.7279 31.1491 32.6741 30.9913 32.6796 30.8294C32.6826 27.1767 32.6826 23.5235 32.6796 19.8697C32.6754 19.066 32.3931 18.2922 31.8869 17.6973C31.3808 17.1023 30.6866 16.7281 29.9377 16.6466C29.5153 16.6031 29.0891 16.6542 28.6862 16.7967C28.2833 16.9391 27.9127 17.1697 27.5981 17.4739C27.2835 17.778 27.0318 18.1489 26.859 18.5628C26.6863 18.9767 26.5964 19.4246 26.595 19.8777C26.595 23.5528 26.595 27.2276 26.595 30.9022C26.6003 30.9546 26.5954 31.0076 26.5807 31.058C26.566 31.1083 26.5418 31.155 26.5096 31.195C25.6256 32.2445 25.2286 33.4733 25.4203 34.8748C25.6683 36.686 26.6317 37.9035 28.2222 38.5683C28.5218 38.6939 28.844 38.7283 29.1504 38.8243H30.0838C30.1917 38.7507 30.3191 38.7739 30.4367 38.7443C32.0369 38.3731 33.1426 37.3691 33.6685 35.7228C34.1944 34.0765 33.8716 32.5885 32.8295 31.2694ZM26.6287 34.674C26.5119 33.6157 26.8183 32.7101 27.5225 31.9653C27.6203 31.868 27.6973 31.7494 27.7483 31.6174C27.7992 31.4854 27.8229 31.3432 27.8176 31.2006C27.8101 27.4599 27.8101 23.7192 27.8176 19.9785C27.8176 18.9154 28.4319 18.1426 29.4103 17.9666C30.3213 17.8066 31.2832 18.5442 31.4331 19.5258C31.4603 19.7037 31.4739 19.8838 31.4735 20.0641C31.4735 21.9131 31.4735 23.7619 31.4735 25.6103C31.4735 27.4735 31.4788 29.3366 31.469 31.1998C31.4631 31.3424 31.4864 31.4847 31.5374 31.6166C31.5884 31.7486 31.6658 31.8671 31.7642 31.9637C32.1498 32.3632 32.4288 32.865 32.5726 33.4177C32.7164 33.9704 32.7199 34.554 32.5826 35.1086C32.4453 35.6632 32.1722 36.1687 31.7914 36.5733C31.4106 36.9779 30.9358 37.267 30.4157 37.4107C28.6492 37.9227 26.8452 36.6164 26.6302 34.674H26.6287Z" fill="#00659E"/>
<path d="M20.5084 27.6758C20.5084 25.6972 20.5084 23.7186 20.5084 21.74V21.4592C20.71 21.6768 20.877 21.8592 21.0471 22.0408C21.3265 22.336 21.6943 22.356 21.946 22.0928C22.1978 21.8296 22.1918 21.4176 21.9093 21.1144C21.3999 20.5667 20.8885 20.0203 20.3751 19.4752C20.0679 19.1497 19.7233 19.1553 19.4154 19.4792C18.9075 20.0195 18.4005 20.5608 17.8946 21.1032C17.6069 21.4112 17.5845 21.8064 17.8369 22.0816C18.0894 22.3568 18.47 22.3376 18.7681 22.0216C18.9322 21.8472 19.094 21.6696 19.2881 21.4616V21.7488C19.2881 23.7055 19.2881 25.6622 19.2881 27.619C19.2819 27.7053 19.2892 27.792 19.3098 27.8758C19.3526 28.0293 19.4464 28.1609 19.5735 28.246C19.7006 28.3311 19.8524 28.3639 20.0005 28.3381C20.146 28.3122 20.2777 28.2308 20.3711 28.109C20.4645 27.9871 20.5133 27.8332 20.5084 27.6758Z" fill="#00659E"/>
<path d="M23.4962 30.7253C23.3209 30.9101 23.1516 31.1013 22.9433 31.3293V31.0389C22.9433 29.0817 22.9433 27.1247 22.9433 25.1679C22.9496 25.0818 22.943 24.9951 22.9239 24.9111C22.882 24.7571 22.789 24.6247 22.6623 24.5385C22.5356 24.4524 22.3838 24.4185 22.2354 24.4431C22.0908 24.4686 21.9598 24.549 21.8664 24.6696C21.7731 24.7902 21.7237 24.9427 21.7275 25.0991C21.7275 27.0777 21.7275 29.0563 21.7275 31.0349V31.3253C21.5185 31.0973 21.3529 30.9093 21.1768 30.7277C20.9012 30.4381 20.5236 30.4285 20.2779 30.6989C20.0321 30.9693 20.0441 31.3613 20.3086 31.6461C20.828 32.2055 21.3492 32.7621 21.8721 33.3156C22.1627 33.6236 22.5118 33.6252 22.8025 33.3156C23.3259 32.761 23.8468 32.2045 24.3652 31.6461C24.6372 31.3533 24.6417 30.9461 24.3862 30.6861C24.1308 30.4261 23.7622 30.4421 23.4962 30.7253Z" fill="#00659E"/>
<path d="M35.7439 19.2426C35.3248 19.2362 34.9058 19.2362 34.4868 19.2426C34.3298 19.2457 34.1802 19.3145 34.0703 19.4342C33.9603 19.5539 33.8987 19.7149 33.8987 19.8826C33.8963 19.9672 33.9097 20.0515 33.938 20.1306C33.9664 20.2097 34.0091 20.282 34.0638 20.3433C34.1185 20.4046 34.1841 20.4537 34.2567 20.4878C34.3293 20.5219 34.4075 20.5402 34.4868 20.5417C34.6966 20.5473 34.9063 20.5417 35.1153 20.5417C35.3243 20.5417 35.5349 20.5465 35.7446 20.5417C35.824 20.5402 35.9022 20.5218 35.9749 20.4877C36.0476 20.4536 36.1132 20.4044 36.1679 20.343C36.2226 20.2816 36.2653 20.2092 36.2936 20.1301C36.3219 20.0509 36.3352 19.9665 36.3327 19.8818C36.3325 19.7141 36.2707 19.5532 36.1606 19.4337C36.0505 19.3141 35.9009 19.2455 35.7439 19.2426Z" fill="#00659E"/>
<path d="M35.7439 24.4417C35.3249 24.4358 34.9058 24.4358 34.4868 24.4417C34.3298 24.4448 34.1803 24.5136 34.0703 24.6333C33.9603 24.753 33.8987 24.914 33.8987 25.0816C33.8962 25.1663 33.9095 25.2507 33.9378 25.3299C33.9661 25.4091 34.0089 25.4815 34.0636 25.5429C34.1183 25.6043 34.1839 25.6535 34.2565 25.6876C34.3292 25.7217 34.4075 25.7401 34.4868 25.7416C34.6898 25.7464 34.8929 25.7416 35.0959 25.7416C35.3116 25.7416 35.5281 25.7464 35.7446 25.7416C35.824 25.7401 35.9023 25.7217 35.9749 25.6876C36.0476 25.6535 36.1132 25.6043 36.1679 25.5429C36.2226 25.4815 36.2653 25.4091 36.2936 25.3299C36.3219 25.2507 36.3352 25.1663 36.3327 25.0816C36.3328 24.9138 36.2711 24.7527 36.1609 24.633C36.0508 24.5133 35.901 24.4446 35.7439 24.4417Z" fill="#00659E"/>
<path d="M35.7431 29.6412C35.3241 29.6359 34.9051 29.6359 34.486 29.6412C34.3292 29.6446 34.1798 29.7135 34.07 29.8331C33.9602 29.9528 33.8987 30.1136 33.8987 30.2812C33.8963 30.3659 33.9097 30.4503 33.9381 30.5294C33.9665 30.6086 34.0093 30.6809 34.0641 30.7422C34.1189 30.8035 34.1845 30.8526 34.2572 30.8866C34.3299 30.9207 34.4082 30.9389 34.4875 30.9404C34.6973 30.9452 34.9071 30.9404 35.1168 30.9404C35.3266 30.9404 35.5356 30.9404 35.7454 30.9404C35.8247 30.9387 35.903 30.9202 35.9756 30.886C36.0482 30.8518 36.1138 30.8026 36.1684 30.7411C36.223 30.6796 36.2657 30.6072 36.2939 30.5279C36.3221 30.4487 36.3353 30.3643 36.3327 30.2796C36.3323 30.1119 36.2704 29.9511 36.1601 29.8317C36.0498 29.7123 35.9001 29.6439 35.7431 29.6412Z" fill="#00659E"/>
<path d="M34.4966 23.14C34.5978 23.14 34.6989 23.14 34.8008 23.14C34.9027 23.14 35.0173 23.14 35.1252 23.14C35.2045 23.14 35.283 23.1233 35.3561 23.0906C35.4293 23.058 35.4956 23.0103 35.5514 22.9501C35.6071 22.8899 35.6511 22.8185 35.6808 22.74C35.7106 22.6615 35.7254 22.5775 35.7245 22.4929C35.7259 22.4079 35.7114 22.3235 35.6819 22.2445C35.6524 22.1656 35.6085 22.0937 35.5527 22.0331C35.4969 21.9725 35.4304 21.9243 35.357 21.8914C35.2836 21.8586 35.2048 21.8417 35.1252 21.8417C34.9154 21.8369 34.7057 21.8377 34.4959 21.8417C34.4166 21.8417 34.3381 21.8585 34.265 21.8911C34.1918 21.9237 34.1254 21.9715 34.0697 22.0317C34.014 22.0919 33.97 22.1633 33.9402 22.2417C33.9105 22.3202 33.8957 22.4042 33.8966 22.4889C33.8952 22.5739 33.9097 22.6584 33.9392 22.7374C33.9688 22.8164 34.0128 22.8883 34.0686 22.9489C34.1245 23.0096 34.1911 23.0577 34.2646 23.0905C34.3381 23.1233 34.417 23.1402 34.4966 23.14Z" fill="#00659E"/>
<path d="M34.4996 28.3399C34.6008 28.3399 34.7027 28.3399 34.8038 28.3399C34.9192 28.3399 35.0338 28.3399 35.1484 28.3399C35.3053 28.3336 35.4536 28.2619 35.5614 28.1401C35.6693 28.0184 35.7281 27.8563 35.7253 27.6887C35.7269 27.5213 35.667 27.3598 35.5585 27.239C35.45 27.1181 35.3014 27.0475 35.1447 27.0423C34.9289 27.0359 34.7124 27.0375 34.4959 27.0423C34.4163 27.0423 34.3375 27.0592 34.2641 27.0921C34.1907 27.1249 34.1242 27.1731 34.0684 27.2337C34.0126 27.2943 33.9686 27.3662 33.9391 27.4451C33.9097 27.5241 33.8952 27.6085 33.8966 27.6935C33.8958 27.7784 33.9108 27.8626 33.9408 27.9413C33.9708 28.0199 34.0152 28.0914 34.0713 28.1516C34.1274 28.2117 34.1942 28.2594 34.2678 28.2917C34.3413 28.324 34.4201 28.3404 34.4996 28.3399Z" fill="#00659E"/>
<path d="M31.4147 34.757C31.521 34.3128 31.4768 33.8428 31.2897 33.4301C31.1027 33.0173 30.785 32.6886 30.3928 32.5019C30.3432 32.4857 30.3007 32.4508 30.2732 32.4038C30.2457 32.3568 30.2349 32.3007 30.243 32.2459C30.2475 31.062 30.243 29.878 30.243 28.6941C30.243 27.5101 30.243 26.3405 30.243 25.1638C30.2488 25.0775 30.2415 24.9908 30.2213 24.907C30.1787 24.7534 30.0852 24.6216 29.9582 24.5363C29.8312 24.451 29.6794 24.4181 29.5313 24.4438C29.387 24.4706 29.2567 24.552 29.1639 24.673C29.0712 24.7941 29.0224 24.9467 29.0264 25.103C29.0264 27.4784 29.0264 29.8535 29.0264 32.2283C29.0335 32.2894 29.0204 32.3513 28.9891 32.4031C28.9579 32.4548 28.9106 32.4932 28.8556 32.5115C28.5041 32.6861 28.2137 32.9754 28.0263 33.3378C27.839 33.7002 27.7645 34.1168 27.8135 34.5275C27.9341 35.4394 28.6623 36.181 29.4811 36.2234C30.4123 36.2722 31.2012 35.6714 31.4147 34.757ZM29.6407 34.925C29.4811 34.9195 29.3294 34.8495 29.2163 34.7293C29.1031 34.609 29.0369 34.4474 29.0309 34.2771C29.0362 34.1067 29.1018 33.9449 29.2144 33.8241C29.327 33.7033 29.4782 33.6325 29.6377 33.6259C29.7973 33.6316 29.949 33.7018 30.0621 33.8221C30.1753 33.9425 30.2415 34.1042 30.2475 34.2747C30.2421 34.4449 30.1765 34.6067 30.0639 34.7273C29.9513 34.848 29.8001 34.9187 29.6407 34.925Z" fill="#00659E"/>
<defs>
<filter id="filter0_d_1097_1824" x="0" y="0" width="56" height="56.1526" filterUnits="userSpaceOnUse" color-interpolation-filters="sRGB">
<feFlood flood-opacity="0" result="BackgroundImageFix"/>
<feColorMatrix in="SourceAlpha" type="matrix" values="0 0 0 0 0 0 0 0 0 0 0 0 0 0 0 0 0 0 127 0" result="hardAlpha"/>
<feOffset dx="1" dy="1"/>
<feGaussianBlur stdDeviation="5"/>
<feComposite in2="hardAlpha" operator="out"/>
<feColorMatrix type="matrix" values="0 0 0 0 0 0 0 0 0 0 0 0 0 0 0 0 0 0 0.15 0"/>
<feBlend mode="normal" in2="BackgroundImageFix" result="effect1_dropShadow_1097_1824"/>
<feBlend mode="normal" in="SourceGraphic" in2="effect1_dropShadow_1097_1824" result="shape"/>
</filter>
</defs>
</svg>
