<svg width="56" height="57" viewBox="0 0 56 57" fill="none" xmlns="http://www.w3.org/2000/svg">
<g filter="url(#filter0_d_1396_2917)">
<rect x="9" y="9" width="36" height="36.1525" rx="4" fill="#FAFDFF"/>
<rect x="9.2" y="9.2" width="35.6" height="35.7525" rx="3.8" stroke="#00659E" stroke-width="0.4"/>
</g>
<path d="M36.7788 36.2479C36.5615 36.2429 36.343 36.236 36.1269 36.2479C35.97 36.2578 35.9077 36.2223 35.9183 36.0498C35.9345 35.7789 35.9146 35.506 35.9252 35.2345C35.9333 35.0158 35.8492 34.923 35.6251 34.9324C35.1979 34.943 34.7702 34.9355 34.3025 34.9355C34.3194 34.9878 34.3972 35.0034 34.5516 35.0065C34.635 35.0065 34.7185 35.0065 34.8007 35.0065C34.7172 35.0065 34.6338 35.0065 34.5516 35.0065C34.3984 35.0065 34.3206 34.9878 34.3025 34.9355H34.2888L34.3 34.923C34.6114 34.5811 34.6519 34.2067 34.5578 33.8081C34.4731 33.4853 34.3341 33.1793 34.1469 32.9031C33.7733 32.3201 33.7011 32.3145 33.3374 32.9118C32.9508 33.5477 32.6245 34.2005 33.1693 34.9355C32.716 34.9355 32.2827 34.9424 31.8493 34.9324C31.6339 34.9274 31.5573 35.019 31.5629 35.2239C31.5703 35.4955 31.5554 35.7683 31.5678 36.0392C31.5747 36.1949 31.5411 36.2504 31.3698 36.2491C30.4226 36.2396 29.4755 36.2396 28.5287 36.2491C28.3593 36.2491 28.3294 36.1987 28.33 36.0417C28.3359 34.2782 28.3359 32.515 28.33 30.7523C28.3298 30.653 28.3577 30.5556 28.4104 30.4714C28.7491 29.9021 28.751 29.3247 28.4178 28.7523C28.3601 28.6621 28.3294 28.5573 28.3294 28.4502C28.3338 27.7433 28.3375 27.0363 28.3294 26.3325C28.3294 26.1668 28.3718 26.13 28.533 26.1313C29.7441 26.1381 30.9551 26.135 32.1668 26.135C32.3773 26.135 32.4302 26.2197 32.3393 26.4172C32.3061 26.4786 32.2684 26.5375 32.2266 26.5934C31.4109 27.8485 30.5317 29.06 29.6457 30.2684C29.4253 30.5692 29.3512 30.8837 29.5212 31.2251C29.6912 31.5664 29.9875 31.6922 30.3636 31.6916C32.6151 31.6866 34.8667 31.6854 37.1182 31.6879C37.2264 31.6915 37.3346 31.6808 37.4401 31.6561C38.0335 31.4904 38.2352 30.8258 37.8498 30.2908C36.9663 29.0643 36.0671 27.8479 35.2465 26.5766C35.2036 26.5218 35.1665 26.4627 35.1357 26.4003C35.0641 26.2135 35.1176 26.1375 35.3225 26.1369C35.7807 26.1369 36.2384 26.1369 36.6966 26.1369C37.4656 26.1369 38.0515 25.5763 38.0615 24.8444C38.0715 24.1126 37.4787 23.5314 36.6998 23.5264C36.2016 23.5227 35.7035 23.5264 35.2091 23.5264C35.1089 23.5264 35.036 23.5327 35.0354 23.3888C35.0323 22.9852 35.013 22.5791 34.998 22.1779C34.998 22.0982 34.9981 22.0409 35.0871 21.9911C35.3878 21.8135 35.4887 21.5769 35.4071 21.2953C35.3337 21.0399 35.1026 20.8743 34.7782 20.8805C34.6157 20.8805 34.5815 20.8375 34.5697 20.6774C34.4868 19.5893 34.1643 18.5809 33.5111 17.6964C32.4688 16.2893 31.0205 15.5487 29.3475 15.1869C28.9975 15.1115 28.642 15.0623 28.2889 15H26.7049C26.6775 15.071 26.6134 15.043 26.5648 15.0486C25.4845 15.1732 24.4478 15.4503 23.4964 15.9829C21.5213 17.0916 20.4547 18.7522 20.4584 21.0524C20.4584 22.4348 20.4584 23.8171 20.4584 25.1995C20.4584 25.5221 20.4584 25.5221 20.1328 25.5296C19.8071 25.5371 19.5612 25.7077 19.4659 26.0067C19.3763 26.2888 19.4659 26.5673 19.7374 26.7579C19.7763 26.7807 19.8079 26.814 19.8286 26.854C19.8493 26.894 19.8583 26.9391 19.8545 26.984C19.8489 27.3726 19.8482 27.7607 19.8545 28.1487C19.8545 28.2689 19.8227 28.3126 19.6982 28.3094C19.4037 28.302 19.1085 28.3057 18.8134 28.3094C18.253 28.3094 17.6926 28.2901 17.1378 28.33C16.4205 28.3817 15.8975 29.0961 16.0171 29.8012C16.1316 30.4789 16.6428 30.9118 17.3527 30.9174C18.1214 30.9236 18.8894 30.9236 19.6565 30.9174C19.8028 30.9174 19.8607 30.946 19.8532 31.1042C19.8395 31.3989 19.8433 31.6947 19.8532 31.9893C19.8591 32.042 19.8485 32.0953 19.8229 32.1417C19.7972 32.1881 19.7578 32.2254 19.71 32.2485C19.2592 32.5262 18.9348 32.9099 18.7823 33.4257C18.4865 34.4223 18.8371 35.4456 19.7013 36.109C19.7499 36.1464 19.8227 36.1644 19.8408 36.251C18.9747 36.251 18.1216 36.2423 17.2686 36.251C17.0821 36.2547 16.8986 36.2987 16.7308 36.3802C16.563 36.4616 16.4148 36.5784 16.2964 36.7226C16.1781 36.8668 16.0924 37.035 16.0452 37.2155C15.9981 37.396 15.9906 37.5846 16.0233 37.7683C16.1441 38.4435 16.6671 38.8583 17.4043 38.8583H36.6443C36.6985 38.8583 36.7527 38.8583 36.8075 38.8583C37.1446 38.843 37.463 38.6987 37.6968 38.4553C37.9307 38.2119 38.0621 37.8879 38.064 37.5503C38.0626 37.2082 37.9273 36.8803 37.687 36.6368C37.4468 36.3934 37.1208 36.2537 36.7788 36.2479ZM33.2509 34.1364C33.2739 33.6954 33.4894 33.3335 33.7434 32.966C33.9925 33.3198 34.188 33.668 34.2347 34.0778C34.2596 34.3027 34.2179 34.5138 34.0205 34.6589C33.9528 34.7122 33.871 34.7446 33.7852 34.7521C33.6994 34.7596 33.6132 34.742 33.5373 34.7013C33.3038 34.5836 33.2391 34.3699 33.2509 34.1345V34.1364ZM32.1139 35.3005C32.6637 35.308 33.2135 35.3005 33.7633 35.3005C34.3131 35.3005 34.848 35.3049 35.3903 35.3005C35.5223 35.3005 35.5634 35.3366 35.5566 35.4681C35.5457 35.6772 35.5457 35.8868 35.5566 36.0959C35.5628 36.2205 35.5167 36.2485 35.3984 36.2485C34.2988 36.2439 33.1988 36.2439 32.0984 36.2485C31.9701 36.2485 31.9196 36.2186 31.9271 36.0822C31.9389 35.8812 31.9389 35.6797 31.9271 35.4786C31.9178 35.3254 31.9776 35.2974 32.1139 35.2986V35.3005ZM28.3313 36.7792C28.3313 36.6484 28.3643 36.6116 28.4969 36.6116C30.8804 36.6162 33.264 36.6177 35.6475 36.616C36.0124 36.616 36.3772 36.611 36.7421 36.616C37.285 36.6241 37.696 37.0327 37.6941 37.554C37.6923 38.0754 37.2801 38.4846 36.7353 38.4883C35.3766 38.4933 34.018 38.4883 32.6594 38.4883C31.2852 38.4883 29.911 38.4883 28.5368 38.4921C28.3798 38.4921 28.3257 38.4634 28.3294 38.2934C28.3413 37.787 28.3413 37.2818 28.3313 36.7773V36.7792ZM16.4131 29.9065C16.2138 29.3041 16.6391 28.7018 17.2935 28.6688C17.5258 28.657 17.7592 28.6688 17.9915 28.6688H25.6694C25.5181 28.9709 25.393 29.2643 25.3936 29.5981C25.3942 29.932 25.4982 30.2347 25.6719 30.5387C24.4497 30.5387 23.2566 30.5387 22.0605 30.5387C20.5039 30.5387 18.9473 30.548 17.3875 30.5511C16.9081 30.548 16.5457 30.3063 16.4131 29.9046V29.9065ZM21.8725 28.1543C21.8725 28.259 21.8495 28.3076 21.7318 28.3063C21.2748 28.3007 20.8177 28.3026 20.3619 28.3063C20.2717 28.3063 20.2175 28.2932 20.2187 28.1817C20.2237 27.7868 20.2243 27.3913 20.2187 26.9983C20.2187 26.8843 20.2704 26.8737 20.3594 26.8737C20.5917 26.8781 20.8239 26.8737 21.0568 26.8737C21.2897 26.8737 21.5064 26.8787 21.7305 26.8737C21.8401 26.87 21.8775 26.9011 21.8756 27.0151C21.8656 27.3932 21.8657 27.7725 21.8725 28.1506V28.1543ZM20.149 26.505C19.9198 26.505 19.7916 26.3804 19.8053 26.1873C19.8196 25.9774 19.9497 25.894 20.1496 25.8946C20.4516 25.8946 20.7542 25.8946 21.0562 25.8946C21.3582 25.8946 21.6452 25.8946 21.9397 25.8946C22.1402 25.8946 22.2704 25.9768 22.2841 26.1873C22.2971 26.3817 22.1689 26.5037 21.9404 26.505C21.3434 26.5079 20.7463 26.5073 20.149 26.5031V26.505ZM25.7286 36.028C25.7286 36.1887 25.7099 36.2535 25.5212 36.251C24.4808 36.2398 23.4403 36.246 22.3999 36.246H22.19C22.7249 35.8798 23.0842 35.4456 23.2853 34.8919C23.5867 34.0641 23.3824 32.8701 22.4435 32.2883C22.2859 32.1905 22.223 32.084 22.2336 31.8996C22.2498 31.6206 22.2423 31.3391 22.2336 31.0613C22.2336 30.9504 22.2654 30.9118 22.3787 30.9124C23.4497 30.9153 24.5211 30.9153 25.5929 30.9124C25.7454 30.9124 25.723 30.9983 25.723 31.0899V33.6293C25.7261 34.4266 25.7205 35.2264 25.7261 36.0261L25.7286 36.028ZM20.2169 31.0856C20.2169 30.9641 20.2362 30.9074 20.3781 30.9105C20.8202 30.9199 21.2629 30.9186 21.705 30.9105C21.8376 30.9105 21.8768 30.9491 21.8737 31.08C21.8656 31.4138 21.8806 31.7483 21.8675 32.0815C21.8594 32.2827 21.9204 32.4067 22.1048 32.5094C22.7112 32.8445 23.0188 33.3715 23.0387 34.0666C23.0406 34.0977 23.0406 34.1289 23.0387 34.16C23.0387 34.1731 23.025 34.1849 23.0095 34.2123C22.2212 33.7545 21.4173 34.0255 20.6154 34.1731C20.3653 34.2289 20.1094 34.2544 19.8532 34.2491C19.6815 34.244 19.516 34.1838 19.3813 34.0772C19.1104 33.8586 19.0649 33.6667 19.2019 33.3472C19.3676 32.9591 19.6577 32.6851 20.0195 32.4876C20.0862 32.4581 20.1419 32.408 20.1784 32.3448C20.2149 32.2815 20.2303 32.2083 20.2225 32.1357C20.2125 31.7825 20.2237 31.4331 20.2169 31.0837V31.0856ZM20.5992 34.5493C21.116 34.4565 21.6234 34.3002 22.1558 34.3313C22.4121 34.3422 22.6599 34.4263 22.87 34.5736C22.9248 34.6122 22.9827 34.6409 22.9497 34.7381C22.6564 35.5964 21.6683 36.4696 20.5656 36.1289C19.7617 35.8798 19.2804 35.3049 19.0712 34.497C19.0633 34.4591 19.0591 34.4205 19.0587 34.3818C19.0606 34.3539 19.0646 34.3262 19.0706 34.2989C19.5357 34.6982 20.0649 34.6434 20.5992 34.5474V34.5493ZM21.3918 36.6147C22.766 36.6147 24.1408 36.6179 25.515 36.6098C25.6894 36.6098 25.7342 36.6509 25.7292 36.8253C25.7161 37.3142 25.7205 37.8038 25.7292 38.2934C25.7292 38.431 25.7149 38.4927 25.5474 38.4927C22.8146 38.4865 20.0817 38.4927 17.3489 38.4871C16.7848 38.4871 16.3682 38.0841 16.3664 37.5528C16.3645 37.0215 16.7792 36.6185 17.3408 36.6141C18.6901 36.6104 20.0413 36.6129 21.3918 36.6129V36.6147ZM26.096 21.2094C26.096 20.9623 26.1938 20.7253 26.368 20.5503C26.5422 20.3752 26.7786 20.2762 27.0256 20.2751C27.2724 20.2742 27.5096 20.3712 27.6852 20.5447C27.8608 20.7183 27.9605 20.9543 27.9627 21.2013C27.9701 21.9487 27.9627 22.6961 27.9627 23.4754C27.335 23.1016 26.7267 23.0985 26.0947 23.4754V22.9771C26.0941 22.386 26.0891 21.7974 26.096 21.2075V21.2094ZM27.0362 23.5638C27.201 23.5634 27.3644 23.5955 27.5168 23.6583C27.6693 23.721 27.8079 23.8133 27.9247 23.9296C28.0415 24.046 28.1342 24.1843 28.1976 24.3366C28.261 24.4888 28.2937 24.6521 28.2939 24.817C28.2964 24.9839 28.2656 25.1496 28.2034 25.3045C28.1412 25.4594 28.0487 25.6003 27.9315 25.719C27.8142 25.8378 27.6745 25.932 27.5205 25.9961C27.3664 26.0603 27.2012 26.0931 27.0343 26.0926C26.8675 26.0943 26.702 26.0627 26.5475 25.9998C26.393 25.9368 26.2526 25.8437 26.1344 25.7259C26.0162 25.6081 25.9227 25.468 25.8592 25.3136C25.7958 25.1593 25.7636 24.9939 25.7647 24.827C25.7634 24.6601 25.7953 24.4947 25.8587 24.3403C25.922 24.1859 26.0155 24.0457 26.1337 23.9279C26.2518 23.8101 26.3923 23.7171 26.5468 23.6543C26.7014 23.5914 26.8669 23.56 27.0337 23.5619L27.0362 23.5638ZM27.9701 38.2635C27.9701 38.4454 27.9266 38.4952 27.7435 38.4902C27.2454 38.4765 26.7504 38.4827 26.2541 38.4902C26.142 38.4902 26.091 38.4765 26.0916 38.3432C26.0958 35.9053 26.0974 33.4676 26.0966 31.0301C26.0966 31.017 26.1065 31.0046 26.119 30.9759C26.7224 31.3297 27.3313 31.3422 27.9347 30.9759C27.9876 31.0519 27.9645 31.1223 27.9645 31.1871C27.9677 33.544 27.9633 35.9041 27.9677 38.2641L27.9701 38.2635ZM27.0131 30.8775C26.6765 30.8703 26.3565 30.73 26.1231 30.4873C25.8897 30.2446 25.762 29.9193 25.7678 29.5826C25.7743 29.2501 25.9109 28.9335 26.1481 28.7006C26.3854 28.4677 26.7044 28.3371 27.0368 28.3368C27.2037 28.3383 27.3686 28.3726 27.5222 28.4379C27.6758 28.5031 27.815 28.598 27.9319 28.7171C28.0488 28.8362 28.1411 28.9772 28.2036 29.132C28.266 29.2868 28.2974 29.4524 28.2958 29.6193C28.2922 29.9564 28.155 30.2782 27.9144 30.5143C27.6738 30.7503 27.3495 30.8811 27.0125 30.8781L27.0131 30.8775ZM26.0997 28.2515V26.1867C26.3948 26.3418 26.6875 26.4639 27.0181 26.4614C27.3503 26.4584 27.6745 26.3598 27.9521 26.1774V28.2422C27.345 27.8871 26.7348 27.8734 26.0997 28.2521V28.2515ZM28.3307 23.324C28.3413 22.6388 28.3363 21.9537 28.3344 21.2735C28.3344 20.4912 27.7659 19.9032 27.0225 19.9088C26.279 19.9144 25.728 20.4949 25.7261 21.2654C25.7261 22.0577 25.7261 22.85 25.7261 23.6423C25.7295 23.7571 25.6997 23.8704 25.6402 23.9687C25.304 24.5392 25.3077 25.1172 25.6402 25.6878C25.6944 25.7712 25.7236 25.8685 25.7242 25.9681C25.7205 26.6831 25.7174 27.4007 25.7242 28.112C25.7242 28.2671 25.6825 28.3057 25.5312 28.3051C24.498 28.2984 23.4653 28.2984 22.4329 28.3051C22.266 28.3051 22.2224 28.254 22.2299 28.0945C22.2424 27.8236 22.2299 27.5514 22.2336 27.2792C22.2336 27.0388 22.1994 26.8152 22.4684 26.6352C22.6925 26.4851 22.7075 26.1929 22.596 25.9338C22.5487 25.8137 22.4664 25.7106 22.3598 25.6377C22.2533 25.5649 22.1273 25.5257 21.9983 25.5252C21.6907 25.509 21.6901 25.5096 21.6907 25.1982C21.6963 23.6765 21.6602 22.1524 21.7193 20.632C21.7754 19.1894 22.5462 18.1256 23.738 17.3625C25.0294 16.5347 26.4633 16.2414 27.9789 16.3236C29.1837 16.3859 30.3182 16.7011 31.3287 17.3825C32.4968 18.1679 33.1712 19.2598 33.3212 20.6687C33.3387 20.8338 33.3044 20.8892 33.1344 20.8743C32.9717 20.8631 32.8084 20.8631 32.6457 20.8743C32.3524 20.8867 32.1251 21.0655 32.0635 21.3227C32.0311 21.4482 32.0426 21.581 32.0962 21.699C32.1498 21.817 32.2422 21.913 32.358 21.9711C32.3997 21.9884 32.4342 22.0193 32.4561 22.0588C32.4779 22.0983 32.4857 22.144 32.4782 22.1885C32.4632 22.5766 32.4458 22.9646 32.4458 23.3527C32.4458 23.5028 32.3929 23.5283 32.259 23.5264C31.6301 23.5196 31.0012 23.5264 30.3724 23.5264C29.759 23.5264 29.1451 23.5208 28.5318 23.5308C28.3774 23.5271 28.3269 23.4928 28.33 23.3246L28.3307 23.324ZM37.5385 30.4702C37.6705 30.6502 37.7521 30.8327 37.6406 31.0507C37.536 31.255 37.3604 31.3185 37.1394 31.3179C36.0061 31.3141 34.8729 31.3179 33.7397 31.3179C32.6301 31.3179 31.5199 31.3179 30.4097 31.3179C30.1799 31.3179 29.9739 31.2899 29.8549 31.0631C29.7304 30.8258 29.8294 30.6358 29.9695 30.444C30.868 29.2188 31.7584 27.9874 32.5877 26.713C32.6749 26.5785 32.7478 26.4496 32.731 26.2851C32.7185 26.1655 32.7671 26.1269 32.8897 26.1288C33.4638 26.135 34.0385 26.1338 34.6126 26.1288C34.7228 26.1288 34.7739 26.1593 34.7571 26.272C34.7297 26.4589 34.8231 26.5953 34.9183 26.7404C35.7508 28.0136 36.64 29.2456 37.5378 30.4708L37.5385 30.4702ZM36.7595 23.8921C36.8819 23.8915 37.0032 23.9151 37.1165 23.9615C37.2297 24.008 37.3327 24.0763 37.4195 24.1627C37.5063 24.249 37.5751 24.3516 37.6222 24.4647C37.6692 24.5777 37.6934 24.6989 37.6935 24.8214C37.6962 25.0648 37.6028 25.2995 37.4335 25.4744C37.2642 25.6494 37.0327 25.7504 36.7894 25.7557C33.9968 25.7619 31.2036 25.7588 28.3799 25.7588C28.7535 25.1297 28.7534 24.5286 28.4029 23.9282C28.4172 23.8727 28.462 23.8896 28.4963 23.8896C31.2509 23.8904 34.0051 23.8914 36.7589 23.8927L36.7595 23.8921ZM32.8125 23.3888C32.83 22.9789 32.8432 22.5689 32.8524 22.1586C32.8524 22.0664 32.8885 22.0397 32.9769 22.0403C33.4881 22.0403 33.9987 22.0446 34.5099 22.0403C34.6226 22.0403 34.6344 22.0951 34.6344 22.1835C34.6444 22.5778 34.6556 22.9727 34.6743 23.367C34.6799 23.4872 34.6462 23.5277 34.5217 23.5233C34.259 23.5134 33.995 23.5233 33.7322 23.5233C33.4694 23.5233 33.2054 23.5196 32.9427 23.5233C32.8381 23.5246 32.8076 23.4909 32.8119 23.3894L32.8125 23.3888ZM34.787 21.238C34.9401 21.238 35.0547 21.2885 35.0591 21.4529C35.0634 21.6173 34.9495 21.6641 34.7944 21.6672C34.089 21.6821 33.3835 21.6834 32.6774 21.6672C32.5317 21.6634 32.4283 21.6205 32.4283 21.4616C32.4283 21.2922 32.5392 21.238 32.6911 21.238H33.7621C34.1033 21.2399 34.4433 21.2424 34.7863 21.2368L34.787 21.238ZM31.6824 16.5042C33.1998 17.4012 34.0099 18.8051 34.1967 20.5603C34.2067 20.6563 34.259 20.8132 34.1817 20.84C34.0522 20.8873 33.8941 20.8631 33.7459 20.855C33.6892 20.8518 33.7017 20.7833 33.6973 20.7397C33.4564 18.3485 32.0373 16.9402 29.8369 16.2819C27.652 15.6272 25.5156 15.8216 23.5481 17.0393C22.0817 17.9468 21.3189 19.2853 21.3289 21.0343C21.3326 21.6709 21.3289 22.3081 21.3289 22.9447C21.3289 23.7295 21.3196 24.5143 21.3351 25.2985C21.3395 25.5159 21.2511 25.5321 21.0792 25.5258C20.9236 25.5196 20.8146 25.5395 20.8171 25.3085C20.8295 23.8871 20.8264 22.4657 20.8227 21.0443C20.8159 18.8281 21.819 17.1969 23.7853 16.2426C26.4409 14.9564 29.1158 14.9907 31.6818 16.5073L31.6824 16.5042Z" fill="#00659E"/>
<path d="M32.0084 29.8623C31.8443 29.8629 31.6869 29.9273 31.5694 30.0419C31.4519 30.1565 31.3836 30.3124 31.3789 30.4765C31.3787 30.6446 31.4451 30.8061 31.5635 30.9254C31.6819 31.0448 31.8428 31.1125 32.0109 31.1136C32.1753 31.1112 32.332 31.0438 32.4469 30.9262C32.5618 30.8086 32.6255 30.6502 32.6242 30.4858C32.6244 30.3217 32.5598 30.1641 32.4445 30.0474C32.3292 29.9306 32.1725 29.8641 32.0084 29.8623ZM32.0084 30.7418C31.9734 30.7454 31.938 30.7411 31.9049 30.7294C31.8717 30.7176 31.8415 30.6986 31.8166 30.6737C31.7917 30.6489 31.7726 30.6188 31.7608 30.5856C31.749 30.5525 31.7446 30.5171 31.7481 30.4821C31.7457 30.4468 31.7512 30.4114 31.7642 30.3786C31.7773 30.3457 31.7976 30.3162 31.8236 30.2923C31.8496 30.2683 31.8807 30.2506 31.9145 30.2403C31.9484 30.23 31.9841 30.2275 32.019 30.2329C32.1728 30.2429 32.2481 30.3394 32.2581 30.4821C32.2438 30.6453 32.1597 30.7393 32.009 30.7418H32.0084Z" fill="#00659E"/>
<path d="M33.7315 29.8624C33.5678 29.8666 33.4123 29.9352 33.2988 30.0533C33.1853 30.1714 33.1229 30.3295 33.1251 30.4934C33.1251 30.6586 33.1907 30.817 33.3074 30.9338C33.4242 31.0506 33.5826 31.1162 33.7477 31.1162C33.9121 31.1138 34.0691 31.0474 34.1853 30.9311C34.3016 30.8148 34.368 30.6578 34.3704 30.4934C34.3707 30.4097 34.3544 30.3269 34.3223 30.2496C34.2902 30.1724 34.243 30.1023 34.1835 30.0436C34.124 29.9848 34.0534 29.9385 33.9758 29.9074C33.8982 29.8763 33.8151 29.861 33.7315 29.8624ZM33.7353 30.7419C33.584 30.7369 33.5024 30.6416 33.4899 30.489C33.5018 30.3389 33.5752 30.2399 33.7315 30.2349C33.7662 30.2299 33.8015 30.2328 33.8349 30.2434C33.8683 30.2539 33.899 30.2717 33.9246 30.2956C33.9502 30.3195 33.9701 30.3488 33.9829 30.3814C33.9958 30.414 34.0011 30.4491 33.9986 30.484C34.0019 30.5192 33.9973 30.5547 33.9852 30.5878C33.973 30.621 33.9536 30.651 33.9284 30.6757C33.9031 30.7004 33.8727 30.7192 33.8393 30.7307C33.8059 30.7421 33.7703 30.7459 33.7353 30.7419Z" fill="#00659E"/>
<path d="M35.4851 31.1145C35.6494 31.1109 35.806 31.0442 35.9225 30.9283C36.039 30.8123 36.1065 30.656 36.1109 30.4917C36.1094 30.3234 36.0414 30.1627 35.9216 30.0445C35.8019 29.9264 35.6403 29.8605 35.4721 29.8613C35.308 29.8663 35.1524 29.935 35.038 30.0528C34.9237 30.1705 34.8596 30.3281 34.8594 30.4923C34.8637 30.6566 34.9311 30.813 35.0476 30.9288C35.1642 31.0447 35.3209 31.1112 35.4851 31.1145ZM35.4957 30.2344C35.6526 30.2382 35.7193 30.3453 35.7448 30.4767C35.7186 30.6443 35.6352 30.7489 35.4708 30.7421C35.4377 30.7434 35.4046 30.7376 35.3739 30.7251C35.3432 30.7126 35.3155 30.6937 35.2926 30.6696C35.2697 30.6456 35.2523 30.6169 35.2413 30.5856C35.2304 30.5543 35.2263 30.521 35.2292 30.4879C35.2342 30.3235 35.3307 30.2313 35.4957 30.2344Z" fill="#00659E"/>
<path d="M33.745 29.7259C33.8185 29.7265 33.8913 29.7126 33.9594 29.6849C34.0274 29.6572 34.0893 29.6163 34.1414 29.5645C34.1935 29.5127 34.2349 29.4511 34.263 29.3832C34.2912 29.3153 34.3056 29.2425 34.3054 29.169C34.3079 29.0956 34.2957 29.0223 34.2696 28.9536C34.2435 28.8849 34.2039 28.8221 34.1533 28.7689C34.1026 28.7157 34.0418 28.6731 33.9745 28.6436C33.9072 28.6141 33.8347 28.5984 33.7612 28.5972C33.686 28.5939 33.6108 28.6057 33.5403 28.6321C33.4697 28.6584 33.4052 28.6988 33.3506 28.7506C33.2959 28.8025 33.2523 28.8648 33.2223 28.9339C33.1923 29.003 33.1765 29.0775 33.1759 29.1528C33.1742 29.2282 33.1878 29.3032 33.2157 29.3732C33.2437 29.4433 33.2855 29.5069 33.3386 29.5605C33.3918 29.614 33.4551 29.6562 33.525 29.6846C33.5948 29.713 33.6697 29.7271 33.745 29.7259ZM33.7575 28.9666C33.8789 28.9722 33.9312 29.0507 33.9399 29.164C33.9275 29.2805 33.8708 29.3553 33.7488 29.3565C33.7216 29.3602 33.6939 29.3577 33.6679 29.349C33.6419 29.3404 33.6182 29.3259 33.5986 29.3066C33.5791 29.2874 33.5642 29.2639 33.5551 29.238C33.5461 29.2121 33.5431 29.1844 33.5464 29.1572C33.5489 29.0227 33.6286 28.9604 33.7569 28.9666H33.7575Z" fill="#00659E"/>
<defs>
<filter id="filter0_d_1396_2917" x="0" y="0" width="56" height="56.1523" filterUnits="userSpaceOnUse" color-interpolation-filters="sRGB">
<feFlood flood-opacity="0" result="BackgroundImageFix"/>
<feColorMatrix in="SourceAlpha" type="matrix" values="0 0 0 0 0 0 0 0 0 0 0 0 0 0 0 0 0 0 127 0" result="hardAlpha"/>
<feOffset dx="1" dy="1"/>
<feGaussianBlur stdDeviation="5"/>
<feComposite in2="hardAlpha" operator="out"/>
<feColorMatrix type="matrix" values="0 0 0 0 0 0 0 0 0 0 0 0 0 0 0 0 0 0 0.15 0"/>
<feBlend mode="normal" in2="BackgroundImageFix" result="effect1_dropShadow_1396_2917"/>
<feBlend mode="normal" in="SourceGraphic" in2="effect1_dropShadow_1396_2917" result="shape"/>
</filter>
</defs>
</svg>
