<svg width="56" height="57" viewBox="0 0 56 57" fill="none" xmlns="http://www.w3.org/2000/svg">
<g filter="url(#filter0_d_39_147)">
<rect x="8" y="8" width="40" height="41" rx="10" fill="white"/>
<path d="M22.3654 36.0614V34.128L21.6455 32.8116L21.8204 23.076C21.6892 22.4445 21.4322 20.9373 21.4537 19.9601M23.219 36.0614V34.128L24.0586 32.5957V23.076C24.0687 22.7918 24.264 22.2831 24.9648 22.5214C25.8407 22.8192 33.2799 24.0906 33.7872 24.3891C34.1931 24.6278 34.2348 25.165 34.205 25.4037V33.3418C34.1553 33.6004 34.0021 34.2371 33.7872 34.7145C33.5723 35.192 33.5982 36.6841 33.638 37.3705V41.3578M22.3654 37.6452V41.3578M23.219 37.6452V41.3578M21.4537 19.9601V15H24.2991C24.2839 16.2728 24.2625 19.0013 24.2991 19.733C24.3031 19.8133 24.3118 19.8889 24.3243 19.9601M21.4537 19.9601H24.3243M33.638 41.3578H20V42H36.7416V41.3578H35.8001M33.638 41.3578H35.8001M35.8001 41.3578C35.9373 39.2441 36.198 34.9278 36.1431 34.5723C36.0745 34.128 35.6858 33.7575 35.6172 33.3418C35.5623 33.0092 35.5943 27.9111 35.6172 25.4037C35.5334 24.7245 34.9358 23.1973 33.2164 22.5214L24.9648 20.8991C24.7808 20.8245 24.4257 20.5384 24.3243 19.9601M22.1618 24.8339H23.0728M22.1618 25.2963H23.0728M22.1618 25.8164H23.0728M22.1618 26.36H23.0728M22.1618 27.0928H23.7743M22.1618 27.8238H23.0728M22.1618 28.3586H23.003M22.1618 28.9859H23.0728M22.1618 29.5114H23.0728M22.1618 30.1771H23.7743" stroke="#2F6078" stroke-width="0.710526"/>
<path d="M24.264 31.2545V32.6612" stroke="#2F6078" stroke-width="0.710526"/>
<circle cx="22.8012" cy="36.8531" r="0.616488" stroke="#2F6078" stroke-width="0.710526"/>
<path d="M20.479 36.8122C20.479 36.6674 20.5964 36.55 20.7411 36.55H21.9385V37.0743H20.7411C20.5964 37.0743 20.479 36.9569 20.479 36.8122V36.8122Z" fill="#2F6078"/>
<path d="M25.084 36.8531C25.084 36.7083 24.9666 36.5909 24.8219 36.5909H23.6245V37.1152H24.8219C24.9666 37.1152 25.084 36.9978 25.084 36.8531V36.8531Z" fill="#2F6078"/>
<rect x="22.3875" y="20.4299" width="1.01847" height="1.3691" rx="0.393612" fill="#2F6078"/>
<rect x="22.004" y="16.8864" width="1.40184" height="0.429523" rx="0.214762" fill="#2F6078"/>
<path d="M24.0247 31.577H34.2224M24.0247 32.3773H34.2224" stroke="#2F6078" stroke-width="0.710526"/>
<rect x="8.75" y="8.75" width="38.5" height="39.5" rx="9.25" stroke="#2F6078" stroke-width="1.5"/>
</g>
<defs>
<filter id="filter0_d_39_147" x="0" y="0" width="56" height="57" filterUnits="userSpaceOnUse" color-interpolation-filters="sRGB">
<feFlood flood-opacity="0" result="BackgroundImageFix"/>
<feColorMatrix in="SourceAlpha" type="matrix" values="0 0 0 0 0 0 0 0 0 0 0 0 0 0 0 0 0 0 127 0" result="hardAlpha"/>
<feOffset/>
<feGaussianBlur stdDeviation="4"/>
<feComposite in2="hardAlpha" operator="out"/>
<feColorMatrix type="matrix" values="0 0 0 0 0 0 0 0 0 0 0 0 0 0 0 0 0 0 0.25 0"/>
<feBlend mode="normal" in2="BackgroundImageFix" result="effect1_dropShadow_39_147"/>
<feBlend mode="normal" in="SourceGraphic" in2="effect1_dropShadow_39_147" result="shape"/>
</filter>
</defs>
</svg>
