<svg width="56" height="57" viewBox="0 0 56 57" fill="none" xmlns="http://www.w3.org/2000/svg">
<g filter="url(#filter0_d_1097_1911)">
<rect x="9" y="9" width="36" height="36.1525" rx="4" fill="#FAFDFF"/>
<rect x="9.2" y="9.2" width="35.6" height="35.7525" rx="3.8" stroke="#00659E" stroke-width="0.4"/>
</g>
<g clip-path="url(#clip0_1097_1911)">
<path d="M23.2598 21.1983C23.2488 21.2921 23.2526 21.387 23.2713 21.4796C23.2713 21.4796 23.2713 21.7052 23.5791 22.0993C23.6697 22.2147 23.7484 22.3105 23.8105 22.327C23.8249 22.3294 23.8384 22.3354 23.8497 22.3445C23.861 22.3536 23.8697 22.3655 23.875 22.3789C23.8802 22.3924 23.8818 22.407 23.8796 22.4213C23.8774 22.4356 23.8714 22.449 23.8624 22.4603C23.8021 22.5274 23.821 22.6118 23.8184 22.6898C23.8091 23.2411 23.8034 23.7924 23.7933 24.3446C23.7898 24.5245 23.8228 24.7091 23.6856 24.8716C23.6731 24.8881 23.6651 24.9074 23.6622 24.9278C23.6593 24.9482 23.6616 24.969 23.6688 24.9883C23.8637 25.4311 23.8298 25.908 23.8923 26.3709C23.8967 26.401 23.8637 26.4358 23.8483 26.4685C23.5607 27.0781 23.5994 27.7065 23.7603 28.3371C23.7912 28.473 23.8628 28.5966 23.9657 28.6916C24.0598 28.7735 24.0779 28.8658 24.0774 28.9786C24.0743 29.7838 24.0774 30.5898 24.0774 31.3946C24.0774 31.9311 24.0774 32.4682 24.0774 33.0059C24.0774 33.2959 24.0721 33.5864 24.0774 33.8768C24.0836 34.1233 24.2533 34.2971 24.4798 34.3123C24.7182 34.3271 24.9091 34.1656 24.9434 33.9143C24.95 33.8495 24.9522 33.7843 24.9499 33.7192C24.9499 32.4566 24.9499 31.1937 24.9499 29.9305C24.9499 29.5895 24.9455 29.2486 24.9499 28.9076C24.9543 28.6668 25.2112 28.4638 25.3796 28.5592C26.9063 29.4185 28.4325 30.278 29.9583 31.1377C30.3602 31.3646 30.5366 31.7038 30.5647 32.1711C30.6127 32.9645 30.4161 33.7388 30.4407 34.5292C30.4447 34.6472 30.3756 34.6498 30.2864 34.6542C30.121 34.662 30.0146 34.7726 30.0955 34.9107C30.223 35.1284 30.223 35.3662 30.2925 35.5913C30.333 35.722 30.3339 35.8152 30.1931 35.8931C30.0524 35.9711 30.0832 36.1936 30.0717 36.3151C30.0629 36.3986 30.0629 36.4828 30.0717 36.5664C30.103 36.8277 30.0172 36.9614 29.7775 37.0567C28.4243 37.595 27.6612 38.9624 27.8987 40.3903C28.1274 41.7643 29.3382 42.8477 30.7239 42.9161C32.2043 42.9914 33.5162 42.0613 33.8904 40.6712C34.2647 39.2812 33.6265 37.797 32.3336 37.1874C31.914 36.9901 31.7293 36.7667 31.79 36.3203C31.8164 36.1287 31.7816 35.9397 31.5776 35.8356C31.5603 35.8293 31.5458 35.817 31.5369 35.801C31.5281 35.785 31.5253 35.7664 31.5292 35.7485C31.5811 35.5082 31.6053 35.2569 31.6937 35.03C31.8067 34.7408 31.8058 34.6938 31.5072 34.6516C31.4192 34.6398 31.3867 34.608 31.3955 34.5296C31.4645 33.9322 31.2337 33.356 31.2688 32.7598C31.2838 32.4986 31.26 32.2373 31.2614 31.976C31.2649 31.402 31.0107 30.9835 30.5186 30.6835C28.9054 29.6988 27.3006 28.7007 25.684 27.7222C25.4513 27.5815 25.3321 27.4391 25.3568 27.1626C25.3748 26.961 25.3097 26.7615 25.2248 26.5734C25.2041 26.5272 25.1567 26.4732 25.1672 26.4358C25.2952 25.9838 25.1826 25.4925 25.3981 25.0553C25.428 24.9948 25.4421 24.9151 25.4003 24.8663C25.2657 24.7 25.3088 24.5084 25.3062 24.3246C25.2983 23.8099 25.2974 23.2947 25.293 22.7795C25.293 22.6719 25.3066 22.557 25.2121 22.4747C25.1435 22.415 25.1962 22.3793 25.2385 22.3628C25.4377 22.2848 25.4227 22.1755 25.5023 22.0714C25.8788 21.5828 25.797 21.1251 25.4979 20.6592C25.4309 20.5574 25.3968 20.4378 25.4003 20.3164C25.4003 18.8584 25.4205 17.3987 25.3902 15.9425C25.3732 15.5399 25.496 15.1437 25.7381 14.8198C25.782 14.7571 25.8075 14.7153 25.9082 14.7471C26.0811 14.8011 26.2042 14.7771 26.352 14.6844C26.4197 14.6408 26.4914 14.5276 26.4584 14.3665C26.4237 14.1975 26.2764 14.1518 26.1484 14.1539C26.0204 14.1561 26.0125 14.1539 25.8959 14.2001C25.7926 14.2437 25.764 14.2415 25.7341 14.1426C25.6162 13.7751 25.3999 13.4829 25.0392 13.3178C24.9394 13.2721 24.9231 13.2107 24.924 13.1153C24.9271 12.6655 24.924 12.2156 24.924 11.7653C24.924 11.5702 24.9917 11.312 24.8928 11.1962C24.7279 11.0028 24.2432 11.3111 24.1012 11.0059C24.1214 11.6952 24.1047 12.3855 24.1143 13.0753C24.1165 13.2416 24.0853 13.3596 23.9252 13.4472C23.7843 13.5285 23.6729 13.6518 23.6068 13.7995C23.5501 13.9201 23.4929 13.9606 23.35 13.924C23.1741 13.8779 22.9982 13.9872 22.9942 14.1248C22.9907 14.3112 23.1261 14.38 23.2854 14.3743C23.4103 14.3695 23.4256 14.4148 23.4314 14.5215C23.4396 14.7475 23.5121 14.9665 23.6407 15.1534C23.6835 15.2121 23.7059 15.283 23.7045 15.3554C23.7045 16.2177 23.7045 17.0799 23.7045 17.9422C23.7045 19.4402 23.7045 19.7081 23.7045 19.7081C23.7181 20.0103 23.7344 20.1919 23.6328 20.4122C23.474 20.7689 23.3636 20.8216 23.2598 21.1983ZM26.2614 14.2977C26.2803 14.3037 26.297 14.3152 26.3092 14.3308C26.3214 14.3463 26.3287 14.3651 26.33 14.3848C26.3329 14.4073 26.3329 14.4301 26.33 14.4527C26.2574 14.6547 26.0507 14.7532 25.7719 14.5398C25.8058 14.2959 25.9689 14.2071 26.2614 14.2977V14.2977ZM23.3007 14.2715C23.2269 14.255 23.1385 14.2458 23.1407 14.1465C23.1407 14.0594 23.2229 14.0346 23.2928 14.032C23.3698 14.029 23.456 14.0507 23.4613 14.1452C23.4665 14.2397 23.3751 14.2528 23.3007 14.2715V14.2715ZM24.9623 13.5386C25.0278 13.5055 25.0815 13.5752 25.132 13.6122C25.5942 13.9501 25.6875 14.6539 25.3163 15.1042C25.2282 15.2078 25.1831 15.3407 25.1901 15.4761C25.1936 17.1143 25.1936 18.7526 25.1901 20.3909C25.1853 20.5193 25.226 20.6454 25.3053 20.7471C25.6879 21.2592 25.5142 22.0122 24.9332 22.2865C24.9332 20.7319 24.9332 19.2033 24.9332 17.6744C24.9332 16.3549 24.9325 15.0355 24.931 13.7163C24.9315 13.6558 24.8941 13.5726 24.9623 13.5377V13.5386ZM24.3092 22.1986C24.3092 18.9711 24.3092 15.7439 24.3092 12.517C24.3092 12.1908 24.3224 11.8638 24.3039 11.5385C24.2933 11.3516 24.3809 11.3486 24.5238 11.3477C24.6667 11.3468 24.7437 11.3582 24.7437 11.5406C24.7358 13.3392 24.7389 15.1377 24.7389 16.9362H24.7494C24.7494 18.6986 24.7494 20.4606 24.7459 22.223C24.7459 22.4163 24.7899 22.55 24.9948 22.5914C25.0858 22.6097 25.1056 22.6632 25.1052 22.7473C25.1052 23.357 25.1052 23.9666 25.1127 24.5763C25.1127 24.7 25.0608 24.7191 24.9552 24.717C24.6843 24.7117 24.413 24.7109 24.1425 24.717C24.029 24.7196 23.989 24.6856 23.9908 24.5698C24.0009 23.9466 24.0048 23.3225 24.0101 22.6972C24.0101 22.6275 24.0154 22.5666 24.1016 22.5496C24.2947 22.5086 24.3092 22.3641 24.3092 22.1986V22.1986ZM25.0168 25.6955C24.9992 25.874 25.0331 26.1044 24.9341 26.2146C24.8352 26.3247 24.5884 26.2285 24.4103 26.2555C24.1689 26.2917 24.106 26.1823 24.0968 25.9302C24.0888 25.7051 24.0528 25.5992 24.0449 25.4133C24.0365 25.2465 24.1201 25.1955 24.1794 25.199C24.3026 25.2025 24.427 25.2016 24.5511 25.2016C25.0634 25.2016 25.0647 25.2021 25.0168 25.6955V25.6955ZM23.7854 20.8011C23.9389 20.5803 23.9551 20.3482 23.9424 20.127C23.9028 19.4302 23.9376 18.7361 23.9222 18.041C23.9033 17.1675 23.9138 16.2943 23.9257 15.4208C23.9322 15.2821 23.8943 15.1449 23.8175 15.0288C23.4995 14.5428 23.6213 13.9301 24.1051 13.5917V22.2386C23.6064 21.9682 23.4424 21.295 23.7854 20.8011V20.8011ZM30.0497 30.9979C28.4683 30.1046 26.885 29.2131 25.3 28.3236C25.1861 28.2592 25.1092 28.2191 25.0656 28.3863C25.0544 28.4439 25.0233 28.4957 24.9777 28.5331C24.7534 28.6668 24.7877 28.8771 24.7881 29.084C24.7905 30.6287 24.7905 32.1735 24.7881 33.7183C24.7917 33.7834 24.7894 33.8487 24.7811 33.9134C24.7534 34.0589 24.6632 34.1503 24.5102 34.1473C24.3571 34.1442 24.2656 34.0567 24.2463 33.9065C24.2392 33.8341 24.237 33.7614 24.2397 33.6887C24.2397 32.8979 24.2397 32.1073 24.2397 31.3171C24.2397 30.4833 24.2397 29.6492 24.2397 28.8148C24.2397 28.7565 24.2498 28.7073 24.1874 28.665C23.978 28.5239 23.8927 28.3062 23.8606 28.0723C23.7977 27.6186 23.7775 27.1644 23.9112 26.7158C23.971 26.5164 24.0844 26.4476 24.3716 26.5207C24.4803 26.5475 24.5941 26.5466 24.7024 26.5181C24.9478 26.4554 25.037 26.5151 25.0982 26.6723C25.1839 26.9122 25.2188 27.167 25.2006 27.4209C25.1935 27.4771 25.2042 27.5342 25.2312 27.5842C25.2582 27.6342 25.3002 27.6747 25.3515 27.7C27.0433 28.736 28.7277 29.7838 30.4231 30.8141C30.8726 31.0872 31.0942 31.4621 31.1061 31.9729C31.1161 32.1105 31.1177 32.2485 31.111 32.3862C31.0437 33.0555 31.2429 33.7061 31.2486 34.3711C31.2486 34.5619 31.2046 34.6185 31.008 34.6137C30.5999 34.6032 30.5683 34.6137 30.6065 34.2052C30.6698 33.5224 30.7508 32.8435 30.7305 32.155C30.7169 31.6359 30.4983 31.2513 30.0497 30.9979V30.9979ZM30.2582 34.9055C30.2582 34.8497 30.2582 34.7504 30.2582 34.7813H31.593C31.593 34.794 31.593 34.8933 31.593 34.9055H30.2582ZM31.4017 35.5857C31.388 35.7503 31.3203 35.8195 31.1545 35.789C31.1252 35.7868 31.0958 35.7868 31.0665 35.789C30.4807 35.7856 30.4829 35.7851 30.3818 35.2055C30.3616 35.0888 30.3739 35.0313 30.5137 35.04C30.6536 35.0487 30.8053 35.0426 30.9834 35.0426C31.1321 35.0579 31.3823 34.9638 31.4751 35.0766C31.5679 35.1894 31.4162 35.4089 31.4012 35.5857H31.4017ZM33.448 41.3201C32.8406 42.3835 31.5569 42.9509 30.3316 42.6971C29.1196 42.4458 28.1767 41.4233 28.0417 40.2179C27.8939 38.8814 28.6292 37.669 29.8954 37.1821C30.1364 37.0894 30.2397 36.93 30.2441 36.6887C30.2468 36.5363 30.252 36.3839 30.2441 36.2319C30.2318 36.0212 30.3321 35.9423 30.5348 35.9523C30.6668 35.9589 30.7987 35.9523 30.9306 35.9523C31.0626 35.9523 31.1945 35.9523 31.3264 35.9523C31.5688 35.9567 31.6343 36.0212 31.6413 36.2663C31.6453 36.4044 31.6413 36.542 31.6413 36.68C31.6413 36.9317 31.7557 37.0933 32.0006 37.1917C33.6648 37.8615 34.3329 39.7724 33.4476 41.3214L33.448 41.3201Z" fill="#00659E"/>
</g>
<defs>
<filter id="filter0_d_1097_1911" x="0" y="0" width="56" height="56.1523" filterUnits="userSpaceOnUse" color-interpolation-filters="sRGB">
<feFlood flood-opacity="0" result="BackgroundImageFix"/>
<feColorMatrix in="SourceAlpha" type="matrix" values="0 0 0 0 0 0 0 0 0 0 0 0 0 0 0 0 0 0 127 0" result="hardAlpha"/>
<feOffset dx="1" dy="1"/>
<feGaussianBlur stdDeviation="5"/>
<feComposite in2="hardAlpha" operator="out"/>
<feColorMatrix type="matrix" values="0 0 0 0 0 0 0 0 0 0 0 0 0 0 0 0 0 0 0.15 0"/>
<feBlend mode="normal" in2="BackgroundImageFix" result="effect1_dropShadow_1097_1911"/>
<feBlend mode="normal" in="SourceGraphic" in2="effect1_dropShadow_1097_1911" result="shape"/>
</filter>
<clipPath id="clip0_1097_1911">
<rect width="11" height="31.9124" fill="white" transform="translate(23 11.0083)"/>
</clipPath>
</defs>
</svg>
