<svg width="56" height="57" viewBox="0 0 56 57" fill="none" xmlns="http://www.w3.org/2000/svg">
<g filter="url(#filter0_d_39_115)">
<rect x="8" y="8" width="40" height="41" rx="10" fill="white"/>
<path d="M20.9553 26.0964V30.8974" stroke="#2F6078" stroke-width="0.602541"/>
<path d="M37.01 32.305L37.0682 31.7396M37.01 32.305L35.8917 32.7116V32.2092L37.0682 31.7396M37.01 32.305V32.4702L38.3414 31.9176M37.0682 31.7396L38.3414 31.1707V31.3483M38.3414 31.9176V32.2092C38.7825 31.9724 39.6647 31.6601 39.6647 32.305C39.6647 32.3555 39.6647 32.4071 39.6647 32.4596M38.3414 31.9176V31.3483M39.6647 34.1268C39.6647 33.8147 39.6647 33.0781 39.6647 32.4596M39.6647 34.1268L38.4816 35.1082C37.5536 36.9903 38.8423 38.1911 40.3067 38.1032C42.4037 38.1032 42.1665 35.6137 41.628 35.1082L40.7012 34.1268M39.6647 34.1268H40.7012M38.3414 31.3483L39.3388 31.0204C39.4474 31.0113 39.6647 30.881 39.6647 30.4328C39.6647 29.9846 39.6647 28.7429 39.6647 28.1781H39.4344H39.8008M40.8478 28.1781H40.7012M40.7012 28.1781V29.6771M40.7012 28.1781H40.5965M40.7012 34.1268V32.4596M39.6647 32.4596H40.7012M40.7012 32.4596V29.6771M40.1673 28.1781V29.6771H40.4604V28.1781M40.1673 28.1781H40.4604M40.1673 28.1781H39.8008M40.4604 28.1781H40.5965M39.7064 29.6771H40.7012M39.8008 28.1781L40.0406 26.7515M40.0406 26.7515H40.5965M40.0406 26.7515L39.8008 27.0576H39.6647V26.885M40.5965 26.7515V28.1781M40.5965 26.7515L40.8478 27.0576L41.2519 26.8389L40.8478 26.183H40.5517M39.6647 26.3441V26.183H40.0406M39.6647 26.3441H39.3636V25.9139H38.9456V27.3706H39.3636V26.885H39.6647M39.6647 26.3441V26.885M40.0406 26.183L39.209 23.1248C39.1326 22.7478 39.161 21.9392 39.8862 21.721H40.0546M40.0406 26.183H40.5517M40.5517 26.183L41.4205 23.1248C41.4867 22.8307 41.4536 22.1382 40.7926 21.721H40.3715M40.0546 21.721V21.0392H40.3715M40.0546 21.721H40.3715M40.6884 21.6729V21.0392H40.5299M40.3715 21.0392V21.721M40.3715 21.0392H40.5299M40.5299 21.0392V21.6729" stroke="#2F6078" stroke-width="0.301271"/>
<path d="M20.9104 25.6216C20.7462 24.8654 21.0695 23.2225 23.6766 22.7011C26.2836 22.1797 28.67 23.3467 29.7752 25.7738C30.3432 27.0209 29.6753 27.9707 30.1244 29.2654C30.779 31.1526 31.0753 32.804 32.0762 32.804C32.5797 32.804 35.0889 32.4274 35.8421 32.4274" stroke="#2F6078" stroke-width="0.451906"/>
<path d="M21.643 26.0736L21.52 25.6774H20.3448L20.2629 26.0736M21.643 26.0736H20.2629M21.643 26.0736V27.9184H21.5645M20.2629 26.0736V27.9184H20.4132M20.4132 27.9184V28.9326C20.3352 29.0833 19.9867 29.4204 19.2163 29.5631C19.1627 29.573 19.106 29.5846 19.0467 29.5978M20.4132 27.9184H21.5645M19.0467 30.2141L17.3113 30.8837C17.3431 30.8153 17.3878 30.6553 17.3113 30.5618C17.2347 30.4684 16.5281 30.8194 16.1843 31.0066C16.1645 30.9276 16.1394 30.788 16.146 30.6826M19.0467 30.2141V29.5978M19.0467 30.2141V30.5618C19.402 30.4186 20.1426 30.1485 20.2629 30.2141C20.3831 30.2797 20.4132 30.4733 20.4132 30.5618V30.8837M19.0467 29.5978C18.0389 29.8208 16.2686 30.4776 16.1843 30.5618C16.1606 30.5856 16.1493 30.6298 16.146 30.6826M20.4132 30.8837V32.8231M20.4132 30.8837H20.8185M21.5645 30.8837V27.9184M21.5645 30.8837V32.8231M21.5645 30.8837H21.1915M16.146 30.6826L14.1845 31.4594L14 31.8044L16.146 30.8837M20.4132 32.8231C19.8299 33.2524 18.781 34.1227 18.6099 34.7887C18.4388 35.4547 18.6277 37.4104 21.1246 37.4104C23.1221 37.4104 23.4407 35.5215 23.1043 34.6817C22.7678 33.8419 21.5645 32.8231 21.5645 32.8231M20.4132 32.8231H20.8185M21.5645 32.8231H21.1915M20.8185 30.8837V32.8231M20.8185 30.8837H21.1915M20.8185 32.8231H21.1915M20.8185 32.8231V34.6817H21.1915V32.8231M21.1915 32.8231V30.8837" stroke="#2F6078" stroke-width="0.301271"/>
<circle cx="40.3605" cy="36.1036" r="0.301271" stroke="#2F6078" stroke-width="0.534501"/>
<circle cx="40.3639" cy="20.5651" r="0.301271" stroke="#2F6078" stroke-width="0.52765"/>
<rect x="8.75" y="8.75" width="38.5" height="39.5" rx="9.25" stroke="#2F6078" stroke-width="1.5"/>
</g>
<defs>
<filter id="filter0_d_39_115" x="0" y="0" width="56" height="57" filterUnits="userSpaceOnUse" color-interpolation-filters="sRGB">
<feFlood flood-opacity="0" result="BackgroundImageFix"/>
<feColorMatrix in="SourceAlpha" type="matrix" values="0 0 0 0 0 0 0 0 0 0 0 0 0 0 0 0 0 0 127 0" result="hardAlpha"/>
<feOffset/>
<feGaussianBlur stdDeviation="4"/>
<feComposite in2="hardAlpha" operator="out"/>
<feColorMatrix type="matrix" values="0 0 0 0 0 0 0 0 0 0 0 0 0 0 0 0 0 0 0.25 0"/>
<feBlend mode="normal" in2="BackgroundImageFix" result="effect1_dropShadow_39_115"/>
<feBlend mode="normal" in="SourceGraphic" in2="effect1_dropShadow_39_115" result="shape"/>
</filter>
</defs>
</svg>
