<svg width="56" height="57" viewBox="0 0 56 57" fill="none" xmlns="http://www.w3.org/2000/svg">
<g filter="url(#filter0_d_1097_1852)">
<rect x="9" y="9" width="36" height="36.1525" rx="4" fill="#FAFDFF"/>
<rect x="9.2" y="9.2" width="35.6" height="35.7525" rx="3.8" stroke="#00659E" stroke-width="0.4"/>
</g>
<g clip-path="url(#clip0_1097_1852)">
<path d="M25.701 28.6073C25.6173 28.5059 25.5652 28.382 25.551 28.2511C25.551 26.7627 25.551 25.2743 25.551 23.7859C25.551 23.6883 25.5722 23.6353 25.6756 23.6056C26.6365 23.3194 26.6977 22.2466 26.4274 21.5426C26.231 21.0317 25.7939 20.8345 25.2533 20.8345H20.185C20.101 20.8372 20.0171 20.8443 19.9337 20.8557C19.6764 20.8874 19.4372 21.0053 19.2548 21.1904C19.0724 21.3754 18.9574 21.6168 18.9285 21.8755C18.9074 22.1005 18.9074 22.3269 18.9285 22.5519C18.9371 22.7791 19.015 22.9982 19.1517 23.1795C19.2885 23.3608 19.4774 23.4955 19.693 23.5653C19.7627 23.5807 19.8238 23.6227 19.8632 23.6824C19.9027 23.7422 19.9173 23.815 19.9041 23.8855C19.9041 25.2891 19.9041 26.6927 19.9041 28.0963C19.9089 28.2734 19.8604 28.4478 19.7648 28.5967C17.9782 31.4958 16.1938 34.3934 14.4114 37.2897C14.2264 37.5668 14.1012 37.8798 14.0437 38.2084C13.9863 38.537 13.9979 38.874 14.0778 39.1979C14.3798 40.3937 15.3216 41.1188 16.5887 41.1209C18.6329 41.1209 20.6771 41.1209 22.7128 41.1209H28.7631C29.0162 41.1276 29.2693 41.1041 29.5169 41.051C29.9024 40.9649 30.2616 40.7869 30.5641 40.5321C30.8667 40.2772 31.1037 39.953 31.2551 39.5868C31.4065 39.2206 31.4678 38.8232 31.434 38.4282C31.4002 38.0331 31.2721 37.6521 31.0607 37.3172C29.2783 34.4182 27.4918 31.5148 25.701 28.6073ZM19.7732 22.3674C19.7732 22.2628 19.7732 22.1589 19.7732 22.0557C19.7686 22.0084 19.7745 21.9606 19.7905 21.9158C19.8065 21.871 19.8322 21.8303 19.8657 21.7967C19.8993 21.763 19.9398 21.7372 19.9844 21.7212C20.029 21.7051 20.0766 21.6992 20.1238 21.7038H25.3272C25.3768 21.6997 25.4266 21.7067 25.4732 21.7243C25.5197 21.7418 25.5617 21.7696 25.5963 21.8055C25.6308 21.8414 25.657 21.8846 25.6729 21.9319C25.6888 21.9792 25.6941 22.0295 25.6883 22.0791C25.6883 22.1723 25.6883 22.2678 25.6883 22.361C25.6883 22.6664 25.5637 22.7851 25.2659 22.7851H20.1977C19.8873 22.783 19.7796 22.677 19.7732 22.3674V22.3674ZM19.315 30.9607C19.7373 30.2653 20.1597 29.5699 20.5989 28.8787C20.7143 28.6957 20.7731 28.4824 20.7679 28.2659C20.7679 26.8178 20.7679 25.3676 20.7679 23.9173C20.7679 23.7053 20.8207 23.648 21.0319 23.6502C22.1666 23.66 23.3013 23.66 24.436 23.6502C24.6472 23.6502 24.6937 23.7138 24.6937 23.9194C24.6937 25.3782 24.6937 26.8369 24.6937 28.2956C24.6922 28.4925 24.7479 28.6856 24.8542 28.8511C25.5637 29.9982 26.2669 31.1473 26.9976 32.3368C26.8857 32.3368 26.8097 32.3368 26.7315 32.3368C25.1874 32.273 23.6447 32.4951 22.1806 32.9919C20.781 33.448 19.2973 33.5828 17.8389 33.3863L19.315 30.9607ZM23.9609 33.5814C23.9349 33.7723 23.8498 33.9502 23.7175 34.0899C23.5852 34.2296 23.4125 34.3239 23.2239 34.3595C23.0379 34.3897 22.8471 34.3587 22.6801 34.2712C22.513 34.1837 22.3786 34.0444 22.2968 33.874C22.7905 33.6861 23.2963 33.5324 23.8109 33.4139C23.9778 33.3778 23.9883 33.4499 23.9778 33.5814H23.9609ZM30.4672 39.2297C30.3502 39.5449 30.1358 39.8144 29.8554 39.9986C29.5751 40.1828 29.2433 40.2722 28.9088 40.2538C26.8364 40.2538 24.7648 40.2538 22.6938 40.2538C20.6306 40.2538 18.5674 40.2538 16.5042 40.2538C16.2789 40.262 16.0544 40.2218 15.8457 40.136C15.637 40.0503 15.449 39.9208 15.2941 39.7562C15.1392 39.5917 15.0211 39.3959 14.9475 39.1819C14.874 38.9679 14.8467 38.7406 14.8676 38.5152C14.8839 38.2608 14.9645 38.0149 15.102 37.8006C15.8073 36.6494 16.5169 35.5002 17.2138 34.3489C17.234 34.2979 17.2717 34.2558 17.3201 34.2301C17.3685 34.2045 17.4243 34.197 17.4777 34.209C18.7222 34.3851 19.9871 34.3551 21.2219 34.1199C21.3929 34.0881 21.4331 34.1326 21.5112 34.2683C21.6845 34.6157 21.9681 34.8952 22.3173 35.0626C22.6665 35.23 23.0613 35.2758 23.4393 35.1928C23.8318 35.1083 24.1834 34.8906 24.4346 34.5761C24.6858 34.2617 24.8213 33.8699 24.8182 33.4669C24.8182 33.2697 24.8901 33.2549 25.059 33.2315C25.7687 33.1711 26.4822 33.1711 27.1919 33.2315C27.3012 33.2314 27.4085 33.2609 27.5025 33.3169C27.5965 33.3729 27.6738 33.4532 27.7262 33.5496C28.5709 34.9383 29.4156 36.3165 30.273 37.6968C30.4308 37.9153 30.532 38.1699 30.5674 38.4375C30.6028 38.7051 30.5713 38.9774 30.4757 39.2297H30.4672Z" fill="#00659E"/>
<path d="M37.9284 20.9491C36.2714 19.2826 34.6115 17.6196 32.9489 15.9602C32.839 15.8499 32.8475 15.78 32.9193 15.6549C33.0516 15.4422 33.1244 15.1976 33.13 14.9469C33.1356 14.6961 33.0737 14.4485 32.951 14.2301C32.7142 13.7984 32.3615 13.4422 31.9331 13.2018C31.661 13.0477 31.3459 12.9881 31.0366 13.0322C30.7273 13.0763 30.4412 13.2216 30.2225 13.4456C28.7851 14.8775 27.3527 16.3157 25.9251 17.7603C25.7886 17.8972 25.6806 18.06 25.6073 18.2391C25.534 18.4183 25.4969 18.6103 25.4981 18.804C25.4993 18.9977 25.5387 19.1892 25.6142 19.3674C25.6897 19.5457 25.7997 19.7071 25.9378 19.8424C26.0666 19.9781 26.1996 20.1116 26.3348 20.241C26.5579 20.4736 26.8524 20.6243 27.1709 20.6689C27.4895 20.7135 27.8138 20.6494 28.0918 20.4869C28.1176 20.4658 28.1475 20.4503 28.1796 20.4414C28.2117 20.4325 28.2452 20.4304 28.2782 20.4352C28.3111 20.44 28.3427 20.4515 28.371 20.4692C28.3992 20.4869 28.4235 20.5102 28.4423 20.5378C29.2258 21.335 30.0177 22.1259 30.8075 22.9188C32.6828 24.8016 34.5587 26.6865 36.4354 28.5735C36.742 28.8957 37.1108 29.1517 37.5193 29.326C37.9278 29.5003 38.3673 29.5891 38.8111 29.587L39.2145 29.5594C39.2614 29.5574 39.3081 29.551 39.3539 29.5403C40.5893 29.2711 41.4488 28.5502 41.831 27.3395C42.0243 26.7893 42.0566 26.195 41.9241 25.6269C41.7916 25.0588 41.4999 24.5406 41.0834 24.1337C40.0486 23.0545 38.9822 22.0071 37.9284 20.9491ZM27.8891 19.5667C27.825 19.6441 27.7445 19.7061 27.6536 19.7483C27.5626 19.7905 27.4634 19.8117 27.3632 19.8106C27.1554 19.7589 26.9622 19.6602 26.7982 19.522C26.6342 19.3838 26.5039 19.2098 26.4172 19.0134C26.2355 18.6784 26.4615 18.4303 26.6896 18.2013L30.6682 14.2089C31.0905 13.7848 31.3735 13.7848 31.8191 14.1962C32.4251 14.7474 32.3576 15.0994 31.8191 15.6146C30.495 16.9122 29.1984 18.2458 27.8891 19.5667ZM33.5908 24.5048C32.0577 22.9634 30.5414 21.4389 29.021 19.9166C28.9154 19.8084 28.9217 19.7512 29.021 19.6473C30.0445 18.6282 31.0659 17.6034 32.0851 16.573C32.1865 16.4691 32.2414 16.4669 32.347 16.573C33.9069 18.1462 35.4717 19.7173 37.0415 21.2863C37.1449 21.3901 37.1302 21.4601 37.0647 21.5682C36.7806 22.0246 36.4044 22.4161 35.9602 22.7174C35.7005 22.9019 35.4281 23.0694 35.1578 23.2369C34.6003 23.5931 34.009 23.9238 33.5993 24.5048H33.5908ZM40.4055 28.0604C40.1881 28.2758 39.9305 28.4459 39.6475 28.5612C39.3645 28.6765 39.0617 28.7346 38.7563 28.7323C38.4509 28.7299 38.1489 28.6671 37.8677 28.5475C37.5865 28.4278 37.3316 28.2537 37.1175 28.035C36.1925 27.1254 35.2887 26.1967 34.3722 25.2787C34.2349 25.143 34.2582 25.0666 34.3553 24.9309C34.5345 24.7102 34.7485 24.5204 34.9888 24.3691C35.0965 24.2949 35.2 24.227 35.3204 24.1571C36.258 23.5867 37.202 23.0206 37.7848 22.0538C38.7077 22.9697 39.639 23.8454 40.5132 24.774C40.9323 25.224 41.1571 25.8221 41.1385 26.4378C41.1199 27.0535 40.8594 27.6368 40.414 28.0604H40.4055Z" fill="#00659E"/>
<path d="M23.3302 14.8745C23.4422 14.8745 23.5496 14.8298 23.6289 14.7503C23.7081 14.6707 23.7526 14.5629 23.7526 14.4504C23.7477 14.3359 23.6987 14.2277 23.616 14.1486C23.5333 14.0695 23.4233 14.0257 23.3091 14.0264C23.1961 14.0313 23.0893 14.0795 23.0107 14.1612C22.9321 14.2429 22.8877 14.3517 22.8867 14.4653C22.8886 14.5215 22.9016 14.5768 22.9251 14.628C22.9485 14.6791 22.9818 14.7251 23.023 14.7632C23.0643 14.8013 23.1128 14.8307 23.1655 14.8498C23.2182 14.8689 23.2742 14.8773 23.3302 14.8745Z" fill="#00659E"/>
<path d="M23.3302 19.1532C23.4433 19.1443 23.549 19.0936 23.627 19.011C23.705 18.9283 23.7498 18.8196 23.7526 18.7058C23.7452 18.5921 23.6954 18.4854 23.6133 18.4068C23.5311 18.3283 23.4225 18.2836 23.3091 18.2817C23.1959 18.2892 23.0896 18.3391 23.0113 18.4216C22.9331 18.5041 22.8886 18.6131 22.8867 18.727C22.8959 18.8402 22.9462 18.9461 23.0279 19.0246C23.1096 19.1031 23.2172 19.1489 23.3302 19.1532V19.1532Z" fill="#00659E"/>
<path d="M23.3438 15.8222C23.3462 15.9357 23.3909 16.0442 23.4691 16.1262C23.5473 16.2083 23.6532 16.2579 23.7661 16.2653C23.8787 16.2615 23.986 16.2161 24.0674 16.1379C24.1488 16.0596 24.1987 15.954 24.2075 15.8412C24.2042 15.7278 24.1592 15.6196 24.0812 15.5374C24.0033 15.4552 23.8978 15.4048 23.7851 15.396C23.6717 15.3984 23.5634 15.4436 23.4816 15.5226C23.3998 15.6015 23.3506 15.7085 23.3438 15.8222V15.8222Z" fill="#00659E"/>
<path d="M25.9207 16.4072C25.9776 16.4095 26.0343 16.4002 26.0875 16.3799C26.1408 16.3597 26.1893 16.3288 26.2304 16.2892C26.2714 16.2496 26.304 16.202 26.3263 16.1495C26.3486 16.0969 26.36 16.0403 26.36 15.9832C26.3611 15.8686 26.3176 15.758 26.2387 15.6752C26.1598 15.5924 26.0517 15.5439 25.9376 15.54C25.8256 15.54 25.7182 15.5847 25.639 15.6642C25.5598 15.7438 25.5153 15.8516 25.5153 15.9641C25.5103 16.0205 25.517 16.0773 25.5352 16.131C25.5533 16.1846 25.5824 16.2338 25.6205 16.2755C25.6587 16.3172 25.7051 16.3505 25.7568 16.3732C25.8085 16.3958 25.8643 16.4074 25.9207 16.4072V16.4072Z" fill="#00659E"/>
<path d="M21.8462 16.6404C21.9021 16.6422 21.9578 16.6324 22.0099 16.6118C22.0619 16.5911 22.1092 16.5599 22.1487 16.5202C22.1883 16.4804 22.2194 16.433 22.24 16.3807C22.2606 16.3285 22.2703 16.2726 22.2685 16.2164C22.2699 16.1598 22.2601 16.1035 22.2395 16.0509C22.2189 15.9982 22.188 15.9502 22.1486 15.9097C22.1093 15.8692 22.0622 15.837 22.0103 15.815C21.9583 15.793 21.9025 15.7817 21.8462 15.7817C21.7346 15.7885 21.6295 15.8368 21.5514 15.9172C21.4733 15.9975 21.4278 16.1042 21.4238 16.2164C21.4265 16.328 21.4719 16.4343 21.5505 16.5133C21.6291 16.5922 21.735 16.6377 21.8462 16.6404Z" fill="#00659E"/>
<path d="M26.1076 14.6986C26.1645 14.7022 26.2215 14.6938 26.2749 14.6739C26.3284 14.654 26.3771 14.6231 26.4179 14.5831C26.4587 14.5432 26.4907 14.4951 26.5118 14.4419C26.5329 14.3888 26.5427 14.3318 26.5405 14.2746C26.5431 14.2195 26.5345 14.1644 26.5151 14.1127C26.4957 14.0611 26.466 14.014 26.4279 13.9743C26.3897 13.9346 26.3439 13.9031 26.2931 13.8818C26.2424 13.8605 26.1879 13.8499 26.133 13.8505C26.077 13.848 26.021 13.8566 25.9684 13.876C25.9158 13.8954 25.8675 13.9251 25.8264 13.9634C25.7854 14.0016 25.7523 14.0477 25.7291 14.099C25.706 14.1502 25.6932 14.2056 25.6916 14.2619C25.6899 14.3181 25.6994 14.3741 25.7195 14.4266C25.7395 14.4791 25.7698 14.5271 25.8085 14.5677C25.8472 14.6083 25.8936 14.6409 25.945 14.6633C25.9963 14.6858 26.0516 14.6978 26.1076 14.6986Z" fill="#00659E"/>
<path d="M21.0356 19.4458C21.1477 19.4458 21.2551 19.4011 21.3343 19.3216C21.4135 19.242 21.458 19.1342 21.458 19.0217C21.458 18.9092 21.4135 18.8014 21.3343 18.7219C21.2551 18.6423 21.1477 18.5977 21.0356 18.5977C20.9236 18.5977 20.8162 18.6423 20.737 18.7219C20.6578 18.8014 20.6133 18.9092 20.6133 19.0217C20.6133 19.1342 20.6578 19.242 20.737 19.3216C20.8162 19.4011 20.9236 19.4458 21.0356 19.4458Z" fill="#00659E"/>
<path d="M26.2826 35.4556C25.7854 35.4588 25.3093 35.6576 24.9564 36.0091C24.6035 36.3607 24.4018 36.8371 24.3946 37.3362C24.3921 37.5854 24.4387 37.8326 24.5318 38.0636C24.6248 38.2945 24.7624 38.5048 24.9367 38.6821C25.111 38.8595 25.3186 39.0005 25.5474 39.097C25.7762 39.1935 26.0217 39.2436 26.2699 39.2444C26.7624 39.2508 27.2377 39.0625 27.5933 38.7202C27.9488 38.3779 28.1561 37.909 28.1705 37.4147C28.1772 37.1609 28.1335 36.9083 28.0418 36.6717C27.9501 36.4352 27.8123 36.2193 27.6365 36.0369C27.4607 35.8544 27.2504 35.709 27.0179 35.6092C26.7854 35.5094 26.5354 35.4572 26.2826 35.4556V35.4556ZM26.2572 38.3879C25.9886 38.3802 25.7334 38.2684 25.5452 38.0758C25.357 37.8833 25.2504 37.6251 25.2478 37.3553C25.2489 37.2182 25.2772 37.0826 25.3311 36.9566C25.385 36.8306 25.4634 36.7167 25.5618 36.6215C25.6601 36.5263 25.7764 36.4518 25.9038 36.4023C26.0312 36.3528 26.1671 36.3294 26.3037 36.3333C26.4394 36.3339 26.5736 36.3614 26.6987 36.4141C26.8238 36.4669 26.9373 36.544 27.0326 36.6409C27.128 36.7378 27.2034 36.8527 27.2544 36.9789C27.3054 37.1052 27.3311 37.2403 27.33 37.3765C27.3195 37.6525 27.2009 37.9131 27 38.1017C26.7991 38.2903 26.5322 38.3916 26.2572 38.3836V38.3879Z" fill="#00659E"/>
<path d="M19.3096 35.4556C18.8981 35.4606 18.505 35.628 18.2154 35.9215C17.9258 36.2151 17.7628 36.6113 17.7617 37.0246C17.7683 37.4327 17.9338 37.8221 18.2227 38.1094C18.5116 38.3967 18.9009 38.559 19.3075 38.5617C19.5112 38.5646 19.7135 38.5265 19.9024 38.4499C20.0913 38.3732 20.263 38.2595 20.4076 38.1153C20.5522 37.9712 20.6666 37.7995 20.7442 37.6104C20.8218 37.4213 20.8611 37.2185 20.8597 37.0139C20.8605 36.8092 20.821 36.6064 20.7434 36.4171C20.6659 36.2278 20.5517 36.0557 20.4077 35.9109C20.2636 35.766 20.0924 35.6512 19.904 35.5731C19.7155 35.495 19.5135 35.455 19.3096 35.4556V35.4556ZM19.3096 37.7073C19.13 37.7062 18.958 37.6342 18.8308 37.5068C18.7036 37.3795 18.6313 37.207 18.6297 37.0267C18.6262 36.9351 18.6413 36.8438 18.674 36.7582C18.7067 36.6727 18.7563 36.5946 18.8198 36.5288C18.8834 36.4631 18.9596 36.4109 19.0437 36.3755C19.1279 36.34 19.2184 36.3221 19.3096 36.3228C19.4892 36.3238 19.6612 36.395 19.7894 36.5213C19.9175 36.6475 19.9916 36.8189 19.996 36.9991C19.9944 37.1807 19.923 37.3547 19.7967 37.4847C19.6704 37.6147 19.4989 37.6907 19.3181 37.6967L19.3096 37.7073Z" fill="#00659E"/>
</g>
<defs>
<filter id="filter0_d_1097_1852" x="0" y="0" width="56" height="56.1523" filterUnits="userSpaceOnUse" color-interpolation-filters="sRGB">
<feFlood flood-opacity="0" result="BackgroundImageFix"/>
<feColorMatrix in="SourceAlpha" type="matrix" values="0 0 0 0 0 0 0 0 0 0 0 0 0 0 0 0 0 0 127 0" result="hardAlpha"/>
<feOffset dx="1" dy="1"/>
<feGaussianBlur stdDeviation="5"/>
<feComposite in2="hardAlpha" operator="out"/>
<feColorMatrix type="matrix" values="0 0 0 0 0 0 0 0 0 0 0 0 0 0 0 0 0 0 0.15 0"/>
<feBlend mode="normal" in2="BackgroundImageFix" result="effect1_dropShadow_1097_1852"/>
<feBlend mode="normal" in="SourceGraphic" in2="effect1_dropShadow_1097_1852" result="shape"/>
</filter>
<clipPath id="clip0_1097_1852">
<rect width="28" height="28.1186" fill="white" transform="translate(14 13.0171)"/>
</clipPath>
</defs>
</svg>
