<svg width="56" height="57" viewBox="0 0 56 57" fill="none" xmlns="http://www.w3.org/2000/svg">
<g filter="url(#filter0_d_1097_1866)">
<rect x="9" y="9" width="36" height="36.1525" rx="4" fill="#FAFDFF"/>
<rect x="9.2" y="9.2" width="35.6" height="35.7525" rx="3.8" stroke="#00659E" stroke-width="0.4"/>
</g>
<g clip-path="url(#clip0_1097_1866)">
<path d="M36.5193 28.3118C36.4302 28.3208 36.3926 28.3118 36.3508 28.2441C36.1574 27.9322 35.9625 27.6216 35.7607 27.3161C35.7386 27.289 35.7267 27.256 35.7267 27.2222C35.7267 27.1883 35.7386 27.1554 35.7607 27.1282C36.2506 26.3613 36.735 25.5791 37.2277 24.8109C37.307 24.7029 37.3493 24.5756 37.3493 24.4454C37.3493 24.3151 37.307 24.1878 37.2277 24.0798C36.7336 23.3052 36.2534 22.523 35.7648 21.7459C35.7404 21.715 35.7272 21.6779 35.7272 21.6398C35.7272 21.6016 35.7404 21.5645 35.7648 21.5337C35.9611 21.2384 36.1546 20.9419 36.3341 20.639C36.3501 20.6021 36.3807 20.5723 36.4197 20.5554C36.4587 20.5386 36.5033 20.536 36.5443 20.5482C37.3906 20.6581 38.0184 20.0472 37.8527 19.2815C37.8026 19.0727 37.6857 18.8823 37.5171 18.7348C37.3485 18.5872 37.1358 18.4892 36.9062 18.4533C36.691 18.4213 36.4703 18.445 36.269 18.5218C36.0676 18.5986 35.8935 18.7253 35.7662 18.8879C35.6178 19.0869 35.5467 19.326 35.5643 19.5667C35.582 19.8074 35.6875 20.0357 35.8637 20.2146C35.8867 20.2327 35.9011 20.2584 35.9037 20.2861C35.9063 20.3139 35.8969 20.3414 35.8776 20.3629C35.6813 20.6722 35.4864 20.9815 35.2971 21.2947C35.2807 21.3279 35.2533 21.3555 35.2188 21.3736C35.1844 21.3917 35.1446 21.3994 35.1051 21.3956C34.1289 21.3956 33.1545 21.3956 32.182 21.3956C32.1401 21.399 32.0981 21.3898 32.0623 21.3696C32.0264 21.3493 31.9986 21.319 31.983 21.2832C31.493 20.4958 31.0003 19.711 30.5117 18.9236C30.4573 18.8241 30.3725 18.7413 30.2677 18.6852C30.1629 18.6292 30.0426 18.6023 29.9215 18.6079C29.7475 18.6079 29.5735 18.6079 29.3995 18.6079H27.1808C27.1207 18.6005 27.0595 18.61 27.0054 18.6351C26.9512 18.6602 26.9066 18.6997 26.8774 18.7485C26.7786 18.9262 26.9219 19.109 27.1558 19.109H29.838C29.9118 19.109 29.9772 19.109 30.019 19.1818C30.5117 19.9726 31.0077 20.7612 31.5069 21.5477C31.5259 21.5726 31.5361 21.6023 31.5361 21.6327C31.5361 21.6631 31.5259 21.6928 31.5069 21.7177C31.0095 22.5102 30.5159 23.3048 30.0259 24.1015C30.015 24.1263 29.9953 24.1469 29.9701 24.1601C29.9448 24.1733 29.9155 24.1783 29.8867 24.1744C29.6988 24.1744 29.5095 24.1744 29.3216 24.1744C29.1337 24.1744 28.9987 24.2741 29.0015 24.43C29.0042 24.5859 29.1281 24.6767 29.3272 24.678C29.5262 24.6793 29.6863 24.678 29.8645 24.678C29.9018 24.674 29.9396 24.6813 29.972 24.6989C30.0044 24.7164 30.0297 24.7432 30.044 24.7751C30.5368 25.5599 31.0314 26.3439 31.5278 27.127C31.5485 27.1527 31.5597 27.1838 31.5597 27.2158C31.5597 27.2478 31.5485 27.2789 31.5278 27.3046C31.3014 27.6455 31.0778 27.9863 30.8569 28.3272C30.8293 28.3617 30.8122 28.4024 30.8074 28.445C30.8026 28.4876 30.8102 28.5307 30.8295 28.5697C30.8488 28.6087 30.879 28.6423 30.9171 28.6671C30.9552 28.6919 30.9997 28.7069 31.0462 28.7106C31.1938 28.7387 31.28 28.6544 31.3469 28.5496C31.5584 28.2172 31.7644 27.8849 31.9746 27.55C31.9898 27.5161 32.0166 27.4876 32.0511 27.4689C32.0855 27.4502 32.1256 27.4424 32.1653 27.4465C32.6525 27.4465 33.1397 27.4465 33.6296 27.4465C34.1196 27.4465 34.604 27.4465 35.0939 27.4465C35.1412 27.4423 35.1886 27.4526 35.2289 27.4757C35.2692 27.4988 35.3 27.5335 35.3166 27.5743C35.4962 27.8721 35.6813 28.1674 35.8734 28.4601C35.8869 28.4742 35.8972 28.4906 35.9036 28.5084C35.9101 28.5262 35.9127 28.545 35.9111 28.5637C35.9095 28.5824 35.9039 28.6006 35.8946 28.6173C35.8852 28.6339 35.8724 28.6487 35.8567 28.6608C35.6917 28.8348 35.5917 29.0528 35.5714 29.2828C35.5511 29.5128 35.6116 29.7428 35.744 29.9389C35.8699 30.113 36.0478 30.25 36.2565 30.3334C36.4651 30.4169 36.6956 30.4432 36.9201 30.4093C37.2185 30.3619 37.4848 30.2094 37.6624 29.9842C37.8401 29.759 37.9148 29.4791 37.8708 29.204C37.7372 28.469 37.1401 28.2517 36.5193 28.3118ZM36.7141 18.9351C36.7951 18.9341 36.8754 18.9479 36.9505 18.9756C37.0256 19.0034 37.094 19.0446 37.1516 19.0968C37.2093 19.149 37.255 19.2112 37.2862 19.2797C37.3175 19.3483 37.3335 19.4219 37.3335 19.4963C37.336 19.5706 37.322 19.6446 37.2923 19.7137C37.2626 19.7829 37.2178 19.8458 37.1608 19.8985C37.1037 19.9513 37.0355 19.9928 36.9604 20.0206C36.8853 20.0483 36.8048 20.0617 36.7239 20.0599C36.5633 20.0603 36.409 20.0023 36.2948 19.8986C36.1806 19.7949 36.1157 19.654 36.1142 19.5065C36.1112 19.4326 36.1245 19.359 36.1534 19.29C36.1822 19.2209 36.226 19.158 36.2821 19.105C36.3381 19.0519 36.4053 19.0099 36.4796 18.9814C36.5538 18.9528 36.6336 18.9384 36.7141 18.939V18.9351ZM35.2958 26.8752C35.2813 26.9028 35.2579 26.9256 35.2287 26.9404C35.1995 26.9553 35.1661 26.9615 35.1329 26.9582H32.1556C32.1225 26.9612 32.0892 26.9546 32.0603 26.9395C32.0314 26.9244 32.0083 26.9015 31.9941 26.8739C31.4958 26.0814 30.9961 25.2894 30.495 24.4978C30.4797 24.4767 30.4721 24.4517 30.4734 24.4264C30.4746 24.4011 30.4846 24.3769 30.502 24.3572C31.0003 23.569 31.4967 22.7799 31.9913 21.99C32.0069 21.9611 32.0319 21.9373 32.0628 21.922C32.0937 21.9066 32.129 21.9005 32.1639 21.9043C32.6622 21.9043 33.1605 21.9043 33.6575 21.9043C34.1544 21.9043 34.6318 21.9043 35.1078 21.9043C35.1474 21.9 35.1875 21.9073 35.2223 21.9252C35.2571 21.9431 35.2848 21.9707 35.3013 22.004C35.7904 22.7863 36.2826 23.5668 36.7782 24.3457C36.7971 24.3696 36.8072 24.3985 36.8072 24.4281C36.8072 24.4577 36.7971 24.4866 36.7782 24.5105C36.2845 25.3004 35.7904 26.0899 35.2958 26.879V26.8752ZM36.7336 29.9159C36.5703 29.9129 36.4147 29.8513 36.3003 29.7443C36.1858 29.6373 36.1215 29.4933 36.1212 29.3433C36.1215 29.269 36.138 29.1955 36.1697 29.127C36.2014 29.0586 36.2476 28.9967 36.3057 28.945C36.3638 28.8932 36.4325 28.8526 36.5079 28.8255C36.5833 28.7984 36.6638 28.7854 36.7447 28.7873C36.9056 28.7902 37.0591 28.8498 37.1734 28.9538C37.2877 29.0578 37.354 29.1982 37.3586 29.3459C37.3518 29.4961 37.2837 29.6384 37.168 29.7447C37.0522 29.851 36.8972 29.9135 36.7336 29.9198V29.9159Z" fill="#00659E"/>
<path d="M29.1702 23.7296C29.2017 23.7508 29.2382 23.765 29.2768 23.7711C29.3153 23.7772 29.3549 23.7751 29.3924 23.7648C29.4298 23.7545 29.4642 23.7364 29.4928 23.7119C29.5214 23.6874 29.5434 23.6571 29.5571 23.6235C29.9858 22.9418 30.4136 22.2601 30.8405 21.5784C30.8746 21.5351 30.894 21.4835 30.8962 21.4301C30.8948 21.3746 30.8739 21.3211 30.8365 21.2775C30.7991 21.2339 30.7472 21.2027 30.6888 21.1885C30.5579 21.1489 30.4647 21.1885 30.3798 21.3164C29.9501 21.9981 29.5205 22.6827 29.0908 23.3704C29.0656 23.3971 29.0474 23.4289 29.0376 23.4631C29.0278 23.4973 29.0267 23.5332 29.0343 23.5679C29.042 23.6026 29.0582 23.6352 29.0818 23.6632C29.1053 23.6913 29.1356 23.714 29.1702 23.7296V23.7296Z" fill="#00659E"/>
<path d="M32.851 22.2609C32.8224 22.2419 32.7897 22.2287 32.7551 22.2223C32.7205 22.2159 32.6848 22.2163 32.6504 22.2236C32.616 22.2308 32.5837 22.2447 32.5556 22.2644C32.5276 22.2841 32.5044 22.309 32.4877 22.3375C32.0423 23.038 31.5996 23.741 31.1598 24.4465C31.1374 24.4881 31.1277 24.5345 31.1318 24.5808C31.1359 24.627 31.1536 24.6714 31.1831 24.7091C31.2125 24.7468 31.2526 24.7764 31.2991 24.7948C31.3455 24.8132 31.3965 24.8196 31.4465 24.8134C31.4855 24.8073 31.5221 24.7924 31.5532 24.7701C31.5843 24.7478 31.6089 24.7187 31.6247 24.6855L31.8363 24.3545C32.2075 23.7691 32.5749 23.1837 32.9387 22.5983C32.9593 22.5715 32.9734 22.5409 32.9801 22.5087C32.9868 22.4765 32.986 22.4433 32.9777 22.4114C32.9694 22.3795 32.9539 22.3496 32.932 22.3236C32.9102 22.2977 32.8825 22.2763 32.851 22.2609V22.2609Z" fill="#00659E"/>
<path d="M35.88 23.9657C35.5468 23.4383 35.2137 22.9104 34.8806 22.3821C34.7845 22.2287 34.6565 22.1827 34.5117 22.2428C34.367 22.3028 34.3057 22.4562 34.4087 22.6198C34.8318 23.2939 35.2559 23.967 35.6809 24.6393C35.701 24.6748 35.7263 24.7074 35.7561 24.7365C35.7904 24.7713 35.8362 24.7948 35.8864 24.8036C35.9367 24.8123 35.9886 24.8058 36.0345 24.7851C36.0851 24.7693 36.1292 24.7397 36.1608 24.7001C36.1925 24.6605 36.2101 24.613 36.2113 24.5639C36.2095 24.5103 36.1917 24.4581 36.1597 24.4131L35.88 23.9657Z" fill="#00659E"/>
<path d="M34.9391 25.9537C34.5048 25.9537 34.0705 25.9537 33.6362 25.9537H32.3473C32.2874 25.945 32.226 25.9552 32.1733 25.9829C32.1207 26.0106 32.0799 26.054 32.0578 26.1058C32.0387 26.1433 32.0305 26.1847 32.034 26.2259C32.0375 26.2672 32.0527 26.3069 32.0779 26.3412C32.1032 26.3754 32.1377 26.4031 32.1781 26.4214C32.2184 26.4398 32.2633 26.4482 32.3083 26.4458C32.7523 26.4458 33.1964 26.4458 33.6404 26.4458C34.0844 26.4458 34.5284 26.4458 34.9725 26.4458C35.0153 26.4509 35.0589 26.4459 35.0991 26.4315C35.1393 26.417 35.175 26.3935 35.2027 26.363C35.2304 26.3326 35.2494 26.2963 35.2578 26.2574C35.2662 26.2184 35.2638 26.1782 35.2508 26.1404C35.2174 26.0113 35.1228 25.955 34.9391 25.9537Z" fill="#00659E"/>
<path d="M40.8002 16.4777C40.7115 16.3394 40.5843 16.2253 40.4316 16.1472C40.279 16.069 40.1064 16.0295 39.9316 16.0329H14.2896C14.1615 16.0329 14.0335 16.0329 13.9054 16.0329C13.67 16.0435 13.4474 16.1342 13.2809 16.2873C13.1144 16.4404 13.016 16.645 13.0048 16.8612C13.0048 16.9289 13.0048 16.9954 13.0048 17.0631V31.5461C12.9957 31.68 13.0084 31.8144 13.0424 31.9449C13.0954 32.1204 13.2098 32.275 13.3681 32.3847C13.5263 32.4945 13.7196 32.5533 13.9179 32.552C14.0682 32.5597 14.2715 32.5022 14.3452 32.6479C14.4288 32.8153 14.2297 32.9112 14.1212 33.0147C13.8428 33.2704 13.5644 33.526 13.286 33.7816C12.9338 34.1165 12.9185 34.4936 13.2359 34.7837C13.5324 35.0547 14.0307 35.0278 14.3592 34.7096C15.0078 34.082 15.6926 33.4876 16.3454 32.8652C16.4492 32.7601 16.5767 32.677 16.719 32.6219C16.8614 32.5667 17.0151 32.5407 17.1695 32.5456C19.4091 32.5533 21.6487 32.5456 23.8883 32.5456C23.944 32.5456 23.9983 32.5456 24.0525 32.5456C24.3309 32.5597 24.3908 32.6108 24.4033 32.8613C24.4145 33.0799 24.4033 33.2972 24.4033 33.5158C24.4033 34.1293 24.4033 34.7415 24.4033 35.3551C24.4033 35.7027 24.356 35.7577 23.9857 35.8241C22.8427 36.0154 21.7255 36.3192 20.6535 36.7304C20.5769 36.7598 20.4989 36.7841 20.4252 36.8186C20.2477 36.8906 20.1075 37.023 20.0341 37.1879C19.9606 37.3528 19.9596 37.5375 20.0313 37.7031C20.1053 37.8634 20.244 37.9912 20.4183 38.0598C20.5927 38.1284 20.7891 38.1325 20.9666 38.0712C21.6195 37.8539 22.2681 37.6225 22.9376 37.4538C24.0932 37.1631 25.2824 37.0001 26.4801 36.9681C28.1723 36.9157 29.8622 37.1235 31.4799 37.5829C31.9517 37.7171 32.4111 37.8846 32.8718 38.0482C32.9677 38.0883 33.0713 38.1106 33.1766 38.1139C33.282 38.1172 33.387 38.1013 33.4856 38.0673C33.6045 38.0274 33.7098 37.9594 33.791 37.8702C33.8722 37.781 33.9264 37.6737 33.9481 37.5592C33.9698 37.4447 33.9583 37.3269 33.9148 37.2178C33.8712 37.1086 33.7971 37.012 33.7 36.9374C33.5708 36.8434 33.4255 36.77 33.2699 36.7201C32.2288 36.3278 31.1468 36.0345 30.0406 35.8446C29.5326 35.7564 29.5145 35.7296 29.5145 35.249C29.5145 34.5187 29.5145 33.7884 29.5145 33.0582C29.5145 32.5661 29.5381 32.5469 30.0712 32.5469C33.2727 32.5469 36.4741 32.5469 39.6755 32.5469C40.1836 32.5469 40.6234 32.4919 40.8796 32.0356C40.8906 32.0113 40.9105 31.9912 40.9359 31.9788C40.9613 31.9665 40.9906 31.9626 41.0187 31.9679V16.6618C40.8712 16.6579 40.8531 16.5531 40.8002 16.4777ZM27.936 35.3845C27.936 35.5123 27.8915 35.5455 27.7606 35.5353C27.2322 35.4931 26.7008 35.4931 26.1724 35.5353C25.9957 35.5506 25.9818 35.4752 25.9831 35.3461C25.9831 34.9269 25.9831 34.5076 25.9831 34.0884C25.9831 33.6691 25.9831 33.2486 25.9831 32.8294C25.9831 32.6837 26.0333 32.6441 26.1864 32.6453C26.7069 32.653 27.2275 32.6453 27.7481 32.6453C27.8873 32.6453 27.9374 32.6837 27.9374 32.8179C27.9309 33.6734 27.9305 34.5289 27.936 35.3845V35.3845ZM39.052 31.1281C32.2779 31.1213 25.5039 31.1213 18.7298 31.1281H18.3818C19.0778 30.498 19.7083 29.9215 20.3305 29.3387C20.4391 29.2364 20.5226 29.2837 20.6173 29.3246C21.3119 29.6247 22.0785 29.7567 22.8443 29.7081C24.6803 29.5994 26.0597 28.7967 26.8809 27.3026C27.2243 26.6984 27.4095 26.029 27.4219 25.3476C27.4343 24.6662 27.2736 23.9915 26.9524 23.3771C26.6313 22.7627 26.1585 22.2255 25.5718 21.8082C24.9851 21.3909 24.3004 21.105 23.5723 20.9731C22.9276 20.8475 22.2617 20.8455 21.6161 20.9673C20.9706 21.0891 20.3594 21.3321 19.8209 21.6809C19.2824 22.0298 18.8281 22.477 18.4866 22.9945C18.1451 23.5121 17.9236 24.0889 17.8362 24.6887C17.7348 25.3119 17.7829 25.9478 17.9772 26.5521C18.1714 27.1564 18.5072 27.7144 18.9609 28.1871C19.0555 28.2893 19.0708 28.343 18.9609 28.4427C18.019 29.2948 17.0813 30.155 16.1478 31.0233C16.1148 31.0569 16.0741 31.0834 16.0286 31.1009C15.9831 31.1183 15.934 31.1263 15.8847 31.1243C15.5005 31.1243 15.1164 31.1141 14.7336 31.1243C14.5652 31.1243 14.5457 31.0668 14.5457 30.9364C14.5457 26.5122 14.5457 22.0885 14.5457 17.6651C14.5457 17.4466 14.6682 17.4734 14.8157 17.4734H24.935C29.6249 17.4734 34.3143 17.4709 39.0032 17.4657C39.2997 17.4657 39.3484 17.5475 39.3484 17.7968C39.3401 22.1426 39.3401 26.4905 39.3484 30.8405C39.361 31.0732 39.2997 31.1243 39.052 31.1243V31.1281ZM19.4536 25.3022C19.4565 24.5354 19.7886 23.8006 20.3778 23.2571C20.967 22.7137 21.7657 22.4055 22.6008 22.3995C23.0166 22.3965 23.429 22.4691 23.8141 22.6133C24.1992 22.7575 24.5494 22.9704 24.8443 23.2396C25.1393 23.5088 25.3732 23.829 25.5326 24.1817C25.692 24.5344 25.7737 24.9127 25.773 25.2946C25.7756 26.0612 25.4468 26.7974 24.8588 27.3416C24.2709 27.8858 23.4718 28.1936 22.637 28.1973C21.7971 28.2 20.9903 27.8968 20.3935 27.3541C19.7968 26.8113 19.4588 26.0735 19.4536 25.3022V25.3022Z" fill="#00659E"/>
</g>
<defs>
<filter id="filter0_d_1097_1866" x="0" y="0" width="56" height="56.1523" filterUnits="userSpaceOnUse" color-interpolation-filters="sRGB">
<feFlood flood-opacity="0" result="BackgroundImageFix"/>
<feColorMatrix in="SourceAlpha" type="matrix" values="0 0 0 0 0 0 0 0 0 0 0 0 0 0 0 0 0 0 127 0" result="hardAlpha"/>
<feOffset dx="1" dy="1"/>
<feGaussianBlur stdDeviation="5"/>
<feComposite in2="hardAlpha" operator="out"/>
<feColorMatrix type="matrix" values="0 0 0 0 0 0 0 0 0 0 0 0 0 0 0 0 0 0 0.15 0"/>
<feBlend mode="normal" in2="BackgroundImageFix" result="effect1_dropShadow_1097_1866"/>
<feBlend mode="normal" in="SourceGraphic" in2="effect1_dropShadow_1097_1866" result="shape"/>
</filter>
<clipPath id="clip0_1097_1866">
<rect width="28" height="22.0932" fill="white" transform="translate(13 16.0298)"/>
</clipPath>
</defs>
</svg>
