<svg width="56" height="57" viewBox="0 0 56 57" fill="none" xmlns="http://www.w3.org/2000/svg">
<g filter="url(#filter0_d_1396_2926)">
<rect x="9" y="9" width="36" height="36.1525" rx="4" fill="#FAFDFF"/>
<rect x="9.2" y="9.2" width="35.6" height="35.7525" rx="3.8" stroke="#00659E" stroke-width="0.4"/>
</g>
<path d="M29.9314 19.6445C29.9248 19.6536 29.9177 19.6623 29.9102 19.6706L29.9294 19.6658C29.9308 19.6583 29.9308 19.6514 29.9314 19.6445Z" fill="#00659E"/>
<path d="M34.9297 14.3877C34.932 14.3921 34.9338 14.3968 34.9352 14.4016L34.9436 14.3877H34.9297Z" fill="#00659E"/>
<path d="M26.3338 14.3974L26.3386 14.3877H26.3281L26.3338 14.3974Z" fill="#00659E"/>
<path d="M31.3572 19.6886C31.3493 19.6826 31.3422 19.6757 31.3359 19.668C31.3359 19.6748 31.3359 19.6817 31.3359 19.6886H31.3572Z" fill="#00659E"/>
<path d="M26.5521 29.3307C26.5588 29.3212 26.5672 29.313 26.5769 29.3066H26.5391L26.5521 29.3307Z" fill="#00659E"/>
<path d="M28.4527 19.6191C28.4391 19.6453 28.4207 19.6686 28.3984 19.6878L28.4849 19.6782C28.4733 19.6576 28.4637 19.6384 28.4527 19.6191Z" fill="#00659E"/>
<path d="M38.9847 38.4826C39.0595 37.5265 38.3461 36.6075 37.1494 36.6411C36.4738 36.6604 35.7968 36.6411 35.1204 36.648C34.9687 36.648 34.909 36.6192 34.9145 36.4529C34.9289 36.1452 34.9227 35.8348 34.9145 35.5285C34.9097 35.2798 34.7675 35.126 34.5492 35.1163C34.3308 35.1067 34.1558 35.2668 34.1475 35.5195C34.1393 35.7723 34.1475 36.0161 34.1475 36.2648C34.1475 36.646 34.1475 36.6302 33.7788 36.6494C33.5577 36.6611 33.5323 36.5718 33.5344 36.385C33.5426 35.4769 33.5392 34.5689 33.5344 33.6609C33.5344 33.2014 33.3387 32.9967 32.8841 32.9961C31.3942 32.9928 29.9043 32.9928 28.4143 32.9961C27.9776 32.9961 27.7723 33.2117 27.7716 33.6458C27.7716 34.5627 27.7558 35.4797 27.7799 36.3932C27.7874 36.6727 27.6515 36.6439 27.4771 36.6432C27.3027 36.6425 27.1482 36.6851 27.1509 36.3863C27.1681 34.5188 27.1571 32.6513 27.1626 30.7844C27.1668 30.5705 27.1122 30.3595 27.0047 30.1745C26.8488 29.9052 26.706 29.625 26.544 29.3276L26.5309 29.3036H26.8056C29.1689 29.3036 31.5322 29.307 33.8955 29.2974C34.1201 29.2974 34.1537 29.3661 34.1523 29.568C34.1434 30.9128 34.1468 32.2577 34.1482 33.6025C34.1482 33.9013 34.2944 34.0751 34.5354 34.0751C34.7764 34.0751 34.9172 33.9061 34.9179 33.6025C34.9179 32.1547 34.9179 30.707 34.9179 29.2596C34.9179 28.798 34.6666 28.535 34.2079 28.5343C31.5988 28.5306 28.9874 28.5306 26.3737 28.5343C25.8134 28.5343 25.5237 29.0412 25.7832 29.5412C25.9528 29.8668 26.1327 30.1875 26.3119 30.5076C26.3671 30.6034 26.3955 30.7123 26.3943 30.8229C26.3916 32.6906 26.3916 34.5582 26.3943 36.4255C26.3943 36.6123 26.3366 36.6453 26.1643 36.6439C24.8542 36.637 23.5442 36.6336 22.2341 36.6439C22.0089 36.6439 21.9595 36.5917 21.9595 36.3692C21.9677 33.0805 21.9695 29.7915 21.965 26.5019C21.971 26.4165 21.9687 26.3307 21.9581 26.2457C21.9169 26.0355 21.7871 25.9078 21.5667 25.916C21.3463 25.9243 21.2234 26.0493 21.1987 26.2677C21.1925 26.3532 21.1911 26.4389 21.1946 26.5246V36.3149C21.1915 36.3748 21.1915 36.4349 21.1946 36.4948C21.2063 36.6047 21.1651 36.6466 21.0518 36.6425C20.838 36.6291 20.6236 36.6291 20.4098 36.6425C20.2038 36.6611 20.1606 36.5876 20.1612 36.3904C20.1681 33.9494 20.1697 31.5083 20.166 29.0673C20.166 27.0624 20.166 25.0582 20.1619 23.0539C20.1619 22.8815 20.1839 22.7998 20.3789 22.8554C20.5873 22.9102 20.8065 22.9085 21.014 22.8506C21.163 22.8129 21.2001 22.8609 21.1967 23.01C21.1877 23.4722 21.1967 23.9352 21.1967 24.3974C21.1967 24.5004 21.1932 24.6035 21.2557 24.6941C21.2977 24.765 21.3624 24.8195 21.4394 24.8487C21.5164 24.8779 21.601 24.8801 21.6793 24.8549C21.8853 24.802 21.9663 24.6488 21.9663 24.4517C21.9663 23.8095 21.9663 23.1673 21.9663 22.5244C21.9663 22.2812 22.1723 22.0635 22.3975 22.0635C24.1612 22.0635 25.9249 22.0635 27.6886 22.0635C27.7737 22.0635 27.8547 22.0573 27.9179 22.1391C28.0751 22.3403 28.2948 22.3863 28.5358 22.3795C28.7768 22.3726 29.0007 22.3994 29.2293 22.3726C29.4902 22.3424 29.5273 22.4454 29.5252 22.681C29.5136 24.1282 29.5218 25.576 29.5177 27.0239C29.5177 27.3186 29.6255 27.5445 29.8926 27.6696C30.1734 27.8014 30.4247 27.7238 30.6479 27.5171C30.9033 27.276 31.1518 27.0273 31.4189 26.7993C31.6599 26.5933 31.7547 26.3508 31.7519 26.0342C31.7403 24.8864 31.7519 23.7387 31.7437 22.591C31.7437 22.4248 31.7828 22.3678 31.9558 22.3767C32.2463 22.3911 32.5381 22.387 32.8285 22.3767C33.222 22.3643 33.4856 22.1267 33.4987 21.7434C33.5145 21.2626 33.5069 20.7819 33.4987 20.3052C33.4932 20.0188 33.3359 19.8244 33.0743 19.7186C32.9906 19.6836 32.8869 19.7145 32.7997 19.6389L33.555 18.3298C33.7252 18.0338 33.8983 17.7405 34.0644 17.4369C34.1798 17.224 34.1242 17.0083 33.9436 16.8977C33.7513 16.7796 33.5371 16.8421 33.3943 17.0598C33.362 17.1093 33.3353 17.1635 33.3057 17.2151C32.8656 17.9775 32.4227 18.7378 31.9888 19.5029C31.9201 19.6293 31.8398 19.6973 31.6881 19.6801C31.5774 19.6733 31.4664 19.6733 31.3558 19.6801H31.3352C31.3352 19.6733 31.3352 19.6664 31.3352 19.6595C31.3352 19.5572 31.3983 19.4975 31.4368 19.4308C31.8439 18.7193 32.2552 18.0097 32.6637 17.3016C32.9075 16.8771 32.7523 16.6017 32.2635 16.6003C31.1846 16.5971 30.1057 16.5971 29.0268 16.6003C28.5187 16.6003 28.3594 16.8751 28.61 17.3092C29.0144 18.0125 29.4236 18.7131 29.8267 19.4178C29.8672 19.4865 29.94 19.5503 29.9324 19.6389C29.9324 19.6458 29.9324 19.6527 29.9324 19.6602L29.9132 19.665C29.5623 19.7509 29.3412 19.6438 29.1579 19.3003C28.6532 18.36 28.1012 17.4458 27.5677 16.52L26.3373 14.3907L26.3325 14.3825H34.9454L34.9371 14.3962C34.7456 14.7314 34.5663 15.0433 34.3878 15.3578C34.2162 15.6587 34.2368 15.8785 34.4489 16.0069C34.6732 16.1415 34.8774 16.0499 35.0614 15.7322C35.2674 15.3777 35.4734 15.0233 35.6759 14.6669C36.0062 14.0872 35.7192 13.6009 35.0483 13.6009C32.1117 13.6009 29.1744 13.6139 26.2378 13.5899C25.6136 13.5844 25.2765 14.1394 25.6047 14.6888C26.5199 16.2116 27.3899 17.7604 28.2825 19.2996C28.3395 19.3992 28.3937 19.5016 28.4576 19.6197C28.4686 19.6389 28.4782 19.6582 28.4898 19.6781L28.4033 19.6877C28.2324 19.709 28.0786 19.744 27.9797 19.8718C27.8808 19.9995 27.7483 20.016 27.5993 20.0153C25.8951 20.0126 24.1912 20.0126 22.4875 20.0153C22.1737 20.0153 21.9753 19.8168 21.9746 19.5009C21.9746 18.8498 21.9746 18.1959 21.9746 17.5475C21.9746 17.1258 21.7267 16.8799 21.3044 16.8723C20.9021 16.8655 20.4997 16.8668 20.0974 16.8723C19.6422 16.8778 19.4108 17.1175 19.4108 17.5777C19.4108 18.2288 19.4025 18.8827 19.4142 19.5304C19.419 19.766 19.2329 19.9913 19.1245 19.9886C18.7297 19.9769 18.2902 20.1946 17.9387 19.8306C17.8879 19.7835 17.8281 19.7472 17.7631 19.7236C17.698 19.7 17.6288 19.6897 17.5597 19.6932C17.1745 19.6891 16.7886 19.6788 16.4041 19.6932C15.9976 19.7097 15.7656 19.9638 15.7614 20.3732C15.7559 20.81 15.7573 21.2468 15.7614 21.6837C15.7656 22.1205 16.0162 22.3705 16.4432 22.3808C16.8023 22.387 17.1621 22.3808 17.5219 22.3808C17.6723 22.3808 17.8343 22.3582 17.9236 22.2435C18.076 22.0511 18.2669 22.0566 18.4729 22.0628C18.6102 22.0669 18.7475 22.0628 18.8848 22.0628C19.2281 22.0628 19.4121 22.2421 19.4121 22.5862C19.4121 27.1858 19.4135 31.7856 19.4163 36.3856C19.4163 36.5731 19.3861 36.6411 19.1739 36.6453C18.2689 36.6638 17.5947 37.2373 17.4807 38.0876C17.4388 38.4084 17.4807 38.7388 17.4587 39.0623C17.4285 39.4565 17.5713 39.7374 17.9249 39.9119H38.5274C38.8707 39.7471 39.0321 39.4819 38.9984 39.0932C38.977 38.8904 38.9724 38.6861 38.9847 38.4826ZM30.7454 26.3831C30.5984 26.4937 30.4707 26.6324 30.2956 26.7952C30.2956 25.3411 30.2956 23.9462 30.2922 22.5512C30.2922 22.4138 30.3368 22.3856 30.4666 22.3836C30.9788 22.3753 30.9788 22.3705 30.9788 22.8795C30.9788 23.8637 30.9713 24.8487 30.9843 25.8329C30.985 26.0671 30.9335 26.2409 30.7433 26.3831H30.7454ZM29.55 17.3957H31.7245L30.6382 19.2811L29.55 17.3957ZM28.5393 21.3883C28.5537 21.1322 28.5489 20.8746 28.5393 20.6177C28.5393 20.4941 28.577 20.457 28.6999 20.4577C29.9931 20.4618 31.2855 20.4618 32.5772 20.4577C32.7043 20.4577 32.7393 20.503 32.7365 20.6225C32.7297 20.8876 32.7249 21.1534 32.7365 21.4186C32.7441 21.5807 32.6871 21.6191 32.5305 21.6171C31.8975 21.6088 31.2637 21.6136 30.6307 21.6136C29.9976 21.6136 29.3811 21.6061 28.7562 21.6184C28.5729 21.6219 28.5283 21.5621 28.5379 21.3883H28.5393ZM22.7374 20.7777C23.549 20.7956 24.3612 20.7846 25.1728 20.7846C25.9672 20.7846 26.7623 20.7942 27.5567 20.7784C27.7813 20.7736 27.7813 20.8759 27.7751 21.0367C27.7703 21.1843 27.7991 21.3066 27.5636 21.3045C25.9574 21.2936 24.3512 21.2936 22.745 21.3045C22.5108 21.3045 22.5307 21.194 22.539 21.0422C22.539 20.9027 22.4923 20.7722 22.736 20.7777H22.7374ZM17.4072 20.6088C17.4072 20.7544 17.4072 20.9 17.4072 21.0456C17.4072 21.6164 17.4072 21.5999 16.8435 21.6232C16.5737 21.6342 16.4748 21.5546 16.5201 21.2915C16.5298 21.2331 16.5201 21.1713 16.5201 21.1115C16.5359 20.9014 16.422 20.6019 16.5634 20.5009C16.7467 20.3697 17.044 20.4728 17.2885 20.4597C17.4038 20.4535 17.4072 20.525 17.4059 20.6088H17.4072ZM18.8306 21.2448C18.8306 21.2997 18.7757 21.2991 18.7331 21.2991C18.6562 21.2991 18.5793 21.2991 18.5031 21.2991C18.1797 21.2991 18.087 21.1871 18.1811 20.8732C18.2394 20.6788 18.4186 20.8375 18.5244 20.7764C18.6308 20.8025 18.7839 20.7283 18.8169 20.8176C18.8601 20.9446 18.8326 21.1012 18.8292 21.2448H18.8306ZM28.5455 33.9515C28.5455 33.81 28.577 33.7502 28.7281 33.7626C28.8791 33.7749 29.0529 33.7626 29.2156 33.7626C29.4277 33.7626 29.6681 33.6843 29.677 34.0559C29.6811 34.2289 29.874 34.2997 30.0491 34.3024C30.3403 34.3072 30.6307 34.3107 30.9211 34.3024C31.182 34.2949 31.3242 34.1651 31.3276 33.9102C31.3276 33.7729 31.3812 33.7605 31.491 33.7612C31.859 33.766 32.2264 33.7708 32.5937 33.7612C32.7509 33.7564 32.775 33.8203 32.7743 33.9563C32.7695 34.786 32.7654 35.6157 32.7743 36.4454C32.7743 36.6315 32.7056 36.6473 32.5525 36.6453C31.9195 36.6391 31.2871 36.6453 30.654 36.6453C30.021 36.6453 29.3714 36.6411 28.7315 36.6453C28.5901 36.6453 28.5427 36.615 28.5441 36.4646C28.5514 35.6285 28.5514 34.7912 28.5441 33.9528L28.5455 33.9515ZM20.1688 17.792C20.1688 17.6663 20.2066 17.6313 20.3281 17.6361C20.6089 17.6478 20.9687 17.5427 21.1479 17.6794C21.3168 17.8085 21.1891 18.1904 21.198 18.461C21.2056 18.7158 21.198 18.9706 21.198 19.2474C20.914 19.1711 20.6165 19.1596 20.3274 19.2138C20.2079 19.2371 20.1654 19.2364 20.1674 19.0963C20.1752 18.6641 20.175 18.2298 20.1667 17.7934L20.1688 17.792ZM20.6762 19.9521C20.8197 19.9505 20.9621 19.9775 21.095 20.0316C21.228 20.0857 21.3488 20.1658 21.4504 20.2672C21.552 20.3685 21.6323 20.4892 21.6867 20.622C21.7412 20.7549 21.7685 20.8972 21.7672 21.0408C21.7655 21.3263 21.652 21.5997 21.4512 21.8026C21.2503 22.0054 20.978 22.1215 20.6927 22.126C20.5492 22.1263 20.407 22.0981 20.2745 22.0431C20.1419 21.9881 20.0215 21.9074 19.9203 21.8056C19.8191 21.7038 19.7391 21.5829 19.6849 21.45C19.6307 21.3171 19.6033 21.1747 19.6044 21.0312C19.6037 20.8901 19.6308 20.7502 19.6842 20.6197C19.7376 20.4891 19.8163 20.3703 19.9156 20.2702C20.015 20.1701 20.1332 20.0906 20.2633 20.0362C20.3935 19.9819 20.5331 19.9538 20.6741 19.9535L20.6762 19.9521ZM38.1752 39.1062C38.0461 39.2354 37.7694 39.1426 37.5572 39.1433C34.4405 39.1433 31.3237 39.1433 28.207 39.1433C24.962 39.1433 21.7171 39.1447 18.4722 39.1474C18.2847 39.1474 18.1975 39.12 18.2168 38.9043C18.2387 38.6982 18.2168 38.4922 18.2229 38.2861C18.2271 38.079 18.3042 37.8801 18.4408 37.7243C18.5774 37.5686 18.7645 37.4662 18.9693 37.4351C19.0877 37.4174 19.2073 37.4096 19.327 37.4118C25.2607 37.4118 31.1942 37.4093 37.1274 37.4042C37.8277 37.4042 38.2754 37.826 38.2136 38.4853C38.193 38.701 38.3015 38.9785 38.1731 39.1076L38.1752 39.1062Z" fill="#00659E"/>
<path d="M31.0108 31.8713C30.6613 31.8463 30.3105 31.8463 29.961 31.8713C29.7502 31.8858 29.6225 32.0451 29.6335 32.2615C29.6322 32.3091 29.6405 32.3565 29.6579 32.4008C29.6754 32.4451 29.7016 32.4854 29.735 32.5193C29.7684 32.5533 29.8083 32.5801 29.8523 32.5982C29.8964 32.6163 29.9436 32.6254 29.9912 32.6248C30.1443 32.6351 30.2988 32.6248 30.4526 32.6248C30.6236 32.6248 30.7959 32.6324 30.9655 32.6248C31.1838 32.6125 31.3129 32.4874 31.3273 32.2697C31.3418 32.052 31.2202 31.8871 31.0108 31.8713Z" fill="#00659E"/>
<path d="M30.9685 30.1931C30.8065 30.1849 30.6437 30.1931 30.481 30.1931C30.3183 30.1931 30.1556 30.1856 29.9942 30.1931C29.9466 30.1923 29.8994 30.201 29.8553 30.2189C29.8112 30.2367 29.7711 30.2632 29.7375 30.2969C29.7038 30.3305 29.6773 30.3706 29.6595 30.4147C29.6417 30.4589 29.6329 30.5061 29.6337 30.5537C29.6214 30.7598 29.7333 30.9136 29.9358 30.9383C30.3006 30.9844 30.6697 30.9844 31.0344 30.9383C31.2486 30.9102 31.3516 30.7433 31.3269 30.5262C31.3256 30.4807 31.3152 30.4359 31.2964 30.3944C31.2776 30.3529 31.2508 30.3156 31.2174 30.2846C31.1841 30.2536 31.1449 30.2296 31.1022 30.2139C31.0594 30.1981 31.014 30.1911 30.9685 30.1931Z" fill="#00659E"/>
<path d="M30.0132 35.9692C30.1664 35.9774 30.3208 35.9692 30.4746 35.9692C30.6284 35.9692 30.7994 35.9754 30.9615 35.9692C31.1798 35.9589 31.3096 35.8401 31.3309 35.6203C31.3382 35.571 31.3351 35.5208 31.3218 35.4728C31.3085 35.4249 31.2853 35.3802 31.2537 35.3418C31.222 35.3034 31.1826 35.2721 31.1381 35.2499C31.0935 35.2277 31.0448 35.2151 30.9951 35.213C30.6539 35.192 30.3118 35.192 29.9707 35.213C29.7592 35.2267 29.637 35.3792 29.6329 35.5969C29.6294 35.8002 29.7915 35.9568 30.0132 35.9692Z" fill="#00659E"/>
<defs>
<filter id="filter0_d_1396_2926" x="0" y="0" width="56" height="56.1523" filterUnits="userSpaceOnUse" color-interpolation-filters="sRGB">
<feFlood flood-opacity="0" result="BackgroundImageFix"/>
<feColorMatrix in="SourceAlpha" type="matrix" values="0 0 0 0 0 0 0 0 0 0 0 0 0 0 0 0 0 0 127 0" result="hardAlpha"/>
<feOffset dx="1" dy="1"/>
<feGaussianBlur stdDeviation="5"/>
<feComposite in2="hardAlpha" operator="out"/>
<feColorMatrix type="matrix" values="0 0 0 0 0 0 0 0 0 0 0 0 0 0 0 0 0 0 0.15 0"/>
<feBlend mode="normal" in2="BackgroundImageFix" result="effect1_dropShadow_1396_2926"/>
<feBlend mode="normal" in="SourceGraphic" in2="effect1_dropShadow_1396_2926" result="shape"/>
</filter>
</defs>
</svg>
