<svg width="56" height="57" viewBox="0 0 56 57" fill="none" xmlns="http://www.w3.org/2000/svg">
<g filter="url(#filter0_d_1396_2857)">
<rect x="9" y="9" width="36" height="36.1525" rx="4" fill="#FAFDFF"/>
<rect x="9.2" y="9.2" width="35.6" height="35.7525" rx="3.8" stroke="#00659E" stroke-width="0.4"/>
</g>
<path d="M37.8872 18.7243C37.4075 18.5502 37.4607 18.212 37.4661 17.8548C37.4742 17.3523 37.3579 16.9419 36.7547 16.9031C36.5085 16.8869 36.4661 16.7444 36.4697 16.5423C36.476 16.2023 36.4805 15.8622 36.4697 15.5231C36.4327 14.6084 35.8971 14.0275 34.9783 14.0176C32.5329 13.9941 30.0871 13.9941 27.6411 14.0176C26.7628 14.0266 26.2209 14.6075 26.174 15.4816C26.1402 15.9109 26.1402 16.3421 26.174 16.7714C26.2281 17.2874 26.0478 17.4137 25.5383 17.4083C23.0252 17.3803 20.5113 17.3956 17.9973 17.3956C16.4463 17.3956 16.0009 17.8331 16 19.3566C16 22.3243 16 25.2922 16 28.2605C16 31.3189 16 34.3774 16 37.4358C16 38.6616 16.5023 39.1605 17.734 39.1623C21.2669 39.1671 24.8001 39.1671 28.3336 39.1623C29.5644 39.1623 30.0694 38.6598 30.0703 37.4367C30.0703 31.3415 30.0703 25.2471 30.0703 19.1537C30.0703 17.9342 29.5446 17.4182 28.3453 17.392C27.8322 17.3812 27.1334 17.6194 26.8584 17.2874C26.5987 16.9735 26.7601 16.2952 26.7583 15.7837C26.7583 14.8511 26.9882 14.6165 27.9161 14.6111C29.999 14.6063 32.0826 14.6063 34.1668 14.6111C35.8385 14.6111 35.9233 14.7013 35.8863 16.3809C35.885 16.4034 35.885 16.426 35.8863 16.4485C35.9152 16.7309 35.8656 16.8995 35.5085 16.9257C35.0739 16.9555 34.9071 17.273 34.9215 17.6924C34.9377 18.1362 35.0026 18.5629 34.4147 18.7748C34.0955 18.8903 33.9954 19.2881 33.9945 19.6471C33.9945 22.3429 33.9945 25.0388 33.9945 27.7346C33.9945 28.1513 34.1361 28.5365 34.5292 28.6781C34.9224 28.8197 34.9188 29.0822 34.9179 29.4042C34.9107 31.3066 34.9179 33.2098 34.9107 35.1131C34.9107 35.5136 34.9206 35.9772 35.2714 36.1558C35.9927 36.5293 35.9152 37.1291 35.8926 37.7497C35.88 38.0898 35.8926 38.4298 35.8926 38.7699C35.8872 39.0071 35.9666 39.192 36.2236 39.1776C36.4571 39.165 36.4751 38.9575 36.4751 38.769C36.4751 38.18 36.4796 37.5909 36.4751 37.0019C36.4751 36.7755 36.4544 36.5753 36.7294 36.4517C37.3236 36.1811 37.4878 35.6651 37.4859 35.0545C37.4805 33.1521 37.4905 31.2489 37.4787 29.3456C37.4787 29.0263 37.5085 28.8044 37.8584 28.6727C38.2308 28.5293 38.3633 28.1829 38.3633 27.7878C38.3633 25.0691 38.3633 22.3504 38.3633 19.6318C38.3579 19.2421 38.2488 18.8551 37.8872 18.7243ZM28.339 18.0027C29.2506 18.0027 29.495 18.258 29.4959 19.1843C29.4959 25.2579 29.4959 31.3315 29.4959 37.4051C29.4959 38.3126 29.2254 38.5841 28.3354 38.585C24.8013 38.585 21.2672 38.585 17.7331 38.585C16.8413 38.585 16.578 38.3144 16.5771 37.4024C16.5771 34.365 16.5771 31.3282 16.5771 28.292C16.5771 25.2558 16.5771 22.219 16.5771 19.1816C16.5771 18.2598 16.8233 18.0036 17.7358 18.0027C21.2705 17.9961 24.8049 17.9946 28.339 17.9982V18.0027ZM36.2109 17.4895C36.5716 17.4759 36.8863 17.3993 36.8872 17.9955C36.8872 18.6368 36.5265 18.5295 36.2434 18.5142C35.7925 18.5259 35.4715 18.6044 35.4661 18.0054C35.4607 17.3343 35.8602 17.4985 36.2109 17.4849V17.4895ZM36.8755 35.169C36.8755 35.6381 36.7096 35.989 36.1911 35.9881C35.6726 35.9872 35.486 35.6516 35.4851 35.1762C35.4851 34.184 35.4851 33.1819 35.4851 32.1851C35.4851 31.211 35.5148 30.235 35.4733 29.2626C35.4481 28.67 35.834 28.7963 36.1388 28.817C36.4436 28.8378 36.8926 28.5897 36.8845 29.2518C36.8593 31.2191 36.8737 33.1945 36.8755 35.1654V35.169ZM37.0008 28.2523C36.3913 28.2163 35.7781 28.2343 35.1677 28.2523C34.7628 28.2614 34.5897 28.0719 34.5906 27.6823C34.5906 25.0327 34.5906 22.3832 34.5906 19.7337C34.5906 19.3224 34.7709 19.1023 35.2073 19.1149C35.8385 19.1293 36.4751 19.1329 37.1081 19.1149C37.6068 19.1005 37.7934 19.3242 37.788 19.8094C37.7736 21.1228 37.7826 22.4361 37.7826 23.7495C37.7826 24.9952 37.7565 26.2417 37.7934 27.4856C37.8133 28.0855 37.5815 28.283 37.0008 28.2487V28.2523Z" fill="#00659E"/>
<path d="M17.5235 19.6244C17.5433 22.544 17.5433 25.4638 17.5235 28.3839C17.5235 28.8584 17.6813 29.0153 18.1547 29.0153C21.4123 29.0039 24.6704 29.0039 27.9292 29.0153C28.4071 29.0153 28.5469 28.8349 28.5442 28.3704C28.5279 25.4503 28.5279 22.5304 28.5442 19.6109C28.5442 19.0995 28.3837 18.9479 27.8823 18.956C26.2764 18.9822 24.6695 18.966 23.0636 18.966C21.4342 18.966 19.8048 18.9831 18.1763 18.9551C17.6614 18.9515 17.5208 19.1265 17.5235 19.6244ZM18.6452 19.5342C21.5866 19.5505 24.5277 19.5505 27.4684 19.5342C27.8472 19.5342 27.968 19.6298 27.9653 20.0213C27.9491 22.6462 27.9491 25.2714 27.9653 27.8968C27.9653 28.3298 27.8282 28.4254 27.4243 28.4191C25.9536 28.3975 24.4829 28.4101 23.0131 28.4101C21.5433 28.4101 20.0717 28.3984 18.6019 28.4182C18.2178 28.4236 18.1006 28.3127 18.1033 27.9221C18.1195 25.2972 18.1195 22.6721 18.1033 20.0466C18.0997 19.6046 18.2475 19.5288 18.6452 19.5306V19.5342Z" fill="#00659E"/>
<path d="M19.4985 30.5208C19.2436 30.5163 18.9904 30.5624 18.7535 30.6565C18.5166 30.7506 18.3008 30.8909 18.1185 31.0691C17.9362 31.2474 17.7911 31.46 17.6917 31.6948C17.5922 31.9295 17.5403 32.1817 17.5391 32.4367C17.5407 32.9399 17.7381 33.4228 18.0893 33.783C18.4405 34.1433 18.9181 34.3527 19.4209 34.367C19.6758 34.3746 19.9297 34.3317 20.168 34.2409C20.4063 34.1501 20.6243 34.0131 20.8096 33.8377C20.9948 33.6624 21.1436 33.4522 21.2474 33.2192C21.3513 32.9862 21.4081 32.735 21.4146 32.48C21.4196 32.2249 21.3738 31.9714 21.2798 31.7342C21.1859 31.497 21.0456 31.2809 20.8672 31.0985C20.6888 30.9161 20.4759 30.7711 20.2409 30.6719C20.0059 30.5727 19.7535 30.5214 19.4985 30.5208ZM19.4741 33.7987C19.1196 33.7904 18.7817 33.6464 18.5301 33.3963C18.2785 33.1463 18.1323 32.8093 18.1216 32.4547C18.1215 32.2737 18.1577 32.0946 18.2281 31.9278C18.2985 31.7611 18.4016 31.6102 18.5313 31.484C18.6611 31.3579 18.8148 31.259 18.9834 31.1934C19.152 31.1277 19.332 31.0965 19.5129 31.1017C19.6884 31.104 19.8616 31.1413 20.0225 31.2115C20.1833 31.2816 20.3285 31.3832 20.4496 31.5102C20.5707 31.6372 20.6653 31.7872 20.7277 31.9512C20.7901 32.1153 20.8192 32.2901 20.8132 32.4656C20.8096 32.8191 20.6672 33.1571 20.4167 33.4066C20.1661 33.656 19.8276 33.7969 19.4741 33.7987Z" fill="#00659E"/>
<path d="M26.5915 30.5206C26.3363 30.5176 26.0831 30.5657 25.8468 30.6621C25.6105 30.7585 25.3958 30.9012 25.2155 31.0818C25.0351 31.2625 24.8928 31.4774 24.7968 31.7139C24.7007 31.9504 24.653 32.2038 24.6564 32.4591C24.662 32.9627 24.8643 33.4441 25.2199 33.8006C25.5756 34.1571 26.0565 34.3603 26.5599 34.3669C26.8149 34.3713 27.0682 34.3254 27.3054 34.2317C27.5426 34.1381 27.759 33.9987 27.9422 33.8213C28.1255 33.6439 28.272 33.4322 28.3733 33.1981C28.4747 32.9641 28.5289 32.7123 28.5329 32.4573C28.5339 32.2022 28.4844 31.9494 28.3872 31.7136C28.2899 31.4778 28.1469 31.2637 27.9663 31.0835C27.7858 30.9034 27.5713 30.7609 27.3353 30.6643C27.0993 30.5677 26.8465 30.5189 26.5915 30.5206ZM26.5428 33.7977C26.1881 33.7831 25.8535 33.6288 25.6121 33.3684C25.3707 33.108 25.242 32.7626 25.2543 32.4077C25.2554 32.2323 25.2915 32.0589 25.3604 31.8976C25.4293 31.7363 25.5296 31.5904 25.6556 31.4684C25.7815 31.3464 25.9305 31.2507 26.0938 31.1869C26.2572 31.1231 26.4315 31.0926 26.6068 31.097C26.9612 31.1031 27.2994 31.2464 27.5502 31.497C27.801 31.7475 27.9448 32.0856 27.9513 32.4401C27.954 33.1816 27.2813 33.8292 26.5428 33.7977Z" fill="#00659E"/>
<path d="M23.6086 33.3192C23.4073 33.2971 23.2041 33.2971 23.0027 33.3192C22.6627 33.3814 22.0496 33.0901 22.0469 33.6024C22.0469 34.1977 22.6916 33.8072 22.972 33.9325C23.2299 33.9325 23.4319 33.9325 23.6348 33.9325C23.8521 33.9325 24.0622 33.8775 24.0541 33.6105C24.046 33.3435 23.8124 33.3255 23.6086 33.3192Z" fill="#00659E"/>
<path d="M22.9502 31.5329C23.2333 31.5329 23.4587 31.5383 23.6833 31.5329C23.8708 31.5266 24.0611 31.4968 24.0439 31.2442C24.0322 31.0088 23.8582 30.9646 23.6634 30.9637C23.438 30.9637 23.2053 30.9267 22.9898 30.9709C22.658 31.0377 22.0467 30.7193 22.0548 31.2596C22.0629 31.7999 22.6914 31.3931 22.9502 31.5329Z" fill="#00659E"/>
<path d="M23.6085 25.717C23.7952 25.717 23.889 25.5889 23.8908 25.404C23.8953 25.0432 23.8908 24.6823 23.898 24.3215C23.898 24.1745 23.8403 23.9427 24.0549 23.9346C24.6861 23.9084 25.3678 23.7866 25.9413 23.9743C26.3281 24.1005 26.0188 24.7473 26.0928 25.1532C26.1013 25.2432 26.1013 25.3338 26.0928 25.4238C26.0928 25.615 26.1829 25.7314 26.3759 25.7215C26.41 25.7222 26.4438 25.7158 26.4753 25.7027C26.5068 25.6896 26.5352 25.67 26.5587 25.6453C26.5822 25.6206 26.6003 25.5913 26.6118 25.5592C26.6233 25.5271 26.6281 25.493 26.6257 25.459C26.6257 24.2809 26.6257 23.1029 26.6257 21.924C26.6257 21.7436 26.5256 21.6074 26.3398 21.6245C26.1541 21.6416 26.091 21.7869 26.0928 21.9682C26.0964 22.329 26.0964 22.6913 26.0928 23.0551C26.0928 23.2301 26.1333 23.4421 25.8502 23.4394C25.2406 23.434 24.5707 23.5765 24.0405 23.3663C23.6798 23.2238 23.9503 22.5455 23.8944 22.1107C23.8917 22.0656 23.8917 22.0205 23.8944 21.9754C23.8944 21.795 23.8241 21.6434 23.6437 21.6272C23.3975 21.6065 23.3633 21.8004 23.3633 21.9934C23.3633 22.5599 23.3633 23.1264 23.3633 23.6928C23.3633 24.2593 23.3633 24.8258 23.3633 25.3922C23.3651 25.5609 23.4012 25.717 23.6085 25.717Z" fill="#00659E"/>
<path d="M19.6788 25.6764C20.2352 25.6818 19.9439 25.0747 19.9548 24.7518C19.9674 24.3504 20.0449 24.1808 20.4805 24.2169C20.8402 24.246 21.2022 24.2275 21.5571 24.1619C22.182 24.0464 22.549 23.6586 22.5787 23.0028C22.6085 22.347 22.2776 21.8771 21.6355 21.7102C21.0368 21.5541 20.4237 21.6335 19.8168 21.6254C19.4796 21.6209 19.4255 21.8455 19.4318 22.1278C19.4426 22.6465 19.4318 23.166 19.4318 23.6847C19.4318 24.0455 19.3957 24.4117 19.4435 24.7671C19.485 25.0855 19.2045 25.671 19.6788 25.6764ZM20.6383 22.1089C21.6779 22.1838 22.0666 22.356 22.044 22.964C22.0224 23.5341 21.6581 23.7334 20.6347 23.7325C19.9737 23.7325 19.9737 23.7325 19.9737 22.798C19.9007 22.3795 19.9358 22.0584 20.6383 22.1089Z" fill="#00659E"/>
<defs>
<filter id="filter0_d_1396_2857" x="0" y="0" width="56" height="56.1523" filterUnits="userSpaceOnUse" color-interpolation-filters="sRGB">
<feFlood flood-opacity="0" result="BackgroundImageFix"/>
<feColorMatrix in="SourceAlpha" type="matrix" values="0 0 0 0 0 0 0 0 0 0 0 0 0 0 0 0 0 0 127 0" result="hardAlpha"/>
<feOffset dx="1" dy="1"/>
<feGaussianBlur stdDeviation="5"/>
<feComposite in2="hardAlpha" operator="out"/>
<feColorMatrix type="matrix" values="0 0 0 0 0 0 0 0 0 0 0 0 0 0 0 0 0 0 0.15 0"/>
<feBlend mode="normal" in2="BackgroundImageFix" result="effect1_dropShadow_1396_2857"/>
<feBlend mode="normal" in="SourceGraphic" in2="effect1_dropShadow_1396_2857" result="shape"/>
</filter>
</defs>
</svg>
