<svg width="56" height="57" viewBox="0 0 56 57" fill="none" xmlns="http://www.w3.org/2000/svg">
<g filter="url(#filter0_d_1396_2906)">
<rect x="9" y="9" width="36" height="36.1525" rx="4" fill="#FAFDFF"/>
<rect x="9.2" y="9.2" width="35.6" height="35.7525" rx="3.8" stroke="#00659E" stroke-width="0.4"/>
</g>
<path d="M32.5664 17.3233C32.5664 17.3233 32.5664 17.3182 32.5664 17.3153C32.5689 17.3083 32.5718 17.3015 32.5752 17.2949H32.5352L32.5664 17.3233Z" fill="#00659E"/>
<path d="M39.457 20.2913C39.1717 20.0011 38.8843 19.7132 38.5948 19.4274C38.3634 19.1989 38.1401 19.1742 37.9552 19.3505C37.7703 19.5267 37.7906 19.7705 38.0277 20.0091C38.3323 20.3181 38.6492 20.6155 38.9443 20.9333C39.1092 21.1103 39.2027 21.3422 39.2067 21.5841C39.2107 21.8261 39.125 22.0609 38.966 22.2433C38.8091 22.4208 38.5939 22.5363 38.3593 22.5689C38.1247 22.6015 37.8862 22.5491 37.6869 22.421C37.3831 22.2223 37.3765 22.1816 37.6144 21.9205C37.8044 21.7123 37.8181 21.4896 37.6506 21.3177C37.6134 21.2743 37.5669 21.2398 37.5144 21.2169C37.462 21.194 37.405 21.1834 37.3479 21.1857C37.2907 21.188 37.2348 21.2032 37.1844 21.2302C37.134 21.2572 37.0903 21.2953 37.0567 21.3417C36.8494 21.5955 36.7254 21.5223 36.5491 21.3192C36.3048 21.0435 36.2924 21.0544 36.5325 20.7563C36.6855 20.5669 36.6847 20.3522 36.5325 20.1934C36.3802 20.0345 36.1402 20.0287 35.9524 20.1934C35.8907 20.2463 35.8378 20.3094 35.7783 20.3646C35.7486 20.3921 35.7145 20.4559 35.671 20.4153C35.5064 20.2615 35.3179 20.1187 35.2004 19.933C35.1279 19.8162 35.3251 19.7465 35.3983 19.6551C35.5557 19.4593 35.5666 19.2286 35.4107 19.069C35.3738 19.0288 35.3289 18.9968 35.2788 18.9753C35.2286 18.9538 35.1745 18.9432 35.12 18.9443C35.0654 18.9453 35.0118 18.9579 34.9625 18.9813C34.9132 19.0047 34.8695 19.0383 34.8342 19.0799C34.629 19.3331 34.4789 19.304 34.3063 19.0654C34.2575 19 34.1996 18.9419 34.1344 18.8927C34.0228 18.8064 34.0576 18.7477 34.1417 18.6599C34.4441 18.3458 34.4803 18.1376 34.2867 17.9432C34.0931 17.7488 33.8922 17.7909 33.5688 18.0883C33.5144 18.1376 33.4724 18.2334 33.3745 18.1362C33.1221 17.8786 32.8669 17.6233 32.5703 17.3266L32.542 17.2983H32.5819C33.4622 17.2983 34.27 17.3034 35.0778 17.2983C35.1574 17.2941 35.237 17.3079 35.3104 17.3388C35.3839 17.3697 35.4494 17.4169 35.502 17.4768C35.8581 17.8489 36.2272 18.2094 36.5897 18.5728C36.742 18.7245 36.9211 18.7585 37.1068 18.6454C37.1832 18.6035 37.2429 18.5366 37.2757 18.4559C37.3086 18.3751 37.3127 18.2855 37.2873 18.2022C37.2583 18.0839 37.1699 18.0027 37.0858 17.9193C36.1779 17.0116 35.2702 16.1039 34.3628 15.1962C34.2562 15.0903 34.1743 15.0097 34.2548 14.8335C34.2961 14.746 34.3113 14.6484 34.2984 14.5525C34.2856 14.4566 34.2452 14.3665 34.1823 14.2931C33.8262 13.9021 33.5021 13.4712 33.017 13.2188H32.6914C32.5823 13.2782 32.4791 13.3479 32.3832 13.4269C31.6059 14.1963 30.8324 14.9701 30.0628 15.7482C29.7727 16.0383 29.7727 16.4199 30.0512 16.718C30.2919 16.9755 30.545 17.2214 30.7981 17.4666C30.9706 17.6327 31.1976 17.7423 31.4151 17.6429C31.6327 17.5435 31.7378 17.6509 31.8662 17.78C33.5524 19.4692 35.24 21.1572 36.9291 22.8439C37.6753 23.586 38.7898 23.5896 39.5026 22.8744C40.2155 22.1592 40.1915 21.0413 39.457 20.2913ZM33.7059 15.6851C33.9517 15.9353 34.2019 16.1805 34.489 16.4663H32.7393C33.0293 16.1762 33.2831 15.9288 33.5326 15.6742C33.6029 15.6031 33.6457 15.6227 33.7066 15.6851H33.7059ZM31.4079 16.6506C31.3013 16.7587 31.2433 16.7637 31.1309 16.6542C30.7045 16.2349 30.7002 16.2393 31.1309 15.8098C31.6617 15.2789 32.1947 14.7508 32.7204 14.214C32.8234 14.1088 32.8894 14.082 32.9923 14.2089C33.0953 14.3359 33.2099 14.4265 33.315 14.5375C33.3462 14.5687 33.3716 14.605 33.4035 14.6434C33.36 14.6891 33.3237 14.729 33.286 14.7667C32.6595 15.3971 32.0301 16.0209 31.4079 16.6506Z" fill="#00659E"/>
<path d="M34.7956 38.7222C34.4019 38.7222 34.0081 38.7222 33.5818 38.7222C33.6862 38.4952 33.7819 38.3037 33.8638 38.1071C34.3658 36.9265 34.5032 35.6227 34.2583 34.3633C34.1989 34.0442 33.9095 33.8926 33.6543 34.0413C33.4367 34.1675 33.4295 34.3626 33.4686 34.5853C33.7166 35.9955 33.4628 37.3142 32.7254 38.5401C32.679 38.617 32.6529 38.728 32.5209 38.7237C32.2917 38.7164 32.0626 38.7237 31.7957 38.7237L31.9161 38.5561C32.4818 37.788 32.8194 36.8758 32.89 35.9244C32.9299 35.4369 32.7058 35.1932 32.2214 35.191C31.8414 35.191 31.4615 35.1852 31.0822 35.191C31.0167 35.1957 30.951 35.1845 30.8907 35.1585C30.8304 35.1325 30.7772 35.0924 30.7356 35.0416C30.606 34.8961 30.4474 34.7793 30.27 34.6987C30.0926 34.6181 29.9003 34.5756 29.7055 34.5737C29.5107 34.5719 29.3176 34.6108 29.1388 34.688C28.9599 34.7652 28.7991 34.879 28.6668 35.022C28.6189 35.079 28.5583 35.1241 28.49 35.1535C28.4216 35.183 28.3473 35.1961 28.273 35.1917C26.7173 35.1859 25.1619 35.1859 23.6067 35.1917C23.168 35.1917 22.9614 35.4094 22.9672 35.8446C22.9737 36.0886 23.0033 36.3315 23.0556 36.57C23.2187 37.3576 23.565 38.0957 24.0665 38.7244C23.8859 38.7244 23.7568 38.7055 23.6314 38.7244C23.3225 38.7817 23.1666 38.6301 23.023 38.3769C21.4574 35.6204 22.498 32.053 25.3202 30.6022C25.9323 30.2874 26.2252 29.8507 26.1991 29.1623C26.1745 28.5095 26.1991 27.8602 26.1897 27.2088C26.1897 27.0152 26.2259 26.9448 26.4391 26.9477C27.4246 26.9607 28.4108 26.9586 29.3963 26.9477C29.5913 26.9477 29.6588 26.9825 29.6544 27.1951C29.6399 27.9096 29.6479 28.6241 29.6493 29.3393C29.6493 29.7745 29.7835 30.1808 30.17 30.3802C31.299 30.9605 32.2228 31.7461 32.866 32.8531C32.9719 33.0352 33.1764 33.0707 33.3693 32.9626C33.4148 32.9415 33.4556 32.9115 33.4894 32.8744C33.5231 32.8373 33.5492 32.7939 33.5661 32.7467C33.583 32.6994 33.5903 32.6493 33.5876 32.5992C33.5849 32.5491 33.5724 32.5 33.5506 32.4549C33.5149 32.372 33.4717 32.2926 33.4215 32.2176C32.7922 31.1845 31.8823 30.3516 30.798 29.8159C30.5956 29.7158 30.4608 29.5867 30.4615 29.3429C30.4615 28.6016 30.4615 27.8595 30.4615 27.1174C30.4615 27.021 30.4702 26.9673 30.5913 26.931C30.9742 26.8164 31.1286 26.5973 31.1373 26.1918C31.1453 25.848 31.1373 25.5042 31.1373 25.1603C31.1373 24.4886 30.8944 24.2471 30.22 24.2463C28.6827 24.2463 27.1454 24.2463 25.6081 24.2463C25.518 24.2449 25.4278 24.25 25.3384 24.2616C24.9613 24.3153 24.7176 24.5742 24.7082 24.9558C24.6971 25.391 24.6971 25.825 24.7082 26.2578C24.7162 26.5777 24.8772 26.8229 25.1868 26.9071C25.3688 26.9564 25.379 27.0456 25.3782 27.1914C25.3739 27.8791 25.3688 28.5697 25.3782 29.2544C25.3826 29.5323 25.2796 29.6998 25.0273 29.8289C22.163 31.2957 20.8215 34.4939 21.7787 37.5572C21.9125 37.9568 22.0783 38.345 22.2747 38.7178C21.8171 38.7178 21.3943 38.7113 20.9694 38.7178C20.5778 38.7258 20.311 38.9957 20.3001 39.3881C20.2928 39.6594 20.3001 39.9307 20.3001 40.202C20.3001 40.7439 20.5546 40.9963 21.0978 40.9999C22.0385 40.9999 22.979 40.9999 23.9193 40.9999H34.7427C35.2815 40.9999 35.5404 40.741 35.5447 40.202C35.5447 39.9575 35.5447 39.7131 35.5447 39.4686C35.5469 38.9855 35.2837 38.7244 34.7956 38.7222ZM25.5864 25.111C25.7423 24.9659 26.1172 25.0639 26.3949 25.0631C27.6226 25.0631 28.8502 25.0668 30.0779 25.058C30.2744 25.058 30.3571 25.0972 30.3375 25.309C30.3212 25.5162 30.3212 25.7243 30.3375 25.9314C30.3491 26.1004 30.2925 26.149 30.1257 26.144C29.3948 26.1353 28.6639 26.144 27.9322 26.144C27.2005 26.144 26.4696 26.1389 25.7386 26.144C25.5791 26.144 25.5088 26.115 25.5269 25.9394C25.5537 25.6543 25.4058 25.2728 25.5849 25.111H25.5864ZM29.6892 35.3956C29.7681 35.3939 29.8465 35.4079 29.92 35.4366C29.9935 35.4654 30.0606 35.5083 30.1174 35.563C30.1743 35.6177 30.2198 35.6831 30.2513 35.7555C30.2829 35.8278 30.2998 35.9057 30.3012 35.9846C30.3025 36.0658 30.2875 36.1464 30.2573 36.2218C30.227 36.2972 30.1821 36.3658 30.125 36.4236C30.068 36.4814 30 36.5273 29.9251 36.5585C29.8501 36.5897 29.7697 36.6057 29.6885 36.6055C29.5292 36.6034 29.3773 36.5383 29.266 36.4243C29.1547 36.3104 29.093 36.1569 29.0946 35.9976C29.0928 35.9188 29.1069 35.8405 29.136 35.7672C29.1651 35.6939 29.2086 35.6273 29.2639 35.5711C29.3192 35.515 29.3852 35.4705 29.458 35.4404C29.5308 35.4102 29.609 35.395 29.6878 35.3956H29.6892ZM23.8156 36.1892C23.7938 36.0528 23.8025 35.9984 23.9606 35.9991C25.3427 36.0049 26.7251 36.0049 28.1077 35.9991C28.2324 35.9991 28.2708 36.0361 28.2897 36.163C28.3963 36.9037 28.972 37.4158 29.6849 37.4194C30.3977 37.423 30.9901 36.9174 31.0996 36.1797C31.1228 36.0238 31.1721 35.9911 31.3171 35.9991C31.5151 36.01 31.7145 36.0078 31.9132 35.9991C32.0387 35.994 32.064 36.0397 32.0474 36.1565C31.917 37.1136 31.4575 37.9954 30.7479 38.6504C30.6631 38.7309 30.5659 38.7149 30.4687 38.7149C29.6194 38.7149 28.77 38.7149 27.9206 38.7149C27.0809 38.7149 26.2404 38.7113 25.4 38.7149C25.3292 38.718 25.2586 38.7053 25.1933 38.6779C25.128 38.6504 25.0696 38.6088 25.0222 38.5561C24.3756 37.9176 23.9522 37.0875 23.8148 36.1892H23.8156ZM34.7195 40.1585C34.7195 40.1715 34.6412 40.186 34.5991 40.1875C34.4904 40.1918 34.3816 40.1875 34.2735 40.1875C29.9894 40.1875 25.705 40.1875 21.4204 40.1875C21.3247 40.1875 21.1637 40.2542 21.1391 40.1294C21.1086 39.9432 21.1123 39.7529 21.15 39.568C21.1623 39.4998 21.295 39.539 21.374 39.539C23.562 39.539 25.7493 39.539 27.9358 39.539C30.1141 39.539 32.2925 39.539 34.4708 39.539C34.56 39.539 34.7101 39.4759 34.7304 39.5978C34.7601 39.7791 34.7311 39.9713 34.7188 40.1585H34.7195Z" fill="#00659E"/>
<path d="M21.3442 24.0233C21.3823 23.9869 21.4122 23.9429 21.4322 23.8942C21.4522 23.8455 21.4618 23.7931 21.4603 23.7404C21.4588 23.6878 21.4462 23.6361 21.4235 23.5886C21.4008 23.5411 21.3683 23.4989 21.3282 23.4647C21.1738 23.3131 20.9468 23.3109 20.767 23.4647C20.7054 23.5177 20.6502 23.5779 20.5922 23.6352C20.0305 24.1991 19.4678 24.762 18.9041 25.3239C18.6663 25.5596 18.4603 25.5763 18.2457 25.3623C17.2445 24.3686 16.2467 23.3711 15.2523 22.3701C15.0348 22.1525 15.0413 21.9545 15.2523 21.731C15.4401 21.5352 15.6446 21.3553 15.8237 21.1507C15.9499 21.0056 16.0877 20.9708 16.2718 20.9708C18.4879 20.9776 20.7034 20.9791 22.9185 20.9752H23.2615L22.1658 22.0582C22.0889 22.1307 22.0106 22.2098 21.9939 22.3266C21.9741 22.4111 21.9829 22.4998 22.0192 22.5786C22.0555 22.6575 22.117 22.7219 22.1941 22.7618C22.3913 22.8728 22.5566 22.8119 22.7082 22.6646C23.2209 22.1568 23.7589 21.6657 24.2368 21.1239C24.7444 20.5436 25.3151 20.1265 26.1069 20.0771C26.1336 20.0731 26.1598 20.0665 26.1852 20.0576C26.6754 19.9263 26.8248 19.4366 26.4673 19.0761C25.0209 17.6195 23.5706 16.1675 22.1165 14.7201C21.8018 14.4075 21.4232 14.414 21.1071 14.7296C18.95 16.8825 16.7952 19.0381 14.6425 21.1964C14.1718 21.6694 14.1436 22.389 14.6026 22.8597C15.6381 23.9212 16.6862 24.9706 17.7468 26.0079C18.1674 26.4199 18.857 26.4584 19.2834 26.0652C19.9925 25.4095 20.6655 24.7124 21.3442 24.0233ZM18.0586 18.9194C18.1703 18.8041 18.2428 18.7743 18.3523 18.9143C18.4328 19.0121 18.5227 19.1017 18.6206 19.182C18.8077 19.3467 19.0477 19.3438 19.2007 19.182C19.3537 19.0203 19.3537 18.8048 19.2007 18.6184C19.184 18.5981 19.1623 18.5807 19.1449 18.5596C19.0375 18.4283 18.7823 18.3065 18.8294 18.1882C18.9019 18.0025 19.1129 17.872 19.2645 17.7153C19.3486 17.6268 19.3892 17.7109 19.4364 17.7559C19.5473 17.8618 19.6488 17.9793 19.7656 18.078C19.8032 18.1143 19.8479 18.1427 19.8968 18.1614C19.9457 18.1801 19.9978 18.1886 20.0501 18.1866C20.1024 18.1846 20.1538 18.172 20.2011 18.1496C20.2484 18.1271 20.2907 18.0954 20.3254 18.0562C20.4791 17.8836 20.4704 17.6979 20.3413 17.5129C20.321 17.4839 20.2898 17.4621 20.2688 17.4338C20.1658 17.3025 19.9135 17.193 19.9614 17.0639C20.0339 16.8775 20.242 16.7454 20.3906 16.5887C20.4566 16.5162 20.4958 16.567 20.5407 16.6127C20.6423 16.7157 20.7423 16.8201 20.8482 16.9181C21.052 17.106 21.2833 17.111 21.4486 16.9362C21.614 16.7614 21.6031 16.5496 21.4327 16.3559C21.3101 16.2152 21.0476 16.0868 21.0781 15.9511C21.1165 15.7785 21.3449 15.6508 21.4842 15.4963C21.5704 15.4013 21.6292 15.373 21.738 15.484C22.9992 16.7549 24.2634 18.0224 25.5304 19.2865C25.5416 19.3011 25.5511 19.3169 25.5587 19.3336C25.4971 19.4228 25.3941 19.4025 25.3114 19.4149C24.8756 19.4672 24.4772 19.687 24.2005 20.0278C24.1652 20.0738 24.119 20.1104 24.0661 20.1342C24.0132 20.158 23.9553 20.1683 23.8974 20.1642C21.5929 20.1608 19.288 20.1608 16.9825 20.1642C16.9491 20.1642 16.9165 20.1598 16.8288 20.1548C17.2711 19.713 17.6685 19.322 18.0586 18.9194Z" fill="#00659E"/>
<path d="M26.445 20.4422C26.1549 20.9094 25.87 21.3816 25.6292 21.8749C25.1622 22.8317 25.8837 23.943 26.9461 23.9328C28.0084 23.9226 28.7111 22.8121 28.2346 21.8553C27.9946 21.3722 27.714 20.9072 27.4297 20.448C27.1897 20.06 26.6828 20.06 26.445 20.4422ZM27.5218 22.2448C27.5804 22.3738 27.5918 22.5194 27.5541 22.6559C27.5163 22.7925 27.4317 22.9114 27.3152 22.992C27.2052 23.0724 27.0725 23.1158 26.9363 23.1158C26.8 23.1158 26.6673 23.0724 26.5574 22.992C26.3239 22.8186 26.2187 22.5074 26.3493 22.2455C26.5197 21.9024 26.7234 21.5753 26.9359 21.2003C27.1477 21.5753 27.3492 21.9017 27.5218 22.2448Z" fill="#00659E"/>
<path d="M29.5827 20.4314C29.8072 20.4328 30.0283 20.3771 30.2254 20.2696C30.4225 20.1621 30.589 20.0062 30.7092 19.8166C30.8295 19.627 30.8997 19.4099 30.913 19.1858C30.9264 18.9616 30.8826 18.7378 30.7857 18.5352C30.5673 18.0998 30.3268 17.6758 30.0649 17.265C29.8307 16.8878 29.3347 16.89 29.0998 17.2687C28.8367 17.679 28.5947 18.1024 28.3746 18.5374C27.9483 19.4173 28.6045 20.4306 29.5827 20.4314ZM29.1128 18.879C29.2506 18.6099 29.4101 18.3517 29.5827 18.0492C29.7582 18.3596 29.9315 18.6295 30.0693 18.9196C30.1715 19.1373 30.0693 19.41 29.8648 19.5355C29.7749 19.5976 29.6671 19.6285 29.558 19.6233C29.4489 19.6182 29.3445 19.5774 29.2608 19.5072C29.1655 19.4372 29.0983 19.3355 29.0712 19.2204C29.0441 19.1052 29.0588 18.9842 29.1128 18.879Z" fill="#00659E"/>
<path d="M24.6797 33.1396C24.6806 33.5142 24.8299 33.8732 25.0947 34.138C25.3596 34.4028 25.7185 34.5519 26.093 34.5527C26.2806 34.5544 26.4668 34.5189 26.6406 34.4483C26.8145 34.3776 26.9726 34.2732 27.1059 34.1411C27.2392 34.009 27.345 33.8517 27.4172 33.6785C27.4894 33.5052 27.5266 33.3193 27.5266 33.1316C27.5243 32.7571 27.3745 32.3986 27.1096 32.1339C26.8447 31.8693 26.4862 31.7197 26.1118 31.7178C25.9242 31.716 25.738 31.7515 25.5642 31.8221C25.3903 31.8928 25.2322 31.9973 25.099 32.1295C24.9657 32.2618 24.8601 32.4192 24.7881 32.5925C24.7162 32.7659 24.6793 32.9519 24.6797 33.1396ZM26.7101 33.1498C26.7053 33.3092 26.638 33.4604 26.5226 33.5705C26.4072 33.6806 26.2531 33.7408 26.0937 33.7381C26.0148 33.738 25.9366 33.7223 25.8638 33.6919C25.7909 33.6615 25.7248 33.6171 25.6691 33.5611C25.6135 33.5051 25.5694 33.4386 25.5395 33.3655C25.5096 33.2925 25.4944 33.2142 25.4948 33.1353C25.495 33.0541 25.5116 32.9738 25.5435 32.8992C25.5754 32.8246 25.622 32.7572 25.6806 32.701C25.7391 32.6448 25.8084 32.601 25.8842 32.5721C25.9601 32.5433 26.0409 32.5301 26.122 32.5332C26.2814 32.5383 26.4324 32.6057 26.5427 32.721C26.6529 32.8363 26.7135 32.9902 26.7115 33.1498H26.7101Z" fill="#00659E"/>
<path d="M28.6797 32.3649C28.684 32.6473 28.7979 32.917 28.9974 33.117C29.1968 33.3169 29.4662 33.4314 29.7485 33.4363C30.036 33.4363 30.3118 33.3225 30.5156 33.1197C30.7195 32.9169 30.8347 32.6416 30.8363 32.354C30.8344 32.2118 30.8045 32.0714 30.7483 31.9408C30.6921 31.8101 30.6108 31.6919 30.5089 31.5927C30.407 31.4935 30.2866 31.4154 30.1545 31.3628C30.0224 31.3103 29.8813 31.2842 29.7391 31.2862C29.4567 31.2919 29.1876 31.408 28.9896 31.6096C28.7916 31.8112 28.6804 32.0823 28.6797 32.3649ZM30.0154 32.3598C30.0154 32.5143 29.9161 32.5992 29.7616 32.6217C29.61 32.6079 29.5035 32.5267 29.4991 32.3736C29.4947 32.3375 29.4984 32.3009 29.5101 32.2664C29.5217 32.232 29.541 32.2006 29.5664 32.1746C29.5918 32.1486 29.6227 32.1287 29.6569 32.1163C29.6911 32.1039 29.7276 32.0994 29.7638 32.103C29.7977 32.1014 29.8315 32.107 29.8631 32.1194C29.8947 32.1318 29.9234 32.1508 29.9471 32.175C29.9709 32.1993 29.9892 32.2282 30.001 32.2601C30.0128 32.2919 30.0177 32.3259 30.0154 32.3598Z" fill="#00659E"/>
<defs>
<filter id="filter0_d_1396_2906" x="0" y="0" width="56" height="56.1523" filterUnits="userSpaceOnUse" color-interpolation-filters="sRGB">
<feFlood flood-opacity="0" result="BackgroundImageFix"/>
<feColorMatrix in="SourceAlpha" type="matrix" values="0 0 0 0 0 0 0 0 0 0 0 0 0 0 0 0 0 0 127 0" result="hardAlpha"/>
<feOffset dx="1" dy="1"/>
<feGaussianBlur stdDeviation="5"/>
<feComposite in2="hardAlpha" operator="out"/>
<feColorMatrix type="matrix" values="0 0 0 0 0 0 0 0 0 0 0 0 0 0 0 0 0 0 0.15 0"/>
<feBlend mode="normal" in2="BackgroundImageFix" result="effect1_dropShadow_1396_2906"/>
<feBlend mode="normal" in="SourceGraphic" in2="effect1_dropShadow_1396_2906" result="shape"/>
</filter>
</defs>
</svg>
