<svg width="56" height="57" viewBox="0 0 56 57" fill="none" xmlns="http://www.w3.org/2000/svg">
<g filter="url(#filter0_d_1396_2828)">
<rect x="9" y="9" width="36" height="36.1525" rx="4" fill="#FAFDFF"/>
<rect x="9.2" y="9.2" width="35.6" height="35.7525" rx="3.8" stroke="#00659E" stroke-width="0.4"/>
</g>
<path d="M30.6039 36.9586C31.6743 36.9586 32.7456 36.9586 33.8161 36.9586C32.7456 36.9586 31.6743 36.9586 30.6039 36.9586C29.1755 36.9586 27.7479 36.9719 26.3203 36.9492C27.7479 36.9719 29.1755 36.9586 30.6039 36.9586Z" fill="#00659E"/>
<path d="M22.9048 15.0791C22.8977 15.0924 22.8899 15.1057 22.8828 15.1198L22.9048 15.0791Z" fill="#00659E"/>
<path d="M23.168 15.205C23.0946 15.1628 23.0266 15.0581 22.9258 15.1026C23.0266 15.0588 23.0953 15.1628 23.168 15.205Z" fill="#00659E"/>
<path d="M33.4564 30.6921C33.261 30.5796 33.193 30.4639 33.1938 30.2419C33.2024 28.3316 33.1993 26.4212 33.1985 24.5109C33.1985 23.7503 33.0422 23.5948 32.2921 23.5932H31.0114C31.6529 23.1445 31.8233 22.6419 31.5334 21.9517C31.3279 21.4632 30.9911 21.0677 30.5957 20.7238C30.3676 20.5252 30.1738 20.5838 30.0542 20.8762C29.8654 21.305 29.766 21.7677 29.762 22.2363C29.7722 22.8037 29.955 23.2766 30.5231 23.5948H28.9392C28.1578 23.5948 27.9961 23.7511 27.9961 24.5226C27.9961 26.4204 27.9898 28.3175 28.0015 30.2146C28.0015 30.4717 27.9234 30.5991 27.6984 30.7234C25.6261 31.8693 24.3658 34.0915 24.6385 36.5467C25.0292 40.0641 28.0336 42.3567 31.542 41.8619C34.0541 41.5102 36.4194 39.4451 36.5819 36.2911C36.7093 33.8367 35.6114 31.9342 33.4564 30.6921ZM30.409 22.5403C30.3496 22.2105 30.3379 21.8689 30.4996 21.5054C30.7607 21.739 30.9478 22.0439 31.038 22.3824C31.0966 22.6122 31.0599 22.8264 30.8278 22.8944C30.5668 22.971 30.4449 22.7381 30.4098 22.5403H30.409ZM35.1598 37.3245C34.5589 39.2731 32.7281 40.6496 30.784 40.7113C29.7354 40.7407 28.7057 40.4283 27.8501 39.8212C26.9944 39.2141 26.3593 38.3452 26.0403 37.3455C25.9621 37.0829 25.9481 36.9438 26.3161 36.9493C27.7437 36.9719 29.1713 36.9586 30.5996 36.9586C31.6701 36.9586 32.7414 36.9586 33.8119 36.9586C34.1687 36.9586 34.5258 36.9566 34.8832 36.9524C35.1949 36.9508 35.2567 37.0141 35.1606 37.3245H35.1598ZM34.9933 35.7268C33.5259 35.7127 32.0577 35.7205 30.5903 35.7213C29.1478 35.7213 27.7062 35.7127 26.2645 35.7283C25.952 35.7283 25.8395 35.6869 25.8988 35.3289C26.1879 33.5764 27.1287 32.3305 28.7384 31.5989C29.1135 31.4285 29.2557 31.1807 29.2533 30.782C29.2439 28.9373 29.258 27.0919 29.2416 25.2464C29.2416 24.9165 29.3315 24.8282 29.6526 24.8415C30.2777 24.8673 30.9028 24.8689 31.5225 24.8415C31.8514 24.8282 31.9585 24.8993 31.9545 25.2573C31.9327 27.0504 31.9545 28.8443 31.9358 30.6374C31.9288 31.1486 32.1015 31.4339 32.575 31.6536C34.1479 32.3922 35.0535 33.6444 35.3012 35.3734C35.3411 35.6509 35.2786 35.7291 34.9941 35.7268H34.9933Z" fill="#00659E"/>
<path d="M22.8555 15.0684L22.886 15.1201C22.8931 15.106 22.9009 15.0926 22.908 15.0793L22.8555 15.0684Z" fill="#00659E"/>
<path d="M22.885 15.1191C22.8826 15.1228 22.8806 15.1265 22.8789 15.1305L22.885 15.1191Z" fill="#00659E"/>
<path d="M22.8789 15.1305L22.888 15.126L22.8789 15.1305Z" fill="#00659E"/>
<path d="M30.5579 16.9119C30.2657 16.7556 30.0016 16.8338 29.7953 17.0831C29.7091 17.2008 29.6308 17.324 29.5609 17.4521C29.4538 17.3958 29.3507 17.3442 29.2483 17.2863C26.465 15.6782 23.6823 14.0696 20.9 12.4604C20.4797 12.2166 20.0476 12.0204 19.5529 12.0024C19.0046 11.9781 18.464 12.1396 18.0188 12.4607C17.5735 12.7819 17.2496 13.2439 17.0994 13.772C16.7806 14.8664 17.2424 15.9872 18.2879 16.5938C21.0352 18.1873 23.7849 19.7767 26.5369 21.3619C26.7385 21.4783 27.0222 21.5557 27.1152 21.7316C27.2191 21.9286 26.9456 22.1279 26.8643 22.3397C26.7401 22.6641 26.8354 22.9838 27.1214 23.1464C27.4074 23.309 27.7371 23.2245 27.9434 22.9416C27.9801 22.8878 28.0132 22.8316 28.0427 22.7735C28.9439 21.154 29.844 19.5336 30.7431 17.9124C30.7889 17.8344 30.8274 17.7522 30.858 17.667C30.9682 17.334 30.8572 17.0745 30.5579 16.9119ZM24.41 18.7097L21.7697 17.1855C20.8055 16.6279 19.8418 16.0701 18.8786 15.512C18.4207 15.2455 18.184 14.8359 18.241 14.3153C18.2592 14.0727 18.3538 13.8421 18.5112 13.6566C18.6685 13.4711 18.8806 13.3402 19.1169 13.2827C19.7186 13.1147 20.2765 13.3609 20.6289 13.7846C21.9424 15.3721 23.195 17.0096 24.471 18.6308L24.41 18.7097ZM28.7858 18.9044C28.4732 19.4093 28.1927 19.9354 27.9145 20.4614C27.8262 20.6302 27.7582 20.6467 27.5973 20.5497C27.1339 20.2676 26.6838 19.9971 26.3392 19.5422C25.2109 18.057 24.0428 16.5961 22.8902 15.1259L22.8808 15.1306C22.8826 15.1265 22.8847 15.1226 22.8871 15.1188L22.8566 15.0672L22.909 15.0782L22.8871 15.1188L22.8816 15.1298L22.8894 15.1235L22.9262 15.1016C23.027 15.0571 23.0949 15.1618 23.1684 15.204C24.996 16.2538 26.8167 17.3145 28.649 18.3549C28.928 18.5151 28.9491 18.6378 28.785 18.9044H28.7858Z" fill="#00659E"/>
<path d="M22.8872 15.125L22.8789 15.1303L22.888 15.1258L22.8872 15.125Z" fill="#00659E"/>
<path d="M22.8789 15.1313L22.8872 15.126L22.8797 15.132L22.8789 15.1313Z" fill="#00659E"/>
<path d="M30.4251 29.3024C30.0579 29.8277 29.7531 30.3835 29.7539 31.051C29.7539 31.6763 30.1579 32.1273 30.6916 32.1234C31.2253 32.1195 31.6238 31.6544 31.6292 31.04C31.6292 30.5609 31.276 29.6456 30.9463 29.2907C30.7705 29.1008 30.5775 29.0843 30.4251 29.3024ZM31.001 31.1448C30.9791 31.3347 30.8978 31.509 30.665 31.4903C30.4626 31.4746 30.3993 31.3199 30.3806 31.1354C30.3431 30.7579 30.465 30.4257 30.6853 30.0528C30.9143 30.421 31.0447 30.7594 31.001 31.1448Z" fill="#00659E"/>
<path d="M30.2923 27.875C30.926 28.2017 31.6206 27.71 31.6206 26.9174C31.6277 26.2397 31.3175 25.6668 30.933 25.1368C30.7947 24.9461 30.5806 24.9383 30.4384 25.1321C30.0665 25.6379 29.7844 26.1881 29.7461 26.7627C29.7453 27.2778 29.8758 27.66 30.2923 27.875ZM30.6877 25.9154C30.9174 26.2671 31.0385 26.6071 31.0002 26.9901C30.9807 27.184 30.8838 27.3559 30.6689 27.3466C30.4767 27.3387 30.3962 27.1808 30.3798 26.9933C30.3462 26.6095 30.4533 26.2687 30.6877 25.9154Z" fill="#00659E"/>
<defs>
<filter id="filter0_d_1396_2828" x="0" y="0" width="56" height="56.1523" filterUnits="userSpaceOnUse" color-interpolation-filters="sRGB">
<feFlood flood-opacity="0" result="BackgroundImageFix"/>
<feColorMatrix in="SourceAlpha" type="matrix" values="0 0 0 0 0 0 0 0 0 0 0 0 0 0 0 0 0 0 127 0" result="hardAlpha"/>
<feOffset dx="1" dy="1"/>
<feGaussianBlur stdDeviation="5"/>
<feComposite in2="hardAlpha" operator="out"/>
<feColorMatrix type="matrix" values="0 0 0 0 0 0 0 0 0 0 0 0 0 0 0 0 0 0 0.15 0"/>
<feBlend mode="normal" in2="BackgroundImageFix" result="effect1_dropShadow_1396_2828"/>
<feBlend mode="normal" in="SourceGraphic" in2="effect1_dropShadow_1396_2828" result="shape"/>
</filter>
</defs>
</svg>
