<svg width="56" height="57" viewBox="0 0 56 57" fill="none" xmlns="http://www.w3.org/2000/svg">
<g filter="url(#filter0_d_1097_1796)">
<rect x="9" y="9" width="36" height="36.1525" rx="4" fill="#FAFDFF"/>
<rect x="9.2" y="9.2" width="35.6" height="35.7525" rx="3.8" stroke="#00659E" stroke-width="0.4"/>
</g>
<g clip-path="url(#clip0_1097_1796)">
<path d="M39.6661 25.2714C38.3454 24.0661 37.0211 22.8635 35.6932 21.6635C35.616 21.6013 35.5545 21.5219 35.5139 21.4319C35.4733 21.3418 35.4546 21.2434 35.4594 21.1449C35.4701 19.3529 35.4661 17.5609 35.4594 15.7676C35.4594 15.6263 35.4593 15.5396 35.6529 15.5436C36.0951 15.5543 36.3988 15.317 36.4781 14.9383C36.5574 14.5597 36.3666 14.2503 35.9553 14.057C35.9419 14.057 35.9338 14.033 35.923 14.021H30.3817C30.2454 14.0336 30.1162 14.0873 30.0115 14.1747C29.9068 14.2622 29.8315 14.3793 29.7957 14.5103C29.7545 14.6292 29.741 14.7558 29.7561 14.8807C29.7711 15.0055 29.8143 15.1254 29.8825 15.2314C29.9507 15.3373 30.0421 15.4267 30.15 15.4928C30.2578 15.5588 30.3792 15.5999 30.5053 15.613C30.6101 15.6276 30.7553 15.597 30.7647 15.7543C30.7875 16.181 30.7714 16.6076 30.7755 17.0876C29.7217 16.1543 28.7379 15.2356 27.742 14.3317C27.5988 14.1768 27.4111 14.0693 27.2044 14.0237H26.8012C26.4665 14.1717 26.23 14.445 25.9679 14.6836C22.09 18.2222 18.2125 21.7617 14.3355 25.3021C14.0801 25.5354 13.9511 25.7994 14.0317 26.1381C14.0622 26.2759 14.1325 26.402 14.2339 26.5009C14.3353 26.5998 14.4635 26.6674 14.6029 26.6954C14.7322 26.7269 14.8675 26.7242 14.9954 26.6874C15.1232 26.6507 15.2391 26.5812 15.3314 26.4861C15.869 25.9941 16.4133 25.5008 16.998 24.9674V25.2741C16.998 29.9051 16.9957 34.5357 16.9912 39.1658C16.9912 39.6285 17.1377 39.9498 17.5665 40.1325H36.4472C36.8813 39.9391 37.0197 39.5991 37.0184 39.1365C37.0059 34.5144 37.0032 29.8922 37.0104 25.2701V24.9488C37.3101 25.2154 37.5708 25.4528 37.8315 25.6901L38.6245 26.4127C39.0143 26.7674 39.4954 26.7807 39.8059 26.4434C40.1163 26.1061 40.0613 25.6314 39.6661 25.2714ZM32.5657 15.5463C32.9689 15.557 33.3721 15.5463 33.7753 15.5463C33.8694 15.5463 33.9339 15.5463 33.9339 15.6796C33.9272 17.1156 33.9272 18.5502 33.9231 19.9849C33.9231 19.9849 33.9111 19.9929 33.8869 20.0089C33.4138 19.5795 32.9393 19.1462 32.4609 18.7156C32.4339 18.6891 32.4135 18.6568 32.4014 18.6211C32.3892 18.5855 32.3857 18.5475 32.391 18.5102C32.391 17.5836 32.391 16.6583 32.391 15.733C32.3829 15.5876 32.4192 15.5436 32.5657 15.5463V15.5463ZM35.2282 38.6045C32.4837 38.5983 29.7388 38.5983 26.9934 38.6045C24.2745 38.6045 21.5555 38.6045 18.8366 38.6045C18.6027 38.6045 18.5261 38.5698 18.5275 38.3125C18.5373 33.4762 18.5373 28.6403 18.5275 23.8048C18.5227 23.7265 18.5365 23.6482 18.5678 23.5762C18.5991 23.5042 18.6469 23.4405 18.7075 23.3901C21.4117 20.928 24.1123 18.4622 26.8093 15.993C26.9437 15.8676 27.0189 15.8476 27.1708 15.9863C29.8776 18.46 32.589 20.9271 35.3048 23.3875C35.3562 23.4293 35.3972 23.4823 35.4245 23.5425C35.4518 23.6026 35.4646 23.6682 35.462 23.7341C35.462 28.6131 35.462 33.4913 35.462 38.3685C35.4661 38.5632 35.4177 38.6058 35.2282 38.6045V38.6045Z" fill="#00659E"/>
<path d="M29.3385 31.1593C29.3385 29.7309 29.3385 28.3034 29.3385 26.8767C29.3385 25.5434 29.3385 24.2101 29.3385 22.8768C29.3385 22.6648 29.3277 22.4515 29.3076 22.2408C29.1879 20.9915 27.8816 20.0249 26.6478 20.2688C25.4596 20.5022 24.7016 21.4115 24.7003 22.6275C24.7003 25.4567 24.7003 28.2856 24.7003 31.114C24.7031 31.1875 24.6909 31.2609 24.6643 31.3297C24.6378 31.3984 24.5974 31.4611 24.5457 31.514C23.9908 32.1026 23.6803 32.8773 23.6761 33.6832C23.6691 34.1652 23.7692 34.6428 23.9693 35.0821C24.1694 35.5214 24.4645 35.9116 24.8338 36.2249C25.203 36.5383 25.6373 36.7671 26.1057 36.8952C26.5742 37.0232 27.0653 37.0473 27.5442 36.9658C28.8103 36.7472 29.6852 36.0099 30.1113 34.8179C30.5373 33.6259 30.3089 32.5286 29.485 31.5646C29.3858 31.453 29.3333 31.308 29.3385 31.1593V31.1593ZM26.2674 22.5141C26.2699 22.3165 26.3507 22.1279 26.4923 21.9889C26.6339 21.8499 26.8249 21.7718 27.0241 21.7715C27.1246 21.773 27.2239 21.7943 27.3162 21.8339C27.4084 21.8736 27.4919 21.9309 27.5618 22.0026C27.6317 22.0743 27.6867 22.159 27.7236 22.2518C27.7604 22.3446 27.7785 22.4437 27.7767 22.5435C27.7767 23.1368 27.7767 23.7314 27.7767 24.3261C27.7767 24.9208 27.7767 25.5141 27.7767 26.1087C27.7767 26.2794 27.7257 26.3194 27.563 26.3141C27.1786 26.3021 26.7943 26.3047 26.4099 26.3141C26.2849 26.3141 26.2526 26.2794 26.254 26.1567C26.2647 24.9488 26.258 23.7274 26.2674 22.5141V22.5141ZM28.6571 34.2966C28.3882 35.0259 27.8507 35.4112 27.0873 35.4819C26.387 35.5472 25.6626 35.0819 25.3723 34.4219C25.082 33.7619 25.2379 32.9033 25.8077 32.4473C25.965 32.3253 26.0894 32.1667 26.1698 31.9854C26.2503 31.8042 26.2842 31.606 26.2687 31.4086C26.2513 30.2886 26.2688 29.1673 26.2593 28.046C26.2593 27.882 26.2983 27.83 26.4676 27.8367C26.8346 27.85 27.2028 27.8487 27.5698 27.8367C27.7337 27.8367 27.7861 27.8714 27.7834 28.0434C27.7713 28.654 27.7834 29.266 27.7834 29.8767C27.7834 30.446 27.7915 31.0153 27.7834 31.5833C27.775 31.7396 27.8039 31.8956 27.8676 32.0388C27.9314 32.1819 28.0282 32.3082 28.1504 32.4073C28.421 32.6318 28.615 32.9339 28.7057 33.2722C28.7965 33.6105 28.7794 33.9683 28.6571 34.2966V34.2966Z" fill="#00659E"/>
<path d="M22.3642 24.7795C22.4986 24.7795 22.6209 24.7795 22.7499 24.7795C22.879 24.7795 23.0187 24.7795 23.1599 24.7795C23.2603 24.7798 23.3598 24.7604 23.4527 24.7223C23.5455 24.6841 23.6297 24.6281 23.7005 24.5574C23.7713 24.4866 23.8272 24.4027 23.8649 24.3103C23.9027 24.218 23.9216 24.1191 23.9206 24.0195C23.9229 23.9198 23.9052 23.8207 23.8684 23.7278C23.8317 23.635 23.7767 23.5504 23.7066 23.4789C23.6366 23.4074 23.5528 23.3505 23.4603 23.3114C23.3678 23.2724 23.2685 23.252 23.1679 23.2515C22.8991 23.2515 22.6384 23.2515 22.3736 23.2515C22.2724 23.2504 22.1719 23.2695 22.0782 23.3075C21.9845 23.3456 21.8994 23.4019 21.828 23.4731C21.7566 23.5443 21.7003 23.629 21.6624 23.7222C21.6246 23.8153 21.6059 23.9151 21.6075 24.0155C21.6059 24.1151 21.6243 24.2141 21.6616 24.3066C21.6989 24.3992 21.7543 24.4834 21.8247 24.5545C21.8951 24.6256 21.9791 24.6821 22.0717 24.7207C22.1643 24.7593 22.2637 24.7793 22.3642 24.7795V24.7795Z" fill="#00659E"/>
<path d="M31.6307 23.2515C31.3619 23.2515 31.0971 23.2515 30.8363 23.2515C30.7355 23.2511 30.6356 23.2707 30.5424 23.309C30.4493 23.3474 30.3648 23.4038 30.2938 23.4749C30.2229 23.546 30.1669 23.6305 30.1292 23.7233C30.0915 23.8161 30.0729 23.9154 30.0743 24.0155C30.0729 24.115 30.0913 24.2138 30.1286 24.3063C30.1658 24.3987 30.2212 24.483 30.2914 24.5541C30.3616 24.6252 30.4453 24.6819 30.5377 24.7208C30.6301 24.7597 30.7293 24.7801 30.8296 24.7808C30.964 24.7808 31.0863 24.7808 31.214 24.7808C31.3417 24.7808 31.4828 24.7808 31.6239 24.7808C31.7249 24.7811 31.8249 24.7615 31.9182 24.7231C32.0114 24.6846 32.096 24.6281 32.167 24.5569C32.2379 24.4856 32.2938 24.401 32.3315 24.308C32.3691 24.2151 32.3876 24.1156 32.386 24.0155C32.3876 23.9159 32.3693 23.8171 32.332 23.7246C32.2948 23.6322 32.2395 23.548 32.1692 23.4769C32.099 23.4058 32.0152 23.3493 31.9227 23.3106C31.8303 23.2719 31.731 23.2518 31.6307 23.2515V23.2515Z" fill="#00659E"/>
<path d="M22.3687 27.8395C22.6375 27.8395 22.8983 27.8395 23.1631 27.8395C23.2635 27.8395 23.363 27.8197 23.4556 27.7812C23.5483 27.7428 23.6324 27.6864 23.7029 27.6155C23.7734 27.5445 23.829 27.4604 23.8665 27.3679C23.904 27.2754 23.9225 27.1765 23.9211 27.0768C23.9228 26.9772 23.9046 26.8782 23.8675 26.7856C23.8304 26.693 23.7751 26.6086 23.7048 26.5374C23.6345 26.4662 23.5507 26.4096 23.4581 26.3708C23.3656 26.332 23.2662 26.3119 23.1657 26.3115C23.0313 26.3115 22.909 26.3115 22.7813 26.3115C22.6537 26.3115 22.5125 26.3115 22.3714 26.3115C22.271 26.3115 22.1715 26.3313 22.0788 26.3698C21.9861 26.4082 21.9021 26.4646 21.8316 26.5355C21.761 26.6065 21.7054 26.6907 21.668 26.7831C21.6305 26.8756 21.612 26.9745 21.6134 27.0742C21.6116 27.1738 21.6298 27.2728 21.667 27.3654C21.7041 27.458 21.7594 27.5424 21.8297 27.6136C21.9 27.6848 21.9838 27.7415 22.0763 27.7802C22.1689 27.819 22.2683 27.8392 22.3687 27.8395V27.8395Z" fill="#00659E"/>
<path d="M31.6241 26.3115C31.4897 26.3115 31.3674 26.3115 31.2383 26.3115C31.1093 26.3115 30.9695 26.3115 30.8351 26.3115C30.7338 26.3113 30.6335 26.3312 30.54 26.3701C30.4466 26.4089 30.3619 26.466 30.291 26.5378C30.2201 26.6096 30.1644 26.6948 30.1272 26.7883C30.09 26.8818 30.0721 26.9817 30.0744 27.0822C30.0739 27.1817 30.0932 27.2804 30.1313 27.3725C30.1694 27.4646 30.2254 27.5483 30.2963 27.6189C30.3671 27.6894 30.4513 27.7453 30.544 27.7834C30.6367 27.8215 30.7361 27.841 30.8365 27.8408C31.1053 27.8408 31.3674 27.8408 31.6321 27.8408C31.7326 27.8398 31.8318 27.819 31.924 27.7797C32.0163 27.7404 32.0997 27.6833 32.1696 27.6117C32.2395 27.5402 32.2944 27.4556 32.3311 27.3629C32.3678 27.2701 32.3856 27.1711 32.3834 27.0715C32.3843 26.972 32.3653 26.8733 32.3276 26.7812C32.2898 26.689 32.234 26.6052 32.1634 26.5345C32.0928 26.4639 32.0088 26.4078 31.9162 26.3695C31.8237 26.3312 31.7244 26.3115 31.6241 26.3115V26.3115Z" fill="#00659E"/>
<path d="M23.9194 30.1232C23.9194 29.9263 23.8416 29.7372 23.7026 29.5966C23.5636 29.456 23.3746 29.3751 23.1761 29.3712C22.9073 29.3712 22.6466 29.3712 22.3818 29.3712C22.2813 29.3694 22.1815 29.3876 22.0881 29.4245C21.9948 29.4614 21.9098 29.5164 21.8381 29.5863C21.7664 29.6562 21.7094 29.7395 21.6706 29.8315C21.6317 29.9234 21.6117 30.0222 21.6117 30.1219C21.6084 30.2236 21.626 30.3249 21.6633 30.4197C21.7005 30.5145 21.7568 30.6009 21.8286 30.6735C21.9005 30.7461 21.9864 30.8036 22.0813 30.8424C22.1761 30.8812 22.2779 30.9005 22.3805 30.8992C22.5082 30.8992 22.6359 30.8992 22.7649 30.8992C22.8939 30.8992 23.0337 30.8992 23.1748 30.8992C23.2752 30.8973 23.3743 30.8756 23.4662 30.8355C23.5581 30.7954 23.6411 30.7376 23.7104 30.6654C23.7796 30.5932 23.8338 30.5081 23.8696 30.4151C23.9055 30.322 23.9224 30.2228 23.9194 30.1232V30.1232Z" fill="#00659E"/>
<path d="M31.6354 29.3711C31.3666 29.3711 31.1045 29.3711 30.8397 29.3711C30.7393 29.3704 30.6397 29.3895 30.5468 29.4273C30.4538 29.4651 30.3694 29.5209 30.2984 29.5913C30.2273 29.6618 30.1711 29.7456 30.133 29.8378C30.0949 29.93 30.0756 30.0288 30.0763 30.1284C30.0742 30.2301 30.0927 30.3312 30.1309 30.4256C30.1691 30.52 30.2261 30.6058 30.2985 30.6777C30.371 30.7497 30.4573 30.8064 30.5524 30.8445C30.6475 30.8825 30.7493 30.9011 30.8518 30.8991C30.9715 30.8991 31.0911 30.8991 31.2107 30.8991C31.3572 30.8991 31.5023 30.8991 31.6475 30.8991C31.8457 30.8932 32.0338 30.8107 32.1716 30.6692C32.3095 30.5278 32.3861 30.3385 32.3854 30.1418C32.388 30.0421 32.3707 29.9429 32.3343 29.8499C32.2979 29.7569 32.2432 29.6721 32.1734 29.6004C32.1035 29.5286 32.02 29.4714 31.9276 29.432C31.8353 29.3927 31.7359 29.372 31.6354 29.3711V29.3711Z" fill="#00659E"/>
</g>
<defs>
<filter id="filter0_d_1097_1796" x="0" y="0" width="56" height="56.1523" filterUnits="userSpaceOnUse" color-interpolation-filters="sRGB">
<feFlood flood-opacity="0" result="BackgroundImageFix"/>
<feColorMatrix in="SourceAlpha" type="matrix" values="0 0 0 0 0 0 0 0 0 0 0 0 0 0 0 0 0 0 127 0" result="hardAlpha"/>
<feOffset dx="1" dy="1"/>
<feGaussianBlur stdDeviation="5"/>
<feComposite in2="hardAlpha" operator="out"/>
<feColorMatrix type="matrix" values="0 0 0 0 0 0 0 0 0 0 0 0 0 0 0 0 0 0 0.15 0"/>
<feBlend mode="normal" in2="BackgroundImageFix" result="effect1_dropShadow_1097_1796"/>
<feBlend mode="normal" in="SourceGraphic" in2="effect1_dropShadow_1097_1796" result="shape"/>
</filter>
<clipPath id="clip0_1097_1796">
<rect width="26" height="26.1101" fill="white" transform="translate(14 14.021)"/>
</clipPath>
</defs>
</svg>
