<svg width="56" height="57" viewBox="0 0 56 57" fill="none" xmlns="http://www.w3.org/2000/svg">
<g filter="url(#filter0_d_39_195)">
<rect x="8" y="8" width="40" height="41" rx="10" fill="white"/>
<path d="M29.2143 37.4944C29.424 37.513 29.6042 37.4795 29.7403 37.2856C29.8764 37.0955 29.8507 36.8643 29.8544 36.6257C29.9316 36.6257 30.0052 36.6182 30.0787 36.6294C30.1008 36.6332 30.1229 36.6779 30.1339 36.7077C30.2222 36.9352 30.3988 37.0694 30.6048 37.0582C30.8071 37.047 30.9836 36.8904 31.0425 36.6555C31.0572 36.5959 31.0646 36.5325 31.0682 36.4691C31.0719 36.1858 31.0682 35.9024 31.0682 35.619C31.0682 35.3245 30.9101 35.0896 30.682 35.03C30.4503 34.9703 30.2296 35.112 30.1339 35.3804C30.1119 35.4401 30.0898 35.455 30.0383 35.4513C29.9794 35.4475 29.9243 35.4513 29.8544 35.4513C29.8544 35.3581 29.8544 35.276 29.8544 35.1977C29.8544 34.8249 29.6484 34.5826 29.3394 34.5826C29.3026 34.5826 29.2658 34.5826 29.2327 34.5826C29.2254 34.5714 29.218 34.5677 29.218 34.5602C29.1922 34.083 29.2327 33.6356 29.4534 33.2068C30.1413 31.8758 30.8144 30.5373 31.4729 29.1877C31.9143 28.2854 32.3005 27.3496 32.6095 26.3728C32.7897 25.8061 32.9406 25.2282 32.9847 24.6204C33.0362 23.9158 32.9553 23.226 32.7787 22.5549C32.3263 20.8436 31.4177 19.6095 30.0677 18.8415C29.939 18.7669 29.8691 18.6476 29.8691 18.4799C29.8654 18.0697 29.8691 17.6596 29.8654 17.2458C29.8654 17.1787 29.9022 17.1712 29.939 17.1526C30.3436 16.9773 30.6415 16.6567 30.8071 16.1757C31.1933 15.0423 30.5496 13.935 29.641 13.7747C29.5564 13.7598 29.4681 13.7561 29.3798 13.7561C28.4345 13.7561 27.4891 13.7523 26.5475 13.7561C25.5506 13.7598 24.848 14.9007 25.1533 16.0341C25.3005 16.5784 25.6168 16.9363 26.0546 17.1414C26.1171 17.1712 26.1392 17.2048 26.1355 17.2831C26.1318 17.6522 26.1281 18.0213 26.1355 18.3904C26.1392 18.6215 26.0656 18.7707 25.8853 18.8713C24.9326 19.4082 24.1896 20.2285 23.6636 21.3209C23.2038 22.279 22.9794 23.3192 23.0015 24.4266C23.0125 25.0268 23.156 25.601 23.3252 26.164C23.6525 27.2601 24.0866 28.2929 24.5758 29.2958C25.2196 30.6156 25.8853 31.9168 26.5475 33.2217C26.7056 33.5349 26.8013 33.863 26.7866 34.2321C26.7829 34.344 26.7866 34.4558 26.7866 34.59C26.7314 34.5714 26.6836 34.5602 26.6394 34.5416C26.4886 34.467 26.3452 34.3551 26.187 34.3141C25.672 34.1762 25.1828 34.6646 25.1754 35.2984C25.1754 35.3469 25.1754 35.3916 25.1754 35.4438C25.0136 35.4438 24.8554 35.4438 24.6935 35.4438C24.6935 35.4065 24.6935 35.3692 24.6935 35.3357C24.6935 35.1269 24.6972 34.9144 24.6935 34.7056C24.6862 34.385 24.4655 34.1352 24.2006 34.1389C23.9358 34.1426 23.7224 34.3999 23.7224 34.7205C23.7224 35.5967 23.7224 36.4728 23.7224 37.349C23.7224 37.6696 23.9358 37.9269 24.2006 37.9306C24.4692 37.9343 24.6899 37.6845 24.6935 37.3565C24.6972 37.1477 24.6935 36.9426 24.6935 36.7338C24.6935 36.7003 24.6935 36.6667 24.6935 36.6257C24.8591 36.6257 25.0136 36.6257 25.1681 36.6257C25.1754 36.7413 25.1754 36.8531 25.1938 36.9612C25.3042 37.6361 25.9074 37.9865 26.4224 37.6771C26.507 37.6249 26.5916 37.569 26.6762 37.5205C26.7056 37.5019 26.7387 37.4944 26.7866 37.4758C26.7866 37.5391 26.7866 37.5802 26.7866 37.6249C26.7866 39.5487 26.7866 41.4725 26.7866 43.3964C26.7866 43.5604 26.8086 43.717 26.9006 43.8438C27.0404 44.0376 27.2206 44.1048 27.4266 44.0265C27.9195 43.8363 28.4087 43.6387 28.898 43.4374C29.104 43.3516 29.2217 43.1317 29.2217 42.8483C29.2217 42.2741 29.2217 41.7 29.2217 41.1295C29.2217 39.9626 29.2217 38.7993 29.2217 37.6323C29.2143 37.5951 29.2143 37.5541 29.2143 37.4944ZM27.7613 34.5751C27.7613 34.4185 27.7613 34.2694 27.7613 34.124C27.7577 33.7101 27.6988 33.3075 27.5333 32.9458C27.3494 32.5432 27.1434 32.1554 26.9447 31.7677C26.2679 30.4516 25.5911 29.1355 24.9952 27.7597C24.6751 27.0178 24.3735 26.2684 24.1602 25.4705C24.0572 25.0828 23.9689 24.6913 23.9763 24.2849C23.9836 23.5541 24.1124 22.8569 24.3846 22.2007C24.9032 20.9518 25.7198 20.1166 26.827 19.6878C27.2096 19.5387 27.6068 19.4791 28.0115 19.4716C28.28 19.4679 28.4897 19.2069 28.4897 18.89C28.4897 18.5656 28.2763 18.3046 28.0041 18.3084C27.8459 18.3084 27.6878 18.3233 27.5296 18.3382C27.3935 18.3531 27.2574 18.3755 27.1139 18.3978C27.1139 18.3531 27.1139 18.3195 27.1139 18.286C27.1139 17.7528 27.1139 17.2234 27.1139 16.6903C27.1139 16.3361 26.9079 16.09 26.6137 16.0863C26.5622 16.0863 26.507 16.0788 26.4555 16.0676C26.2017 16.0005 26.0398 15.7358 26.0619 15.4413C26.0877 15.1467 26.2973 14.9268 26.5548 14.9268C26.7424 14.9268 26.93 14.9268 27.1213 14.9268C27.8864 14.9268 28.6478 14.9268 29.413 14.9268C29.6557 14.9268 29.8617 15.0908 29.9279 15.3369C30.0272 15.706 29.7918 16.0863 29.4534 16.09C29.0194 16.0937 28.5816 16.09 28.1476 16.09C27.868 16.09 27.6547 16.3472 27.6547 16.6753C27.6547 17.0034 27.868 17.257 28.1476 17.257C28.3646 17.257 28.5816 17.257 28.7987 17.257C28.8281 17.257 28.8538 17.2607 28.8906 17.2607C28.8906 17.3054 28.8906 17.339 28.8906 17.3725C28.8906 17.7379 28.8833 18.107 28.8906 18.4724C28.9053 19.1286 29.1518 19.6207 29.6521 19.9041C30.5349 20.4037 31.197 21.168 31.6237 22.2231C31.9032 22.9054 32.0393 23.6324 32.0173 24.393C32.0026 24.9373 31.8554 25.4481 31.6973 25.9515C31.3956 26.8947 31.0204 27.7933 30.5974 28.662C29.9574 29.9781 29.2916 31.2793 28.6368 32.5842C28.486 32.8824 28.3462 33.1882 28.2984 33.5349C28.2616 33.7996 28.2579 34.0718 28.2395 34.3402C28.2359 34.4185 28.2395 34.4968 28.2395 34.5788C28.074 34.5751 27.9232 34.5751 27.7613 34.5751ZM27.765 42.6619C27.765 40.9357 27.765 39.2206 27.765 37.5056C27.9269 37.5056 28.0814 37.5056 28.2395 37.5056C28.2395 37.5503 28.2395 37.5913 28.2395 37.6286C28.2395 39.1871 28.2395 40.7418 28.2395 42.3002C28.2395 42.3412 28.2432 42.386 28.2395 42.4233C28.2359 42.4494 28.2175 42.4829 28.1991 42.4904C28.0593 42.55 27.9158 42.6022 27.765 42.6619ZM28.8759 36.3274C28.8391 36.3274 28.8097 36.3274 28.7766 36.3274C28.0703 36.3274 27.3604 36.3274 26.6541 36.3274C26.5364 36.3274 26.4298 36.3535 26.3268 36.4206C26.2716 36.4579 26.2164 36.4877 26.1539 36.525C26.1539 36.2007 26.1539 35.8875 26.1539 35.5743C26.1649 35.5743 26.1723 35.5706 26.1759 35.5743C26.198 35.5855 26.2201 35.5967 26.2385 35.6116C26.3709 35.716 26.518 35.7458 26.6762 35.7458C27.3751 35.7421 28.0777 35.7421 28.7766 35.7421C28.8097 35.7421 28.8428 35.7421 28.8759 35.7421C28.8759 35.9471 28.8759 36.1336 28.8759 36.3274Z" fill="#2F6078"/>
<rect x="8.75" y="8.75" width="38.5" height="39.5" rx="9.25" stroke="#2F6078" stroke-width="1.5"/>
</g>
<defs>
<filter id="filter0_d_39_195" x="0" y="0" width="56" height="57" filterUnits="userSpaceOnUse" color-interpolation-filters="sRGB">
<feFlood flood-opacity="0" result="BackgroundImageFix"/>
<feColorMatrix in="SourceAlpha" type="matrix" values="0 0 0 0 0 0 0 0 0 0 0 0 0 0 0 0 0 0 127 0" result="hardAlpha"/>
<feOffset/>
<feGaussianBlur stdDeviation="4"/>
<feComposite in2="hardAlpha" operator="out"/>
<feColorMatrix type="matrix" values="0 0 0 0 0 0 0 0 0 0 0 0 0 0 0 0 0 0 0.25 0"/>
<feBlend mode="normal" in2="BackgroundImageFix" result="effect1_dropShadow_39_195"/>
<feBlend mode="normal" in="SourceGraphic" in2="effect1_dropShadow_39_195" result="shape"/>
</filter>
</defs>
</svg>
