<svg width="56" height="57" viewBox="0 0 56 57" fill="none" xmlns="http://www.w3.org/2000/svg">
<g filter="url(#filter0_d_1396_2893)">
<rect x="9" y="9" width="36" height="36.1525" rx="4" fill="#FAFDFF"/>
<rect x="9.2" y="9.2" width="35.6" height="35.7525" rx="3.8" stroke="#00659E" stroke-width="0.4"/>
</g>
<path d="M30.864 24.868C30.8679 24.8597 30.8732 24.8521 30.8798 24.8457H30.8516C30.8555 24.8536 30.8601 24.8601 30.864 24.868Z" fill="#00659E"/>
<path d="M27.4084 18.9043H27.3984L27.4037 18.9122C27.405 18.9095 27.4066 18.9068 27.4084 18.9043Z" fill="#00659E"/>
<path d="M38.626 20.9784C38.1676 18.5636 36.7654 16.9034 34.4411 16.1618C32.1167 15.4202 30.0347 16.0249 28.292 17.7433C27.9488 18.082 27.6783 18.4797 27.4111 18.9049C27.4094 18.9074 27.4078 18.91 27.4065 18.9128L27.4013 18.9049C27.3574 18.8348 27.3266 18.7896 27.2998 18.7431C26.7759 17.8416 26.2519 16.9397 25.728 16.0373C25.641 15.8801 25.5362 15.7335 25.4156 15.6003C24.5262 14.6595 23.0245 14.8489 22.3551 15.9974C20.3052 19.5172 18.2588 23.0397 16.2159 26.5649C15.2432 28.2173 14.837 30.1424 15.0593 32.0471C15.4811 35.8994 18.4701 39.1528 22.2634 39.9226C22.5857 39.9882 22.9184 39.9882 23.2321 40.1041H24.7515C25.0252 40.0039 25.3187 40.0222 25.6029 39.9606C29.241 39.1594 31.6413 37.004 32.7415 33.4301C32.8522 33.0731 32.7514 32.8916 32.4003 32.737H32.3761C32.0218 32.7455 31.9052 32.8405 31.7998 33.1786C30.7977 36.3888 28.643 38.3765 25.3501 38.9917C22.6819 39.4902 20.3439 38.6536 18.4112 36.7642C16.7667 35.1584 15.9546 33.1759 15.9939 30.8679C16.0149 29.5228 16.3845 28.2063 17.0666 27.0471C19.1039 23.5368 21.1437 20.0278 23.1862 16.5202C23.6021 15.8054 24.4489 15.7864 24.8582 16.4894C26.9182 20.0245 28.9746 23.5623 31.0276 27.1027C31.3583 27.6839 31.6153 28.3041 31.7926 28.9489C31.8954 29.3099 32.01 29.4016 32.3728 29.4187H32.3997C32.7671 29.2326 32.8431 29.0662 32.7337 28.6699C32.4863 27.8076 32.1232 26.983 31.6544 26.2183C31.3924 25.7807 31.1396 25.3365 30.8645 24.8641C30.8606 24.8562 30.856 24.8497 30.8521 24.8418H31.1534C33.0889 24.8418 35.0244 24.8418 36.9599 24.8418C37.7091 24.8418 38.1931 24.4907 38.4177 23.7779C38.7026 22.8646 38.8074 21.9284 38.626 20.9784ZM29.8802 23.2059C29.3248 22.1577 28.7013 21.1416 28.0949 20.1176C28.0561 20.0624 28.0344 19.997 28.0324 19.9296C28.0304 19.8621 28.0483 19.7956 28.0837 19.7382C28.2264 19.447 28.3964 19.17 28.5913 18.9108C28.7138 19.0418 28.8231 19.1676 28.9436 19.2823C29.1696 19.4958 29.442 19.503 29.6438 19.3098C29.8455 19.1165 29.8501 18.8243 29.6346 18.5891C29.5475 18.4916 29.4548 18.3993 29.3569 18.3126C29.256 18.2262 29.2384 18.1685 29.3569 18.0696C30.1316 17.4101 31.0828 16.9925 32.0925 16.8687C32.2281 16.851 32.2582 16.8969 32.2523 17.022C32.2438 17.2258 32.2445 17.4302 32.2523 17.6339C32.2628 17.9274 32.4743 18.1377 32.7455 18.1358C33.0166 18.1338 33.2209 17.9222 33.2288 17.626C33.2347 17.4223 33.2327 17.2179 33.2288 17.0135C33.2288 16.9191 33.2321 16.8694 33.3598 16.8877C34.3342 17.0273 35.2469 17.4475 35.9867 18.0971C36.0672 18.1659 36.0797 18.2117 35.9958 18.2871C35.8812 18.3907 35.7719 18.5 35.6684 18.6147C35.4778 18.825 35.4771 19.108 35.6612 19.298C35.8452 19.488 36.1432 19.5017 36.3619 19.298C36.487 19.1814 36.6003 19.0523 36.7326 18.9147C37.1923 19.525 37.5033 20.2341 37.641 20.9856C37.6502 21.0335 37.66 21.0819 37.6652 21.1304C37.6849 21.3086 37.7733 21.5235 37.7039 21.6545C37.6214 21.8118 37.383 21.6978 37.2133 21.7135C36.9363 21.7397 36.728 21.9349 36.7228 22.1963C36.7228 22.3244 36.772 22.4476 36.8603 22.5404C36.9486 22.6332 37.0691 22.6885 37.197 22.6949H37.2212C37.6875 22.7237 37.6875 22.7237 37.5663 23.1817C37.3908 23.8447 37.3699 23.8598 36.6874 23.8598C35.8871 23.8598 35.0875 23.8558 34.2872 23.8598C34.1149 23.8598 34.0815 23.8309 34.1431 23.6573C34.4705 22.7401 34.7882 21.8137 35.1078 20.8913C35.1949 20.6404 35.1733 20.4071 34.9827 20.2093C34.9047 20.1243 34.8035 20.064 34.6917 20.0359C34.5798 20.0078 34.4621 20.0132 34.3533 20.0514C34.2542 20.0883 34.1615 20.1402 34.0782 20.2054C33.3624 20.7039 32.6498 21.2071 31.9334 21.7043C31.0662 22.3071 30.8652 22.8181 31.0977 23.8126C30.4696 24.0426 30.1579 23.7379 29.8802 23.2092V23.2059ZM33.2033 23.373C33.0657 23.7425 32.7022 23.9181 32.3846 23.7975C32.2342 23.7417 32.1108 23.6305 32.0396 23.4867C31.9684 23.3429 31.9547 23.1773 32.0015 23.0238C32.0378 22.8972 32.1167 22.7871 32.2248 22.7119C32.7409 22.3444 33.2596 21.9801 33.8346 21.5746C33.6073 22.2291 33.4155 22.8063 33.2033 23.3769V23.373Z" fill="#00659E"/>
<path d="M32.3626 30.7074C32.0646 30.9091 32.0665 31.2524 32.3691 31.447C32.4254 31.4831 32.4942 31.5027 32.5322 31.5623C32.5826 31.5217 32.6401 31.4909 32.7018 31.4713C32.8741 31.394 32.971 31.2701 32.9638 31.0742C32.9649 30.9842 32.937 30.8963 32.8841 30.8235C32.8312 30.7506 32.7563 30.6968 32.6704 30.67C32.6192 30.6581 32.5711 30.6358 32.5289 30.6045C32.489 30.6582 32.4176 30.6707 32.3626 30.7074Z" fill="#00659E"/>
<path d="M32.6707 30.6698C32.7566 30.6966 32.8316 30.7504 32.8845 30.8232C32.9373 30.8961 32.9653 30.984 32.9642 31.074C32.9694 31.2706 32.8725 31.3937 32.7022 31.471C32.6405 31.4907 32.583 31.5215 32.5326 31.5621C32.5358 31.5673 32.5391 31.5719 32.5417 31.5772C32.8901 31.5077 33.0493 31.3459 33.0447 31.0662C33.0401 30.7864 32.881 30.6397 32.5424 30.5859C32.5391 30.5914 32.5353 30.5967 32.5312 30.6017C32.5726 30.6337 32.6201 30.6568 32.6707 30.6698Z" fill="#00659E"/>
<path d="M32.1009 31.2319C32.1716 31.433 32.3334 31.5195 32.5227 31.5719L32.5312 31.5621C32.4932 31.5024 32.4244 31.4828 32.3681 31.4468C32.0655 31.2502 32.0636 30.9089 32.3616 30.7071C32.4166 30.6704 32.488 30.658 32.5299 30.6016C32.5265 30.5987 32.5234 30.5954 32.5207 30.5918C32.1612 30.6933 31.9974 30.939 32.1009 31.2319Z" fill="#00659E"/>
<path d="M32.5234 31.5724L32.5413 31.5777C32.5413 31.5724 32.5354 31.5678 32.532 31.5625L32.5234 31.5724Z" fill="#00659E"/>
<path d="M32.5326 30.6017C32.5367 30.5967 32.5404 30.5914 32.5437 30.5859L32.5234 30.5918C32.5261 30.5954 32.5292 30.5987 32.5326 30.6017Z" fill="#00659E"/>
<path d="M20.2256 28.0286C20.1601 28.0614 20.0841 28.1996 19.9872 28.043C19.8503 27.8209 19.6434 27.7417 19.3978 27.8308C19.1522 27.9199 19.0703 28.1243 19.0703 28.3759C19.0703 30.0823 19.0703 31.7889 19.0703 33.4958C19.0703 33.8529 19.2589 34.0737 19.5569 34.0776C19.8549 34.0815 20.0475 33.8673 20.0494 33.5076C20.0494 32.918 20.0494 32.3336 20.0494 31.7387C20.0907 31.7387 20.0992 31.7387 20.1057 31.7387C20.1424 31.7558 20.1784 31.7754 20.2151 31.7931C21.0063 32.1718 21.7725 32.1253 22.472 31.5966C23.1714 31.0678 23.4242 30.3478 23.269 29.4968C23.0195 28.1243 21.485 27.3931 20.2256 28.0286ZM21.1851 31.0495C20.8843 31.0483 20.5962 30.9278 20.3841 30.7145C20.1719 30.5012 20.053 30.2124 20.0534 29.9115C20.0546 29.7605 20.0858 29.6113 20.1452 29.4724C20.2045 29.3336 20.2908 29.2079 20.3991 29.1027C20.5073 28.9974 20.6353 28.9147 20.7758 28.8594C20.9162 28.804 21.0662 28.777 21.2171 28.7801C21.5175 28.7852 21.8037 28.9088 22.0135 29.1238C22.2233 29.3389 22.3398 29.6281 22.3377 29.9286C22.3322 30.2293 22.208 30.5156 21.9921 30.725C21.7763 30.9344 21.4864 31.0499 21.1857 31.0462L21.1851 31.0495Z" fill="#00659E"/>
<path d="M28.2138 26.2334C27.9236 26.2334 27.7317 26.4496 27.7298 26.789C27.7265 27.2947 27.7226 27.8012 27.7298 28.3069C27.7298 28.4727 27.6957 28.5336 27.5169 28.5303C26.8886 28.519 26.2603 28.519 25.6321 28.5303C25.452 28.5303 25.4179 28.4714 25.4205 28.3076C25.4303 27.8103 25.4264 27.3118 25.4205 26.8139C25.4205 26.4614 25.224 26.2341 24.9287 26.2334C24.6333 26.2327 24.4427 26.4516 24.4414 26.8106C24.4414 27.5699 24.4414 28.3292 24.4414 29.0885C24.4414 29.8478 24.4414 30.6229 24.4414 31.3907C24.4414 31.5414 24.4558 31.6868 24.5724 31.7976C24.7171 31.9378 24.8841 32.0007 25.0859 31.9286C25.3262 31.8408 25.4218 31.656 25.4231 31.4156C25.4231 30.8443 25.429 30.2724 25.4231 29.7011C25.4231 29.5583 25.4487 29.5045 25.6078 29.5045C26.2523 29.5144 26.8974 29.5131 27.5418 29.5045C27.6944 29.5045 27.7337 29.5484 27.7317 29.7011C27.7232 30.2645 27.7265 30.8279 27.7317 31.3907C27.7317 31.734 27.9164 31.9509 28.2039 31.96C28.4914 31.9692 28.7089 31.7393 28.7095 31.3933C28.713 29.8585 28.713 28.3235 28.7095 26.7883C28.7063 26.4561 28.5 26.2327 28.2138 26.2334Z" fill="#00659E"/>
<defs>
<filter id="filter0_d_1396_2893" x="0" y="0" width="56" height="56.1523" filterUnits="userSpaceOnUse" color-interpolation-filters="sRGB">
<feFlood flood-opacity="0" result="BackgroundImageFix"/>
<feColorMatrix in="SourceAlpha" type="matrix" values="0 0 0 0 0 0 0 0 0 0 0 0 0 0 0 0 0 0 127 0" result="hardAlpha"/>
<feOffset dx="1" dy="1"/>
<feGaussianBlur stdDeviation="5"/>
<feComposite in2="hardAlpha" operator="out"/>
<feColorMatrix type="matrix" values="0 0 0 0 0 0 0 0 0 0 0 0 0 0 0 0 0 0 0.15 0"/>
<feBlend mode="normal" in2="BackgroundImageFix" result="effect1_dropShadow_1396_2893"/>
<feBlend mode="normal" in="SourceGraphic" in2="effect1_dropShadow_1396_2893" result="shape"/>
</filter>
</defs>
</svg>
