<svg width="56" height="57" viewBox="0 0 56 57" fill="none" xmlns="http://www.w3.org/2000/svg">
<g filter="url(#filter0_d_39_83)">
<rect x="8" y="8" width="40" height="41" rx="10" fill="white"/>
<path d="M30.5314 17C30.6798 17.036 30.8281 17.0719 30.9765 17.1079C32.4541 17.5094 33.4689 18.8338 33.4689 20.3859C33.4749 24.1734 33.4689 27.9669 33.4689 31.7543C33.4689 31.9221 33.5223 32.042 33.6292 32.1738C34.7982 33.5762 35.1424 35.1643 34.5193 36.8902C33.9021 38.6101 32.6381 39.6409 30.8519 39.9525C28.9351 40.2881 26.9886 39.2993 26.0391 37.5674C25.0837 35.8115 25.321 33.6661 26.6563 32.1559C26.7571 32.042 26.7987 31.9341 26.7987 31.7783C26.7928 28.0088 26.7928 24.2453 26.7987 20.4758C26.7987 18.69 27.9143 17.3476 29.6591 17.036C29.6887 17.03 29.7125 17.012 29.7362 17C29.9973 17 30.2644 17 30.5314 17ZM32.1337 26.2829C32.1337 26.0612 32.1337 25.8334 32.1337 25.6117C32.1337 23.8678 32.1396 22.1239 32.1337 20.374C32.1278 19.0855 30.9824 18.1446 29.7481 18.3903C28.7808 18.5821 28.128 19.4031 28.128 20.4399C28.128 24.3113 28.1221 28.1826 28.1339 32.06C28.1339 32.4076 28.0271 32.6593 27.7897 32.917C26.8106 33.9417 26.5198 35.1583 27.0301 36.4947C27.5345 37.8191 28.5375 38.5502 29.938 38.6521C31.3444 38.76 32.6322 37.9329 33.1959 36.6385C33.7597 35.35 33.463 33.8518 32.4363 32.863C32.2286 32.6593 32.1337 32.4375 32.1396 32.1499C32.1396 30.1902 32.1337 28.2366 32.1337 26.2829Z" fill="#2F6078"/>
<path d="M18.722 22.028C18.538 22.2258 18.36 22.4235 18.1701 22.6093C17.8734 22.903 17.4698 22.9149 17.1969 22.6393C16.9239 22.3636 16.9358 21.9561 17.2265 21.6565C17.7962 21.0751 18.3659 20.4998 18.9416 19.9245C19.2561 19.6129 19.6359 19.6069 19.9445 19.9125C20.526 20.4879 21.1017 21.0751 21.6773 21.6624C21.9681 21.9621 21.9681 22.3756 21.6951 22.6453C21.4221 22.9149 21.0186 22.903 20.7219 22.6033C20.532 22.4175 20.354 22.2198 20.1759 22.028C20.1581 22.04 20.1344 22.046 20.1166 22.058C20.1166 22.1359 20.1166 22.2138 20.1166 22.2917C20.1166 24.3293 20.1166 26.3668 20.1166 28.3984C20.1166 28.9377 19.6418 29.2853 19.1849 29.0756C18.906 28.9497 18.7813 28.722 18.7813 28.4104C18.7813 27.3197 18.7813 26.223 18.7813 25.1323C18.7813 24.1794 18.7813 23.2326 18.7813 22.2797C18.7813 22.2078 18.7813 22.1359 18.7813 22.058C18.7635 22.052 18.7398 22.04 18.722 22.028Z" fill="#FF405C"/>
<path d="M21.4518 32.1678C21.4518 32.0899 21.4518 32.006 21.4518 31.9281C21.4518 29.8906 21.4518 27.853 21.4518 25.8214C21.4518 25.5158 21.5765 25.2881 21.8554 25.1562C22.0987 25.0424 22.3835 25.0963 22.5794 25.2821C22.7455 25.4439 22.793 25.6476 22.793 25.8754C22.7871 27.895 22.793 29.9205 22.793 31.9401C22.793 32.018 22.793 32.0959 22.793 32.2517C23.0185 32.018 23.1965 31.8322 23.3746 31.6465C23.695 31.3288 24.1045 31.3109 24.3775 31.5985C24.6505 31.8802 24.6327 32.2817 24.3241 32.5993C23.7662 33.1686 23.2025 33.738 22.6387 34.3013C22.3064 34.6309 21.9325 34.6309 21.6002 34.3013C21.0364 33.738 20.4786 33.1686 19.9148 32.5993C19.6062 32.2877 19.5884 31.8802 19.8614 31.5985C20.1344 31.3169 20.5439 31.3289 20.8525 31.6405C21.0364 31.8263 21.2145 32.012 21.3984 32.2038C21.4162 32.1798 21.434 32.1738 21.4518 32.1678Z" fill="#8BB9FF"/>
<path d="M36.1335 21.0451C35.9139 21.0451 35.6884 21.0511 35.4688 21.0451C35.095 21.0331 34.8042 20.7395 34.8042 20.3739C34.8042 20.0084 35.089 19.7087 35.4629 19.7027C35.9139 19.6967 36.3649 19.6907 36.8159 19.7027C37.1898 19.7087 37.4746 20.0143 37.4687 20.3859C37.4628 20.7455 37.1839 21.0331 36.8159 21.0511C36.5963 21.0511 36.3649 21.0451 36.1335 21.0451Z" fill="#2F6078"/>
<path d="M36.1394 26.4387C35.9198 26.4387 35.6943 26.4447 35.4747 26.4387C35.0949 26.4267 34.8101 26.139 34.8041 25.7735C34.7982 25.3959 35.0949 25.1023 35.4866 25.0963C35.9257 25.0903 36.3589 25.0903 36.7981 25.0963C37.1898 25.1023 37.4805 25.3959 37.4805 25.7735C37.4746 26.151 37.1838 26.4327 36.7921 26.4387C36.5666 26.4447 36.353 26.4387 36.1394 26.4387Z" fill="#2F6078"/>
<path d="M36.1394 30.4839C36.359 30.4839 36.5845 30.4779 36.8041 30.4839C37.1839 30.4959 37.4687 30.7835 37.4687 31.1551C37.4687 31.5206 37.1839 31.8263 36.81 31.8323C36.359 31.8442 35.908 31.8442 35.457 31.8323C35.0831 31.8263 34.7982 31.5206 34.7982 31.1551C34.8042 30.7895 35.089 30.5018 35.4688 30.4899C35.6943 30.4779 35.9198 30.4839 36.1394 30.4839Z" fill="#2F6078"/>
<path d="M35.8011 22.3936C35.9198 22.3936 36.0385 22.3876 36.1572 22.3936C36.5192 22.4115 36.804 22.6992 36.804 23.0588C36.81 23.4123 36.531 23.718 36.169 23.736C35.9257 23.7479 35.6824 23.7479 35.4391 23.736C35.0771 23.718 34.7982 23.4183 34.8041 23.0588C34.8041 22.7052 35.0831 22.4115 35.4451 22.3876C35.5637 22.3876 35.6824 22.3936 35.8011 22.3936Z" fill="#2F6078"/>
<path d="M35.819 27.7871C35.9376 27.7871 36.0563 27.7811 36.175 27.7871C36.5252 27.8111 36.7981 28.0987 36.8041 28.4463C36.81 28.7999 36.537 29.1115 36.175 29.1295C35.9258 29.1415 35.6706 29.1415 35.4214 29.1295C35.0712 29.1115 34.8042 28.8119 34.7982 28.4643C34.7982 28.1107 35.0772 27.8111 35.4392 27.7931C35.5697 27.7811 35.6943 27.7871 35.819 27.7871Z" fill="#2F6078"/>
<path d="M30.7985 29.519C30.7985 30.7415 30.7985 31.9581 30.7985 33.1806C30.7985 33.3244 30.8281 33.3964 30.9706 33.4623C31.9023 33.8938 32.3533 34.9485 32.0328 35.9253C31.7242 36.8782 30.751 37.4655 29.7718 37.2797C28.7689 37.0939 28.0627 36.201 28.1339 35.1642C28.1873 34.4032 28.5612 33.8338 29.2377 33.4922C29.4276 33.3964 29.4632 33.2945 29.4632 33.1027C29.4573 30.6756 29.4573 28.2485 29.4632 25.8214C29.4632 25.2701 29.9499 24.9285 30.4127 25.1502C30.6917 25.2821 30.7985 25.5218 30.7985 25.8274C30.7985 27.0619 30.7985 28.2905 30.7985 29.519ZM30.1279 34.6189C29.7659 34.6189 29.4632 34.9245 29.4632 35.2901C29.4632 35.6557 29.76 35.9613 30.122 35.9673C30.4899 35.9733 30.8044 35.6557 30.7985 35.2841C30.7925 34.9185 30.4899 34.6189 30.1279 34.6189Z" fill="#FF405C"/>
<rect x="8.75" y="8.75" width="38.5" height="39.5" rx="9.25" stroke="#2F6078" stroke-width="1.5"/>
</g>
<defs>
<filter id="filter0_d_39_83" x="0" y="0" width="56" height="57" filterUnits="userSpaceOnUse" color-interpolation-filters="sRGB">
<feFlood flood-opacity="0" result="BackgroundImageFix"/>
<feColorMatrix in="SourceAlpha" type="matrix" values="0 0 0 0 0 0 0 0 0 0 0 0 0 0 0 0 0 0 127 0" result="hardAlpha"/>
<feOffset/>
<feGaussianBlur stdDeviation="4"/>
<feComposite in2="hardAlpha" operator="out"/>
<feColorMatrix type="matrix" values="0 0 0 0 0 0 0 0 0 0 0 0 0 0 0 0 0 0 0.25 0"/>
<feBlend mode="normal" in2="BackgroundImageFix" result="effect1_dropShadow_39_83"/>
<feBlend mode="normal" in="SourceGraphic" in2="effect1_dropShadow_39_83" result="shape"/>
</filter>
</defs>
</svg>
