<svg width="103" height="103" viewBox="0 0 103 103" fill="none" xmlns="http://www.w3.org/2000/svg">
<g clip-path="url(#clip0_31_129)">
<path d="M37.8016 179.253C39.4545 179.253 41.1861 179.253 42.839 179.253C44.177 179.101 45.5151 178.95 46.8531 178.723C57.2427 176.982 65.7433 172.138 72.1187 164.115C78.8877 155.638 81.4851 146.026 80.0683 135.505C78.9664 127.028 75.1884 119.686 68.8916 113.631C59.4466 104.549 48.0338 100.84 34.8107 102.429C26.7823 103.413 19.6985 106.592 13.7166 111.739C6.79026 117.567 2.46127 124.984 0.72967 133.84C0.493543 135.278 0.336125 136.716 0.0999985 138.154C0.0999985 139.744 0.0999985 141.409 0.0999985 142.998C0.178707 143.906 0.336125 144.815 0.414834 145.723C1.67418 153.67 4.97995 160.558 10.4896 166.461C16.7076 173.046 24.3424 177.133 33.4726 178.647C34.8894 178.874 36.3848 179.026 37.8016 179.253ZM74.3226 140.652C74.3226 158.741 59.053 173.349 40.3203 173.349C21.5088 173.349 6.2393 158.741 6.2393 140.576C6.2393 122.487 21.5088 107.803 40.3203 107.803C59.1317 107.879 74.4013 122.562 74.3226 140.652Z" fill="#2F6078"/>
<path d="M7 25.3C7 28.786 9.85632 31.6 13.3947 31.6H28.3158V75.7C28.3158 79.186 31.1721 82 34.7105 82C38.2489 82 41.1053 79.186 41.1053 75.7V31.6H56.0263C59.5647 31.6 62.4211 28.786 62.4211 25.3C62.4211 21.814 59.5647 19 56.0263 19H13.3947C9.85632 19 7 21.814 7 25.3ZM81.6053 40H56.0263C52.4879 40 49.6316 42.814 49.6316 46.3C49.6316 49.786 52.4879 52.6 56.0263 52.6H62.4211V75.7C62.4211 79.186 65.2774 82 68.8158 82C72.3542 82 75.2105 79.186 75.2105 75.7V52.6H81.6053C85.1437 52.6 88 49.786 88 46.3C88 42.814 85.1437 40 81.6053 40Z" fill="#699BF7"/>
</g>
<defs>
<clipPath id="clip0_31_129">
<rect width="102.4" height="102.4" fill="white"/>
</clipPath>
</defs>
</svg>
