<svg width="56" height="57" viewBox="0 0 56 57" fill="none" xmlns="http://www.w3.org/2000/svg">
<g filter="url(#filter0_d_1396_2868)">
<rect x="9" y="9" width="36" height="36.1525" rx="4" fill="#FAFDFF"/>
<rect x="9.2" y="9.2" width="35.6" height="35.7525" rx="3.8" stroke="#00659E" stroke-width="0.4"/>
</g>
<path d="M29.1458 15.7365C28.7807 15.5393 28.7185 15.3676 28.9396 15.0512C28.8812 14.8645 28.726 14.857 28.5701 14.857C27.166 14.857 25.7616 14.857 24.357 14.857C24.2375 14.8473 24.1191 14.885 24.0272 14.9619C24.2775 15.3571 24.1606 15.5565 23.7461 15.7942C21.553 17.0546 20.5411 19.4502 21.1977 21.8675C22.4674 26.547 24.2161 31.0637 25.9085 35.5992C26.0022 35.5812 26.1116 35.624 26.1828 35.5242C25.2789 32.9847 24.3375 30.4579 23.522 27.8876C22.8766 26.0881 22.2268 24.2931 21.5904 22.4891C21.4263 22.025 21.8228 22.1817 22.0027 22.1809C24.7107 22.1719 27.4196 22.1749 30.1276 22.1757C30.4492 22.1757 30.7715 22.1817 31.0923 22.1697C31.3681 22.1599 31.512 22.2049 31.3921 22.5386C30.7445 24.3178 30.1104 26.1023 29.4718 27.8854C28.9306 29.6931 28.2351 31.4484 27.6302 33.2344C27.3821 33.9677 27.0815 34.683 26.9024 35.4395L27.1872 35.4088C27.4281 34.741 27.6692 34.0729 27.9105 33.4046C29.2897 29.6001 30.6965 25.8077 31.8021 21.9088C32.5187 19.379 31.2107 16.8544 29.1458 15.7365Z" fill="#00659E"/>
<path d="M23.3477 12.6084C23.4354 13.2082 23.5388 13.8081 23.6025 14.4079C23.6332 14.6996 23.7666 14.8668 24.0245 14.9635C24.1164 14.8866 24.2348 14.8489 24.3543 14.8585C25.7589 14.8585 27.1633 14.8585 28.5674 14.8585C28.7233 14.8585 28.8785 14.866 28.9369 15.0527C29.299 14.8713 29.3814 14.5354 29.4264 14.1747C29.4924 13.6499 29.5651 13.1332 29.6348 12.6121L23.3477 12.6084Z" fill="#F6CD71"/>
<path d="M28.1328 36.2245C28.1328 35.2963 28.1328 35.2963 27.2333 35.4117C27.2168 35.4117 27.2003 35.4117 27.1839 35.4117L26.899 35.4425C26.8893 35.447 26.8788 35.45 26.8691 35.4537C26.6764 35.5287 26.474 35.522 26.2694 35.5227H26.1772C26.1023 35.6224 25.9966 35.5797 25.9029 35.5977C25.5079 35.6569 25.1039 35.6727 24.7344 35.8526C24.7394 36.2475 24.7444 36.6424 24.7494 37.0373C25.1788 37.2375 25.6488 37.2562 26.103 37.3687L26.8803 37.4707C27.2918 37.5127 27.7003 37.5951 28.1178 37.5516C28.1178 37.1078 28.1203 36.6639 28.1253 36.22L28.1328 36.2245Z" fill="#00659E"/>
<path d="M29.9594 12.2015C29.9069 11.9601 29.7128 12.0043 29.5554 12.0036C27.5142 12.0006 25.4729 12.0006 23.4317 12.0036C23.2743 12.0036 23.0802 11.9571 23.0277 12.2C22.9692 12.4714 23.1304 12.5599 23.3493 12.6071H29.6364C29.8545 12.5599 30.0179 12.4729 29.9594 12.2015Z" fill="#00659E"/>
<path d="M26.8847 42.1432V37.475L26.1075 37.373C26.1075 38.44 26.1315 39.5077 26.0872 40.5724C26.0595 41.23 26.4822 41.5809 26.8847 42.1432Z" fill="#00659E"/>
<path d="M24.7368 35.8562C24.1027 35.7984 24.1027 35.7984 24.111 36.5662C24.117 37.166 24.1777 37.2073 24.7518 37.0408C24.7473 36.6459 24.7423 36.2511 24.7368 35.8562Z" fill="#00659E"/>
<path fill-rule="evenodd" clip-rule="evenodd" d="M28.1252 37.5554C28.1272 37.1132 28.1297 36.671 28.1326 36.2288L28.1325 36.2286L28.1326 36.2285L28.1327 36.2241L28.1351 36.2267L28.5417 35.9287H28.8326C29.1308 36.2975 29.2462 36.6723 28.8457 37.0471C28.846 37.0474 28.8463 37.0478 28.8466 37.0482C28.8347 37.0525 28.8226 37.0559 28.8103 37.0584C28.8226 37.0559 28.8348 37.0525 28.8468 37.0482C28.8374 37.1153 28.8477 37.1848 28.858 37.2542C28.8772 37.3833 28.8963 37.5118 28.7876 37.6225C28.7613 37.6393 28.7312 37.6491 28.7001 37.651C28.669 37.6528 28.638 37.6466 28.6099 37.633C28.4778 37.4898 28.5074 37.33 28.5372 37.17C28.5499 37.1014 28.5627 37.0327 28.5627 36.9653L28.5625 36.965L28.5627 36.965V36.965L28.5628 36.965C28.5739 36.965 28.585 36.9648 28.5962 36.9647C28.6526 36.9639 28.7089 36.9631 28.7594 36.9825C28.7082 36.9624 28.6509 36.9631 28.5936 36.9639L28.5612 36.9642C28.2214 36.901 28.2177 37.0858 28.2141 37.2704C28.2118 37.3858 28.2095 37.501 28.1252 37.5556L28.1252 37.5557L28.1252 37.5556L28.125 37.5558L28.1252 37.5554Z" fill="#00659E"/>
<path fill-rule="evenodd" clip-rule="evenodd" d="M28.8327 35.9286C28.8327 35.9287 28.8327 35.9287 28.8327 35.9287C28.8327 35.9287 28.8327 35.9287 28.8327 35.9286H28.543C28.5817 35.8904 28.6339 35.8689 28.6884 35.8689C28.7242 35.8689 28.759 35.8782 28.7896 35.8954C28.7591 35.8777 28.7243 35.8679 28.6885 35.8674C28.6342 35.8667 28.5818 35.8874 28.5427 35.9249C28.5587 35.8527 28.5423 35.7598 28.5262 35.668C28.494 35.4846 28.4627 35.3061 28.6926 35.3086C28.9213 35.3111 28.8875 35.4875 28.8525 35.6694C28.8349 35.7612 28.8171 35.8543 28.8324 35.9273C28.8329 35.9278 28.8333 35.9282 28.8338 35.9286H28.8327Z" fill="#00659E"/>
<path d="M31.0916 22.1751C30.7708 22.1871 30.4485 22.1811 30.1269 22.1811C27.4189 22.1811 24.7101 22.1811 22.002 22.1863C21.8221 22.1863 21.4256 22.0304 21.5897 22.4945C22.2261 24.294 22.8759 26.0935 23.5213 27.893H29.4696C30.1082 26.11 30.7438 24.3255 31.3899 22.5462C31.5113 22.2103 31.3674 22.1653 31.0916 22.1751Z" fill="#60D5F0"/>
<path d="M26.2937 35.3901C26.2905 35.4345 26.2837 35.4787 26.2734 35.522C26.4743 35.522 26.6767 35.531 26.8731 35.453C26.8571 35.4379 26.8424 35.4216 26.8288 35.4043C26.6377 35.3151 26.4548 35.2566 26.2937 35.3901Z" fill="#F6CD71"/>
<path d="M26.2758 35.5255C26.2861 35.4822 26.2929 35.438 26.296 35.3936C26.2516 35.4317 26.2136 35.4767 26.1836 35.527L26.2758 35.5255Z" fill="#F6CD71"/>
<path d="M26.8732 35.457C26.883 35.4533 26.8935 35.4503 26.9033 35.4458L26.8281 35.4082C26.8419 35.4256 26.857 35.4419 26.8732 35.457Z" fill="#F6CD71"/>
<path d="M29.2467 27.8926H23.5195C24.335 30.4629 25.2764 32.9912 26.1804 35.5292C26.2104 35.479 26.2484 35.4339 26.2928 35.3957C26.454 35.2593 26.6368 35.3208 26.8242 35.41L26.8992 35.4475C27.0783 34.6909 27.3789 33.9756 27.627 33.2423C28.2319 31.4563 28.9274 29.7011 29.4686 27.8933H29.2475L29.2467 27.8926Z" fill="#F6CD71"/>
<defs>
<filter id="filter0_d_1396_2868" x="0" y="0" width="56" height="56.1523" filterUnits="userSpaceOnUse" color-interpolation-filters="sRGB">
<feFlood flood-opacity="0" result="BackgroundImageFix"/>
<feColorMatrix in="SourceAlpha" type="matrix" values="0 0 0 0 0 0 0 0 0 0 0 0 0 0 0 0 0 0 127 0" result="hardAlpha"/>
<feOffset dx="1" dy="1"/>
<feGaussianBlur stdDeviation="5"/>
<feComposite in2="hardAlpha" operator="out"/>
<feColorMatrix type="matrix" values="0 0 0 0 0 0 0 0 0 0 0 0 0 0 0 0 0 0 0.15 0"/>
<feBlend mode="normal" in2="BackgroundImageFix" result="effect1_dropShadow_1396_2868"/>
<feBlend mode="normal" in="SourceGraphic" in2="effect1_dropShadow_1396_2868" result="shape"/>
</filter>
</defs>
</svg>
