<svg width="56" height="57" viewBox="0 0 56 57" fill="none" xmlns="http://www.w3.org/2000/svg">
<g filter="url(#filter0_d_1396_2819)">
<rect x="9" y="9" width="36" height="36.1525" rx="4" fill="#FAFDFF"/>
<rect x="9.2" y="9.2" width="35.6" height="35.7525" rx="3.8" stroke="#00659E" stroke-width="0.4"/>
</g>
<path d="M27.1185 31.2696C27.0169 31.1493 26.9632 30.9915 26.9687 30.8296C26.9717 27.1769 26.9717 23.5237 26.9687 19.87C26.9645 19.0662 26.6821 18.2925 26.176 17.6975C25.6699 17.1026 24.9757 16.7284 24.2268 16.6469C23.8044 16.6034 23.3781 16.6545 22.9753 16.7969C22.5724 16.9393 22.2018 17.17 21.8872 17.4741C21.5726 17.7782 21.3208 18.1491 21.1481 18.563C20.9754 18.977 20.8855 19.4248 20.8841 19.878C20.8841 23.5531 20.8841 27.2279 20.8841 30.9024C20.8893 30.9549 20.8844 31.0079 20.8697 31.0582C20.8551 31.1086 20.8309 31.1552 20.7987 31.1952C19.9147 32.2448 19.5176 33.4735 19.7094 34.8751C19.9574 36.6862 20.9208 37.9038 22.5112 38.5686C22.8109 38.6941 23.133 38.7285 23.4394 38.8245H24.3729C24.4808 38.7509 24.6081 38.7741 24.7257 38.7445C26.3259 38.3734 27.4317 37.3694 27.9576 35.723C28.4835 34.0767 28.1606 32.5888 27.1185 31.2696ZM20.9178 34.6743C20.8009 33.6159 21.1073 32.7104 21.8115 31.9656C21.9094 31.8683 21.9864 31.7496 22.0373 31.6176C22.0883 31.4856 22.1119 31.3434 22.1067 31.2008C22.0992 27.4601 22.0992 23.7195 22.1067 19.9788C22.1067 18.9156 22.721 18.1428 23.6994 17.9668C24.6104 17.8069 25.5723 18.5444 25.7221 19.526C25.7494 19.704 25.7629 19.884 25.7626 20.0644C25.7626 21.9134 25.7626 23.7621 25.7626 25.6106C25.7626 27.4737 25.7678 29.3369 25.7581 31.2C25.7521 31.3426 25.7755 31.4849 25.8265 31.6169C25.8775 31.7488 25.9549 31.8673 26.0532 31.964C26.4388 32.3634 26.7178 32.8652 26.8617 33.4179C27.0055 33.9706 27.0089 34.5543 26.8717 35.1088C26.7344 35.6634 26.4613 36.169 26.0805 36.5736C25.6996 36.9782 25.2248 37.2672 24.7048 37.411C22.9383 37.923 21.1343 36.6166 20.9193 34.6743H20.9178Z" fill="#00659E"/>
<path d="M25.7037 34.7573C25.8101 34.3131 25.7658 33.843 25.5788 33.4303C25.3918 33.0176 25.0741 32.6888 24.6819 32.5022C24.6322 32.4859 24.5898 32.4511 24.5622 32.404C24.5347 32.357 24.524 32.301 24.5321 32.2462C24.5366 31.0622 24.5321 29.8783 24.5321 28.6943C24.5321 27.5103 24.5321 26.3408 24.5321 25.164C24.5379 25.0777 24.5305 24.991 24.5103 24.9072C24.4678 24.7536 24.3743 24.6218 24.2472 24.5365C24.1202 24.4513 23.9685 24.4184 23.8204 24.444C23.6761 24.4709 23.5457 24.5522 23.453 24.6733C23.3603 24.7943 23.3115 24.9469 23.3154 25.1032C23.3154 27.4786 23.3154 29.8537 23.3154 32.2286C23.3226 32.2897 23.3094 32.3515 23.2782 32.4033C23.247 32.4551 23.1997 32.4935 23.1446 32.5118C22.7931 32.6863 22.5027 32.9757 22.3154 33.3381C22.1281 33.7005 22.0535 34.1171 22.1026 34.5277C22.2232 35.4397 22.9513 36.1812 23.7702 36.2236C24.7014 36.2724 25.4902 35.6717 25.7037 34.7573ZM23.9297 34.9253C23.7702 34.9197 23.6185 34.8498 23.5053 34.7295C23.3922 34.6093 23.3259 34.4477 23.3199 34.2773C23.3253 34.107 23.3909 33.9451 23.5034 33.8243C23.616 33.7035 23.7673 33.6327 23.9267 33.6261C24.0864 33.6319 24.238 33.702 24.3512 33.8224C24.4644 33.9428 24.5306 34.1045 24.5366 34.2749C24.5312 34.4452 24.4656 34.6069 24.353 34.7276C24.2404 34.8483 24.0892 34.9189 23.9297 34.9253Z" fill="#00659E"/>
<path d="M32.0514 27.6765C32.0514 25.6979 32.0514 23.7193 32.0514 21.7407V21.4599C32.2529 21.6775 32.42 21.8599 32.59 22.0415C32.8695 22.3367 33.2373 22.3567 33.489 22.0935C33.7407 21.8303 33.7347 21.4183 33.4523 21.1151C32.9429 20.5674 32.4315 20.021 31.918 19.476C31.6109 19.1504 31.2663 19.156 30.9584 19.48C30.4504 20.0202 29.9435 20.5615 29.4376 21.1039C29.1499 21.4119 29.1274 21.8071 29.3799 22.0823C29.6324 22.3575 30.013 22.3383 30.3111 22.0223C30.4752 21.8479 30.637 21.6703 30.831 21.4623V21.7495C30.831 23.7062 30.831 25.663 30.831 27.6197C30.8249 27.706 30.8322 27.7928 30.8528 27.8765C30.8956 28.03 30.9893 28.1617 31.1165 28.2468C31.2436 28.3319 31.3954 28.3646 31.5435 28.3389C31.6889 28.313 31.8206 28.2315 31.9141 28.1097C32.0075 27.9878 32.0563 27.8339 32.0514 27.6765Z" fill="#00659E"/>
<path d="M35.0392 30.7256C34.8639 30.9104 34.6946 31.1016 34.4863 31.3296V31.0392C34.4863 29.0819 34.4863 27.1249 34.4863 25.1682C34.4925 25.082 34.486 24.9953 34.4668 24.9114C34.4249 24.7574 34.3319 24.6249 34.2052 24.5388C34.0785 24.4527 33.9268 24.4187 33.7784 24.4434C33.6338 24.4688 33.5028 24.5493 33.4094 24.6698C33.316 24.7904 33.2667 24.943 33.2704 25.0994C33.2704 27.078 33.2704 29.0566 33.2704 31.0352V31.3256C33.0614 31.0976 32.8959 30.9096 32.7198 30.728C32.4441 30.4384 32.0665 30.4288 31.8208 30.6992C31.5751 30.9696 31.5871 31.3616 31.8515 31.6463C32.3709 32.2058 32.8921 32.7623 33.415 33.3159C33.7057 33.6239 34.0548 33.6255 34.3455 33.3159C34.8689 32.7612 35.3898 32.2047 35.9082 31.6463C36.1802 31.3536 36.1846 30.9464 35.9292 30.6864C35.6737 30.4264 35.3051 30.4424 35.0392 30.7256Z" fill="#00659E"/>
<defs>
<filter id="filter0_d_1396_2819" x="0" y="0" width="56" height="56.1523" filterUnits="userSpaceOnUse" color-interpolation-filters="sRGB">
<feFlood flood-opacity="0" result="BackgroundImageFix"/>
<feColorMatrix in="SourceAlpha" type="matrix" values="0 0 0 0 0 0 0 0 0 0 0 0 0 0 0 0 0 0 127 0" result="hardAlpha"/>
<feOffset dx="1" dy="1"/>
<feGaussianBlur stdDeviation="5"/>
<feComposite in2="hardAlpha" operator="out"/>
<feColorMatrix type="matrix" values="0 0 0 0 0 0 0 0 0 0 0 0 0 0 0 0 0 0 0.15 0"/>
<feBlend mode="normal" in2="BackgroundImageFix" result="effect1_dropShadow_1396_2819"/>
<feBlend mode="normal" in="SourceGraphic" in2="effect1_dropShadow_1396_2819" result="shape"/>
</filter>
</defs>
</svg>
