<svg width="56" height="57" viewBox="0 0 56 57" fill="none" xmlns="http://www.w3.org/2000/svg">
<g filter="url(#filter0_d_1097_1824)">
<rect x="9" y="9" width="36" height="36.1525" rx="4" fill="#FAFDFF"/>
<rect x="9.2" y="9.2" width="35.6" height="35.7525" rx="3.8" stroke="#00659E" stroke-width="0.4"/>
</g>
<path d="M32.8295 31.2691C32.7279 31.1488 32.6741 30.991 32.6796 30.8291C32.6826 27.1764 32.6826 23.5232 32.6796 19.8695C32.6754 19.0657 32.3931 18.292 31.8869 17.697C31.3808 17.1021 30.6866 16.7279 29.9377 16.6464C29.5153 16.6029 29.0891 16.654 28.6862 16.7964C28.2833 16.9388 27.9127 17.1695 27.5981 17.4736C27.2835 17.7777 27.0318 18.1486 26.859 18.5625C26.6863 18.9765 26.5964 19.4243 26.595 19.8775C26.595 23.5526 26.595 27.2274 26.595 30.9019C26.6003 30.9544 26.5954 31.0074 26.5807 31.0578C26.566 31.1081 26.5418 31.1547 26.5096 31.1947C25.6256 32.2443 25.2286 33.473 25.4203 34.8746C25.6683 36.6857 26.6317 37.9033 28.2222 38.5681C28.5218 38.6937 28.844 38.7281 29.1504 38.8241H30.0838C30.1917 38.7505 30.3191 38.7737 30.4367 38.7441C32.0369 38.3729 33.1426 37.3689 33.6685 35.7226C34.1944 34.0762 33.8716 32.5883 32.8295 31.2691ZM26.6287 34.6738C26.5119 33.6154 26.8183 32.7099 27.5225 31.9651C27.6203 31.8678 27.6973 31.7491 27.7483 31.6171C27.7992 31.4851 27.8229 31.343 27.8176 31.2003C27.8101 27.4596 27.8101 23.719 27.8176 19.9783C27.8176 18.9151 28.4319 18.1424 29.4103 17.9664C30.3213 17.8064 31.2832 18.5439 31.4331 19.5255C31.4603 19.7035 31.4739 19.8835 31.4735 20.0639C31.4735 21.9129 31.4735 23.7616 31.4735 25.6101C31.4735 27.4732 31.4788 29.3364 31.469 31.1995C31.4631 31.3421 31.4864 31.4844 31.5374 31.6164C31.5884 31.7484 31.6658 31.8668 31.7642 31.9635C32.1498 32.3629 32.4288 32.8648 32.5726 33.4175C32.7164 33.9701 32.7199 34.5538 32.5826 35.1084C32.4453 35.6629 32.1722 36.1685 31.7914 36.5731C31.4106 36.9777 30.9358 37.2667 30.4157 37.4105C28.6492 37.9225 26.8452 36.6161 26.6302 34.6738H26.6287Z" fill="#00659E"/>
<path d="M20.5084 27.6755C20.5084 25.6969 20.5084 23.7183 20.5084 21.7397V21.4589C20.71 21.6765 20.877 21.8589 21.0471 22.0405C21.3265 22.3357 21.6943 22.3557 21.946 22.0925C22.1978 21.8293 22.1918 21.4173 21.9093 21.1141C21.3999 20.5664 20.8885 20.0201 20.3751 19.475C20.0679 19.1494 19.7233 19.155 19.4154 19.479C18.9075 20.0193 18.4005 20.5606 17.8946 21.1029C17.6069 21.4109 17.5845 21.8061 17.8369 22.0813C18.0894 22.3565 18.47 22.3373 18.7681 22.0213C18.9322 21.8469 19.094 21.6693 19.2881 21.4613V21.7485C19.2881 23.7053 19.2881 25.662 19.2881 27.6187C19.2819 27.705 19.2892 27.7918 19.3098 27.8755C19.3526 28.0291 19.4464 28.1607 19.5735 28.2458C19.7006 28.3309 19.8524 28.3636 20.0005 28.3379C20.146 28.312 20.2777 28.2306 20.3711 28.1087C20.4645 27.9869 20.5133 27.8329 20.5084 27.6755V27.6755Z" fill="#00659E"/>
<path d="M23.4962 30.7251C23.3209 30.9099 23.1516 31.1011 22.9433 31.3291V31.0387C22.9433 29.0814 22.9433 27.1244 22.9433 25.1677C22.9496 25.0815 22.943 24.9949 22.9239 24.9109C22.882 24.7569 22.789 24.6244 22.6623 24.5383C22.5356 24.4522 22.3838 24.4183 22.2354 24.4429C22.0908 24.4683 21.9598 24.5488 21.8664 24.6693C21.7731 24.7899 21.7237 24.9425 21.7275 25.0989C21.7275 27.0775 21.7275 29.0561 21.7275 31.0347V31.3251C21.5185 31.0971 21.3529 30.9091 21.1768 30.7275C20.9012 30.4379 20.5236 30.4283 20.2779 30.6987C20.0321 30.9691 20.0441 31.3611 20.3086 31.6459C20.828 32.2053 21.3492 32.7618 21.8721 33.3154C22.1627 33.6234 22.5118 33.625 22.8025 33.3154C23.3259 32.7607 23.8468 32.2042 24.3652 31.6459C24.6372 31.3531 24.6417 30.9459 24.3862 30.6859C24.1308 30.4259 23.7622 30.4419 23.4962 30.7251Z" fill="#00659E"/>
<path d="M35.7439 19.2426C35.3248 19.2362 34.9058 19.2362 34.4868 19.2426C34.3298 19.2457 34.1802 19.3145 34.0703 19.4342C33.9603 19.5539 33.8987 19.7149 33.8987 19.8826C33.8963 19.9672 33.9097 20.0515 33.938 20.1306C33.9664 20.2097 34.0091 20.282 34.0638 20.3433C34.1185 20.4046 34.1841 20.4537 34.2567 20.4878C34.3293 20.5219 34.4075 20.5402 34.4868 20.5417C34.6966 20.5473 34.9063 20.5417 35.1153 20.5417C35.3243 20.5417 35.5349 20.5465 35.7446 20.5417C35.824 20.5402 35.9022 20.5218 35.9749 20.4877C36.0476 20.4536 36.1132 20.4044 36.1679 20.343C36.2226 20.2816 36.2653 20.2092 36.2936 20.1301C36.3219 20.0509 36.3352 19.9665 36.3327 19.8818C36.3325 19.7141 36.2707 19.5532 36.1606 19.4337C36.0505 19.3141 35.9009 19.2455 35.7439 19.2426V19.2426Z" fill="#00659E"/>
<path d="M35.7439 24.4414C35.3249 24.4355 34.9058 24.4355 34.4868 24.4414C34.3298 24.4446 34.1803 24.5134 34.0703 24.633C33.9603 24.7527 33.8987 24.9137 33.8987 25.0814C33.8962 25.1661 33.9095 25.2505 33.9378 25.3297C33.9661 25.4089 34.0089 25.4813 34.0636 25.5426C34.1183 25.604 34.1839 25.6532 34.2565 25.6873C34.3292 25.7215 34.4075 25.7398 34.4868 25.7414C34.6898 25.7462 34.8929 25.7414 35.0959 25.7414C35.3116 25.7414 35.5281 25.7462 35.7446 25.7414C35.824 25.7398 35.9023 25.7215 35.9749 25.6873C36.0476 25.6532 36.1132 25.604 36.1679 25.5426C36.2226 25.4813 36.2653 25.4089 36.2936 25.3297C36.3219 25.2505 36.3352 25.1661 36.3327 25.0814C36.3328 24.9136 36.2711 24.7525 36.1609 24.6328C36.0508 24.5131 35.901 24.4443 35.7439 24.4414Z" fill="#00659E"/>
<path d="M35.7431 29.6412C35.3241 29.6359 34.9051 29.6359 34.486 29.6412C34.3292 29.6446 34.1798 29.7135 34.07 29.8331C33.9602 29.9528 33.8987 30.1136 33.8987 30.2812C33.8963 30.3659 33.9097 30.4503 33.9381 30.5294C33.9665 30.6086 34.0093 30.6809 34.0641 30.7422C34.1189 30.8035 34.1845 30.8526 34.2572 30.8866C34.3299 30.9207 34.4082 30.9389 34.4875 30.9404C34.6973 30.9452 34.9071 30.9404 35.1168 30.9404C35.3266 30.9404 35.5356 30.9404 35.7454 30.9404C35.8247 30.9387 35.903 30.9202 35.9756 30.886C36.0482 30.8518 36.1138 30.8026 36.1684 30.7411C36.223 30.6796 36.2657 30.6072 36.2939 30.5279C36.3221 30.4487 36.3353 30.3643 36.3327 30.2796C36.3323 30.1119 36.2704 29.9511 36.1601 29.8317C36.0498 29.7123 35.9001 29.6439 35.7431 29.6412Z" fill="#00659E"/>
<path d="M34.4966 23.1396C34.5978 23.1396 34.6989 23.1396 34.8008 23.1396C34.9027 23.1396 35.0173 23.1396 35.1252 23.1396C35.2045 23.1396 35.283 23.1228 35.3561 23.0902C35.4293 23.0575 35.4956 23.0098 35.5514 22.9496C35.6071 22.8894 35.6511 22.818 35.6808 22.7395C35.7106 22.661 35.7254 22.577 35.7245 22.4924C35.7259 22.4074 35.7114 22.323 35.6819 22.244C35.6524 22.1651 35.6085 22.0932 35.5527 22.0326C35.4969 21.972 35.4304 21.9238 35.357 21.891C35.2836 21.8581 35.2048 21.8412 35.1252 21.8412C34.9154 21.8364 34.7057 21.8372 34.4959 21.8412C34.4166 21.8412 34.3381 21.858 34.265 21.8906C34.1918 21.9232 34.1254 21.971 34.0697 22.0312C34.014 22.0914 33.97 22.1628 33.9402 22.2413C33.9105 22.3197 33.8957 22.4037 33.8966 22.4884C33.8952 22.5734 33.9097 22.6579 33.9392 22.7369C33.9688 22.8159 34.0128 22.8878 34.0686 22.9485C34.1245 23.0091 34.1911 23.0572 34.2646 23.09C34.3381 23.1228 34.417 23.1397 34.4966 23.1396Z" fill="#00659E"/>
<path d="M34.4996 28.3394C34.6008 28.3394 34.7027 28.3394 34.8038 28.3394C34.9192 28.3394 35.0338 28.3394 35.1484 28.3394C35.3053 28.3331 35.4536 28.2614 35.5614 28.1396C35.6693 28.0179 35.7281 27.8558 35.7253 27.6882C35.7269 27.5208 35.667 27.3593 35.5585 27.2385C35.45 27.1176 35.3014 27.047 35.1447 27.0418C34.9289 27.0354 34.7124 27.037 34.4959 27.0418C34.4163 27.0418 34.3375 27.0587 34.2641 27.0916C34.1907 27.1244 34.1242 27.1726 34.0684 27.2332C34.0126 27.2938 33.9686 27.3657 33.9391 27.4446C33.9097 27.5236 33.8952 27.608 33.8966 27.693C33.8958 27.7779 33.9108 27.8622 33.9408 27.9408C33.9708 28.0195 34.0152 28.0909 34.0713 28.1511C34.1274 28.2113 34.1942 28.2589 34.2678 28.2912C34.3413 28.3235 34.4201 28.3399 34.4996 28.3394Z" fill="#00659E"/>
<path d="M31.4147 34.7568C31.521 34.3126 31.4768 33.8425 31.2897 33.4298C31.1027 33.0171 30.785 32.6883 30.3928 32.5017C30.3432 32.4854 30.3007 32.4506 30.2732 32.4035C30.2457 32.3565 30.2349 32.3005 30.243 32.2457C30.2475 31.0617 30.243 29.8778 30.243 28.6938C30.243 27.5099 30.243 26.3403 30.243 25.1635C30.2488 25.0772 30.2415 24.9905 30.2213 24.9067C30.1787 24.7531 30.0852 24.6213 29.9582 24.5361C29.8312 24.4508 29.6794 24.4179 29.5313 24.4436C29.387 24.4704 29.2567 24.5518 29.1639 24.6728C29.0712 24.7938 29.0224 24.9464 29.0264 25.1027C29.0264 27.4781 29.0264 29.8532 29.0264 32.2281C29.0335 32.2892 29.0204 32.351 28.9891 32.4028C28.9579 32.4546 28.9106 32.493 28.8556 32.5113C28.5041 32.6858 28.2137 32.9752 28.0263 33.3376C27.839 33.7 27.7645 34.1166 27.8135 34.5272C27.9341 35.4392 28.6623 36.1808 29.4811 36.2232C30.4123 36.272 31.2012 35.6712 31.4147 34.7568ZM29.6407 34.9248C29.4811 34.9192 29.3294 34.8493 29.2163 34.729C29.1031 34.6088 29.0369 34.4472 29.0309 34.2768C29.0362 34.1065 29.1018 33.9446 29.2144 33.8238C29.327 33.703 29.4782 33.6322 29.6377 33.6256C29.7973 33.6314 29.949 33.7015 30.0621 33.8219C30.1753 33.9423 30.2415 34.104 30.2475 34.2744C30.2421 34.4447 30.1765 34.6064 30.0639 34.7271C29.9513 34.8478 29.8001 34.9184 29.6407 34.9248V34.9248Z" fill="#00659E"/>
<defs>
<filter id="filter0_d_1097_1824" x="0" y="0" width="56" height="56.1523" filterUnits="userSpaceOnUse" color-interpolation-filters="sRGB">
<feFlood flood-opacity="0" result="BackgroundImageFix"/>
<feColorMatrix in="SourceAlpha" type="matrix" values="0 0 0 0 0 0 0 0 0 0 0 0 0 0 0 0 0 0 127 0" result="hardAlpha"/>
<feOffset dx="1" dy="1"/>
<feGaussianBlur stdDeviation="5"/>
<feComposite in2="hardAlpha" operator="out"/>
<feColorMatrix type="matrix" values="0 0 0 0 0 0 0 0 0 0 0 0 0 0 0 0 0 0 0.15 0"/>
<feBlend mode="normal" in2="BackgroundImageFix" result="effect1_dropShadow_1097_1824"/>
<feBlend mode="normal" in="SourceGraphic" in2="effect1_dropShadow_1097_1824" result="shape"/>
</filter>
</defs>
</svg>
