<?xml version="1.0" encoding="utf-8"?>
<!-- Generator: Adobe Illustrator 24.1.2, SVG Export Plug-In . SVG Version: 6.00 Build 0)  -->
<svg version="1.0" id="Layer_1" xmlns="http://www.w3.org/2000/svg" xmlns:xlink="http://www.w3.org/1999/xlink" x="0px" y="0px"
	 viewBox="0 0 250 250" style="enable-background:new 0 0 250 250;" xml:space="preserve">
<style type="text/css">
	.st0{fill:#D53A27;}
	.st1{fill:#F6C14B;}
</style>
<g>
	<path class="st1" d="M244.3,227c-11.3-19.7-22.5-39.5-34-59.1C182.2,119.4,154,71,125.8,22.6c-0.3,0.1-0.5,0.2-0.7,0.3
		c-1.8,0.9-2.2,3-3.1,4.5c-5.5,9.2-10.9,18.5-16.3,27.8C72.6,112,39.5,168.9,6.4,225.8c-0.4,0.8-0.9,1.7-1.3,2.5
		c80.1,0,160.3,0,240.4,0C245.1,227.9,244.7,227.5,244.3,227z M14.8,222c37-63.3,73.5-126,110.4-189.2C162,96,198.6,158.6,235.5,222
		C161.8,222,88.9,222,14.8,222z"/>
	<path class="st1" d="M95.5,146.7c7.1,0.8,12.8,4.6,17.9,9.3c2.7,2.5,4.6,2.8,4.5-1.7c0-3.3,1.5-5.6,4.1-7.6
		c2.3-1.8,2.6-3.5-1.1-3.9c-3.4-0.4-6.6-1.7-9.5-3.6c-14.2-8.9-20.2-31.9,1.7-45.6c2-0.6,4.4-0.5,5.5-4.1c-2.9,1-5.2,1.1-6.9,2.7
		c-16.2,5-21.8,17.7-22.7,33.1c-0.3,5.4-2,8.3-6.6,11c-17.4,10.4-23,27.3-15.6,45.1c2.1-1.7,0.3-3.6,0.1-5.2
		C65.2,159.4,79.1,144.9,95.5,146.7z"/>
	<path class="st1" d="M133,181.8c-1.8-5.9-1.5-11.9-0.2-17.9c0.8-3.6,0.5-5.4-3.6-3.1c-2.1,1.2-4.3,1.9-6.8,1
		c-1.5-0.5-2.9-2.3-4.6-0.9c-2.2,1.8,0.2,3.6,0.6,5.1c2.8,10.4,0,19.3-7.2,26.7c-6.9,7-15.6,8.6-24.9,5.7c-2.9-0.9-5.7-2.4-8.5-3.6
		c-1,2.2,0.7,2.6,1.6,3.3c12.8,10.6,26.4,9.2,40,2c4.1-2.2,7.2-2.2,11.5,0.3c13.5,7.9,27,8.6,39.8-1.9c1.9-1.2,4.4-1.8,4.4-5.9
		c-2.6,1.8-4.4,3-6.2,4.3C151.7,202.3,137.6,196.4,133,181.8z"/>
	<path class="st1" d="M112.7,132.6c8.3-4.7,16.8-5,25,0.1c4.1,2.6,4.7-1.2,6.3-3c2.4-2.7-0.8-3.1-2.1-3.9
		c-11.8-7.4-25.8-6.5-37.4,2.4C107.4,129.7,107.2,135.8,112.7,132.6z"/>
	<path class="st1" d="M108.1,183.1c1.6,1,3.7,3.2,5-0.5c0.8-2.2,2.9-4.4-0.7-6.5c-8.6-4.9-12.3-12.8-12.1-22.7
		c0.1-4.6-3.7-3.4-5.9-3.9c-3.2-0.7-2.2,2.2-2.5,3.4C92,166.3,96.9,176.4,108.1,183.1z"/>
	<path class="st1" d="M142.4,183.9c11.8-6.9,17.6-20.1,14.9-35.2c-2.1,3.2-7.5-0.3-7.3,6.3c0.2,9.4-3.5,17.2-11.9,22
		c-4,2.3-1.2,4.9-0.3,7.1C139.1,187.2,141,184.7,142.4,183.9z"/>
	<path class="st1" d="M136.3,93.4c10.2,5.7,16.5,14,15.1,26.1c-1.2,10.6-7.3,18.3-17.3,22c-4.7,1.7-11.3,1.8-3.1,8.2
		c0.8,0.7,1.3,2.3,1.3,3.5c0,7,2.6,4.6,5.7,1.8c5-4.5,10.7-7.9,17.6-8.4c16.1-1.2,27.4,10.8,28,29.6c-0.9,1.7-2,3.9-0.5,5.1
		c1.1,0.9,1.8-1,1.6-2.4c4.7-20.3-0.4-33.1-17.7-43.3c-3.8-2.2-5.2-4.5-5.5-8.9c-1-15.8-6-29.2-22.7-34.6c-2.4-1.6-4.8-3-8.1-2.1
		C132.1,92.9,134.5,92.5,136.3,93.4z"/>
</g>
</svg>
