<svg width="36" height="36" viewBox="0 0 36 36" fill="none" xmlns="http://www.w3.org/2000/svg">
<g filter="url(#filter0_d_288_976)">
<circle cx="18" cy="17" r="14" fill="#DDDDDD"/>
</g>
<path d="M12.75 13.5H13.9167H23.25" stroke="#EC1747" stroke-width="1.5" stroke-linecap="round" stroke-linejoin="round"/>
<path d="M22.0837 13.5V21.6666C22.0837 21.976 21.9607 22.2728 21.742 22.4916C21.5232 22.7104 21.2264 22.8333 20.917 22.8333H15.0837C14.7742 22.8333 14.4775 22.7104 14.2587 22.4916C14.0399 22.2728 13.917 21.976 13.917 21.6666V13.5M15.667 13.5V12.3333C15.667 12.0239 15.7899 11.7271 16.0087 11.5083C16.2275 11.2895 16.5242 11.1666 16.8337 11.1666H19.167C19.4764 11.1666 19.7732 11.2895 19.992 11.5083C20.2107 11.7271 20.3337 12.0239 20.3337 12.3333V13.5" stroke="#EC1747" stroke-linecap="round" stroke-linejoin="round"/>
<path d="M16.833 16.4166V19.9166" stroke="#EC1747" stroke-linecap="round" stroke-linejoin="round"/>
<path d="M19.167 16.4166V19.9166" stroke="#EC1747" stroke-linecap="round" stroke-linejoin="round"/>
<defs>
<filter id="filter0_d_288_976" x="0" y="0" width="36" height="36" filterUnits="userSpaceOnUse" color-interpolation-filters="sRGB">
<feFlood flood-opacity="0" result="BackgroundImageFix"/>
<feColorMatrix in="SourceAlpha" type="matrix" values="0 0 0 0 0 0 0 0 0 0 0 0 0 0 0 0 0 0 127 0" result="hardAlpha"/>
<feOffset dy="1"/>
<feGaussianBlur stdDeviation="2"/>
<feComposite in2="hardAlpha" operator="out"/>
<feColorMatrix type="matrix" values="0 0 0 0 0 0 0 0 0 0 0 0 0 0 0 0 0 0 0.05 0"/>
<feBlend mode="normal" in2="BackgroundImageFix" result="effect1_dropShadow_288_976"/>
<feBlend mode="normal" in="SourceGraphic" in2="effect1_dropShadow_288_976" result="shape"/>
</filter>
</defs>
</svg>
