<svg version="1.0" id="Layer_1" xmlns="http://www.w3.org/2000/svg" xmlns:xlink="http://www.w3.org/1999/xlink" x="0px" y="0px"
	 viewBox="0 0 113.4 113.4" style="enable-background:new 0 0 113.4 113.4;" xml:space="preserve">
<g>
	<path d="M63.2,44.9l6.5-6.5c0.8-0.8,0.8-2,0-2.8l-3.5-3.5c-0.8-0.8-2-0.8-2.8,0l-6.5,6.5l-6.5-6.5c-0.8-0.8-2-0.8-2.8,0l-3.5,3.5
		c-0.8,0.8-0.8,2,0,2.8l6.5,6.5l-6.5,6.5c-0.8,0.8-0.8,2,0,2.8l3.5,3.5c0.8,0.8,2,0.8,2.8,0l6.5-6.5l6.5,6.5c0.8,0.8,2,0.8,2.8,0
		l3.5-3.5c0.8-0.8,0.8-2,0-2.8L63.2,44.9z"/>
	<g transform="translate(12.5, 8.4)">
		<path d="M22.7,74c-0.6-0.5-1.4-0.4-1.9,0.2c-0.1,0.1-0.2,0.2-0.3,0.3c-0.6,0.5-1.2,0.8-2,0.8c-2.2,0-4-1.8-4-4c0-2.2,1.8-4,4-4
			c0.8,0,1.5,0.2,2.2,0.7c0.6,0.4,1.4,0.3,1.8-0.4c0.4-0.6,0.3-1.4-0.4-1.8c-1.1-0.8-2.4-1.1-3.7-1.1c-3.6,0-6.6,2.9-6.6,6.6
			s2.9,6.6,6.6,6.6c1.4,0,2.7-0.5,3.8-1.4c0.2-0.2,0.4-0.4,0.6-0.6C23.4,75.4,23.3,74.5,22.7,74L22.7,74z"/>
		<path d="M57.8,74c-0.6-0.5-1.4-0.4-1.9,0.2c-0.1,0.1-0.2,0.2-0.3,0.3c-0.6,0.5-1.2,0.8-2,0.8c-2.2,0-4-1.8-4-4c0-2.2,1.8-4,4-4
			c0.8,0,1.5,0.2,2.2,0.7c0.6,0.4,1.4,0.3,1.8-0.4c0.4-0.6,0.3-1.4-0.4-1.8c-1.1-0.8-2.4-1.1-3.7-1.1c-3.6,0-6.6,2.9-6.6,6.6
			s2.9,6.6,6.6,6.6c1.4,0,2.7-0.5,3.8-1.4c0.2-0.2,0.4-0.4,0.6-0.6C58.5,75.4,58.4,74.5,57.8,74L57.8,74z"/>
		<path d="M44.4,64.7c-0.8,0-1.3,0.6-1.3,1.3v6.3l-4.9-7.1c-0.3-0.5-0.9-0.7-1.5-0.5c-0.6,0.2-0.9,0.7-0.9,1.2v10.6
			c0,0.8,0.6,1.3,1.3,1.3c0.8,0,1.3-0.6,1.3-1.3v-6.3l4.9,7.1c0.3,0.4,0.7,0.6,1,0.6c0.1,0,0.3,0,0.4-0.1c0.6-0.2,0.9-0.7,0.9-1.2
			V66C45.8,65.3,45.2,64.7,44.4,64.7z"/>
		<path d="M65.8,75.2h-3.1v-2.6h2.7c0.8,0,1.3-0.6,1.3-1.3c0-0.8-0.6-1.3-1.3-1.3h-2.7v-2.6h3.1c0.8,0,1.3-0.6,1.3-1.3
			s-0.6-1.3-1.3-1.3h-4.4c-0.8,0-1.3,0.6-1.3,1.3v10.6c0,0.8,0.6,1.3,1.3,1.3h4.4c0.1,0,0.1,0,0.2,0c0.7-0.1,1.1-0.7,1.1-1.3
			C67.1,75.8,66.4,75.2,65.8,75.2z"/>
		<path d="M73.8,75.3h-2.4V66c0-0.8-0.6-1.3-1.3-1.3c-0.8,0-1.3,0.6-1.3,1.3v10.6c0,0.8,0.6,1.3,1.3,1.3h3.7c0.8,0,1.3-0.6,1.3-1.3
			C75.1,75.8,74.5,75.3,73.8,75.3z"/>
		<path d="M30.7,65.7C30.7,65.6,30.6,65.6,30.7,65.7c-0.3-0.7-0.8-1-1.4-1c-0.7,0-1.2,0.4-1.4,0.9l0,0l-4,10.4
			c-0.3,0.7,0.1,1.4,0.8,1.7c0.7,0.3,1.4-0.1,1.7-0.8l0.7-1.7h4.5l0.7,1.7c0.2,0.6,0.7,0.8,1.2,0.8c0.2,0,0.3,0,0.5-0.1
			c0.7-0.3,1-1,0.8-1.7L30.7,65.7z M27.9,72.6l1.3-3.3l1.2,3.3H27.9z"/>
	</g>
</g>
</svg>