<?xml version="1.0" encoding="utf-8"?>
<!-- Generator: Adobe Illustrator 24.1.2, SVG Export Plug-In . SVG Version: 6.00 Build 0)  -->
<svg version="1.1" id="Outline" xmlns="http://www.w3.org/2000/svg" xmlns:xlink="http://www.w3.org/1999/xlink" x="0px" y="0px"
	 viewBox="0 0 512 512" style="enable-background:new 0 0 512 512;" xml:space="preserve">
<path d="M496.6,127.4c-13.9-14.1-36.6-14.2-50.7-0.2c-0.1,0.1-0.1,0.1-0.2,0.2L281.5,291.6c-13.9,14.1-36.6,14.2-50.7,0.2
	c-0.1-0.1-0.1-0.1-0.2-0.2L66.3,127.4c-13.9-14.1-36.6-14.2-50.7-0.2c-0.1,0.1-0.1,0.1-0.2,0.2c-13.9,14-13.9,36.6,0,50.6L180,342.5
	c42,41.9,110,41.9,152,0l164.6-164.6C510.5,163.9,510.5,141.3,496.6,127.4z"/>
</svg>
