<svg width="56" height="57" viewBox="0 0 56 57" fill="none" xmlns="http://www.w3.org/2000/svg">
<g filter="url(#filter0_d_39_99)">
<rect x="8" y="8" width="40" height="41" rx="10" fill="white"/>
<rect x="23.3499" y="12.2505" width="9.00227" height="0.500908" rx="0.250454" stroke="#2F6078" stroke-width="0.500908"/>
<path d="M23.5387 12.574V19.8214M23.5387 20.6037H32.1635M23.5387 20.6037V19.8214M23.5387 20.6037C23.7922 21.1689 24.6278 22.3746 25.9421 22.6763C26.2457 22.7899 26.4275 23.1077 26.4275 23.5251V25.1141M32.1635 12.574V19.8214M32.1635 20.6037V19.8214M32.1635 20.6037C31.9077 21.1285 31.062 22.3315 29.7261 22.7301C29.591 22.8107 29.3208 23.0824 29.3208 23.5251C29.3208 23.9678 29.3208 24.7689 29.3208 25.1141M23.5387 19.8214H32.1635" stroke="#2F6078" stroke-width="0.80644"/>
<rect x="25.5756" y="25.3718" width="4.57984" height="0.515545" rx="0.257772" stroke="#2F6078" stroke-width="0.515545"/>
<path d="M26.056 26.0591L26.2417 28.979H29.4918L29.6672 26.0591" stroke="#2F6078" stroke-width="0.80644"/>
<path d="M27.0327 29.0055V35.7925L28.7429 34.1092V29.0055M26.19 29.0055L21.28 41.4671C20.761 42.6447 20.6033 45 24.1242 45C27.6451 45 31.2598 45 32.627 45C33.6949 44.8403 35.5791 43.9102 34.5731 41.4671C33.5671 39.0241 31.4794 33.8824 30.5612 31.617C30.5383 31.4015 30.6163 30.9683 31.1116 30.9601C31.6068 30.9518 31.8613 30.9566 31.9267 30.9601C31.9267 30.9601 32.0537 31.2438 32.2104 31.2438C32.3671 31.2438 32.3407 30.9281 32.4941 30.9601C32.5945 30.9811 32.5773 31.1458 32.6798 31.1458C32.7824 31.1458 32.7776 31.0129 32.8656 30.9601C33.0521 30.8481 33.4227 30.9601 33.4227 30.9601C33.7322 30.8053 33.8684 30.0975 33.4227 29.7013C33.4227 29.7013 33.0521 29.8133 32.8656 29.7013C32.7776 29.6486 32.7824 29.5156 32.6798 29.5156C32.5773 29.5156 32.5945 29.6804 32.4941 29.7013C32.3407 29.7334 32.3671 29.4176 32.2104 29.4176C32.0537 29.4176 31.9267 29.7013 31.9267 29.7013H30.2036C29.9663 29.5913 29.4938 29.2659 29.502 28.845" stroke="#2F6078" stroke-width="0.80644"/>
<rect x="8.75" y="8.75" width="38.5" height="39.5" rx="9.25" stroke="#2F6078" stroke-width="1.5"/>
</g>
<defs>
<filter id="filter0_d_39_99" x="0" y="0" width="56" height="57" filterUnits="userSpaceOnUse" color-interpolation-filters="sRGB">
<feFlood flood-opacity="0" result="BackgroundImageFix"/>
<feColorMatrix in="SourceAlpha" type="matrix" values="0 0 0 0 0 0 0 0 0 0 0 0 0 0 0 0 0 0 127 0" result="hardAlpha"/>
<feOffset/>
<feGaussianBlur stdDeviation="4"/>
<feComposite in2="hardAlpha" operator="out"/>
<feColorMatrix type="matrix" values="0 0 0 0 0 0 0 0 0 0 0 0 0 0 0 0 0 0 0.25 0"/>
<feBlend mode="normal" in2="BackgroundImageFix" result="effect1_dropShadow_39_99"/>
<feBlend mode="normal" in="SourceGraphic" in2="effect1_dropShadow_39_99" result="shape"/>
</filter>
</defs>
</svg>
