<svg width="56" height="57" viewBox="0 0 56 57" fill="none" xmlns="http://www.w3.org/2000/svg">
<g filter="url(#filter0_d_39_3)">
<rect x="8" y="8" width="40" height="41" rx="10" fill="white"/>
<path d="M29.2594 29.0385C29.3659 29.0492 30.0314 29.5165 30.3508 29.7488L33.8378 29.8292C34.4988 29.9588 35.8049 30.6065 35.741 32.1612C35.6771 33.7159 35.188 34.3008 34.0374 34.6273C32.4925 34.9303 31.094 33.2623 30.9231 32.8448L29.3792 30.7406L28.5807 30.2045" stroke="#2F6078" stroke-width="0.8"/>
<path d="M22.6049 39.6802H26.6775M25.0807 38.1657H22.0859V40.9534L22.9243 41.6235H26.6775L27.2631 40.9534V38.1657H25.0807ZM25.0807 38.1657V37.4657" stroke="#2F6078" stroke-width="0.8"/>
<path d="M22.7251 41.5219H21.7258L21.012 44.0582M21.012 44.0582V45.1878H30.4849M21.012 44.0582H30.4849M26.8121 41.5219H27.3789V42.025H28.8741" stroke="#2F6078" stroke-width="0.8"/>
<path d="M25.0311 25.8115C25.14 25.7659 25.3846 25.6575 25.5806 25.5905M28.3943 26.8539L26.3048 25.3528C26.1342 25.4067 25.8447 25.5002 25.5806 25.5905M28.3943 26.8539L27.2098 28.7436L24.5081 27.1353M28.3943 26.8539V26.3714M25.5806 25.5905L26.3048 24.6559L28.3943 25.8889V26.3714M27.3695 29.4406L28.6206 27.8189C28.8335 28.1227 29.2594 28.7517 29.2594 28.8375C29.2594 28.9232 28.6294 29.9186 28.3144 30.4055H27.3695M28.3943 26.3714H29.7651L30.2443 25.8889H30.4439M34.5845 26.3714V25.8889H30.4439M34.5845 26.3714H34.8831V29.9912M34.5845 26.3714V27.2426H30.6835L30.3108 27.0683V26.5724H31.2691V26.291H30.4439V25.8889" stroke="#2F6078" stroke-width="0.8"/>
<path d="M20.6713 12.2868V11.5964H21.7956V12.2868M20.6713 12.2868V12.7288L19.606 13.8015V22.9792L19.2611 23.4795M20.6713 12.2868H21.7956M21.7956 12.2868V12.7288L22.8609 13.8015V25.6014L23.2762 25.8314M18.5057 24.5755L20.6011 26.9335V28.053M18.5057 24.5755L19.2611 23.4795M18.5057 24.5755L17.5474 24.0394M17.3676 22.817L17.0116 22.5771M19.2611 23.4795L17.6805 22.3373L16.7888 23.7043L17.5474 24.0394M16.6557 25.0044L17.5474 24.0394M17.0116 22.5771L16.6557 22.3373L15.8571 23.5703L16.1911 23.8081L17.0116 22.5771ZM23.2762 25.8314L23.9016 24.9393L25.1696 25.9539L23.6236 28.6477L22.234 27.7381L23.0074 26.3232M23.2762 25.8314L23.0074 26.3232M23.0074 26.3232L22.4702 25.9539L21.6067 27.1086V28.053H19.7418M19.7418 28.053H22.3591V28.7148H19.7418V28.053ZM20.4969 29.8427H20.0096V30.1375H18.5988V30.4324H17.9999V29.9231H18.2794V29.3602H17.9999V28.8375H19.5039V29.0385H20.0096H22.0459V29.8427H21.6146M20.4969 29.8427C20.5499 30.0174 20.5465 30.4488 20.109 30.7761C19.5621 31.1853 18.4993 31.6739 18.4993 33.3357C18.4993 34.9975 19.7153 35.9246 21.1223 35.9246C21.8669 35.9246 22.7891 35.4739 23 35.3333M20.4969 29.8427H21.6146M21.6146 29.8427C21.5927 30.0853 21.6422 30.6117 22.0157 30.7761C22.3892 30.9405 22.6183 31.0459 22.6861 31.0781" stroke="#2F6078" stroke-width="0.8"/>
<path d="M28.2631 34.9683C30.8152 35.9421 38.6331 35.7124 40.2109 34.6487M28.2631 34.9683C28.2569 37.2928 28.4979 42.2184 29.5124 43.3239H30.5517M28.2631 34.9683C29.0357 34.5528 30.4112 34.2386 32.0355 34.0764C33.0868 34.8362 34.2008 34.8232 35.2839 33.9626C37.005 34.008 38.7511 34.2219 40.2109 34.6487M40.2109 34.6487C40.166 38.5215 40.3957 41.0443 39.1946 43.3239H38.1975M30.5517 43.3239V45.4034H38.1975C38.1975 44.8474 38.1975 44.0983 38.1975 43.3239M30.5517 43.3239V39.8254C30.5352 39.5572 30.6205 39.0207 31.093 39.0207C31.5654 39.0207 35.6672 39.0207 37.659 39.0207C37.8385 39.0382 38.1975 39.1922 38.1975 39.6679C38.1975 39.9893 38.1975 41.7117 38.1975 43.3239M30.8523 42.4665H37.8272M30.8523 43.6987H36.2568" stroke="#2F6078" stroke-width="0.8"/>
<mask id="path-9-inside-1_39_3" fill="white">
<ellipse cx="37.246" cy="43.555" rx="0.724004" ry="0.729084"/>
</mask>
<path d="M37.17 43.555C37.17 43.5211 37.1987 43.4841 37.246 43.4841V45.0841C38.0929 45.0841 38.77 44.3942 38.77 43.555H37.17ZM37.246 43.4841C37.2932 43.4841 37.322 43.5211 37.322 43.555H35.722C35.722 44.3942 36.399 45.0841 37.246 45.0841V43.4841ZM37.322 43.555C37.322 43.5889 37.2932 43.6259 37.246 43.6259V42.0259C36.399 42.0259 35.722 42.7158 35.722 43.555H37.322ZM37.246 43.6259C37.1987 43.6259 37.17 43.5889 37.17 43.555H38.77C38.77 42.7158 38.0929 42.0259 37.246 42.0259V43.6259Z" fill="#2F6078" mask="url(#path-9-inside-1_39_3)"/>
<rect x="31.2704" y="44.417" width="0.993786" height="0.418957" stroke="#2F6078" stroke-width="0.418957"/>
<rect x="22.9642" y="29.2402" width="4.05409" height="7.91124" stroke="#2F6078" stroke-width="0.8"/>
<rect x="23.4504" y="29.73" width="3.10835" height="5.37483" stroke="#2F6078" stroke-width="0.8"/>
<rect x="23.4504" y="34.1031" width="3.10835" height="1.00172" stroke="#2F6078" stroke-width="0.8"/>
<mask id="path-15-inside-2_39_3" fill="white">
<ellipse cx="26.3556" cy="36.4251" rx="0.676435" ry="0.681182"/>
</mask>
<path d="M26.2321 36.4251C26.2321 36.3647 26.2821 36.3063 26.3556 36.3063V37.9063C27.1763 37.9063 27.8321 37.2378 27.8321 36.4251H26.2321ZM26.3556 36.3063C26.4292 36.3063 26.4792 36.3647 26.4792 36.4251H24.8792C24.8792 37.2378 25.535 37.9063 26.3556 37.9063V36.3063ZM26.4792 36.4251C26.4792 36.4854 26.4292 36.5439 26.3556 36.5439V34.9439C25.535 34.9439 24.8792 35.6123 24.8792 36.4251H26.4792ZM26.3556 36.5439C26.2821 36.5439 26.2321 36.4854 26.2321 36.4251H27.8321C27.8321 35.6123 27.1763 34.9439 26.3556 34.9439V36.5439Z" fill="#2F6078" mask="url(#path-15-inside-2_39_3)"/>
<rect x="23.3304" y="36.3182" width="0.569994" height="0.471107" stroke="#2F6078" stroke-width="0.471107"/>
<mask id="path-18-inside-3_39_3" fill="white">
<ellipse cx="25.9854" cy="26.5189" rx="0.665454" ry="0.670124"/>
</mask>
<path d="M25.8509 26.5189C25.8509 26.4524 25.9058 26.389 25.9854 26.389V27.989C26.8 27.989 27.4509 27.3255 27.4509 26.5189H25.8509ZM25.9854 26.389C26.065 26.389 26.12 26.4524 26.12 26.5189H24.52C24.52 27.3255 25.1708 27.989 25.9854 27.989V26.389ZM26.12 26.5189C26.12 26.5853 26.065 26.6488 25.9854 26.6488V25.0488C25.1708 25.0488 24.52 25.7122 24.52 26.5189H26.12ZM25.9854 26.6488C25.9058 26.6488 25.8509 26.5853 25.8509 26.5189H27.4509C27.4509 25.7122 26.8 25.0488 25.9854 25.0488V26.6488Z" fill="#2F6078" mask="url(#path-18-inside-3_39_3)"/>
<rect x="8.75" y="8.75" width="38.5" height="39.5" rx="9.25" stroke="#2F6078" stroke-width="1.5"/>
</g>
<defs>
<filter id="filter0_d_39_3" x="0" y="0" width="56" height="57" filterUnits="userSpaceOnUse" color-interpolation-filters="sRGB">
<feFlood flood-opacity="0" result="BackgroundImageFix"/>
<feColorMatrix in="SourceAlpha" type="matrix" values="0 0 0 0 0 0 0 0 0 0 0 0 0 0 0 0 0 0 127 0" result="hardAlpha"/>
<feOffset/>
<feGaussianBlur stdDeviation="4"/>
<feComposite in2="hardAlpha" operator="out"/>
<feColorMatrix type="matrix" values="0 0 0 0 0 0 0 0 0 0 0 0 0 0 0 0 0 0 0.25 0"/>
<feBlend mode="normal" in2="BackgroundImageFix" result="effect1_dropShadow_39_3"/>
<feBlend mode="normal" in="SourceGraphic" in2="effect1_dropShadow_39_3" result="shape"/>
</filter>
</defs>
</svg>
