<svg width="56" height="57" viewBox="0 0 56 57" fill="none" xmlns="http://www.w3.org/2000/svg">
<g filter="url(#filter0_d_1097_1836)">
<rect x="9" y="9" width="36" height="36.1525" rx="4" fill="#FAFDFF"/>
<rect x="9.2" y="9.2" width="35.6" height="35.7525" rx="3.8" stroke="#00659E" stroke-width="0.4"/>
</g>
<g clip-path="url(#clip0_1097_1836)">
<path d="M33.2408 31.1127C33.0658 29.4136 32.5206 27.866 31.5177 26.5206C30.1491 24.684 28.749 22.878 27.3669 21.0532C26.5121 19.9322 25.6539 18.8147 24.8058 17.6891C24.6824 17.5269 24.6106 17.5222 24.5153 17.6949C24.4902 17.7324 24.4628 17.7681 24.4334 17.8019C22.3378 20.5491 20.2535 23.3057 18.1422 26.04C16.308 28.416 15.5766 31.0927 16.2553 34.0773C17.063 37.6259 19.2315 39.8785 22.5857 40.8667C22.993 40.9842 23.4181 41.0006 23.8197 41.131H25.4419C25.8581 41.0135 26.2889 40.9865 26.7084 40.8796C28.7392 40.3514 30.5192 39.0718 31.7197 37.2767C32.9203 35.4816 33.4606 33.2923 33.2408 31.1127V31.1127ZM24.6521 39.4825C22.9653 39.4766 21.336 38.839 20.0588 37.6848C18.7816 36.5306 17.9406 34.9359 17.6879 33.189C17.3794 31.0598 17.855 29.1198 19.1216 27.4313C20.903 25.0518 22.7204 22.7029 24.5175 20.3364C24.6364 20.179 24.688 20.1989 24.7957 20.3364C26.5906 22.7018 28.4125 25.0507 30.1939 27.4289C33.4214 31.7366 31.2697 38.083 26.1812 39.2968C25.679 39.4167 25.1661 39.4805 24.651 39.4872L24.6521 39.4825Z" fill="#00659E"/>
<path d="M37.023 16.9206C36.0885 15.7032 35.172 14.4706 34.2521 13.2415C34.2016 13.1745 34.113 13.124 34.1253 13.0171H34.0199C34.0333 13.1264 33.9436 13.1745 33.8931 13.2415C32.8891 14.5869 31.8637 15.9147 30.8799 17.2778C30.1866 18.239 29.9824 19.3517 30.2348 20.5221C30.7082 22.7405 32.6165 24.0718 34.7737 23.7229C36.5249 23.4385 37.9687 21.6783 38.0001 19.8194C38.0214 18.7609 37.6741 17.7304 37.023 16.9206ZM34.1657 15.8019C34.7804 16.6315 35.4075 17.447 36.0144 18.286C36.2828 18.6835 36.4267 19.1586 36.4262 19.6455C36.4263 20.2768 36.197 20.8845 35.7849 21.3452C35.3728 21.8059 34.8087 22.0851 34.2072 22.126C33.0338 22.2223 31.9523 21.2929 31.7571 20.0344C31.7015 19.7286 31.7071 19.4141 31.7735 19.1107C31.84 18.8073 31.9658 18.5217 32.1431 18.2719C32.7365 17.4364 33.3658 16.6268 33.9761 15.8043C34.0468 15.7197 34.086 15.695 34.1657 15.8019Z" fill="#00659E"/>
<path d="M24.6541 37.0361C24.6541 36.8258 24.6462 36.6155 24.6541 36.4063C24.6619 36.2524 24.6384 36.1854 24.4634 36.1807C24.194 36.1713 23.9266 36.1283 23.6669 36.0526C21.9898 35.5744 20.8769 34.1455 20.7356 32.2667C20.7243 32.1174 20.6963 32.0657 20.546 32.0704C20.1455 32.081 19.745 32.0845 19.3445 32.0704C19.1661 32.0622 19.1504 32.1386 19.1549 32.2913C19.1692 32.7654 19.2423 33.2354 19.3725 33.6896C19.6951 34.8471 20.3552 35.8699 21.2605 36.6147C22.1657 37.3596 23.2707 37.7892 24.4207 37.8434C24.5969 37.8516 24.672 37.8152 24.653 37.6084C24.6339 37.4016 24.6541 37.2288 24.6541 37.0361Z" fill="#00659E"/>
</g>
<defs>
<filter id="filter0_d_1097_1836" x="0" y="0" width="56" height="56.1523" filterUnits="userSpaceOnUse" color-interpolation-filters="sRGB">
<feFlood flood-opacity="0" result="BackgroundImageFix"/>
<feColorMatrix in="SourceAlpha" type="matrix" values="0 0 0 0 0 0 0 0 0 0 0 0 0 0 0 0 0 0 127 0" result="hardAlpha"/>
<feOffset dx="1" dy="1"/>
<feGaussianBlur stdDeviation="5"/>
<feComposite in2="hardAlpha" operator="out"/>
<feColorMatrix type="matrix" values="0 0 0 0 0 0 0 0 0 0 0 0 0 0 0 0 0 0 0.15 0"/>
<feBlend mode="normal" in2="BackgroundImageFix" result="effect1_dropShadow_1097_1836"/>
<feBlend mode="normal" in="SourceGraphic" in2="effect1_dropShadow_1097_1836" result="shape"/>
</filter>
<clipPath id="clip0_1097_1836">
<rect width="22" height="28.1186" fill="white" transform="translate(16 13.0171)"/>
</clipPath>
</defs>
</svg>
