<svg width="56" height="57" viewBox="0 0 56 57" fill="none" xmlns="http://www.w3.org/2000/svg">
<g filter="url(#filter0_d_49_88)">
<rect x="8" y="8" width="40" height="41" rx="10" fill="white"/>
<g clip-path="url(#clip0_49_88)">
<path d="M35.6707 23.2004C36.4088 23.3848 36.87 23.7998 37.0392 24.5222C37.0699 24.6605 37.0699 24.8142 37.0699 24.9525C37.0699 26.2896 37.0699 27.6267 37.0699 28.9484C37.0699 30.0396 36.3934 30.7159 35.3017 30.7159C33.9947 30.7159 32.7031 30.7159 31.3961 30.7159C31.2885 30.7159 31.1654 30.7159 31.0117 30.7159C31.0117 30.931 31.0117 31.1308 31.0117 31.3306C31.0117 32.2835 31.0117 33.2364 31.0117 34.2046C31.0117 34.5427 30.8733 34.7579 30.5504 34.8655C28.9359 35.4188 27.3214 35.972 25.7069 36.5407C25.2148 36.7098 24.9534 36.51 24.9534 36.0028C24.9534 33.636 24.9534 31.2691 24.9534 28.9177C24.9534 28.6718 24.8765 28.5027 24.7228 28.3337C22.9545 26.2896 21.1862 24.2301 19.418 22.1707C19.2488 21.9863 19.0951 21.848 18.8337 21.7865C18.1571 21.6328 17.7112 20.9873 17.7573 20.2803C17.7881 19.6194 18.3109 19.0508 18.9721 18.9432C19.1104 18.9125 19.2642 18.9125 19.418 18.9125C25.0764 18.9125 30.7195 18.9125 36.378 18.9125C37.0392 18.9125 37.5774 19.1276 37.8849 19.7424C38.3154 20.557 37.931 21.4945 37.0699 21.8018C36.9777 21.8326 36.87 21.848 36.8239 21.9248C36.4395 22.309 36.0705 22.7394 35.6707 23.2004ZM20.4482 21.848C20.5558 21.9863 20.6327 22.0785 20.7096 22.1553C22.3548 24.0765 24.0155 25.9976 25.6607 27.9033C25.8452 28.1031 25.9068 28.3183 25.9068 28.5796C25.8914 30.7312 25.9068 32.8829 25.9068 35.0345C25.9068 35.1421 25.9068 35.2497 25.9068 35.3727C25.9836 35.3727 26.0144 35.388 26.0451 35.3727C27.3214 34.9423 28.5822 34.4966 29.8431 34.0509C29.92 34.0202 30.0122 33.8665 30.0122 33.7743C30.0122 32.0376 30.0122 30.3163 30.0122 28.5796C30.0122 28.3798 30.1199 28.1646 30.2121 27.9802C30.3044 27.8111 30.4581 27.6882 30.5811 27.5498C31.8881 26.0591 33.1797 24.5529 34.4867 23.0621C34.825 22.6779 35.1633 22.2783 35.5323 21.848C30.4889 21.848 25.507 21.848 20.4482 21.848ZM27.9364 20.8336C30.7657 20.8336 33.5949 20.8336 36.4088 20.8336C36.501 20.8336 36.5933 20.8336 36.6855 20.8336C36.9315 20.8182 37.0546 20.6645 37.0699 20.4186C37.0853 20.0651 36.87 19.8807 36.4241 19.8807C30.7349 19.8807 25.0611 19.8807 19.3718 19.8807C19.3257 19.8807 19.295 19.8807 19.2488 19.8807C18.9259 19.8961 18.7107 20.1113 18.726 20.3879C18.7414 20.6645 18.9567 20.849 19.2642 20.849C22.1549 20.8336 25.0457 20.8336 27.9364 20.8336ZM31.0271 29.7476C31.1501 29.7476 31.2577 29.7476 31.3653 29.7476C32.6416 29.7476 33.9024 29.7476 35.1787 29.7476C35.886 29.7476 36.1012 29.5324 36.1012 28.8255C36.1012 27.5806 36.1012 26.3203 36.1012 25.0754C36.1012 24.9679 36.1012 24.8449 36.0859 24.7373C36.009 24.2455 35.1787 23.9074 34.7942 24.2148C34.5482 24.4146 34.3637 24.6912 34.1023 24.9832C34.3176 24.9832 34.4406 24.9832 34.5636 24.9832C35.1171 24.9832 35.2555 25.1215 35.2555 25.6748C35.2555 26.5355 35.2555 27.3962 35.2555 28.2568C35.2555 28.8101 35.1171 28.9484 34.579 28.9484C33.5026 28.9484 32.4417 28.9484 31.3653 28.9484C31.2577 28.9484 31.1501 28.9484 31.0271 28.9484C31.0271 29.2404 31.0271 29.471 31.0271 29.7476ZM31.5345 27.9648C32.4878 27.9648 33.3796 27.9648 34.2715 27.9648C34.2715 27.2886 34.2715 26.6431 34.2715 25.9822C33.9639 25.9822 33.6872 25.9822 33.395 25.9822C33.3181 25.9822 33.2259 26.0129 33.1797 26.0744C32.6262 26.6892 32.1034 27.3039 31.5345 27.9648Z" fill="#2F6078"/>
<path d="M23.0314 40.014C22.0934 40.014 21.3246 39.2609 21.3092 38.3234C21.2939 37.3859 22.0781 36.5867 23.016 36.5867C23.954 36.5867 24.7382 37.3705 24.7228 38.308C24.7382 39.2609 23.9847 40.014 23.0314 40.014ZM23.7694 38.3387C23.7848 37.9391 23.4773 37.601 23.0775 37.5857C22.647 37.5703 22.3241 37.8623 22.3087 38.2773C22.2933 38.6922 22.6162 39.0303 23.016 39.0303C23.4158 39.0457 23.7541 38.723 23.7694 38.3387Z" fill="#2F6078"/>
<path d="M27.183 41.6123C27.183 42.5652 26.4449 43.3183 25.507 43.3337C24.5536 43.349 23.7695 42.5959 23.7695 41.6431C23.7695 40.7056 24.5229 39.9371 25.4455 39.9217C26.4142 39.9064 27.183 40.6595 27.183 41.6123ZM24.7535 41.6277C24.7535 42.0273 25.0611 42.35 25.4608 42.3654C25.8606 42.3808 26.2143 42.0273 26.2143 41.6277C26.2143 41.2281 25.876 40.89 25.4608 40.89C25.0611 40.9054 24.7535 41.2281 24.7535 41.6277Z" fill="#2F6078"/>
<path d="M32.8261 40.014C31.8728 40.014 31.1039 39.2455 31.1039 38.2926C31.1039 37.3551 31.8728 36.5867 32.8107 36.5867C33.7487 36.5867 34.5329 37.3705 34.5329 38.308C34.5329 39.2455 33.764 39.9986 32.8261 40.014ZM32.088 38.308C32.088 38.7076 32.4109 39.0303 32.8107 39.0303C33.2259 39.0303 33.5488 38.7076 33.5488 38.2926C33.5488 37.893 33.2412 37.5703 32.8261 37.5703C32.4109 37.5703 32.088 37.893 32.088 38.308Z" fill="#2F6078"/>
<path d="M24.1846 18.1132C23.9078 18.1132 23.6464 18.1132 23.3697 18.1132C23.0314 18.0979 22.8469 17.9288 22.8315 17.5907C22.8161 17.0528 22.8161 16.4995 22.8315 15.9616C22.8315 15.6234 23.0314 15.439 23.3697 15.439C23.9078 15.4236 24.4614 15.4236 24.9996 15.439C25.3378 15.4544 25.507 15.6388 25.5224 15.9769C25.5224 16.5148 25.5224 17.0528 25.5224 17.5753C25.5224 17.9288 25.3378 18.1132 24.9688 18.1132C24.7228 18.1132 24.4614 18.1132 24.1846 18.1132ZM24.5229 17.1142C24.5229 16.8683 24.5229 16.6532 24.5229 16.438C24.2769 16.438 24.0462 16.438 23.8463 16.438C23.8463 16.6839 23.8463 16.8991 23.8463 17.1142C24.077 17.1142 24.2923 17.1142 24.5229 17.1142Z" fill="#2F6078"/>
<path d="M26.5987 16.7609C26.5987 16.4996 26.5987 16.2383 26.5987 15.977C26.6141 15.6389 26.7832 15.4391 27.1061 15.4238C27.6597 15.4084 28.2132 15.4084 28.7667 15.4238C29.0897 15.4391 29.2742 15.6236 29.2742 15.9463C29.2895 16.4996 29.2895 17.0529 29.2742 17.6062C29.2588 17.9289 29.0743 18.098 28.7514 18.1133C28.2132 18.1287 27.6597 18.1287 27.1215 18.1133C26.7832 18.1133 26.5987 17.9135 26.5987 17.5754C26.5987 17.2988 26.5987 17.0221 26.5987 16.7609ZM28.2901 16.4227C28.0441 16.4227 27.8288 16.4227 27.5982 16.4227C27.5982 16.6686 27.5982 16.8838 27.5982 17.1143C27.8288 17.1143 28.0441 17.1143 28.2901 17.1143C28.2901 16.8838 28.2901 16.6686 28.2901 16.4227Z" fill="#2F6078"/>
<path d="M31.6575 18.1132C31.3807 18.1132 31.1193 18.1132 30.8425 18.1132C30.5196 18.0979 30.3351 17.9134 30.3351 17.606C30.3197 17.0528 30.3197 16.4995 30.3351 15.9462C30.3351 15.6388 30.535 15.439 30.8579 15.439C31.3961 15.4236 31.9496 15.4236 32.4878 15.439C32.8261 15.439 33.0106 15.6234 33.026 15.9769C33.0414 16.5148 33.0414 17.0681 33.026 17.606C33.0106 17.9442 32.8261 18.1286 32.4878 18.1286C32.211 18.1132 31.9343 18.1132 31.6575 18.1132ZM32.0111 17.1142C32.0111 16.8683 32.0111 16.6378 32.0111 16.4226C31.7651 16.4226 31.5499 16.4226 31.3346 16.4226C31.3346 16.6685 31.3346 16.8837 31.3346 17.1142C31.5652 17.1142 31.7805 17.1142 32.0111 17.1142Z" fill="#2F6078"/>
<path d="M27.0782 13.3431C27.0782 13.6198 27.0936 13.9118 27.0782 14.1884C27.0628 14.4958 26.8783 14.6802 26.5861 14.6802C26.0326 14.6956 25.4791 14.6956 24.9255 14.6802C24.6026 14.6802 24.4181 14.4958 24.4027 14.173C24.3873 13.6198 24.3873 13.0665 24.4027 12.5132C24.4181 12.1904 24.6026 12.006 24.9255 11.9907C25.4791 11.9753 26.0326 11.9753 26.5861 11.9907C26.9091 12.006 27.0782 12.1904 27.0936 12.5132C27.0782 12.7898 27.0782 13.0665 27.0782 13.3431ZM25.3868 13.6966C25.6174 13.6966 25.8481 13.6966 26.0787 13.6966C26.0787 13.4507 26.0787 13.2355 26.0787 13.0204C25.8327 13.0204 25.6174 13.0204 25.3868 13.0204C25.3868 13.2509 25.3868 13.4661 25.3868 13.6966Z" fill="#2F6078"/>
<path d="M28.4476 13.297C28.4476 13.0357 28.4476 12.7745 28.4476 12.5132C28.463 12.1904 28.6167 11.9907 28.9396 11.9907C29.4932 11.9753 30.0467 11.9753 30.6003 11.9907C30.9232 12.006 31.1077 12.1751 31.1077 12.4978C31.1231 13.0511 31.1231 13.6044 31.1077 14.1577C31.1077 14.4804 30.9232 14.6649 30.6003 14.6649C30.0467 14.6802 29.4932 14.6802 28.9396 14.6649C28.6321 14.6649 28.463 14.4804 28.4476 14.173C28.4322 13.881 28.4476 13.589 28.4476 13.297ZM30.139 12.9896C29.8776 12.9896 29.6623 12.9896 29.4317 12.9896C29.4317 13.2355 29.4317 13.4507 29.4317 13.6659C29.6777 13.6659 29.893 13.6659 30.139 13.6659C30.139 13.4353 30.139 13.2202 30.139 12.9896Z" fill="#2F6078"/>
<path d="M17.6497 38.2926C17.6497 37.9391 17.6497 37.601 17.6497 37.2475C17.6497 36.894 17.8496 36.6789 18.1417 36.6943C18.4339 36.6943 18.6184 36.8941 18.6184 37.2322C18.6338 37.9391 18.6338 38.6615 18.6184 39.3685C18.6184 39.6912 18.4031 39.9064 18.1264 39.9064C17.8496 39.9064 17.6497 39.6912 17.6497 39.3531C17.6497 39.015 17.6497 38.6461 17.6497 38.2926Z" fill="#2F6078"/>
<path d="M27.429 38.308C27.429 37.9545 27.429 37.6164 27.429 37.2629C27.429 36.894 27.6135 36.6942 27.921 36.6942C28.2286 36.6942 28.4131 36.894 28.4285 37.2475C28.4285 37.9391 28.4285 38.6307 28.4285 39.3223C28.4285 39.6758 28.2286 39.9063 27.9364 39.9063C27.6289 39.9063 27.4444 39.6758 27.429 39.3069C27.429 38.9842 27.429 38.6461 27.429 38.308Z" fill="#2F6078"/>
<path d="M38.2078 38.308C38.2078 38.6615 38.2078 39.015 38.2078 39.3838C38.2078 39.7066 38.0079 39.9217 37.7157 39.9371C37.439 39.9371 37.2237 39.7219 37.2237 39.3992C37.2083 38.6922 37.2083 37.9699 37.2237 37.2629C37.2237 36.9248 37.4236 36.725 37.7157 36.725C38.0233 36.725 38.2078 36.9248 38.2078 37.2936C38.2078 37.601 38.2078 37.9545 38.2078 38.308Z" fill="#2F6078"/>
<path d="M30.8579 41.5969C30.8579 41.9504 30.8579 42.3039 30.8579 42.6727C30.8425 43.0262 30.658 43.2414 30.3659 43.2414C30.0737 43.2414 29.8892 43.0109 29.8738 42.6574C29.8738 41.9658 29.8738 41.2742 29.8738 40.5826C29.8738 40.2291 30.0737 40.0139 30.3659 40.0139C30.658 40.0139 30.8425 40.2137 30.8579 40.5518C30.8733 40.9053 30.8579 41.2588 30.8579 41.5969Z" fill="#2F6078"/>
<path d="M21.0786 41.6584C21.0786 42.0119 21.094 42.3654 21.0786 42.7342C21.0632 43.0416 20.8787 43.2568 20.6019 43.2568C20.3252 43.2568 20.1099 43.0416 20.1099 42.7189C20.1099 41.9965 20.1099 41.2742 20.1099 40.5519C20.1099 40.2445 20.3098 40.0447 20.5866 40.0447C20.8633 40.0447 21.0632 40.2291 21.0786 40.5519C21.0786 40.9053 21.0786 41.2742 21.0786 41.6584Z" fill="#2F6078"/>
<path d="M34.7789 41.6277C34.7789 41.2742 34.7789 40.9207 34.7789 40.5518C34.7942 40.2137 34.9788 40.0139 35.2709 40.0139C35.5631 40.0139 35.7476 40.2291 35.7476 40.5672C35.7476 41.2742 35.7476 41.9965 35.7476 42.7035C35.7476 43.0262 35.5323 43.2414 35.2555 43.2414C34.9788 43.2414 34.7942 43.0262 34.7789 42.7189C34.7789 42.35 34.7789 41.9965 34.7789 41.6277Z" fill="#2F6078"/>
</g>
<rect x="8.75" y="8.75" width="38.5" height="39.5" rx="9.25" stroke="#2F6078" stroke-width="1.5"/>
</g>
<defs>
<filter id="filter0_d_49_88" x="0" y="0" width="56" height="57" filterUnits="userSpaceOnUse" color-interpolation-filters="sRGB">
<feFlood flood-opacity="0" result="BackgroundImageFix"/>
<feColorMatrix in="SourceAlpha" type="matrix" values="0 0 0 0 0 0 0 0 0 0 0 0 0 0 0 0 0 0 127 0" result="hardAlpha"/>
<feOffset/>
<feGaussianBlur stdDeviation="4"/>
<feComposite in2="hardAlpha" operator="out"/>
<feColorMatrix type="matrix" values="0 0 0 0 0 0 0 0 0 0 0 0 0 0 0 0 0 0 0.25 0"/>
<feBlend mode="normal" in2="BackgroundImageFix" result="effect1_dropShadow_49_88"/>
<feBlend mode="normal" in="SourceGraphic" in2="effect1_dropShadow_49_88" result="shape"/>
</filter>
<clipPath id="clip0_49_88">
<rect width="35" height="35" fill="white" transform="translate(8 11)"/>
</clipPath>
</defs>
</svg>
