<svg width="56" height="57" viewBox="0 0 56 57" fill="none" xmlns="http://www.w3.org/2000/svg">
<g filter="url(#filter0_d_49_19)">
<rect x="8" y="8" width="40" height="41" rx="10" fill="white"/>
<path d="M28.1008 13.3381C28.3324 13.3381 28.564 13.3381 28.7956 13.3381C29.1121 13.508 29.4595 13.6469 29.7452 13.8631C31.3124 15.0597 32.7715 16.3799 34.1457 17.7927C36.153 19.854 37.9518 22.0697 39.2951 24.6328C40.6616 27.2346 41.2792 29.9675 40.6616 32.9012C40.5304 33.5188 40.3528 34.121 40.1829 34.7927C39.8896 34.4762 39.6734 34.2214 39.4341 33.9898C38.4382 33.0016 36.871 32.9321 35.8828 33.8971C34.7093 35.0397 33.7134 36.329 33.0417 37.8422C32.6711 38.676 32.5013 39.5561 32.6866 40.4671C32.7947 41.0075 32.98 41.5325 33.1344 42.0652C28.7338 43.9489 22.7198 43.0919 18.906 38.5216C15.5631 34.507 15.2234 29.2341 17.277 25.3972C18.1339 25.7446 19.014 25.8758 19.9327 25.7446C23.098 25.3045 25.0667 21.9539 23.8469 19.1129C23.6153 18.5647 23.3219 18.0475 23.0286 17.4607C24.0245 16.5652 25.0281 15.631 26.0703 14.7432C26.6957 14.1951 27.2901 13.6006 28.1008 13.3381ZM24.2252 32.5693C24.3333 32.6001 24.4105 32.6156 24.48 32.631C25.499 32.9012 26.4023 32.6542 27.1357 31.9208C27.8692 31.1873 28.093 30.2841 27.8228 29.2804C27.4059 27.7364 25.7229 26.8949 24.2175 27.4739C24.1248 27.5125 23.9782 27.5357 23.9087 27.4893C23.5921 27.2732 23.2679 27.2191 22.9282 27.4044C22.5731 27.5974 22.4727 27.9217 22.4727 28.3077C22.4804 30.3844 22.4727 32.4535 22.4727 34.5302C22.4727 35.1169 22.8201 35.5107 23.3374 35.5184C23.8546 35.5184 24.2098 35.1247 24.2098 34.5379C24.2252 33.8894 24.2252 33.2409 24.2252 32.5693ZM30.7102 27.4662C30.7102 26.7868 30.7102 26.1306 30.7102 25.4744C30.7102 24.9108 30.3551 24.517 29.8455 24.517C29.336 24.517 28.9731 24.9031 28.9731 25.4666C28.9731 27.5665 28.9731 29.6742 28.9731 31.7741C28.9731 32.3376 29.3283 32.7314 29.8301 32.7314C30.3474 32.7391 30.7025 32.3376 30.7025 31.7586C30.7025 31.2028 30.7025 30.6392 30.7025 30.0833C30.7025 29.4734 31.1271 29.0257 31.6984 29.0334C32.2543 29.0411 32.6711 29.4734 32.6711 30.0756C32.6789 30.6546 32.6711 31.2337 32.6711 31.8127C32.6711 32.3531 33.0417 32.7391 33.5358 32.7391C34.0299 32.7391 34.4005 32.3531 34.4082 31.8127C34.4159 31.2028 34.4159 30.6006 34.4082 29.9907C34.3928 28.7709 33.5976 27.7441 32.4241 27.3967C31.8528 27.2268 31.2892 27.2732 30.7102 27.4662Z" fill="#2F6078"/>
<path d="M37.6044 42.9839C35.2806 42.9762 33.6825 40.4826 34.6553 38.4676C35.2497 37.2324 36.0758 36.1747 37.0099 35.1942C37.3342 34.8545 37.8514 34.8545 38.1834 35.1942C39.133 36.1747 39.9591 37.2478 40.5535 38.4908C41.4954 40.4671 39.9436 42.9762 37.6044 42.9839Z" fill="#FC8086"/>
<path d="M19.2379 24.0461C17.4545 24.0461 15.9954 22.587 16.0031 20.8036C16.0031 20.1474 16.2811 19.5684 16.5899 19.0125C17.138 18.032 17.8406 17.1597 18.6203 16.349C18.9754 15.9862 19.4927 15.963 19.8324 16.3181C20.7588 17.2832 21.5617 18.3331 22.1639 19.5298C23.1752 21.5448 21.6312 24.0461 19.2379 24.0461Z" fill="#97E4F9"/>
<path d="M24.2252 30.0062C24.2329 29.4735 24.673 29.0334 25.2057 29.0334C25.7538 29.0334 26.2016 29.4812 26.1939 30.0294C26.1861 30.5775 25.7306 31.0175 25.1825 31.0021C24.6498 30.9867 24.2175 30.5389 24.2252 30.0062Z" fill="#2F6078"/>
<rect x="8.75" y="8.75" width="38.5" height="39.5" rx="9.25" stroke="#2F6078" stroke-width="1.5"/>
</g>
<defs>
<filter id="filter0_d_49_19" x="0" y="0" width="56" height="57" filterUnits="userSpaceOnUse" color-interpolation-filters="sRGB">
<feFlood flood-opacity="0" result="BackgroundImageFix"/>
<feColorMatrix in="SourceAlpha" type="matrix" values="0 0 0 0 0 0 0 0 0 0 0 0 0 0 0 0 0 0 127 0" result="hardAlpha"/>
<feOffset/>
<feGaussianBlur stdDeviation="4"/>
<feComposite in2="hardAlpha" operator="out"/>
<feColorMatrix type="matrix" values="0 0 0 0 0 0 0 0 0 0 0 0 0 0 0 0 0 0 0.25 0"/>
<feBlend mode="normal" in2="BackgroundImageFix" result="effect1_dropShadow_49_19"/>
<feBlend mode="normal" in="SourceGraphic" in2="effect1_dropShadow_49_19" result="shape"/>
</filter>
</defs>
</svg>
