<svg width="56" height="57" viewBox="0 0 56 57" fill="none" xmlns="http://www.w3.org/2000/svg">
<g filter="url(#filter0_d_39_67)">
<rect x="8" y="8" width="40" height="41" rx="10" fill="white"/>
<path d="M28.4941 16C28.6873 16.1126 28.7483 16.2969 28.7381 16.5119C28.728 16.6757 28.7381 16.8395 28.7381 17.034C28.8398 17.034 28.9415 17.034 29.033 17.034C31.7068 17.034 34.3909 17.034 37.0647 17.034C37.7154 17.034 38.2745 17.3002 38.7625 17.72C39.5962 18.4367 39.9012 19.3786 39.8199 20.4536C39.7589 21.16 39.4844 21.805 38.9964 22.3067C38.4982 22.8083 37.9085 23.1667 37.1765 23.1769C35.3262 23.2076 33.4758 23.2178 31.6153 23.2281C30.7003 23.2383 29.7752 23.2281 28.8601 23.2281C28.8296 23.2281 28.7992 23.2383 28.7381 23.2383C28.7381 23.4226 28.7483 23.5967 28.7381 23.7707C28.728 24.0369 28.545 24.2519 28.3213 24.2519C28.0875 24.2519 27.9045 24.0369 27.9045 23.7502C27.9045 23.5762 27.9045 23.4124 27.9045 23.2281C27.691 23.2281 27.4978 23.2281 27.2843 23.2281C27.2843 24.9993 27.2843 26.7807 27.2843 28.5826C27.386 28.5826 27.4775 28.5826 27.569 28.5826C29.6735 28.5826 31.7882 28.5826 33.8927 28.5826C34.2282 28.5826 34.3705 28.7362 34.3502 29.0536C34.3299 29.289 34.1774 29.3812 33.9639 29.4119C33.8724 29.4221 33.7808 29.4119 33.6588 29.4119C33.6588 29.5143 33.6588 29.6166 33.6588 29.7088C33.6588 32.8109 33.6588 35.9028 33.6588 39.005C33.6588 40.0185 33.1912 40.8581 32.1643 41.1345C32.1542 41.1345 32.144 41.155 32.1338 41.1754C29.1042 41.1754 26.0745 41.1754 23.0448 41.1754C22.6686 41.0526 22.3128 40.8888 22.0484 40.5919C21.7333 40.2233 21.5198 39.8138 21.5198 39.3121C21.5198 38.2883 21.5198 37.2645 21.5198 36.2407C21.5198 35.954 21.6824 35.7493 21.9163 35.78C22.1399 35.8004 22.3026 35.9028 22.3026 36.2304C22.2924 37.1621 22.2823 38.104 22.3026 39.0357C22.3128 39.2916 22.3636 39.5681 22.4754 39.8035C22.6889 40.2335 23.1058 40.3973 23.5531 40.3973C26.227 40.4076 28.911 40.4076 31.5848 40.3973C32.2965 40.3973 32.7947 39.8343 32.7947 39.1688C32.7845 37.3157 32.7947 35.4626 32.7947 33.6095C32.7947 33.5174 32.7947 33.4355 32.7947 33.3331C31.168 33.3331 29.5617 33.3331 27.9248 33.3331C28.1891 33.5788 28.4535 33.804 28.7076 34.0497C29.0127 34.3466 28.9517 34.6333 28.5653 34.7971C28.0468 35.0224 27.5283 35.2374 26.9691 35.4728C27.3046 35.6571 27.6096 35.8516 27.935 36.0154C28.1485 36.1281 28.3111 36.2714 28.24 36.5171C28.1993 36.6604 28.0875 36.8038 27.9756 36.8959C27.691 37.1212 27.3758 37.3259 27.0301 37.5716C27.264 37.7866 27.4876 37.9914 27.7011 38.1962C27.9146 38.4112 27.9248 38.5647 27.752 38.8207C27.6401 38.9947 27.5283 39.179 27.4165 39.3428C27.264 39.5681 27.0301 39.6295 26.7861 39.4862C26.6133 39.3838 26.5726 39.0562 26.7251 38.8719C26.9081 38.6569 26.8878 38.5135 26.6743 38.3395C26.5015 38.1962 26.349 38.0221 26.1863 37.8583C25.9626 37.6228 25.9321 37.285 26.2676 37.0904C26.5523 36.9266 26.7963 36.7014 27.0708 36.4966C26.6438 36.2509 26.2371 36.0257 25.8305 35.78C25.495 35.5752 25.5153 35.1964 25.8813 35.0326C26.471 34.7664 27.0606 34.5207 27.7011 34.2545C27.5791 34.1521 27.4673 34.06 27.3656 33.9678C27.1725 33.7835 26.9793 33.5993 26.776 33.4252C26.7048 33.3638 26.593 33.3126 26.5015 33.3126C25.129 33.3024 23.7666 33.3126 22.3941 33.3126C22.3738 33.3126 22.3433 33.3228 22.2924 33.3331C22.2924 33.7528 22.2924 34.1726 22.2924 34.6026C22.2924 34.8995 22.1704 35.0326 21.9061 35.0326C21.6418 35.0326 21.5096 34.8893 21.5096 34.6026C21.5096 33.5685 21.5198 32.5345 21.4994 31.5005C21.4994 31.3571 21.4384 31.1831 21.3469 31.0705C20.9809 30.6405 20.5946 30.2412 20.2184 29.8214C20.1981 29.8009 20.1676 29.7805 20.1473 29.7497C19.9948 29.4324 19.7304 29.4119 19.4153 29.4119C19.2526 29.4119 19.0391 29.3402 18.9476 29.2174C18.7442 28.9614 18.9374 28.6236 19.2628 28.5928C19.3238 28.5826 19.3949 28.5928 19.4559 28.5928C21.6824 28.5928 23.8988 28.5928 26.1253 28.5928C26.2168 28.5928 26.3185 28.5928 26.4405 28.5928C26.4405 28.4802 26.4405 28.3983 26.4405 28.3062C26.4405 26.4736 26.4405 24.6512 26.4405 22.8186C26.4405 22.5319 26.5828 22.3886 26.8675 22.3886C27.1826 22.3886 27.4978 22.3886 27.8638 22.3886C27.8638 22.2862 27.8638 22.194 27.8638 22.1019C27.8638 20.2693 27.8638 18.4264 27.8638 16.5938C27.8638 16.3686 27.8841 16.1638 28.0671 16C28.2298 16 28.362 16 28.4941 16ZM30.9647 20.8017C31.0867 20.7812 31.2087 20.73 31.3307 20.73C31.5543 20.7402 31.7068 20.9552 31.717 21.2317C31.717 21.6105 31.717 21.9995 31.717 22.3783C32.0728 22.3783 32.4083 22.3783 32.7438 22.3783C32.7438 21.9483 32.7438 21.5388 32.7438 21.1293C32.7438 20.8529 33.0082 20.689 33.2725 20.7607C33.5673 20.8426 33.5572 21.0781 33.5673 21.3033C33.5877 21.6617 33.5673 22.02 33.5673 22.3783C33.9232 22.3783 34.2485 22.3783 34.5942 22.3783C34.5942 21.9483 34.584 21.5388 34.6044 21.1395C34.6044 21.0269 34.6857 20.8836 34.767 20.8324C35.0924 20.6174 35.377 20.7914 35.377 21.1805C35.377 21.59 35.377 21.9893 35.377 22.3988C35.7532 22.3988 36.0887 22.3988 36.4547 22.3988C36.4547 21.9995 36.4547 21.6207 36.4547 21.2419C36.4547 20.9245 36.6072 20.7402 36.8512 20.7402C37.1054 20.7505 37.2375 20.9143 37.2375 21.2521C37.2375 21.6207 37.2375 21.9893 37.2375 22.3886C37.4917 22.2862 37.7357 22.235 37.9289 22.1121C38.8947 21.4671 39.1997 20.5662 38.9151 19.4605C38.6405 18.4162 37.7865 17.8736 36.78 17.8531C35.9159 17.8326 35.0517 17.8429 34.1875 17.8531C34.1062 17.8531 34.0147 17.894 33.9537 17.9452C33.5877 18.2831 33.2217 18.6414 32.8658 18.9895C32.2253 19.5731 31.595 20.1874 30.9647 20.8017C30.4767 21.3648 29.9887 21.9176 29.5718 22.3783C29.8972 22.3783 30.3852 22.3783 30.8427 22.3783C30.8833 21.8459 30.924 21.3238 30.9647 20.8017ZM27.2843 29.4324C27.2843 30.4562 27.2843 31.4595 27.2843 32.4628C29.1448 32.4628 30.985 32.4628 32.815 32.4628C32.815 31.439 32.815 30.4459 32.815 29.4324C30.9647 29.4324 29.1347 29.4324 27.2843 29.4324ZM21.0419 29.4324C21.3673 29.7907 21.6418 30.1183 21.9366 30.4255C22.1908 30.7019 22.3839 30.9783 22.3433 31.3878C22.3026 31.7359 22.3331 32.1045 22.3331 32.4628C23.7361 32.4628 25.0985 32.4628 26.4608 32.4628C26.4608 31.439 26.4608 30.4357 26.4608 29.4324C24.6613 29.4324 22.8821 29.4324 21.0419 29.4324ZM32.8252 17.8326C31.4425 17.8326 30.0903 17.8326 28.7381 17.8326C28.7381 19.1533 28.7381 20.4638 28.7381 21.805C30.1208 20.474 31.4628 19.1738 32.8252 17.8326Z" fill="#2F6078"/>
<path d="M30.7816 36.4659C30.7816 36.0769 30.7816 35.6776 30.7816 35.2885C30.7816 35.0019 30.9443 34.8074 31.168 34.7971C31.4018 34.7869 31.6052 34.9916 31.6153 35.2681C31.6255 36.0564 31.6357 36.8345 31.6052 37.6228C31.5848 38.0016 31.473 38.1143 31.1375 38.0938C30.8935 38.0835 30.7816 37.93 30.7816 37.5921C30.7816 37.2133 30.7816 36.8345 30.7816 36.4659Z" fill="#2F6078"/>
<path d="M31.2086 38.3292C31.4628 38.2985 31.6051 38.5237 31.6153 38.8616C31.6153 39.1687 31.4526 39.3633 31.1985 39.3633C30.8833 39.3633 30.7816 39.2097 30.7918 38.7694C30.7918 38.4828 30.9341 38.3292 31.2086 38.3292Z" fill="#2F6078"/>
<path d="M36.1395 18.2626C36.3429 18.2626 36.5462 18.2626 36.7495 18.2626C36.9732 18.2524 37.1054 18.365 37.1359 18.5697C37.1765 18.8155 37.0647 19.0305 36.841 19.0407C36.3632 19.0612 35.8854 19.0612 35.4075 19.0407C35.194 19.0305 35.072 18.8257 35.0923 18.6107C35.1127 18.4059 35.2652 18.2728 35.4888 18.2626C35.6922 18.2626 35.9159 18.2626 36.1395 18.2626Z" fill="#2F6078"/>
<path d="M34.0757 18.2626C34.523 18.2626 34.5738 18.2933 34.6552 18.5799C34.706 18.7847 34.6348 18.9383 34.4518 19.0304C34.1875 19.1533 33.9232 19.1226 33.6588 19.0202C33.425 18.928 33.4453 18.713 33.4962 18.5492C33.5267 18.4366 33.6792 18.3445 33.791 18.283C33.8622 18.2318 33.974 18.2626 34.0757 18.2626Z" fill="#2F6078"/>
<rect x="8.75" y="8.75" width="38.5" height="39.5" rx="9.25" stroke="#2F6078" stroke-width="1.5"/>
</g>
<defs>
<filter id="filter0_d_39_67" x="0" y="0" width="56" height="57" filterUnits="userSpaceOnUse" color-interpolation-filters="sRGB">
<feFlood flood-opacity="0" result="BackgroundImageFix"/>
<feColorMatrix in="SourceAlpha" type="matrix" values="0 0 0 0 0 0 0 0 0 0 0 0 0 0 0 0 0 0 127 0" result="hardAlpha"/>
<feOffset/>
<feGaussianBlur stdDeviation="4"/>
<feComposite in2="hardAlpha" operator="out"/>
<feColorMatrix type="matrix" values="0 0 0 0 0 0 0 0 0 0 0 0 0 0 0 0 0 0 0.25 0"/>
<feBlend mode="normal" in2="BackgroundImageFix" result="effect1_dropShadow_39_67"/>
<feBlend mode="normal" in="SourceGraphic" in2="effect1_dropShadow_39_67" result="shape"/>
</filter>
</defs>
</svg>
