<svg width="56" height="57" viewBox="0 0 56 57" fill="none" xmlns="http://www.w3.org/2000/svg">
<g filter="url(#filter0_d_39_179)">
<rect x="8" y="8" width="40" height="41" rx="10" fill="white"/>
<path d="M27.9676 41.0874C26.2116 41.0874 24.4424 41.0741 22.6864 41.0874C21.815 41.1006 21.1681 40.756 20.6796 40.0402C19.1613 37.8399 18.6464 35.4274 19.2009 32.8029C19.3329 32.2064 19.2405 31.7425 18.8576 31.2785C18.0258 30.2579 17.1677 29.2373 16.4415 28.1371C15.8342 27.1827 14.8704 26.6525 14.1442 25.8439C13.5501 25.1812 13.5633 24.9293 14.2366 24.3063C15.0288 23.5773 15.8342 22.8615 16.6395 22.1325C17.3657 21.483 17.7486 21.4167 18.2503 22.212C19.1481 23.6701 20.4155 24.7835 21.6038 25.95C22.594 26.9176 23.4258 26.7188 23.7427 25.38C23.9671 24.3991 24.0067 23.3785 24.1123 22.3711C24.1783 21.7348 24.218 21.0986 24.2576 20.4623C24.284 20.0249 24.1387 19.6405 23.9935 19.2163C23.7427 18.5138 23.9011 17.6655 23.9539 16.8967C23.9671 16.7907 24.35 16.6448 24.5612 16.6448C26.8453 16.6316 29.1426 16.6316 31.4267 16.6316C31.9284 16.6316 32.1528 16.8834 32.1661 17.3606C32.1793 17.8246 32.1793 18.2885 32.1661 18.7524C32.1661 18.885 32.1661 19.0705 32.0868 19.1236C31.4531 19.6405 31.7172 20.3165 31.7568 20.9395C31.8492 22.212 31.9152 23.4978 32.0736 24.7703C32.1528 25.433 32.2321 26.1886 32.9978 26.4669C33.8032 26.7585 34.1861 26.0958 34.6614 25.6584C35.1631 25.1944 35.6912 24.7438 36.1269 24.2268C36.6946 23.5773 37.1567 22.835 37.7112 22.1855C38.3054 21.4697 38.5958 21.483 39.2956 22.106C40.0349 22.7687 40.7611 23.4315 41.5004 24.0942C42.4774 24.9823 42.5963 25.2474 41.5533 26.0693C39.7181 27.5141 38.6222 29.5421 37.1303 31.2388C36.7078 31.716 36.6418 32.2064 36.7738 32.8294C37.3152 35.4274 36.8134 37.8133 35.3083 40.0004C34.8066 40.7295 34.1597 41.0874 33.2487 41.0741C31.4795 41.0741 29.7235 41.0874 27.9676 41.0874ZM16.151 26.0958C17.3789 27.6864 18.5407 29.2107 19.729 30.7218C20.2571 31.3978 20.4155 32.0871 20.2307 32.9487C19.7158 35.2949 20.1383 37.4555 21.5114 39.4437C21.8018 39.8546 22.1451 40.08 22.66 40.08C26.1984 40.0667 29.7499 40.0932 33.2883 40.0535C33.658 40.0535 34.1465 39.7884 34.3709 39.4835C35.7176 37.6808 36.2325 35.613 35.7836 33.4126C35.5328 32.1932 35.7308 31.252 36.5362 30.2977C37.6716 28.9589 38.7014 27.5273 39.7973 26.0958C39.0711 25.433 38.3846 24.8233 37.6848 24.187C36.721 25.1149 35.7968 26.0295 34.8462 26.9176C33.6184 28.0841 31.8888 27.6997 31.3475 26.0958C31.0834 25.3137 30.9778 24.4654 30.8986 23.6303C30.7534 22.2783 30.6873 20.913 30.5949 19.5212C28.8257 19.5212 27.1226 19.5212 25.3534 19.5212C25.3006 20.2768 25.261 20.9925 25.1818 21.7216C25.0365 23.1266 24.9969 24.5582 24.6537 25.9102C24.1916 27.7394 22.3696 28.1238 21.0097 26.8248C20.1119 25.95 19.2009 25.0884 18.2767 24.187C17.5637 24.8233 16.8772 25.433 16.151 26.0958ZM31.0966 17.692C28.9842 17.692 26.9377 17.692 24.8781 17.692C24.8781 17.9571 24.8781 18.1824 24.8781 18.421C26.9773 18.421 29.0238 18.421 31.0966 18.421C31.0966 18.1692 31.0966 17.9571 31.0966 17.692ZM14.9496 25.0619C14.9628 25.1414 14.976 25.2342 14.9892 25.3137C15.1608 25.3005 15.3985 25.3402 15.5041 25.2474C16.2699 24.5979 17.0092 23.9087 17.7486 23.2327C17.7354 23.1531 17.709 23.0869 17.6958 23.0073C17.5109 23.0206 17.2733 22.9808 17.1677 23.0736C16.4019 23.7364 15.6889 24.3991 14.9496 25.0619ZM38.5826 22.8748C38.5034 22.888 38.411 22.9145 38.3318 22.9278C38.3714 23.1001 38.345 23.3387 38.4506 23.4447C39.0975 24.0677 39.7709 24.6775 40.4574 25.2474C40.563 25.3402 40.8139 25.2607 40.9987 25.2607C40.9987 25.1944 41.0119 25.1414 41.0119 25.0751C40.2066 24.3461 39.388 23.6171 38.5826 22.8748Z" fill="#2F6078"/>
<rect x="8.75" y="8.75" width="38.5" height="39.5" rx="9.25" stroke="#2F6078" stroke-width="1.5"/>
</g>
<defs>
<filter id="filter0_d_39_179" x="0" y="0" width="56" height="57" filterUnits="userSpaceOnUse" color-interpolation-filters="sRGB">
<feFlood flood-opacity="0" result="BackgroundImageFix"/>
<feColorMatrix in="SourceAlpha" type="matrix" values="0 0 0 0 0 0 0 0 0 0 0 0 0 0 0 0 0 0 127 0" result="hardAlpha"/>
<feOffset/>
<feGaussianBlur stdDeviation="4"/>
<feComposite in2="hardAlpha" operator="out"/>
<feColorMatrix type="matrix" values="0 0 0 0 0 0 0 0 0 0 0 0 0 0 0 0 0 0 0.25 0"/>
<feBlend mode="normal" in2="BackgroundImageFix" result="effect1_dropShadow_39_179"/>
<feBlend mode="normal" in="SourceGraphic" in2="effect1_dropShadow_39_179" result="shape"/>
</filter>
</defs>
</svg>
