<svg width="56" height="57" viewBox="0 0 56 57" fill="none" xmlns="http://www.w3.org/2000/svg">
<g filter="url(#filter0_d_1097_1808)">
<rect x="9" y="9" width="36" height="36.1525" rx="4" fill="#FAFDFF"/>
<rect x="9.2" y="9.2" width="35.6" height="35.7525" rx="3.8" stroke="#00659E" stroke-width="0.4"/>
</g>
<g clip-path="url(#clip0_1097_1808)">
<path d="M26.96 13.0172C19.2142 13.0406 12.9838 19.3717 13.0004 27.0572C12.9387 34.7905 19.397 41.4767 27.6417 41.1224C34.835 40.8133 41.0079 34.8014 41.0004 27.0446C40.9921 19.3055 34.7049 12.9945 26.96 13.0172ZM26.8482 40.4858C25.0869 40.4691 23.3463 40.1024 21.727 39.4066C20.1077 38.7108 18.6418 37.6999 17.4139 36.4321C16.186 35.1644 15.2205 33.665 14.5731 32.0205C13.9257 30.376 13.6093 28.6191 13.6421 26.8511C13.7431 19.6313 19.6498 13.4712 27.4189 13.6672C34.5196 13.8473 40.3521 19.6146 40.3605 27.0622C40.3633 28.8378 40.0148 30.5963 39.335 32.2354C38.6552 33.8746 37.6578 35.3619 36.4006 36.6108C35.1434 37.8597 33.6516 38.8454 32.0117 39.5106C30.3719 40.1758 28.6167 40.5073 26.8482 40.4858V40.4858Z" fill="#00659E"/>
<path d="M27.2501 14.479C20.1644 14.3734 14.1434 20.1407 14.4613 27.7073C14.7274 34.0493 19.8423 39.546 26.8238 39.6591C28.4784 39.6896 30.1226 39.3898 31.6608 38.7769C33.199 38.1641 34.6006 37.2505 35.7841 36.0893C36.9677 34.928 37.9095 33.5422 38.555 32.0124C39.2005 30.4826 39.5367 28.8393 39.5442 27.1779C39.6201 20.3183 34.0522 14.5803 27.2501 14.479ZM20.6116 37.1478H33.3362C30.1321 39.4095 24.7745 39.8802 20.6116 37.1478ZM38.8074 28.4528C38.632 30.1215 38.0958 31.7315 37.2362 33.1706C36.5266 34.3755 35.6116 35.4459 34.5328 36.3327C34.4156 36.4339 34.2651 36.4876 34.1106 36.4835C29.3662 36.4785 24.6218 36.4785 19.8774 36.4835C19.733 36.4879 19.5923 36.438 19.4827 36.3436C17.2765 34.4957 15.8681 32.1704 15.3215 29.3307C15.2531 28.9755 15.2072 28.6154 15.1438 28.2585C15.1196 28.1211 15.158 28.0633 15.3007 28.0784C15.3724 28.0851 15.4459 28.0784 15.5185 28.0784H38.4603C38.8525 28.0792 38.845 28.0792 38.8074 28.4528V28.4528ZM25.9752 21.068C25.9752 20.2304 25.9902 19.3927 25.9668 18.5609C25.9585 18.2685 26.0503 18.2183 26.3131 18.23C26.7695 18.251 27.2309 18.251 27.6857 18.23C27.9469 18.2175 28.0395 18.2702 28.032 18.5651C28.0086 19.4212 28.0186 20.2781 28.0253 21.1342C28.032 22.1059 28.4592 22.8305 29.3153 23.2937C29.4471 23.3657 29.5764 23.4436 29.7074 23.5182L29.6849 23.5668H24.2797C24.3773 23.426 24.5133 23.3833 24.6293 23.3238C25.5421 22.8472 25.9777 22.0916 25.9752 21.068ZM24.9463 17.2868C24.953 17.043 25.1399 16.9961 25.3452 16.997C25.8951 16.997 26.4449 16.997 26.9956 16.997C27.5463 16.997 28.0954 16.997 28.6461 16.997C28.8647 16.997 29.0633 17.0497 29.0516 17.3111C29.0441 17.5523 28.8572 17.606 28.6511 17.5993C27.5513 17.5624 26.4519 17.5624 25.3527 17.5993C25.1349 17.6085 24.9397 17.5515 24.9463 17.2868ZM30.3057 24.19C30.3818 24.1859 30.4578 24.1994 30.5279 24.2293C30.5981 24.2592 30.6605 24.3048 30.7104 24.3625C31.4664 25.1709 31.8785 26.135 32.0454 27.2206C32.0771 27.4284 31.9553 27.4091 31.8268 27.4091H26.994C25.4036 27.4091 23.8132 27.4041 22.2237 27.415C21.9575 27.415 21.9275 27.3496 21.9734 27.0942C22.1262 26.0812 22.5762 25.1369 23.2659 24.3818C23.3175 24.3187 23.3831 24.2684 23.4573 24.235C23.5316 24.2015 23.6126 24.1859 23.6939 24.1891C25.8984 24.1958 28.1023 24.1961 30.3057 24.19V24.19ZM38.9217 27.1344C38.9276 27.3731 38.8541 27.4301 38.6238 27.4284C36.7406 27.4192 34.8574 27.4225 32.9741 27.4284C32.8206 27.4284 32.7013 27.4368 32.6762 27.2181C32.4501 25.2362 31.4438 23.7737 29.7208 22.7986C29.4705 22.6545 29.2201 22.5046 29.0324 22.2717C28.783 21.9597 28.6515 21.5693 28.6611 21.1694C28.6611 20.2714 28.6611 19.3726 28.6611 18.4746C28.6611 18.3163 28.6845 18.2501 28.868 18.2233C29.4104 18.132 29.7308 17.7157 29.6849 17.2181C29.639 16.7205 29.2352 16.3805 28.6903 16.3805C27.5778 16.3754 26.4652 16.3754 25.3527 16.3805C24.7761 16.3805 24.3706 16.7155 24.3239 17.2181C24.2755 17.7308 24.5909 18.1278 25.1641 18.2334C25.3152 18.261 25.346 18.3096 25.3452 18.4478C25.3402 19.3768 25.3452 20.3066 25.3385 21.2364C25.3318 21.9702 24.9447 22.451 24.3164 22.7911C22.8887 23.5634 21.9375 24.7328 21.4894 26.3042C21.406 26.5932 21.3225 26.8822 21.3225 27.1863C21.3225 27.3982 21.2232 27.4426 21.0322 27.4376C20.0851 27.4301 19.1381 27.4376 18.1952 27.4376C17.2523 27.4376 16.3228 27.4317 15.3866 27.4376C15.168 27.4376 15.0837 27.4024 15.0821 27.1528C15.0303 21.4617 19.1464 16.414 24.7102 15.3568C30.9315 14.164 36.8499 17.8883 38.517 24.0417C38.7916 25.0536 38.8959 26.0881 38.9217 27.1344V27.1344Z" fill="#00659E"/>
<path d="M33.4079 21.69C33.0141 21.68 32.6211 21.6817 32.2272 21.69C32.0253 21.69 31.9294 21.8174 31.9344 22.015C31.9314 22.0543 31.9369 22.0937 31.9504 22.1307C31.9639 22.1677 31.9851 22.2013 32.0126 22.2294C32.0401 22.2575 32.0732 22.2793 32.1098 22.2935C32.1464 22.3077 32.1856 22.3138 32.2247 22.3116C32.4108 22.3191 32.5969 22.3116 32.7838 22.3116C32.9907 22.3116 33.201 22.32 33.4046 22.3116C33.589 22.3015 33.6799 22.1884 33.6808 22.0033C33.6816 21.8182 33.5915 21.6951 33.4079 21.69Z" fill="#00659E"/>
<path d="M21.771 21.6885C21.3881 21.6818 21.0042 21.6835 20.6213 21.6885C20.421 21.6885 20.3175 21.8016 20.3184 22.0026C20.3192 22.2037 20.4268 22.3084 20.6263 22.3126C20.8257 22.3167 21.0193 22.3126 21.2162 22.3126C21.4131 22.3126 21.5892 22.3184 21.7752 22.3126C21.8144 22.3148 21.8536 22.3087 21.8903 22.2944C21.9269 22.2802 21.96 22.2583 21.9875 22.2301C22.0149 22.2019 22.036 22.1681 22.0493 22.1311C22.0627 22.094 22.0679 22.0545 22.0648 22.0152C22.0698 21.8158 21.973 21.6919 21.771 21.6885Z" fill="#00659E"/>
<path d="M23.1227 32.0848C23.1227 31.145 22.5494 30.5192 21.6842 30.5142C20.7788 30.5083 20.2006 31.1098 20.1973 32.0622C20.1973 33.0305 20.7521 33.6395 21.6466 33.6412C22.5411 33.6429 23.1235 33.0398 23.1227 32.0848ZM21.6475 33.1202C21.1468 33.1101 20.8214 32.6888 20.8247 32.0672C20.8247 31.4273 21.1435 31.0511 21.6708 31.0562C22.1982 31.0612 22.5052 31.449 22.491 32.0898C22.4768 32.7307 22.1448 33.1311 21.6475 33.1202Z" fill="#00659E"/>
<path d="M33.7453 30.9557C33.7453 30.753 33.6969 30.5846 33.4758 30.5779C33.2329 30.5696 33.1762 30.7455 33.1787 30.9608C33.1854 31.4483 33.1787 31.9366 33.1787 32.4593C33.0252 32.3957 33.0002 32.2868 32.9484 32.208C32.6639 31.7498 32.3844 31.2866 32.104 30.8267C31.9989 30.6533 31.8612 30.5294 31.6468 30.5897C31.4323 30.65 31.3589 30.8225 31.3614 31.0479C31.3689 31.7565 31.3614 32.466 31.3614 33.1747C31.3614 33.3732 31.3614 33.5734 31.6267 33.581C31.9021 33.5885 31.9296 33.3866 31.928 33.1713C31.928 32.709 31.928 32.2499 31.928 31.7884C32.0323 31.7766 32.0448 31.837 32.0698 31.8772C32.371 32.3622 32.6747 32.8447 32.9693 33.3339C33.0919 33.5391 33.2596 33.6421 33.4866 33.5692C33.6902 33.5031 33.7436 33.328 33.7419 33.1186C33.7375 32.3965 33.7386 31.6756 33.7453 30.9557Z" fill="#00659E"/>
<path d="M18.9533 31.7646C18.703 31.6909 18.4426 31.6699 18.2165 31.5325C18.0313 31.4203 18.0146 31.2544 18.1706 31.1321C18.4143 30.942 18.8582 30.9855 19.0401 31.2394C19.1853 31.4404 19.3538 31.5459 19.5524 31.3617C19.751 31.1774 19.6358 30.9797 19.479 30.8188C19.0926 30.4184 18.1281 30.4092 17.7267 30.8004C17.6405 30.8832 17.5743 30.9847 17.5332 31.0972C17.4921 31.2097 17.4772 31.3301 17.4897 31.4492C17.5022 31.5684 17.5417 31.683 17.6052 31.7845C17.6687 31.8859 17.7545 31.9714 17.8561 32.0343C18.1773 32.2437 18.5545 32.2856 18.9066 32.3962C19.0559 32.4447 19.1969 32.5159 19.1978 32.7145C19.1978 32.8996 19.086 32.9993 18.9374 33.0671C18.5953 33.2238 18.2557 33.1157 18.0296 32.7706C17.917 32.6031 17.7851 32.5051 17.5916 32.6207C17.398 32.7363 17.4163 32.908 17.5081 33.0822C17.7451 33.5262 18.1506 33.6376 18.6095 33.6359C18.6929 33.6405 18.7765 33.6405 18.8599 33.6359C19.5866 33.5521 19.9971 32.9616 19.751 32.3476C19.6075 31.9857 19.2854 31.8651 18.9533 31.7646Z" fill="#00659E"/>
<path d="M30.8782 33.3211C30.8698 33.1192 30.7255 33.0748 30.5503 33.0765C30.2065 33.0765 29.8636 33.0698 29.5206 33.0765C29.2244 33.0848 29.2177 32.8913 29.2186 32.6803C29.2194 32.4692 29.2102 32.248 29.5273 32.2614C29.8285 32.2698 30.1306 32.2614 30.4318 32.2614C30.6087 32.2614 30.7188 32.1701 30.718 32.0034C30.7172 31.8367 30.6062 31.7521 30.4276 31.7521C30.1372 31.758 29.8435 31.7463 29.5548 31.7521C29.3128 31.7597 29.2211 31.6474 29.2211 31.4171C29.2211 31.1867 29.317 31.0694 29.5548 31.0736C29.8661 31.0786 30.1781 31.0736 30.4902 31.0736C30.6571 31.0736 30.8173 31.0518 30.8239 30.8416C30.8306 30.6313 30.6879 30.5626 30.4902 30.5635C29.9704 30.5635 29.4505 30.5685 28.9307 30.5635C28.7096 30.5635 28.6061 30.6531 28.6095 30.8801C28.6153 31.2763 28.6095 31.6734 28.6095 32.0704C28.6095 32.4675 28.6153 32.8637 28.6095 33.2599C28.6095 33.4836 28.6929 33.5858 28.9207 33.5824C29.4614 33.5749 30.0054 33.5774 30.5428 33.5824C30.7322 33.5874 30.8882 33.5497 30.8782 33.3211Z" fill="#00659E"/>
<path d="M28.1754 30.9977C28.2538 30.7699 28.1078 30.5672 27.9034 30.5722C27.699 30.5772 27.6272 30.7322 27.5696 30.8947C27.3719 31.4936 27.1775 32.0942 26.9605 32.7576C26.9063 32.6471 26.8846 32.6127 26.8721 32.5759C26.6735 31.9979 26.4774 31.4191 26.2788 30.8402C26.2087 30.6375 26.0744 30.5127 25.8533 30.594C25.6455 30.671 25.6255 30.852 25.6864 31.0371C25.9517 31.7893 26.2207 32.5404 26.4933 33.2904C26.5224 33.3804 26.5807 33.4581 26.6589 33.5111C26.737 33.564 26.8306 33.5892 26.9246 33.5827C27.0143 33.5893 27.1037 33.5661 27.1791 33.5168C27.2544 33.4675 27.3116 33.3947 27.3418 33.3097C27.6283 32.5424 27.9062 31.7717 28.1754 30.9977Z" fill="#00659E"/>
<path d="M36.3146 30.5747C35.6804 30.5669 35.046 30.5669 34.4113 30.5747C34.2528 30.5747 34.1727 30.6844 34.1802 30.8478C34.1786 30.8793 34.1838 30.9109 34.1954 30.9402C34.2071 30.9695 34.225 30.996 34.2478 31.0177C34.2707 31.0395 34.2979 31.056 34.3277 31.0661C34.3575 31.0762 34.3892 31.0798 34.4205 31.0765C34.5553 31.084 34.6904 31.084 34.8252 31.0765C34.9996 31.0614 35.0663 31.1209 35.058 31.3035C35.0454 31.6159 35.058 31.93 35.058 32.2433C35.058 32.5566 35.058 32.8699 35.058 33.1832C35.058 33.3918 35.108 33.5685 35.3525 33.5777C35.6137 33.5869 35.6796 33.4102 35.6796 33.184C35.6796 32.7032 35.6796 32.2224 35.6796 31.7424C35.6796 31.5355 35.6237 31.2817 35.7205 31.1334C35.8173 30.9852 36.0884 31.1033 36.2812 31.0781C36.2915 31.0773 36.3018 31.0773 36.3121 31.0781C36.3434 31.0798 36.3747 31.0749 36.4041 31.0637C36.4335 31.0526 36.4602 31.0355 36.4826 31.0134C36.505 30.9914 36.5227 30.9649 36.5344 30.9357C36.5461 30.9064 36.5517 30.8751 36.5507 30.8436C36.559 30.6836 36.4731 30.5764 36.3146 30.5747Z" fill="#00659E"/>
<path d="M25.4076 33.584C25.5744 33.584 25.7029 33.5304 25.7071 33.3469C25.7113 33.1635 25.5869 33.0755 25.4025 33.0764C25.0905 33.0764 24.7776 33.0638 24.4663 33.0822C24.2577 33.0939 24.1968 33.0244 24.2018 32.8192C24.2144 32.2873 24.2127 31.7537 24.2018 31.2209C24.2018 30.978 24.3028 30.6153 23.914 30.6128C23.4968 30.6128 23.6219 30.9872 23.6111 31.2369C23.5969 31.5292 23.6111 31.8232 23.6111 32.1147C23.6111 32.5009 23.6111 32.8879 23.6111 33.274C23.6111 33.4726 23.6945 33.5857 23.9106 33.5831C24.4096 33.5792 24.9086 33.5795 25.4076 33.584Z" fill="#00659E"/>
<path d="M25.8876 26.882C26.0093 26.8838 26.13 26.8612 26.2429 26.8157C26.3558 26.7702 26.4586 26.7026 26.5453 26.6169C26.6319 26.5311 26.7007 26.429 26.7477 26.3163C26.7946 26.2036 26.8188 26.0827 26.8188 25.9606C26.8207 25.8407 26.7987 25.7217 26.7541 25.6105C26.7095 25.4993 26.6431 25.3982 26.559 25.3131C26.4749 25.228 26.3746 25.1607 26.2642 25.1151C26.1538 25.0695 26.0354 25.0465 25.916 25.0475C25.7965 25.0454 25.6779 25.0671 25.5669 25.1114C25.4559 25.1557 25.3548 25.2217 25.2694 25.3056C25.184 25.3894 25.116 25.4895 25.0695 25.5999C25.0229 25.7103 24.9987 25.8289 24.9981 25.9488C24.995 26.1904 25.0864 26.4235 25.2527 26.598C25.4191 26.7726 25.6471 26.8745 25.8876 26.882V26.882ZM25.9126 25.6783C25.9492 25.6749 25.986 25.6794 26.0207 25.6915C26.0554 25.7037 26.087 25.7231 26.1135 25.7486C26.14 25.7741 26.1608 25.8051 26.1744 25.8393C26.1879 25.8736 26.194 25.9103 26.1922 25.9472C26.198 26.1407 26.0803 26.2236 25.9068 26.2554C25.7357 26.2202 25.6181 26.134 25.6281 25.943C25.6268 25.906 25.6334 25.8692 25.6476 25.8351C25.6617 25.801 25.683 25.7703 25.71 25.7452C25.737 25.7201 25.7691 25.7011 25.804 25.6895C25.839 25.678 25.876 25.6741 25.9126 25.6783V25.6783Z" fill="#00659E"/>
<path d="M28.1165 25.607C28.3059 25.6112 28.4119 25.4855 28.4344 25.2945C28.4027 25.1069 28.3051 24.9888 28.1007 24.9963C28.0617 24.9935 28.0225 24.9991 27.9858 25.0127C27.9492 25.0264 27.9159 25.0478 27.8882 25.0756C27.8605 25.1033 27.839 25.1367 27.8253 25.1734C27.8116 25.2102 27.8059 25.2495 27.8086 25.2887C27.8036 25.3309 27.8081 25.3737 27.8216 25.414C27.8352 25.4542 27.8575 25.491 27.887 25.5215C27.9165 25.552 27.9525 25.5755 27.9922 25.5903C28.0319 25.6051 28.0743 25.6108 28.1165 25.607V25.607Z" fill="#00659E"/>
</g>
<defs>
<filter id="filter0_d_1097_1808" x="0" y="0" width="56" height="56.1523" filterUnits="userSpaceOnUse" color-interpolation-filters="sRGB">
<feFlood flood-opacity="0" result="BackgroundImageFix"/>
<feColorMatrix in="SourceAlpha" type="matrix" values="0 0 0 0 0 0 0 0 0 0 0 0 0 0 0 0 0 0 127 0" result="hardAlpha"/>
<feOffset dx="1" dy="1"/>
<feGaussianBlur stdDeviation="5"/>
<feComposite in2="hardAlpha" operator="out"/>
<feColorMatrix type="matrix" values="0 0 0 0 0 0 0 0 0 0 0 0 0 0 0 0 0 0 0.15 0"/>
<feBlend mode="normal" in2="BackgroundImageFix" result="effect1_dropShadow_1097_1808"/>
<feBlend mode="normal" in="SourceGraphic" in2="effect1_dropShadow_1097_1808" result="shape"/>
</filter>
<clipPath id="clip0_1097_1808">
<rect width="28" height="28.1186" fill="white" transform="translate(13 13.0171)"/>
</clipPath>
</defs>
</svg>
