<svg width="204" height="205" viewBox="0 0 204 205" fill="none" xmlns="http://www.w3.org/2000/svg">
<path d="M131.484 0C132.812 0.319647 134.141 0.639293 135.469 0.95894C148.697 4.52833 157.781 16.302 157.781 30.1001C157.834 63.7695 157.781 97.4922 157.781 131.162C157.781 132.653 158.259 133.719 159.216 134.891C169.681 147.357 172.762 161.475 167.184 176.818C161.659 192.108 150.344 201.271 134.353 204.041C117.194 207.024 99.7687 198.234 91.2687 182.838C82.7156 167.228 84.8406 148.156 96.7937 134.731C97.6969 133.719 98.0687 132.76 98.0687 131.375C98.0156 97.8651 98.0156 64.4088 98.0687 30.8992C98.0687 15.0234 108.056 3.08992 123.675 0.319647C123.941 0.266372 124.153 0.106549 124.366 0C126.703 0 129.094 0 131.484 0ZM145.828 82.5221C145.828 80.5509 145.828 78.5265 145.828 76.5554C145.828 61.0525 145.881 45.5496 145.828 29.9935C145.775 18.5395 135.522 10.1754 124.472 12.3597C115.812 14.0644 109.969 21.363 109.969 30.5795C109.969 64.9948 109.916 99.4101 110.022 133.879C110.022 136.969 109.066 139.206 106.941 141.497C98.175 150.607 95.5719 161.422 100.141 173.302C104.656 185.075 113.634 191.575 126.172 192.481C138.762 193.439 150.291 186.088 155.337 174.58C160.384 163.126 157.728 149.808 148.537 141.017C146.678 139.206 145.828 137.235 145.881 134.678C145.881 117.257 145.828 99.8896 145.828 82.5221Z" fill="#BEBCDD"/>
<path d="M25.7656 44.6972C24.1187 46.4553 22.525 48.2134 20.825 49.8649C18.1687 52.4753 14.5562 52.5819 12.1125 50.1312C9.66874 47.6806 9.77499 44.0579 12.3781 41.3942C17.4781 36.2266 22.5781 31.1123 27.7312 25.9979C30.5469 23.2276 33.9469 23.1744 36.7094 25.8914C41.9156 31.0057 47.0687 36.2266 52.2219 41.4475C54.825 44.1112 54.825 47.7872 52.3812 50.1845C49.9375 52.5819 46.325 52.4753 43.6687 49.8116C41.9687 48.1601 40.375 46.402 38.7812 44.6972C38.6219 44.8038 38.4094 44.8571 38.25 44.9636C38.25 45.6562 38.25 46.3488 38.25 47.0413C38.25 65.1546 38.25 83.2679 38.25 101.328C38.25 106.123 34 109.213 29.9094 107.348C27.4125 106.229 26.2969 104.205 26.2969 101.435C26.2969 91.7386 26.2969 81.9893 26.2969 72.2934C26.2969 63.8228 26.2969 55.4054 26.2969 46.9348C26.2969 46.2955 26.2969 45.6562 26.2969 44.9636C26.1375 44.9103 25.925 44.8038 25.7656 44.6972Z" fill="#FF7D47"/>
<path d="M50.2031 134.838C50.2031 134.145 50.2031 133.399 50.2031 132.707C50.2031 114.593 50.2031 96.48 50.2031 78.42C50.2031 75.703 51.3187 73.6785 53.8156 72.5065C55.9937 71.4943 58.5437 71.9738 60.2969 73.6253C61.7844 75.0637 62.2094 76.875 62.2094 78.8994C62.1562 96.8529 62.2094 114.86 62.2094 132.813C62.2094 133.506 62.2094 134.198 62.2094 135.583C64.2281 133.506 65.8219 131.854 67.4156 130.203C70.2844 127.379 73.95 127.219 76.3937 129.777C78.8375 132.28 78.6781 135.85 75.9156 138.673C70.9219 143.734 65.875 148.795 60.8281 153.803C57.8531 156.733 54.5062 156.733 51.5312 153.803C46.4844 148.795 41.4906 143.734 36.4437 138.673C33.6812 135.903 33.5219 132.28 35.9656 129.777C38.4094 127.273 42.075 127.379 44.8375 130.149C46.4844 131.801 48.0781 133.452 49.725 135.157C49.8844 134.944 50.0437 134.891 50.2031 134.838Z" fill="#8BB9FF"/>
<path d="M181.634 35.9602C179.669 35.9602 177.65 36.0135 175.684 35.9602C172.338 35.8537 169.734 33.2432 169.734 29.9935C169.734 26.7438 172.284 24.08 175.631 24.0268C179.669 23.9735 183.706 23.9202 187.744 24.0268C191.091 24.08 193.641 26.797 193.587 30.1C193.534 33.2965 191.037 35.8537 187.744 36.0135C185.778 36.0135 183.706 35.9602 181.634 35.9602Z" fill="#453D81"/>
<path d="M181.687 83.9072C179.722 83.9072 177.703 83.9605 175.737 83.9072C172.337 83.8007 169.787 81.2435 169.734 77.9938C169.681 74.6375 172.337 72.027 175.844 71.9738C179.775 71.9205 183.653 71.9205 187.584 71.9738C191.091 72.027 193.694 74.6375 193.694 77.9938C193.641 81.3501 191.037 83.854 187.531 83.9072C185.512 83.9605 183.6 83.9072 181.687 83.9072Z" fill="#453D81"/>
<path d="M181.687 119.867C183.653 119.867 185.672 119.814 187.638 119.867C191.038 119.974 193.587 122.531 193.587 125.834C193.587 129.084 191.037 131.801 187.691 131.854C183.653 131.961 179.616 131.961 175.578 131.854C172.231 131.801 169.681 129.084 169.681 125.834C169.734 122.584 172.284 120.027 175.684 119.921C177.703 119.814 179.722 119.867 181.687 119.867Z" fill="#453D81"/>
<path d="M178.659 47.947C179.722 47.947 180.784 47.8937 181.847 47.947C185.087 48.1068 187.638 50.664 187.638 53.8604C187.691 57.0036 185.194 59.7206 181.953 59.8805C179.775 59.987 177.597 59.987 175.419 59.8805C172.178 59.7206 169.681 57.0569 169.734 53.8604C169.734 50.7173 172.231 48.1068 175.472 47.8937C176.534 47.8937 177.597 47.947 178.659 47.947Z" fill="#453D81"/>
<path d="M178.819 95.894C179.881 95.894 180.944 95.8407 182.006 95.894C185.141 96.1071 187.584 98.6642 187.638 101.754C187.691 104.897 185.247 107.668 182.006 107.827C179.775 107.934 177.491 107.934 175.259 107.827C172.125 107.668 169.734 105.004 169.681 101.914C169.681 98.7708 172.178 96.1071 175.419 95.9473C176.588 95.8407 177.703 95.894 178.819 95.894Z" fill="#453D81"/>
<path d="M133.875 111.29C133.875 122.158 133.875 132.973 133.875 143.841C133.875 145.12 134.141 145.759 135.416 146.345C143.756 150.181 147.794 159.557 144.925 168.241C142.162 176.711 133.45 181.932 124.684 180.281C115.706 178.629 109.384 170.691 110.022 161.475C110.5 154.709 113.847 149.648 119.903 146.611C121.603 145.759 121.922 144.853 121.922 143.148C121.869 121.572 121.869 99.9961 121.922 78.42C121.922 73.5187 126.278 70.4821 130.422 72.4532C132.919 73.6253 133.875 75.7562 133.875 78.4732C133.875 89.4478 133.875 100.369 133.875 111.29ZM127.872 156.627C124.631 156.627 121.922 159.344 121.922 162.594C121.922 165.843 124.578 168.56 127.819 168.614C131.113 168.667 133.928 165.843 133.875 162.54C133.822 159.291 131.113 156.627 127.872 156.627Z" fill="#FF405C"/>
</svg>
