<svg width="56" height="57" viewBox="0 0 56 57" fill="none" xmlns="http://www.w3.org/2000/svg">
<g filter="url(#filter0_d_1097_1916)">
<rect x="9" y="9" width="36" height="36.1525" rx="4" fill="#FAFDFF"/>
<rect x="9.2" y="9.2" width="35.6" height="35.7525" rx="3.8" stroke="#00659E" stroke-width="0.4"/>
</g>
<g clip-path="url(#clip0_1097_1916)">
<path d="M29.5469 29.4973C29.4839 29.443 29.4339 29.3734 29.4014 29.2943C29.3688 29.2152 29.3545 29.1289 29.3598 29.0427C29.3598 25.0623 29.3598 21.0826 29.3598 17.1034C29.3687 16.756 29.3439 16.4086 29.2856 16.0667C28.9636 14.4389 28.0599 13.3267 26.5881 12.8326C25.1162 12.3385 23.7792 12.6978 22.658 13.837C22.2642 14.2366 21.9537 14.72 21.7466 15.2558C21.5395 15.7916 21.4405 16.3678 21.4559 16.9471C21.4559 20.985 21.4559 25.021 21.4559 29.0553C21.4633 29.1369 21.4519 29.2193 21.4225 29.2951C21.3931 29.3709 21.3466 29.4379 21.2873 29.4901C19.4631 31.2114 18.6757 33.3675 19.1225 35.926C19.5963 38.6427 21.1457 40.4035 23.6123 41.2677C23.9613 41.3899 24.3305 41.4024 24.6728 41.539H26.0502C26.2593 41.442 26.4886 41.4653 26.7061 41.4096C29.2721 40.7359 30.9868 39.0739 31.619 36.3285C32.2412 33.6424 31.474 31.3461 29.5469 29.4973ZM20.6989 35.705C20.3499 33.5723 21.0108 31.8456 22.6243 30.5412C22.7686 30.4348 22.8853 30.2912 22.9634 30.1237C23.0416 29.9562 23.0786 29.7704 23.0711 29.5835C23.0711 25.3792 23.0711 21.1748 23.0711 16.9705C23.0711 15.7666 23.6477 14.8539 24.6306 14.4856C24.9795 14.3512 25.3534 14.3076 25.7212 14.3586C26.089 14.4095 26.4401 14.5533 26.7452 14.7782C27.0502 15.0031 27.3004 15.3024 27.4748 15.6513C27.6493 16.0001 27.743 16.3883 27.748 16.7836C27.7649 18.9199 27.748 21.0544 27.748 23.189C27.748 25.3145 27.748 27.44 27.748 29.5656C27.7396 29.7568 27.7771 29.9471 27.857 30.1185C27.937 30.2898 28.0568 30.4366 28.2049 30.5448C29.7594 31.8025 30.4641 33.4753 30.1438 35.5199C29.8066 37.7281 28.5303 39.1422 26.4903 39.6991C23.9023 40.4107 21.1575 38.5025 20.6989 35.705Z" fill="#00659E"/>
<path d="M34.1013 26.1411C33.3426 26.1411 32.585 26.1411 31.8286 26.1411C31.3076 26.1411 30.935 26.5005 30.9317 26.9982C30.9283 27.4959 31.3043 27.8552 31.8235 27.8606C32.2029 27.8606 32.5806 27.8606 32.9599 27.8606H34.0963C34.6257 27.8606 34.9915 27.5138 34.9999 27.0179C35.0084 26.522 34.6391 26.1447 34.1013 26.1411Z" fill="#00659E"/>
<path d="M31.8127 17.6981C32.1904 17.6981 32.5697 17.6981 32.9474 17.6981C33.3251 17.6981 33.723 17.6981 34.1107 17.6981C34.6351 17.6981 34.9959 17.3388 34.9942 16.8339C34.9925 16.329 34.6233 15.9823 34.1006 15.9805C33.3442 15.9805 32.5872 15.9805 31.8296 15.9805C31.3069 15.9805 30.9343 16.3398 30.9259 16.8303C30.9175 17.3208 31.3069 17.6892 31.8127 17.6981Z" fill="#00659E"/>
<path d="M31.8252 21.0849C32.5923 21.0849 33.3578 21.0849 34.1232 21.0849C34.6442 21.0849 35.0067 20.7129 34.9999 20.2134C34.9932 19.714 34.6307 19.3726 34.1249 19.3672C33.7371 19.3672 33.351 19.3672 32.9632 19.3672C32.5755 19.3672 32.2062 19.3672 31.8269 19.3672C31.3076 19.3672 30.9333 19.7265 30.9316 20.226C30.93 20.7255 31.3059 21.0813 31.8252 21.0849Z" fill="#00659E"/>
<path d="M34.1182 22.7544C33.3511 22.7544 32.5856 22.7544 31.8185 22.7544C31.3009 22.7544 30.9266 23.1317 30.9317 23.6222C30.9367 24.1127 31.3043 24.4649 31.8067 24.4721C32.1945 24.4721 32.5823 24.4721 32.97 24.4721C33.3578 24.4721 33.727 24.4721 34.1047 24.4721C34.6307 24.4721 34.9966 24.1127 35 23.6186C35.0033 23.1245 34.6375 22.758 34.1182 22.7544Z" fill="#00659E"/>
<path d="M28.6341 35.0477C28.8027 33.5025 27.8619 31.9537 26.4305 31.4434C26.2619 31.3859 26.2029 31.3231 26.2029 31.1218C26.213 29.3071 26.2029 27.4906 26.2029 25.6759V23.6726C26.2029 22.5262 26.2029 21.3781 26.2029 20.23C26.2068 20.0887 26.1773 19.9487 26.1172 19.8227C26.0571 19.6966 25.9683 19.5887 25.8589 19.5088C25.7495 19.4289 25.623 19.3795 25.4911 19.3652C25.3591 19.3509 25.2259 19.3721 25.1036 19.4269C24.7513 19.5904 24.608 19.8958 24.6096 20.3073C24.6096 23.9007 24.6096 27.5122 24.6096 31.1128C24.6096 31.2925 24.5692 31.3823 24.3905 31.4434C23.63 31.7108 22.9893 32.2686 22.5918 33.0094C22.1943 33.7502 22.068 34.6215 22.2374 35.4555C22.4143 36.2839 22.869 37.0149 23.516 37.5112C24.163 38.0075 24.9578 38.2349 25.7511 38.1506C26.4913 38.0604 27.1805 37.7038 27.7047 37.1395C28.2289 36.5753 28.5568 35.8374 28.6341 35.0477ZM25.4054 36.4581C24.9742 36.4498 24.5628 36.2631 24.2583 35.9376C23.9538 35.6121 23.7799 35.1731 23.7734 34.7135C23.7786 34.2539 23.9515 33.8145 24.2555 33.4885C24.5596 33.1625 24.9708 32.9754 25.402 32.9671C25.8335 32.9702 26.2468 33.1526 26.554 33.4753C26.8613 33.7981 27.0384 34.2358 27.0476 34.6955C27.0463 35.1604 26.8732 35.606 26.5659 35.9359C26.2585 36.2658 25.8416 36.4534 25.4054 36.4581V36.4581Z" fill="#00659E"/>
</g>
<defs>
<filter id="filter0_d_1097_1916" x="0" y="0" width="56" height="56.1523" filterUnits="userSpaceOnUse" color-interpolation-filters="sRGB">
<feFlood flood-opacity="0" result="BackgroundImageFix"/>
<feColorMatrix in="SourceAlpha" type="matrix" values="0 0 0 0 0 0 0 0 0 0 0 0 0 0 0 0 0 0 127 0" result="hardAlpha"/>
<feOffset dx="1" dy="1"/>
<feGaussianBlur stdDeviation="5"/>
<feComposite in2="hardAlpha" operator="out"/>
<feColorMatrix type="matrix" values="0 0 0 0 0 0 0 0 0 0 0 0 0 0 0 0 0 0 0.15 0"/>
<feBlend mode="normal" in2="BackgroundImageFix" result="effect1_dropShadow_1097_1916"/>
<feBlend mode="normal" in="SourceGraphic" in2="effect1_dropShadow_1097_1916" result="shape"/>
</filter>
<clipPath id="clip0_1097_1916">
<rect width="16" height="28.922" fill="white" transform="translate(19 12.6152)"/>
</clipPath>
</defs>
</svg>
