<svg width="56" height="57" viewBox="0 0 56 57" fill="none" xmlns="http://www.w3.org/2000/svg">
<g filter="url(#filter0_d_39_163)">
<rect x="8" y="8" width="40" height="41" rx="10" fill="white"/>
<path d="M20.009 18.3875C20.009 17.4289 19.3363 17.0631 19 17H36.1581C35.2503 17 35.1535 17.925 35.2185 18.3875V38.9573C35.2185 39.6819 34.5234 39.9544 34.1758 40H21.3181C20.1162 40 19.9446 39.1273 20.009 38.6909V18.3875Z" fill="#A7FFBB"/>
<path d="M19 17C19.3363 17.0631 20.009 17.4289 20.009 18.3875C20.009 19.3461 20.009 32.3225 20.009 38.6909C19.9446 39.1273 20.1162 40 21.3181 40C22.5201 40 30.3907 40 34.1758 40C34.5234 39.9544 35.2185 39.6819 35.2185 38.9573C35.2185 38.2327 35.2185 24.9421 35.2185 18.3875C35.1535 17.925 35.2503 17 36.1581 17C37.0658 17 39.4863 17 40.5831 17H19Z" stroke="#91ADBA" stroke-width="1.25119"/>
<circle cx="24.0459" cy="36.0551" r="0.700773" fill="#316D3E"/>
<circle cx="27.8297" cy="36.0551" r="0.700773" fill="#316D3E"/>
<circle cx="31.0251" cy="36.0551" r="0.700773" fill="#316D3E"/>
<rect x="23.8276" y="31.8778" width="0.43646" height="3.09853" rx="0.21823" fill="#316D3E"/>
<rect x="27.6115" y="30.5305" width="0.43646" height="4.44578" rx="0.21823" fill="#316D3E"/>
<rect x="30.8068" y="29.6167" width="0.43646" height="5.35954" rx="0.21823" fill="#316D3E"/>
<rect x="23.8276" y="30.2987" width="0.43646" height="1.30661" rx="0.21823" fill="#316D3E"/>
<rect x="27.6115" y="28.2648" width="0.43646" height="1.87473" rx="0.21823" fill="#316D3E"/>
<rect x="30.8068" y="26.8854" width="0.43646" height="2.26005" rx="0.21823" fill="#316D3E"/>
<rect x="23.8276" y="28.9845" width="0.43646" height="0.765304" rx="0.21823" fill="#316D3E"/>
<rect x="27.6115" y="26.3793" width="0.43646" height="1.09806" rx="0.21823" fill="#316D3E"/>
<rect x="30.8068" y="24.6123" width="0.43646" height="1.32375" rx="0.21823" fill="#316D3E"/>
<rect x="23.8276" y="27.8646" width="0.43646" height="0.615974" rx="0.21823" fill="#316D3E"/>
<rect x="27.6115" y="24.7723" width="0.43646" height="0.8838" rx="0.21823" fill="#316D3E"/>
<rect x="30.8068" y="22.6752" width="0.43646" height="1.06545" rx="0.21823" fill="#316D3E"/>
<rect x="27.6115" y="23.2554" width="0.43646" height="0.635535" rx="0.21823" fill="#316D3E"/>
<rect x="30.8068" y="20.8463" width="0.43646" height="0.766158" rx="0.21823" fill="#316D3E"/>
<rect x="30.8068" y="19.5227" width="0.43646" height="0.530948" rx="0.21823" fill="#D9D9D9"/>
<rect x="8.75" y="8.75" width="38.5" height="39.5" rx="9.25" stroke="#2F6078" stroke-width="1.5"/>
</g>
<defs>
<filter id="filter0_d_39_163" x="0" y="0" width="56" height="57" filterUnits="userSpaceOnUse" color-interpolation-filters="sRGB">
<feFlood flood-opacity="0" result="BackgroundImageFix"/>
<feColorMatrix in="SourceAlpha" type="matrix" values="0 0 0 0 0 0 0 0 0 0 0 0 0 0 0 0 0 0 127 0" result="hardAlpha"/>
<feOffset/>
<feGaussianBlur stdDeviation="4"/>
<feComposite in2="hardAlpha" operator="out"/>
<feColorMatrix type="matrix" values="0 0 0 0 0 0 0 0 0 0 0 0 0 0 0 0 0 0 0.25 0"/>
<feBlend mode="normal" in2="BackgroundImageFix" result="effect1_dropShadow_39_163"/>
<feBlend mode="normal" in="SourceGraphic" in2="effect1_dropShadow_39_163" result="shape"/>
</filter>
</defs>
</svg>
